<?xml version="1.0" encoding="UTF-8" standalone="no"?>
<!DOCTYPE svg PUBLIC "-//W3C//DTD SVG 1.1//EN"
 "http://www.w3.org/Graphics/SVG/1.1/DTD/svg11.dtd">
<!-- Generated by graphviz version 2.26.3 (20100126.1600)
 -->
<!-- Title: G Pages: 1 -->
<svg width="300pt" height="110pt"
 viewBox="0.00 0.00 300.00 110.00" xmlns="http://www.w3.org/2000/svg" xmlns:xlink="http://www.w3.org/1999/xlink">
<g id="graph1" class="graph" transform="scale(1 1) rotate(0) translate(4 106)">
<title>G</title>
<!-- Node1 -->
<g id="node1" class="node"><title>Node1</title>
<polygon fill="#bfbfbf" stroke="black" points="0,-40.5 0,-61.5 114,-61.5 114,-40.5 0,-40.5"/>
<text text-anchor="middle" x="57" y="-48.5" font-family="Helvetica,sans-Serif" font-size="10.00">JackAdapter::instance</text>
</g>
<!-- Node2 -->
<g id="node3" class="node"><title>Node2</title>
<a xlink:href="../../d6/d1a/classMainWindow.html#ae9a24152987af97d19e1af8ea6bd064e" target="_top" xlink:title="MainWindow::closeEvent">
<polygon fill="none" stroke="black" points="157,-80.5 157,-101.5 285,-101.5 285,-80.5 157,-80.5"/>
<text text-anchor="middle" x="221" y="-88.5" font-family="Helvetica,sans-Serif" font-size="10.00">MainWindow::closeEvent</text>
</a>
</g>
<!-- Node1&#45;&gt;Node2 -->
<g id="edge2" class="edge"><title>Node1&#45;&gt;Node2</title>
<path fill="none" stroke="midnightblue" d="M109.935,-63.911C131.914,-69.2718 157.093,-75.413 177.914,-80.4913"/>
<polygon fill="midnightblue" stroke="midnightblue" points="110.634,-60.4788 100.089,-61.5095 108.975,-67.2795 110.634,-60.4788"/>
</g>
<!-- Node3 -->
<g id="node5" class="node"><title>Node3</title>
<a xlink:href="../../d2/dd5/classEarProcessor.html#a10ffc09e660dfa8debb698ca769c0510" target="_top" xlink:title="EarProcessor::EarProcessor">
<polygon fill="none" stroke="black" points="150.5,-40.5 150.5,-61.5 291.5,-61.5 291.5,-40.5 150.5,-40.5"/>
<text text-anchor="middle" x="221" y="-48.5" font-family="Helvetica,sans-Serif" font-size="10.00">EarProcessor::EarProcessor</text>
</a>
</g>
<!-- Node1&#45;&gt;Node3 -->
<g id="edge4" class="edge"><title>Node1&#45;&gt;Node3</title>
<path fill="none" stroke="midnightblue" d="M124.609,-51C133.12,-51 141.845,-51 150.401,-51"/>
<polygon fill="midnightblue" stroke="midnightblue" points="124.359,-47.5001 114.359,-51 124.359,-54.5001 124.359,-47.5001"/>
</g>
<!-- Node4 -->
<g id="node7" class="node"><title>Node4</title>
<a xlink:href="../../d6/d1a/classMainWindow.html#a8b244be8b7b7db1b08de2a2acb9409db" target="_top" xlink:title="MainWindow::MainWindow">
<polygon fill="none" stroke="black" points="153.5,-0.5 153.5,-21.5 288.5,-21.5 288.5,-0.5 153.5,-0.5"/>
<text text-anchor="middle" x="221" y="-8.5" font-family="Helvetica,sans-Serif" font-size="10.00">MainWindow::MainWindow</text>
</a>
</g>
<!-- Node1&#45;&gt;Node4 -->
<g id="edge6" class="edge"><title>Node1&#45;&gt;Node4</title>
<path fill="none" stroke="midnightblue" d="M109.935,-38.089C131.914,-32.7282 157.093,-26.587 177.914,-21.5087"/>
<polygon fill="midnightblue" stroke="midnightblue" points="108.975,-34.7205 100.089,-40.4905 110.634,-41.5212 108.975,-34.7205"/>
</g>
</g>
</svg>
