<?xml version="1.0" encoding="UTF-8" standalone="no"?>
<!DOCTYPE svg PUBLIC "-//W3C//DTD SVG 1.1//EN"
 "http://www.w3.org/Graphics/SVG/1.1/DTD/svg11.dtd">
<!-- Generated by graphviz version 2.26.3 (20100126.1600)
 -->
<!-- Title: G Pages: 1 -->
<svg width="460pt" height="110pt"
 viewBox="0.00 0.00 460.00 110.00" xmlns="http://www.w3.org/2000/svg" xmlns:xlink="http://www.w3.org/1999/xlink">
<g id="graph1" class="graph" transform="scale(1 1) rotate(0) translate(4 106)">
<title>G</title>
<!-- Node1 -->
<g id="node1" class="node"><title>Node1</title>
<polygon fill="#bfbfbf" stroke="black" points="0.5,-40.5 0.5,-61.5 135.5,-61.5 135.5,-40.5 0.5,-40.5"/>
<text text-anchor="middle" x="68" y="-48.5" font-family="Helvetica,sans-Serif" font-size="10.00">MainWindow::MainWindow</text>
</g>
<!-- Node2 -->
<g id="node3" class="node"><title>Node2</title>
<a xlink:href="../../d7/d2c/classJackAdapter.html#a431136befd01cac7ecbdf19099075b4d" target="_top" xlink:title="JackAdapter::instance">
<polygon fill="none" stroke="black" points="200,-80.5 200,-101.5 314,-101.5 314,-80.5 200,-80.5"/>
<text text-anchor="middle" x="257" y="-88.5" font-family="Helvetica,sans-Serif" font-size="10.00">JackAdapter::instance</text>
</a>
</g>
<!-- Node1&#45;&gt;Node2 -->
<g id="edge2" class="edge"><title>Node1&#45;&gt;Node2</title>
<path fill="none" stroke="midnightblue" d="M117.658,-61.5095C142.085,-66.6795 171.718,-72.9508 197.365,-78.3788"/>
<polygon fill="midnightblue" stroke="midnightblue" points="196.838,-81.8448 207.346,-80.4913 198.288,-74.9965 196.838,-81.8448"/>
</g>
<!-- Node3 -->
<g id="node5" class="node"><title>Node3</title>
<a xlink:href="../../d7/d2c/classJackAdapter.html#a69d25a5529343586d8c8f3c2b5b32be1" target="_top" xlink:title="JackAdapter::setProcessor">
<polygon fill="none" stroke="black" points="189.5,-40.5 189.5,-61.5 324.5,-61.5 324.5,-40.5 189.5,-40.5"/>
<text text-anchor="middle" x="257" y="-48.5" font-family="Helvetica,sans-Serif" font-size="10.00">JackAdapter::setProcessor</text>
</a>
</g>
<!-- Node1&#45;&gt;Node3 -->
<g id="edge4" class="edge"><title>Node1&#45;&gt;Node3</title>
<path fill="none" stroke="midnightblue" d="M135.7,-51C149.763,-51 164.69,-51 179.086,-51"/>
<polygon fill="midnightblue" stroke="midnightblue" points="179.456,-54.5001 189.456,-51 179.456,-47.5001 179.456,-54.5001"/>
</g>
<!-- Node4 -->
<g id="node7" class="node"><title>Node4</title>
<a xlink:href="../../d7/d2c/classJackAdapter.html#ada1468e1b1b4f853d017c480e6b989a4" target="_top" xlink:title="JackAdapter::startAudioProcessing">
<polygon fill="none" stroke="black" points="172,-0.5 172,-21.5 342,-21.5 342,-0.5 172,-0.5"/>
<text text-anchor="middle" x="257" y="-8.5" font-family="Helvetica,sans-Serif" font-size="10.00">JackAdapter::startAudioProcessing</text>
</a>
</g>
<!-- Node1&#45;&gt;Node4 -->
<g id="edge6" class="edge"><title>Node1&#45;&gt;Node4</title>
<path fill="none" stroke="midnightblue" d="M117.658,-40.4905C142.085,-35.3205 171.718,-29.0492 197.365,-23.6212"/>
<polygon fill="midnightblue" stroke="midnightblue" points="198.288,-27.0035 207.346,-21.5087 196.838,-20.1552 198.288,-27.0035"/>
</g>
<!-- Node5 -->
<g id="node9" class="node"><title>Node5</title>
<a xlink:href="../../df/d89/jack_8h.html#a9800d5b29bd7670d9944a15f6ea0ecf8" target="_top" xlink:title="jack_activate">
<polygon fill="none" stroke="black" points="378,-0.5 378,-21.5 452,-21.5 452,-0.5 378,-0.5"/>
<text text-anchor="middle" x="415" y="-8.5" font-family="Helvetica,sans-Serif" font-size="10.00">jack_activate</text>
</a>
</g>
<!-- Node4&#45;&gt;Node5 -->
<g id="edge8" class="edge"><title>Node4&#45;&gt;Node5</title>
<path fill="none" stroke="midnightblue" d="M342.012,-11C350.846,-11 359.579,-11 367.765,-11"/>
<polygon fill="midnightblue" stroke="midnightblue" points="367.809,-14.5001 377.809,-11 367.809,-7.5001 367.809,-14.5001"/>
</g>
</g>
</svg>
