<?xml version="1.0" encoding="UTF-8" standalone="no"?>
<!DOCTYPE svg PUBLIC "-//W3C//DTD SVG 1.1//EN"
 "http://www.w3.org/Graphics/SVG/1.1/DTD/svg11.dtd">
<!-- Generated by graphviz version 2.26.3 (20100126.1600)
 -->
<!-- Title: G Pages: 1 -->
<!--zoomable 494 -->
<svg id="main" version="1.1" xmlns="http://www.w3.org/2000/svg" xmlns:xlink="http://www.w3.org/1999/xlink" xml:space="preserve" onload="init(evt)">
        <defs>
                <circle id="rim" cx="0" cy="0" r="7"/>
                <circle id="rim2" cx="0" cy="0" r="3.5"/>
                <g id="zoomPlus">
                        <use xlink:href="#rim" fill="#404040">
                                <set attributeName="fill" to="#808080" begin="zoomplus.mouseover" end="zoomplus.mouseout"/>
                        </use>
                        <path d="M-4,0h8M0,-4v8" fill="none" stroke="white" stroke-width="1.5" pointer-events="none"/>
                </g>
                <g id="zoomMin">
                        <use xlink:href="#rim" fill="#404040">
                                <set attributeName="fill" to="#808080" begin="zoomminus.mouseover" end="zoomminus.mouseout"/>
                        </use>
                        <path d="M-4,0h8" fill="none" stroke="white" stroke-width="1.5" pointer-events="none"/>
                </g>
                <g id="dirArrow">
                        <path fill="none" stroke="white" stroke-width="1.5" d="M0,-3.0v7 M-2.5,-0.5L0,-3.0L2.5,-0.5"/>
                </g>
               <g id="resetDef">
                       <use xlink:href="#rim2" fill="#404040">
                               <set attributeName="fill" to="#808080" begin="reset.mouseover" end="reset.mouseout"/>
                       </use>
               </g>
        </defs>

<script type="text/javascript">
var viewWidth = 815;
var viewHeight = 494;
var sectionId = 'dynsection-0';
</script>
<script xlink:href="../../svgpan.js"/>
<svg id="graph" class="graph">
<g id="viewport">
<title>G</title>
<!-- Node1 -->
<g id="node1" class="node"><title>Node1</title>
<polygon fill="#bfbfbf" stroke="black" points="163,-464.5 163,-485.5 307,-485.5 307,-464.5 163,-464.5"/>
<text text-anchor="middle" x="235" y="-472.5" font-family="Helvetica,sans-Serif" font-size="10.00">gui/include/visualizerwidget.h</text>
</g>
<!-- Node2 -->
<g id="node3" class="node"><title>Node2</title>
<polygon fill="none" stroke="#bfbfbf" points="16,-406.5 16,-427.5 84,-427.5 84,-406.5 16,-406.5"/>
<text text-anchor="middle" x="50" y="-414.5" font-family="Helvetica,sans-Serif" font-size="10.00">QGLWidget</text>
</g>
<!-- Node1&#45;&gt;Node2 -->
<g id="edge2" class="edge"><title>Node1&#45;&gt;Node2</title>
<path fill="none" stroke="midnightblue" d="M201.498,-464.497C171.207,-455 126.43,-440.962 93.4071,-430.609"/>
<polygon fill="midnightblue" stroke="midnightblue" points="94.1541,-427.175 83.5649,-427.523 92.0599,-433.854 94.1541,-427.175"/>
</g>
<!-- Node3 -->
<g id="node5" class="node"><title>Node3</title>
<polygon fill="none" stroke="#bfbfbf" points="101.5,-406.5 101.5,-427.5 178.5,-427.5 178.5,-406.5 101.5,-406.5"/>
<text text-anchor="middle" x="140" y="-414.5" font-family="Helvetica,sans-Serif" font-size="10.00">QWheelEvent</text>
</g>
<!-- Node1&#45;&gt;Node3 -->
<g id="edge4" class="edge"><title>Node1&#45;&gt;Node3</title>
<path fill="none" stroke="midnightblue" d="M217.576,-464.362C203.113,-455.532 182.331,-442.844 165.916,-432.822"/>
<polygon fill="midnightblue" stroke="midnightblue" points="167.673,-429.794 157.314,-427.571 164.025,-435.769 167.673,-429.794"/>
</g>
<!-- Node4 -->
<g id="node7" class="node"><title>Node4</title>
<polygon fill="none" stroke="#bfbfbf" points="195.5,-406.5 195.5,-427.5 274.5,-427.5 274.5,-406.5 195.5,-406.5"/>
<text text-anchor="middle" x="235" y="-414.5" font-family="Helvetica,sans-Serif" font-size="10.00">QMouseEvent</text>
</g>
<!-- Node1&#45;&gt;Node4 -->
<g id="edge6" class="edge"><title>Node1&#45;&gt;Node4</title>
<path fill="none" stroke="midnightblue" d="M235,-464.362C235,-456.922 235,-446.743 235,-437.728"/>
<polygon fill="midnightblue" stroke="midnightblue" points="238.5,-437.571 235,-427.571 231.5,-437.571 238.5,-437.571"/>
</g>
<!-- Node5 -->
<g id="node9" class="node"><title>Node5</title>
<polygon fill="none" stroke="#bfbfbf" points="512,-232.5 512,-253.5 586,-253.5 586,-232.5 512,-232.5"/>
<text text-anchor="middle" x="549" y="-240.5" font-family="Helvetica,sans-Serif" font-size="10.00">QSemaphore</text>
</g>
<!-- Node1&#45;&gt;Node5 -->
<g id="edge8" class="edge"><title>Node1&#45;&gt;Node5</title>
<path fill="none" stroke="midnightblue" d="M306.608,-464.439C401.575,-448.8 561.275,-416.264 596,-370 602.294,-361.615 610.093,-326.106 595,-290 590.213,-278.547 581.195,-268.346 572.404,-260.398"/>
<polygon fill="midnightblue" stroke="midnightblue" points="574.426,-257.524 564.522,-253.761 569.917,-262.879 574.426,-257.524"/>
</g>
<!-- Node6 -->
<g id="node11" class="node"><title>Node6</title>
<a xlink:href="../../d2/de4/earprocessor_8h.html" target="_top" xlink:title="earprocessor.h">
<polygon fill="none" stroke="black" points="291.5,-406.5 291.5,-427.5 372.5,-427.5 372.5,-406.5 291.5,-406.5"/>
<text text-anchor="middle" x="332" y="-414.5" font-family="Helvetica,sans-Serif" font-size="10.00">earprocessor.h</text>
</a>
</g>
<!-- Node1&#45;&gt;Node6 -->
<g id="edge10" class="edge"><title>Node1&#45;&gt;Node6</title>
<path fill="none" stroke="midnightblue" d="M252.791,-464.362C267.559,-455.532 288.778,-442.844 305.538,-432.822"/>
<polygon fill="midnightblue" stroke="midnightblue" points="307.535,-435.707 314.321,-427.571 303.943,-429.699 307.535,-435.707"/>
</g>
<!-- Node6&#45;&gt;Node5 -->
<g id="edge86" class="edge"><title>Node6&#45;&gt;Node5</title>
<path fill="none" stroke="midnightblue" d="M351.097,-406.343C365.686,-397.669 385.805,-384.519 401,-370 433.134,-339.297 427.264,-318.934 461,-290 476.276,-276.898 495.815,-266.007 512.599,-258.019"/>
<polygon fill="midnightblue" stroke="midnightblue" points="514.479,-261.007 522.109,-253.657 511.561,-254.645 514.479,-261.007"/>
</g>
<!-- Node7 -->
<g id="node13" class="node"><title>Node7</title>
<a xlink:href="../../db/da1/jackadapter_8h.html" target="_top" xlink:title="jackadapter.h">
<polygon fill="none" stroke="black" points="228.5,-290.5 228.5,-311.5 303.5,-311.5 303.5,-290.5 228.5,-290.5"/>
<text text-anchor="middle" x="266" y="-298.5" font-family="Helvetica,sans-Serif" font-size="10.00">jackadapter.h</text>
</a>
</g>
<!-- Node6&#45;&gt;Node7 -->
<g id="edge12" class="edge"><title>Node6&#45;&gt;Node7</title>
<path fill="none" stroke="midnightblue" d="M291.2,-406.763C259.28,-397.831 218.722,-384.122 209,-370 195.817,-350.85 217.516,-330.515 237.825,-316.921"/>
<polygon fill="midnightblue" stroke="midnightblue" points="239.762,-319.837 246.338,-311.531 236.017,-313.923 239.762,-319.837"/>
</g>
<!-- Node18 -->
<g id="node39" class="node"><title>Node18</title>
<a xlink:href="../../d9/d99/processor_8h.html" target="_top" xlink:title="processor.h">
<polygon fill="none" stroke="black" points="60,-232.5 60,-253.5 128,-253.5 128,-232.5 60,-232.5"/>
<text text-anchor="middle" x="94" y="-240.5" font-family="Helvetica,sans-Serif" font-size="10.00">processor.h</text>
</a>
</g>
<!-- Node6&#45;&gt;Node18 -->
<g id="edge56" class="edge"><title>Node6&#45;&gt;Node18</title>
<path fill="none" stroke="midnightblue" d="M296.31,-406.497C263.193,-396.343 216.722,-380.932 201,-370 158.651,-340.554 123.235,-290.239 105.745,-262.605"/>
<polygon fill="midnightblue" stroke="midnightblue" points="108.563,-260.508 100.324,-253.847 102.611,-264.192 108.563,-260.508"/>
</g>
<!-- Node21 -->
<g id="node46" class="node"><title>Node21</title>
<polygon fill="none" stroke="#bfbfbf" points="-0.5,-232.5 -0.5,-253.5 42.5,-253.5 42.5,-232.5 -0.5,-232.5"/>
<text text-anchor="middle" x="21" y="-240.5" font-family="Helvetica,sans-Serif" font-size="10.00">QMap</text>
</g>
<!-- Node6&#45;&gt;Node21 -->
<g id="edge82" class="edge"><title>Node6&#45;&gt;Node21</title>
<path fill="none" stroke="midnightblue" d="M291.483,-407.128C251.247,-396.964 192.664,-381.088 172,-370 116.782,-340.37 63.3711,-288.232 37.3833,-260.887"/>
<polygon fill="midnightblue" stroke="midnightblue" points="39.9064,-258.461 30.5136,-253.559 34.7996,-263.248 39.9064,-258.461"/>
</g>
<!-- Node23 -->
<g id="node52" class="node"><title>Node23</title>
<a xlink:href="../../d6/def/digitalequalizer_8h.html" target="_top" xlink:title="digitalequalizer.h">
<polygon fill="none" stroke="black" points="287.5,-348.5 287.5,-369.5 376.5,-369.5 376.5,-348.5 287.5,-348.5"/>
<text text-anchor="middle" x="332" y="-356.5" font-family="Helvetica,sans-Serif" font-size="10.00">digitalequalizer.h</text>
</a>
</g>
<!-- Node6&#45;&gt;Node23 -->
<g id="edge58" class="edge"><title>Node6&#45;&gt;Node23</title>
<path fill="none" stroke="midnightblue" d="M332,-406.362C332,-398.922 332,-388.743 332,-379.728"/>
<polygon fill="midnightblue" stroke="midnightblue" points="335.5,-379.571 332,-369.571 328.5,-379.571 335.5,-379.571"/>
</g>
<!-- Node24 -->
<g id="node54" class="node"><title>Node24</title>
<polygon fill="none" stroke="#bfbfbf" points="360.5,-290.5 360.5,-311.5 413.5,-311.5 413.5,-290.5 360.5,-290.5"/>
<text text-anchor="middle" x="387" y="-298.5" font-family="Helvetica,sans-Serif" font-size="10.00">QVector</text>
</g>
<!-- Node6&#45;&gt;Node24 -->
<g id="edge80" class="edge"><title>Node6&#45;&gt;Node24</title>
<path fill="none" stroke="midnightblue" d="M350.294,-406.403C362.543,-398.192 377.711,-385.598 385,-370 391.966,-355.093 392.035,-336.329 390.602,-322.133"/>
<polygon fill="midnightblue" stroke="midnightblue" points="394.027,-321.337 389.233,-311.888 387.088,-322.264 394.027,-321.337"/>
</g>
<!-- Node25 -->
<g id="node58" class="node"><title>Node25</title>
<a xlink:href="../../de/de9/jnoise_8h.html" target="_top" xlink:title="jnoise.h">
<polygon fill="none" stroke="black" points="537,-348.5 537,-369.5 587,-369.5 587,-348.5 537,-348.5"/>
<text text-anchor="middle" x="562" y="-356.5" font-family="Helvetica,sans-Serif" font-size="10.00">jnoise.h</text>
</a>
</g>
<!-- Node6&#45;&gt;Node25 -->
<g id="edge66" class="edge"><title>Node6&#45;&gt;Node25</title>
<path fill="none" stroke="midnightblue" d="M372.59,-406.764C416.34,-395.732 485.271,-378.349 526.805,-367.875"/>
<polygon fill="midnightblue" stroke="midnightblue" points="527.901,-371.208 536.742,-365.369 526.19,-364.421 527.901,-371.208"/>
</g>
<!-- Node31 -->
<g id="node73" class="node"><title>Node31</title>
<polygon fill="none" stroke="#bfbfbf" points="217.5,-348.5 217.5,-369.5 270.5,-369.5 270.5,-348.5 217.5,-348.5"/>
<text text-anchor="middle" x="244" y="-356.5" font-family="Helvetica,sans-Serif" font-size="10.00">QDebug</text>
</g>
<!-- Node6&#45;&gt;Node31 -->
<g id="edge84" class="edge"><title>Node6&#45;&gt;Node31</title>
<path fill="none" stroke="midnightblue" d="M315.859,-406.362C302.586,-397.614 283.568,-385.079 268.43,-375.101"/>
<polygon fill="midnightblue" stroke="midnightblue" points="270.314,-372.151 260.038,-369.571 266.462,-377.996 270.314,-372.151"/>
</g>
<!-- Node7&#45;&gt;Node5 -->
<g id="edge54" class="edge"><title>Node7&#45;&gt;Node5</title>
<path fill="none" stroke="midnightblue" d="M303.759,-292.937C308.55,-291.936 313.388,-290.936 318,-290 397.043,-273.95 419.49,-271.883 502.054,-254.144"/>
<polygon fill="midnightblue" stroke="midnightblue" points="502.839,-257.555 511.874,-252.021 501.36,-250.713 502.839,-257.555"/>
</g>
<!-- Node8 -->
<g id="node15" class="node"><title>Node8</title>
<a xlink:href="../../df/d89/jack_8h.html" target="_top" xlink:title="jack/jack.h">
<polygon fill="none" stroke="black" points="266,-174.5 266,-195.5 330,-195.5 330,-174.5 266,-174.5"/>
<text text-anchor="middle" x="298" y="-182.5" font-family="Helvetica,sans-Serif" font-size="10.00">jack/jack.h</text>
</a>
</g>
<!-- Node7&#45;&gt;Node8 -->
<g id="edge14" class="edge"><title>Node7&#45;&gt;Node8</title>
<path fill="none" stroke="midnightblue" d="M268.958,-290.242C272.692,-276.667 279.315,-252.601 285,-232 287.38,-223.375 290.011,-213.861 292.28,-205.662"/>
<polygon fill="midnightblue" stroke="midnightblue" points="295.707,-206.398 295.002,-195.826 288.961,-204.53 295.707,-206.398"/>
</g>
<!-- Node13 -->
<g id="node28" class="node"><title>Node13</title>
<polygon fill="none" stroke="#bfbfbf" points="146,-232.5 146,-253.5 200,-253.5 200,-232.5 146,-232.5"/>
<text text-anchor="middle" x="173" y="-240.5" font-family="Helvetica,sans-Serif" font-size="10.00">iostream</text>
</g>
<!-- Node7&#45;&gt;Node13 -->
<g id="edge30" class="edge"><title>Node7&#45;&gt;Node13</title>
<path fill="none" stroke="midnightblue" d="M248.942,-290.362C234.915,-281.614 214.816,-269.079 198.818,-259.101"/>
<polygon fill="midnightblue" stroke="midnightblue" points="200.287,-255.893 189.949,-253.571 196.582,-261.832 200.287,-255.893"/>
</g>
<!-- Node14 -->
<g id="node30" class="node"><title>Node14</title>
<a xlink:href="../../d7/d55/fftwadapter_8h.html" target="_top" xlink:title="fftwadapter.h">
<polygon fill="none" stroke="black" points="294,-232.5 294,-253.5 368,-253.5 368,-232.5 294,-232.5"/>
<text text-anchor="middle" x="331" y="-240.5" font-family="Helvetica,sans-Serif" font-size="10.00">fftwadapter.h</text>
</a>
</g>
<!-- Node7&#45;&gt;Node14 -->
<g id="edge32" class="edge"><title>Node7&#45;&gt;Node14</title>
<path fill="none" stroke="midnightblue" d="M277.922,-290.362C287.359,-281.941 300.73,-270.011 311.69,-260.231"/>
<polygon fill="midnightblue" stroke="midnightblue" points="314.022,-262.84 319.154,-253.571 309.362,-257.617 314.022,-262.84"/>
</g>
<!-- Node7&#45;&gt;Node18 -->
<g id="edge42" class="edge"><title>Node7&#45;&gt;Node18</title>
<path fill="none" stroke="midnightblue" d="M234.852,-290.497C206.811,-281.041 165.418,-267.083 134.755,-256.743"/>
<polygon fill="midnightblue" stroke="midnightblue" points="135.8,-253.402 125.206,-253.523 133.564,-260.035 135.8,-253.402"/>
</g>
<!-- Node19 -->
<g id="node41" class="node"><title>Node19</title>
<polygon fill="none" stroke="#bfbfbf" points="147.5,-174.5 147.5,-195.5 200.5,-195.5 200.5,-174.5 147.5,-174.5"/>
<text text-anchor="middle" x="174" y="-182.5" font-family="Helvetica,sans-Serif" font-size="10.00">QObject</text>
</g>
<!-- Node7&#45;&gt;Node19 -->
<g id="edge46" class="edge"><title>Node7&#45;&gt;Node19</title>
<path fill="none" stroke="midnightblue" d="M257.51,-290.295C241.832,-270.527 208.167,-228.08 188.708,-203.544"/>
<polygon fill="midnightblue" stroke="midnightblue" points="191.426,-201.339 182.47,-195.679 185.941,-205.689 191.426,-201.339"/>
</g>
<!-- Node20 -->
<g id="node44" class="node"><title>Node20</title>
<polygon fill="none" stroke="#bfbfbf" points="386,-232.5 386,-253.5 436,-253.5 436,-232.5 386,-232.5"/>
<text text-anchor="middle" x="411" y="-240.5" font-family="Helvetica,sans-Serif" font-size="10.00">QString</text>
</g>
<!-- Node7&#45;&gt;Node20 -->
<g id="edge48" class="edge"><title>Node7&#45;&gt;Node20</title>
<path fill="none" stroke="midnightblue" d="M292.258,-290.497C315.85,-281.06 350.653,-267.139 376.487,-256.805"/>
<polygon fill="midnightblue" stroke="midnightblue" points="377.922,-260.001 385.907,-253.037 375.323,-253.501 377.922,-260.001"/>
</g>
<!-- Node7&#45;&gt;Node21 -->
<g id="edge50" class="edge"><title>Node7&#45;&gt;Node21</title>
<path fill="none" stroke="midnightblue" d="M228.324,-294.376C187.117,-286.777 119.026,-273.189 52.3387,-254.137"/>
<polygon fill="midnightblue" stroke="midnightblue" points="53.0924,-250.711 42.5132,-251.287 51.142,-257.434 53.0924,-250.711"/>
</g>
<!-- Node22 -->
<g id="node48" class="node"><title>Node22</title>
<polygon fill="none" stroke="#bfbfbf" points="454,-232.5 454,-253.5 494,-253.5 494,-232.5 454,-232.5"/>
<text text-anchor="middle" x="474" y="-240.5" font-family="Helvetica,sans-Serif" font-size="10.00">QList</text>
</g>
<!-- Node7&#45;&gt;Node22 -->
<g id="edge52" class="edge"><title>Node7&#45;&gt;Node22</title>
<path fill="none" stroke="midnightblue" d="M303.701,-292.329C338.092,-284.148 390.45,-271.016 444.134,-254.063"/>
<polygon fill="midnightblue" stroke="midnightblue" points="445.355,-257.347 453.815,-250.969 443.224,-250.68 445.355,-257.347"/>
</g>
<!-- Node9 -->
<g id="node17" class="node"><title>Node9</title>
<a xlink:href="../../d2/d07/systemdeps_8h.html" target="_top" xlink:title="jack/systemdeps.h">
<polygon fill="none" stroke="black" points="262.5,-0.5 262.5,-21.5 361.5,-21.5 361.5,-0.5 262.5,-0.5"/>
<text text-anchor="middle" x="312" y="-8.5" font-family="Helvetica,sans-Serif" font-size="10.00">jack/systemdeps.h</text>
</a>
</g>
<!-- Node8&#45;&gt;Node9 -->
<g id="edge16" class="edge"><title>Node8&#45;&gt;Node9</title>
<path fill="none" stroke="midnightblue" d="M286.38,-174.218C263.903,-152.005 218.581,-99.727 241,-58 248.39,-44.2456 261.769,-33.8401 274.936,-26.3616"/>
<polygon fill="midnightblue" stroke="midnightblue" points="276.706,-29.3856 283.942,-21.6465 273.459,-23.1841 276.706,-29.3856"/>
</g>
<!-- Node10 -->
<g id="node19" class="node"><title>Node10</title>
<a xlink:href="../../d9/d49/types_8h.html" target="_top" xlink:title="jack/types.h">
<polygon fill="none" stroke="black" points="368,-58.5 368,-79.5 438,-79.5 438,-58.5 368,-58.5"/>
<text text-anchor="middle" x="403" y="-66.5" font-family="Helvetica,sans-Serif" font-size="10.00">jack/types.h</text>
</a>
</g>
<!-- Node8&#45;&gt;Node10 -->
<g id="edge18" class="edge"><title>Node8&#45;&gt;Node10</title>
<path fill="none" stroke="midnightblue" d="M330.014,-174.654C348.307,-167.191 370.27,-155.342 384,-138 394.817,-124.337 399.484,-104.935 401.494,-90.1831"/>
<polygon fill="midnightblue" stroke="midnightblue" points="405.002,-90.2925 402.57,-79.9804 398.04,-89.558 405.002,-90.2925"/>
</g>
<!-- Node11 -->
<g id="node22" class="node"><title>Node11</title>
<a xlink:href="../../d2/d02/transport_8h.html" target="_top" xlink:title="jack/transport.h">
<polygon fill="none" stroke="black" points="291,-116.5 291,-137.5 375,-137.5 375,-116.5 291,-116.5"/>
<text text-anchor="middle" x="333" y="-124.5" font-family="Helvetica,sans-Serif" font-size="10.00">jack/transport.h</text>
</a>
</g>
<!-- Node8&#45;&gt;Node11 -->
<g id="edge22" class="edge"><title>Node8&#45;&gt;Node11</title>
<path fill="none" stroke="midnightblue" d="M304.42,-174.362C309.156,-166.513 315.732,-155.616 321.382,-146.253"/>
<polygon fill="midnightblue" stroke="midnightblue" points="324.451,-147.941 326.621,-137.571 318.458,-144.324 324.451,-147.941"/>
</g>
<!-- Node12 -->
<g id="node25" class="node"><title>Node12</title>
<a xlink:href="../../dc/db4/weakmacros_8h.html" target="_top" xlink:title="jack/weakmacros.h">
<polygon fill="none" stroke="black" points="249.5,-58.5 249.5,-79.5 350.5,-79.5 350.5,-58.5 249.5,-58.5"/>
<text text-anchor="middle" x="300" y="-66.5" font-family="Helvetica,sans-Serif" font-size="10.00">jack/weakmacros.h</text>
</a>
</g>
<!-- Node8&#45;&gt;Node12 -->
<g id="edge28" class="edge"><title>Node8&#45;&gt;Node12</title>
<path fill="none" stroke="midnightblue" d="M292.72,-174.306C286.698,-160.797 278.154,-136.798 282,-116 283.717,-106.715 287.192,-96.8944 290.634,-88.6444"/>
<polygon fill="midnightblue" stroke="midnightblue" points="293.835,-90.0616 294.697,-79.502 287.438,-87.2188 293.835,-90.0616"/>
</g>
<!-- Node10&#45;&gt;Node9 -->
<g id="edge20" class="edge"><title>Node10&#45;&gt;Node9</title>
<path fill="none" stroke="midnightblue" d="M386.309,-58.3619C372.584,-49.6138 352.916,-37.0786 337.263,-27.1015"/>
<polygon fill="midnightblue" stroke="midnightblue" points="338.899,-23.994 328.585,-21.5707 335.137,-29.8969 338.899,-23.994"/>
</g>
<!-- Node11&#45;&gt;Node10 -->
<g id="edge24" class="edge"><title>Node11&#45;&gt;Node10</title>
<path fill="none" stroke="midnightblue" d="M345.839,-116.362C356.002,-107.941 370.401,-96.0105 382.204,-86.2308"/>
<polygon fill="midnightblue" stroke="midnightblue" points="384.775,-88.6459 390.242,-79.5707 380.309,-83.2558 384.775,-88.6459"/>
</g>
<!-- Node11&#45;&gt;Node12 -->
<g id="edge26" class="edge"><title>Node11&#45;&gt;Node12</title>
<path fill="none" stroke="midnightblue" d="M326.947,-116.362C322.528,-108.595 316.41,-97.8426 311.121,-88.5458"/>
<polygon fill="midnightblue" stroke="midnightblue" points="314.002,-86.5315 306.014,-79.5707 307.918,-89.9932 314.002,-86.5315"/>
</g>
<!-- Node14&#45;&gt;Node8 -->
<g id="edge34" class="edge"><title>Node14&#45;&gt;Node8</title>
<path fill="none" stroke="midnightblue" d="M324.947,-232.362C320.528,-224.595 314.41,-213.843 309.121,-204.546"/>
<polygon fill="midnightblue" stroke="midnightblue" points="312.002,-202.531 304.014,-195.571 305.918,-205.993 312.002,-202.531"/>
</g>
<!-- Node15 -->
<g id="node33" class="node"><title>Node15</title>
<a xlink:href="../../d7/d5e/fftw3_8h.html" target="_top" xlink:title="fftw3.h">
<polygon fill="none" stroke="black" points="478.5,-174.5 478.5,-195.5 525.5,-195.5 525.5,-174.5 478.5,-174.5"/>
<text text-anchor="middle" x="502" y="-182.5" font-family="Helvetica,sans-Serif" font-size="10.00">fftw3.h</text>
</a>
</g>
<!-- Node14&#45;&gt;Node15 -->
<g id="edge36" class="edge"><title>Node14&#45;&gt;Node15</title>
<path fill="none" stroke="midnightblue" d="M361.967,-232.497C392.189,-222.246 438.014,-206.703 468.934,-196.215"/>
<polygon fill="midnightblue" stroke="midnightblue" points="470.065,-199.528 478.411,-193.001 467.817,-192.899 470.065,-199.528"/>
</g>
<!-- Node16 -->
<g id="node35" class="node"><title>Node16</title>
<polygon fill="none" stroke="#bfbfbf" points="568,-116.5 568,-137.5 614,-137.5 614,-116.5 568,-116.5"/>
<text text-anchor="middle" x="591" y="-124.5" font-family="Helvetica,sans-Serif" font-size="10.00">stdio.h</text>
</g>
<!-- Node15&#45;&gt;Node16 -->
<g id="edge38" class="edge"><title>Node15&#45;&gt;Node16</title>
<path fill="none" stroke="midnightblue" d="M518.324,-174.362C531.748,-165.614 550.983,-153.079 566.293,-143.101"/>
<polygon fill="midnightblue" stroke="midnightblue" points="568.312,-145.963 574.78,-137.571 564.491,-140.098 568.312,-145.963"/>
</g>
<!-- Node17 -->
<g id="node37" class="node"><title>Node17</title>
<polygon fill="none" stroke="#bfbfbf" points="476,-116.5 476,-137.5 528,-137.5 528,-116.5 476,-116.5"/>
<text text-anchor="middle" x="502" y="-124.5" font-family="Helvetica,sans-Serif" font-size="10.00">stddef.h</text>
</g>
<!-- Node15&#45;&gt;Node17 -->
<g id="edge40" class="edge"><title>Node15&#45;&gt;Node17</title>
<path fill="none" stroke="midnightblue" d="M502,-174.362C502,-166.922 502,-156.743 502,-147.728"/>
<polygon fill="midnightblue" stroke="midnightblue" points="505.5,-147.571 502,-137.571 498.5,-147.571 505.5,-147.571"/>
</g>
<!-- Node18&#45;&gt;Node19 -->
<g id="edge44" class="edge"><title>Node18&#45;&gt;Node19</title>
<path fill="none" stroke="midnightblue" d="M108.673,-232.362C120.514,-223.777 137.385,-211.546 151.016,-201.664"/>
<polygon fill="midnightblue" stroke="midnightblue" points="153.378,-204.274 159.42,-195.571 149.269,-198.607 153.378,-204.274"/>
</g>
<!-- Node23&#45;&gt;Node5 -->
<g id="edge62" class="edge"><title>Node23&#45;&gt;Node5</title>
<path fill="none" stroke="midnightblue" d="M331.944,-348.462C332.463,-333.309 335.748,-305.488 352,-290 399.7,-244.54 432.812,-267.693 501.857,-254.066"/>
<polygon fill="midnightblue" stroke="midnightblue" points="502.819,-257.438 511.843,-251.888 501.327,-250.599 502.819,-257.438"/>
</g>
<!-- Node23&#45;&gt;Node7 -->
<g id="edge64" class="edge"><title>Node23&#45;&gt;Node7</title>
<path fill="none" stroke="midnightblue" d="M319.895,-348.362C310.312,-339.941 296.736,-328.011 285.607,-318.231"/>
<polygon fill="midnightblue" stroke="midnightblue" points="287.851,-315.543 278.029,-311.571 283.23,-320.801 287.851,-315.543"/>
</g>
<!-- Node23&#45;&gt;Node24 -->
<g id="edge60" class="edge"><title>Node23&#45;&gt;Node24</title>
<path fill="none" stroke="midnightblue" d="M342.088,-348.362C349.841,-340.186 360.73,-328.702 369.845,-319.091"/>
<polygon fill="midnightblue" stroke="midnightblue" points="372.635,-321.235 376.976,-311.571 367.555,-316.419 372.635,-321.235"/>
</g>
<!-- Node25&#45;&gt;Node16 -->
<g id="edge70" class="edge"><title>Node25&#45;&gt;Node16</title>
<path fill="none" stroke="midnightblue" d="M572.29,-348.475C580.219,-339.58 590.554,-326.07 595,-312 613.081,-254.783 602.648,-182.574 595.684,-147.71"/>
<polygon fill="midnightblue" stroke="midnightblue" points="599.076,-146.831 593.586,-137.769 592.227,-148.277 599.076,-146.831"/>
</g>
<!-- Node26 -->
<g id="node60" class="node"><title>Node26</title>
<polygon fill="none" stroke="#bfbfbf" points="538,-290.5 538,-311.5 586,-311.5 586,-290.5 538,-290.5"/>
<text text-anchor="middle" x="562" y="-298.5" font-family="Helvetica,sans-Serif" font-size="10.00">stdlib.h</text>
</g>
<!-- Node25&#45;&gt;Node26 -->
<g id="edge68" class="edge"><title>Node25&#45;&gt;Node26</title>
<path fill="none" stroke="midnightblue" d="M562,-348.362C562,-340.922 562,-330.743 562,-321.728"/>
<polygon fill="midnightblue" stroke="midnightblue" points="565.5,-321.571 562,-311.571 558.5,-321.571 565.5,-321.571"/>
</g>
<!-- Node27 -->
<g id="node63" class="node"><title>Node27</title>
<polygon fill="none" stroke="#bfbfbf" points="469.5,-290.5 469.5,-311.5 520.5,-311.5 520.5,-290.5 469.5,-290.5"/>
<text text-anchor="middle" x="495" y="-298.5" font-family="Helvetica,sans-Serif" font-size="10.00">unistd.h</text>
</g>
<!-- Node25&#45;&gt;Node27 -->
<g id="edge72" class="edge"><title>Node25&#45;&gt;Node27</title>
<path fill="none" stroke="midnightblue" d="M549.711,-348.362C539.983,-339.941 526.202,-328.011 514.905,-318.231"/>
<polygon fill="midnightblue" stroke="midnightblue" points="517.062,-315.469 507.211,-311.571 512.481,-320.762 517.062,-315.469"/>
</g>
<!-- Node28 -->
<g id="node65" class="node"><title>Node28</title>
<a xlink:href="../../d4/d5f/randomgenerator_8h.html" target="_top" xlink:title="randomgenerator.h">
<polygon fill="none" stroke="black" points="680,-290.5 680,-311.5 778,-311.5 778,-290.5 680,-290.5"/>
<text text-anchor="middle" x="729" y="-298.5" font-family="Helvetica,sans-Serif" font-size="10.00">randomgenerator.h</text>
</a>
</g>
<!-- Node25&#45;&gt;Node28 -->
<g id="edge74" class="edge"><title>Node25&#45;&gt;Node28</title>
<path fill="none" stroke="midnightblue" d="M587.002,-350.317C613.932,-340.964 657.177,-325.944 688.876,-314.935"/>
<polygon fill="midnightblue" stroke="midnightblue" points="690.429,-318.101 698.727,-311.514 688.133,-311.488 690.429,-318.101"/>
</g>
<!-- Node29 -->
<g id="node67" class="node"><title>Node29</title>
<polygon fill="none" stroke="#bfbfbf" points="739,-232.5 739,-253.5 807,-253.5 807,-232.5 739,-232.5"/>
<text text-anchor="middle" x="773" y="-240.5" font-family="Helvetica,sans-Serif" font-size="10.00">sys/types.h</text>
</g>
<!-- Node28&#45;&gt;Node29 -->
<g id="edge76" class="edge"><title>Node28&#45;&gt;Node29</title>
<path fill="none" stroke="midnightblue" d="M737.07,-290.362C743.149,-282.35 751.637,-271.161 758.837,-261.67"/>
<polygon fill="midnightblue" stroke="midnightblue" points="761.725,-263.653 764.981,-253.571 756.149,-259.422 761.725,-263.653"/>
</g>
<!-- Node30 -->
<g id="node69" class="node"><title>Node30</title>
<polygon fill="none" stroke="#bfbfbf" points="672.5,-232.5 672.5,-253.5 721.5,-253.5 721.5,-232.5 672.5,-232.5"/>
<text text-anchor="middle" x="697" y="-240.5" font-family="Helvetica,sans-Serif" font-size="10.00">stdint.h</text>
</g>
<!-- Node28&#45;&gt;Node30 -->
<g id="edge78" class="edge"><title>Node28&#45;&gt;Node30</title>
<path fill="none" stroke="midnightblue" d="M723.131,-290.362C718.845,-282.595 712.913,-271.843 707.784,-262.546"/>
<polygon fill="midnightblue" stroke="midnightblue" points="710.727,-260.636 702.832,-253.571 704.598,-264.017 710.727,-260.636"/>
</g>
</g>
</svg>
        <g id="navigator" transform="translate(0 0)" fill="#404254">
                <rect fill="#f2f5e9" fill-opacity="0.5" stroke="#606060" stroke-width=".5" x="0" y="0" width="60" height="60"/>
                <use id="zoomplus" xlink:href="#zoomPlus" x="17" y="9" onmousedown="handleZoom(evt,'in')"/>
                <use id="zoomminus" xlink:href="#zoomMin" x="42" y="9" onmousedown="handleZoom(evt,'out')"/>
                <use id="reset" xlink:href="#resetDef" x="30" y="36" onmousedown="handleReset()"/>
                <g id="arrowUp" xlink:href="#dirArrow" transform="translate(30 24)" onmousedown="handlePan(0,-1)">
                  <use xlink:href="#rim" fill="#404040">
                        <set attributeName="fill" to="#808080" begin="arrowUp.mouseover" end="arrowUp.mouseout"/>
                  </use>
                  <path fill="none" stroke="white" stroke-width="1.5" d="M0,-3.0v7 M-2.5,-0.5L0,-3.0L2.5,-0.5"/>
                </g>
                <g id="arrowRight" xlink:href="#dirArrow" transform="rotate(90) translate(36 -43)" onmousedown="handlePan(1,0)">
                  <use xlink:href="#rim" fill="#404040">
                        <set attributeName="fill" to="#808080" begin="arrowRight.mouseover" end="arrowRight.mouseout"/>
                  </use>
                  <path fill="none" stroke="white" stroke-width="1.5" d="M0,-3.0v7 M-2.5,-0.5L0,-3.0L2.5,-0.5"/>
                </g>
                <g id="arrowDown" xlink:href="#dirArrow" transform="rotate(180) translate(-30 -48)" onmousedown="handlePan(0,1)">
                  <use xlink:href="#rim" fill="#404040">
                        <set attributeName="fill" to="#808080" begin="arrowDown.mouseover" end="arrowDown.mouseout"/>
                  </use>
                  <path fill="none" stroke="white" stroke-width="1.5" d="M0,-3.0v7 M-2.5,-0.5L0,-3.0L2.5,-0.5"/>
                </g>
                <g id="arrowLeft" xlink:href="#dirArrow" transform="rotate(270) translate(-36 17)" onmousedown="handlePan(-1,0)">
                  <use xlink:href="#rim" fill="#404040">
                        <set attributeName="fill" to="#808080" begin="arrowLeft.mouseover" end="arrowLeft.mouseout"/>
                  </use>
                  <path fill="none" stroke="white" stroke-width="1.5" d="M0,-3.0v7 M-2.5,-0.5L0,-3.0L2.5,-0.5"/>
                </g>
        </g>
</svg>
