<?xml version="1.0" encoding="UTF-8" standalone="no"?>
<!DOCTYPE svg PUBLIC "-//W3C//DTD SVG 1.1//EN"
 "http://www.w3.org/Graphics/SVG/1.1/DTD/svg11.dtd">
<!-- Generated by graphviz version 2.26.3 (20100126.1600)
 -->
<!-- Title: G Pages: 1 -->
<svg width="212pt" height="88pt"
 viewBox="0.00 0.00 212.00 88.00" xmlns="http://www.w3.org/2000/svg" xmlns:xlink="http://www.w3.org/1999/xlink">
<g id="graph1" class="graph" transform="scale(1 1) rotate(0) translate(4 84)">
<title>G</title>
<!-- Node1 -->
<g id="node1" class="node"><title>Node1</title>
<polygon fill="#bfbfbf" stroke="black" points="17.5,-58.5 17.5,-79.5 190.5,-79.5 190.5,-58.5 17.5,-58.5"/>
<text text-anchor="middle" x="104" y="-66.5" font-family="Helvetica,sans-Serif" font-size="10.00">libear/include/jnoise/prbsgenerator.h</text>
</g>
<!-- Node2 -->
<g id="node3" class="node"><title>Node2</title>
<polygon fill="none" stroke="#bfbfbf" points="0,-0.5 0,-21.5 52,-21.5 52,-0.5 0,-0.5"/>
<text text-anchor="middle" x="26" y="-8.5" font-family="Helvetica,sans-Serif" font-size="10.00">assert.h</text>
</g>
<!-- Node1&#45;&gt;Node2 -->
<g id="edge2" class="edge"><title>Node1&#45;&gt;Node2</title>
<path fill="none" stroke="midnightblue" d="M89.6936,-58.3619C78.1488,-49.7773 61.6996,-37.5459 48.4096,-27.6636"/>
<polygon fill="midnightblue" stroke="midnightblue" points="50.3288,-24.7291 40.2157,-21.5707 46.1519,-30.3463 50.3288,-24.7291"/>
</g>
<!-- Node3 -->
<g id="node5" class="node"><title>Node3</title>
<polygon fill="none" stroke="#bfbfbf" points="70,-0.5 70,-21.5 138,-21.5 138,-0.5 70,-0.5"/>
<text text-anchor="middle" x="104" y="-8.5" font-family="Helvetica,sans-Serif" font-size="10.00">sys/types.h</text>
</g>
<!-- Node1&#45;&gt;Node3 -->
<g id="edge4" class="edge"><title>Node1&#45;&gt;Node3</title>
<path fill="none" stroke="midnightblue" d="M104,-58.3619C104,-50.9219 104,-40.7427 104,-31.7276"/>
<polygon fill="midnightblue" stroke="midnightblue" points="107.5,-31.5706 104,-21.5707 100.5,-31.5707 107.5,-31.5706"/>
</g>
<!-- Node4 -->
<g id="node7" class="node"><title>Node4</title>
<polygon fill="none" stroke="#bfbfbf" points="155.5,-0.5 155.5,-21.5 204.5,-21.5 204.5,-0.5 155.5,-0.5"/>
<text text-anchor="middle" x="180" y="-8.5" font-family="Helvetica,sans-Serif" font-size="10.00">stdint.h</text>
</g>
<!-- Node1&#45;&gt;Node4 -->
<g id="edge6" class="edge"><title>Node1&#45;&gt;Node4</title>
<path fill="none" stroke="midnightblue" d="M117.94,-58.3619C129.188,-49.7773 145.216,-37.5459 158.165,-27.6636"/>
<polygon fill="midnightblue" stroke="midnightblue" points="160.323,-30.4198 166.149,-21.5707 156.076,-24.8551 160.323,-30.4198"/>
</g>
</g>
</svg>
