<?xml version="1.0" encoding="UTF-8" standalone="no"?>
<!DOCTYPE svg PUBLIC "-//W3C//DTD SVG 1.1//EN"
 "http://www.w3.org/Graphics/SVG/1.1/DTD/svg11.dtd">
<!-- Generated by graphviz version 2.26.3 (20100126.1600)
 -->
<!-- Title: G Pages: 1 -->
<!--zoomable 494 -->
<svg id="main" version="1.1" xmlns="http://www.w3.org/2000/svg" xmlns:xlink="http://www.w3.org/1999/xlink" xml:space="preserve" onload="init(evt)">
        <defs>
                <circle id="rim" cx="0" cy="0" r="7"/>
                <circle id="rim2" cx="0" cy="0" r="3.5"/>
                <g id="zoomPlus">
                        <use xlink:href="#rim" fill="#404040">
                                <set attributeName="fill" to="#808080" begin="zoomplus.mouseover" end="zoomplus.mouseout"/>
                        </use>
                        <path d="M-4,0h8M0,-4v8" fill="none" stroke="white" stroke-width="1.5" pointer-events="none"/>
                </g>
                <g id="zoomMin">
                        <use xlink:href="#rim" fill="#404040">
                                <set attributeName="fill" to="#808080" begin="zoomminus.mouseover" end="zoomminus.mouseout"/>
                        </use>
                        <path d="M-4,0h8" fill="none" stroke="white" stroke-width="1.5" pointer-events="none"/>
                </g>
                <g id="dirArrow">
                        <path fill="none" stroke="white" stroke-width="1.5" d="M0,-3.0v7 M-2.5,-0.5L0,-3.0L2.5,-0.5"/>
                </g>
               <g id="resetDef">
                       <use xlink:href="#rim2" fill="#404040">
                               <set attributeName="fill" to="#808080" begin="reset.mouseover" end="reset.mouseout"/>
                       </use>
               </g>
        </defs>

<script type="text/javascript">
var viewWidth = 580;
var viewHeight = 494;
var sectionId = 'dynsection-1';
</script>
<script xlink:href="../../svgpan.js"/>
<svg id="graph" class="graph">
<g id="viewport">
<title>G</title>
<!-- Node1 -->
<g id="node1" class="node"><title>Node1</title>
<polygon fill="#bfbfbf" stroke="black" points="258.5,-464.5 258.5,-485.5 435.5,-485.5 435.5,-464.5 258.5,-464.5"/>
<text text-anchor="middle" x="347" y="-472.5" font-family="Helvetica,sans-Serif" font-size="10.00">3rdparty/jack/include/jack/transport.h</text>
</g>
<!-- Node2 -->
<g id="node3" class="node"><title>Node2</title>
<a xlink:href="../../df/d89/jack_8h.html" target="_top" xlink:title="3rdparty/jack/include/jack/jack.h">
<polygon fill="none" stroke="black" points="268.5,-406.5 268.5,-427.5 425.5,-427.5 425.5,-406.5 268.5,-406.5"/>
<text text-anchor="middle" x="347" y="-414.5" font-family="Helvetica,sans-Serif" font-size="10.00">3rdparty/jack/include/jack/jack.h</text>
</a>
</g>
<!-- Node1&#45;&gt;Node2 -->
<g id="edge2" class="edge"><title>Node1&#45;&gt;Node2</title>
<path fill="none" stroke="midnightblue" d="M347,-454.191C347,-445.168 347,-434.994 347,-427.571"/>
<polygon fill="midnightblue" stroke="midnightblue" points="343.5,-454.362 347,-464.362 350.5,-454.362 343.5,-454.362"/>
</g>
<!-- Node3 -->
<g id="node5" class="node"><title>Node3</title>
<a xlink:href="../../db/da1/jackadapter_8h.html" target="_top" xlink:title="libear/include/jackadapter.h">
<polygon fill="none" stroke="black" points="232.5,-290.5 232.5,-311.5 367.5,-311.5 367.5,-290.5 232.5,-290.5"/>
<text text-anchor="middle" x="300" y="-298.5" font-family="Helvetica,sans-Serif" font-size="10.00">libear/include/jackadapter.h</text>
</a>
</g>
<!-- Node2&#45;&gt;Node3 -->
<g id="edge4" class="edge"><title>Node2&#45;&gt;Node3</title>
<path fill="none" stroke="midnightblue" d="M333.92,-397.723C328.737,-389.455 323.06,-379.522 319,-370 310.521,-350.112 304.791,-325.383 301.99,-311.582"/>
<polygon fill="midnightblue" stroke="midnightblue" points="331.067,-399.757 339.448,-406.24 336.939,-395.946 331.067,-399.757"/>
</g>
<!-- Node14 -->
<g id="node31" class="node"><title>Node14</title>
<a xlink:href="../../d7/d55/fftwadapter_8h.html" target="_top" xlink:title="libear/include/fftwadapter.h">
<polygon fill="none" stroke="black" points="328,-348.5 328,-369.5 462,-369.5 462,-348.5 328,-348.5"/>
<text text-anchor="middle" x="395" y="-356.5" font-family="Helvetica,sans-Serif" font-size="10.00">libear/include/fftwadapter.h</text>
</a>
</g>
<!-- Node2&#45;&gt;Node14 -->
<g id="edge34" class="edge"><title>Node2&#45;&gt;Node14</title>
<path fill="none" stroke="midnightblue" d="M362.277,-398.541C370.19,-388.979 379.568,-377.647 386.252,-369.571"/>
<polygon fill="midnightblue" stroke="midnightblue" points="359.483,-396.426 355.804,-406.362 364.876,-400.889 359.483,-396.426"/>
</g>
<!-- Node4 -->
<g id="node7" class="node"><title>Node4</title>
<a xlink:href="../../d9/d53/mainwindow_8h.html" target="_top" xlink:title="gui/include/mainwindow.h">
<polygon fill="none" stroke="black" points="0,-58.5 0,-79.5 128,-79.5 128,-58.5 0,-58.5"/>
<text text-anchor="middle" x="64" y="-66.5" font-family="Helvetica,sans-Serif" font-size="10.00">gui/include/mainwindow.h</text>
</a>
</g>
<!-- Node3&#45;&gt;Node4 -->
<g id="edge6" class="edge"><title>Node3&#45;&gt;Node4</title>
<path fill="none" stroke="midnightblue" d="M235.192,-287.791C184.387,-273.887 116.255,-246.706 79,-196 52.8401,-160.395 58.2867,-103.403 62.0091,-79.7893"/>
<polygon fill="midnightblue" stroke="midnightblue" points="234.546,-291.24 245.107,-290.397 236.326,-284.47 234.546,-291.24"/>
</g>
<!-- Node6 -->
<g id="node11" class="node"><title>Node6</title>
<a xlink:href="../../d8/dd9/mainwindow_8cpp.html" target="_top" xlink:title="gui/src/mainwindow.cpp">
<polygon fill="none" stroke="black" points="244,-0.5 244,-21.5 366,-21.5 366,-0.5 244,-0.5"/>
<text text-anchor="middle" x="305" y="-8.5" font-family="Helvetica,sans-Serif" font-size="10.00">gui/src/mainwindow.cpp</text>
</a>
</g>
<!-- Node3&#45;&gt;Node6 -->
<g id="edge12" class="edge"><title>Node3&#45;&gt;Node6</title>
<path fill="none" stroke="midnightblue" d="M337.315,-285.946C352.942,-278.212 370.37,-267.535 383,-254 406.192,-229.147 416,-218.993 416,-185 416,-185 416,-185 416,-127 416,-76.1306 359.588,-38.8371 327.196,-21.6158"/>
<polygon fill="midnightblue" stroke="midnightblue" points="335.44,-282.96 327.877,-290.38 338.416,-289.296 335.44,-282.96"/>
</g>
<!-- Node7 -->
<g id="node14" class="node"><title>Node7</title>
<a xlink:href="../../d6/def/digitalequalizer_8h.html" target="_top" xlink:title="libear/include/digitalequalizer.h">
<polygon fill="none" stroke="black" points="225.5,-232.5 225.5,-253.5 374.5,-253.5 374.5,-232.5 225.5,-232.5"/>
<text text-anchor="middle" x="300" y="-240.5" font-family="Helvetica,sans-Serif" font-size="10.00">libear/include/digitalequalizer.h</text>
</a>
</g>
<!-- Node3&#45;&gt;Node7 -->
<g id="edge14" class="edge"><title>Node3&#45;&gt;Node7</title>
<path fill="none" stroke="midnightblue" d="M300,-280.191C300,-271.168 300,-260.994 300,-253.571"/>
<polygon fill="midnightblue" stroke="midnightblue" points="296.5,-280.362 300,-290.362 303.5,-280.362 296.5,-280.362"/>
</g>
<!-- Node8 -->
<g id="node16" class="node"><title>Node8</title>
<a xlink:href="../../d2/de4/earprocessor_8h.html" target="_top" xlink:title="libear/include/earprocessor.h">
<polygon fill="none" stroke="black" points="87.5,-174.5 87.5,-195.5 228.5,-195.5 228.5,-174.5 87.5,-174.5"/>
<text text-anchor="middle" x="158" y="-182.5" font-family="Helvetica,sans-Serif" font-size="10.00">libear/include/earprocessor.h</text>
</a>
</g>
<!-- Node3&#45;&gt;Node8 -->
<g id="edge30" class="edge"><title>Node3&#45;&gt;Node8</title>
<path fill="none" stroke="midnightblue" d="M267.413,-285.905C251.383,-277.67 232.276,-266.59 217,-254 195.593,-236.357 175.734,-210.36 165.413,-195.835"/>
<polygon fill="midnightblue" stroke="midnightblue" points="265.933,-289.078 276.443,-290.415 269.06,-282.816 265.933,-289.078"/>
</g>
<!-- Node13 -->
<g id="node29" class="node"><title>Node13</title>
<a xlink:href="../../d6/df6/jackadapter_8cpp.html" target="_top" xlink:title="libear/src/jackadapter.cpp">
<polygon fill="none" stroke="black" points="444,-232.5 444,-253.5 572,-253.5 572,-232.5 444,-232.5"/>
<text text-anchor="middle" x="508" y="-240.5" font-family="Helvetica,sans-Serif" font-size="10.00">libear/src/jackadapter.cpp</text>
</a>
</g>
<!-- Node3&#45;&gt;Node13 -->
<g id="edge32" class="edge"><title>Node3&#45;&gt;Node13</title>
<path fill="none" stroke="midnightblue" d="M347.77,-287.68C384.968,-277.307 435.889,-263.108 470.262,-253.523"/>
<polygon fill="midnightblue" stroke="midnightblue" points="346.36,-284.439 337.667,-290.497 348.24,-291.182 346.36,-284.439"/>
</g>
<!-- Node5 -->
<g id="node9" class="node"><title>Node5</title>
<a xlink:href="../../d0/db5/launcher_8cpp.html" target="_top" xlink:title="gui/src/launcher.cpp">
<polygon fill="none" stroke="black" points="12,-0.5 12,-21.5 116,-21.5 116,-0.5 12,-0.5"/>
<text text-anchor="middle" x="64" y="-8.5" font-family="Helvetica,sans-Serif" font-size="10.00">gui/src/launcher.cpp</text>
</a>
</g>
<!-- Node4&#45;&gt;Node5 -->
<g id="edge8" class="edge"><title>Node4&#45;&gt;Node5</title>
<path fill="none" stroke="midnightblue" d="M64,-48.1906C64,-39.1684 64,-28.9941 64,-21.5707"/>
<polygon fill="midnightblue" stroke="midnightblue" points="60.5001,-48.3619 64,-58.3619 67.5001,-48.3619 60.5001,-48.3619"/>
</g>
<!-- Node4&#45;&gt;Node6 -->
<g id="edge10" class="edge"><title>Node4&#45;&gt;Node6</title>
<path fill="none" stroke="midnightblue" d="M117.426,-56.1424C160.679,-45.7328 220.853,-31.2511 261.275,-21.5231"/>
<polygon fill="midnightblue" stroke="midnightblue" points="116.547,-52.7539 107.643,-58.4966 118.185,-59.5596 116.547,-52.7539"/>
</g>
<!-- Node7&#45;&gt;Node8 -->
<g id="edge16" class="edge"><title>Node7&#45;&gt;Node8</title>
<path fill="none" stroke="midnightblue" d="M264.782,-228.615C239.745,-218.389 206.671,-204.88 184.004,-195.621"/>
<polygon fill="midnightblue" stroke="midnightblue" points="263.704,-231.955 274.285,-232.497 266.351,-225.475 263.704,-231.955"/>
</g>
<!-- Node12 -->
<g id="node26" class="node"><title>Node12</title>
<a xlink:href="../../dc/d2f/digitalequalizer_8cpp.html" target="_top" xlink:title="libear/src/digitalequalizer.cpp">
<polygon fill="none" stroke="black" points="245.5,-174.5 245.5,-195.5 388.5,-195.5 388.5,-174.5 245.5,-174.5"/>
<text text-anchor="middle" x="317" y="-182.5" font-family="Helvetica,sans-Serif" font-size="10.00">libear/src/digitalequalizer.cpp</text>
</a>
</g>
<!-- Node7&#45;&gt;Node12 -->
<g id="edge28" class="edge"><title>Node7&#45;&gt;Node12</title>
<path fill="none" stroke="midnightblue" d="M306.012,-222.488C308.678,-213.392 311.702,-203.076 313.902,-195.571"/>
<polygon fill="midnightblue" stroke="midnightblue" points="302.572,-221.781 303.118,-232.362 309.29,-223.75 302.572,-221.781"/>
</g>
<!-- Node8&#45;&gt;Node4 -->
<g id="edge18" class="edge"><title>Node8&#45;&gt;Node4</title>
<path fill="none" stroke="midnightblue" d="M122.46,-169.79C108.337,-162.129 93.0852,-151.55 83,-138 69.9431,-120.458 65.859,-94.4228 64.5815,-79.8641"/>
<polygon fill="midnightblue" stroke="midnightblue" points="121.013,-172.981 131.511,-174.405 124.192,-166.745 121.013,-172.981"/>
</g>
<!-- Node9 -->
<g id="node19" class="node"><title>Node9</title>
<a xlink:href="../../d6/d0c/visualizerwidget_8h.html" target="_top" xlink:title="gui/include/visualizerwidget.h">
<polygon fill="none" stroke="black" points="92,-116.5 92,-137.5 236,-137.5 236,-116.5 92,-116.5"/>
<text text-anchor="middle" x="164" y="-124.5" font-family="Helvetica,sans-Serif" font-size="10.00">gui/include/visualizerwidget.h</text>
</a>
</g>
<!-- Node8&#45;&gt;Node9 -->
<g id="edge20" class="edge"><title>Node8&#45;&gt;Node9</title>
<path fill="none" stroke="midnightblue" d="M160.153,-164.191C161.086,-155.168 162.139,-144.994 162.906,-137.571"/>
<polygon fill="midnightblue" stroke="midnightblue" points="156.648,-164.055 159.1,-174.362 163.611,-164.775 156.648,-164.055"/>
</g>
<!-- Node11 -->
<g id="node24" class="node"><title>Node11</title>
<a xlink:href="../../d7/d53/earprocessor_8cpp.html" target="_top" xlink:title="libear/src/earprocessor.cpp">
<polygon fill="none" stroke="black" points="254,-116.5 254,-137.5 388,-137.5 388,-116.5 254,-116.5"/>
<text text-anchor="middle" x="321" y="-124.5" font-family="Helvetica,sans-Serif" font-size="10.00">libear/src/earprocessor.cpp</text>
</a>
</g>
<!-- Node8&#45;&gt;Node11 -->
<g id="edge26" class="edge"><title>Node8&#45;&gt;Node11</title>
<path fill="none" stroke="midnightblue" d="M197.318,-171.009C226.285,-160.702 265.066,-146.903 291.427,-137.523"/>
<polygon fill="midnightblue" stroke="midnightblue" points="195.766,-167.847 187.518,-174.497 198.113,-174.442 195.766,-167.847"/>
</g>
<!-- Node9&#45;&gt;Node4 -->
<g id="edge22" class="edge"><title>Node9&#45;&gt;Node4</title>
<path fill="none" stroke="midnightblue" d="M136.588,-111.101C119.286,-101.066 97.4152,-88.3808 82.2253,-79.5707"/>
<polygon fill="midnightblue" stroke="midnightblue" points="135.252,-114.372 145.658,-116.362 138.764,-108.317 135.252,-114.372"/>
</g>
<!-- Node10 -->
<g id="node22" class="node"><title>Node10</title>
<a xlink:href="../../db/d0a/visualizerwidget_8cpp.html" target="_top" xlink:title="gui/src/visualizerwidget.cpp">
<polygon fill="none" stroke="black" points="145.5,-58.5 145.5,-79.5 282.5,-79.5 282.5,-58.5 145.5,-58.5"/>
<text text-anchor="middle" x="214" y="-66.5" font-family="Helvetica,sans-Serif" font-size="10.00">gui/src/visualizerwidget.cpp</text>
</a>
</g>
<!-- Node9&#45;&gt;Node10 -->
<g id="edge24" class="edge"><title>Node9&#45;&gt;Node10</title>
<path fill="none" stroke="midnightblue" d="M179.913,-108.541C188.156,-98.9786 197.925,-87.6467 204.887,-79.5707"/>
<polygon fill="midnightblue" stroke="midnightblue" points="177.049,-106.502 173.171,-116.362 182.351,-111.073 177.049,-106.502"/>
</g>
<!-- Node14&#45;&gt;Node3 -->
<g id="edge36" class="edge"><title>Node14&#45;&gt;Node3</title>
<path fill="none" stroke="midnightblue" d="M368.958,-343.101C352.522,-333.066 331.744,-320.381 317.314,-311.571"/>
<polygon fill="midnightblue" stroke="midnightblue" points="367.217,-346.138 377.576,-348.362 370.864,-340.164 367.217,-346.138"/>
</g>
<!-- Node15 -->
<g id="node34" class="node"><title>Node15</title>
<a xlink:href="../../da/d45/fftwadapter_8cpp.html" target="_top" xlink:title="libear/src/fftwadapter.cpp">
<polygon fill="none" stroke="black" points="384.5,-290.5 384.5,-311.5 511.5,-311.5 511.5,-290.5 384.5,-290.5"/>
<text text-anchor="middle" x="448" y="-298.5" font-family="Helvetica,sans-Serif" font-size="10.00">libear/src/fftwadapter.cpp</text>
</a>
</g>
<!-- Node14&#45;&gt;Node15 -->
<g id="edge38" class="edge"><title>Node14&#45;&gt;Node15</title>
<path fill="none" stroke="midnightblue" d="M411.604,-340.83C420.396,-331.208 430.886,-319.728 438.341,-311.571"/>
<polygon fill="midnightblue" stroke="midnightblue" points="408.883,-338.619 404.721,-348.362 414.051,-343.341 408.883,-338.619"/>
</g>
</g>
</svg>
        <g id="navigator" transform="translate(0 0)" fill="#404254">
                <rect fill="#f2f5e9" fill-opacity="0.5" stroke="#606060" stroke-width=".5" x="0" y="0" width="60" height="60"/>
                <use id="zoomplus" xlink:href="#zoomPlus" x="17" y="9" onmousedown="handleZoom(evt,'in')"/>
                <use id="zoomminus" xlink:href="#zoomMin" x="42" y="9" onmousedown="handleZoom(evt,'out')"/>
                <use id="reset" xlink:href="#resetDef" x="30" y="36" onmousedown="handleReset()"/>
                <g id="arrowUp" xlink:href="#dirArrow" transform="translate(30 24)" onmousedown="handlePan(0,-1)">
                  <use xlink:href="#rim" fill="#404040">
                        <set attributeName="fill" to="#808080" begin="arrowUp.mouseover" end="arrowUp.mouseout"/>
                  </use>
                  <path fill="none" stroke="white" stroke-width="1.5" d="M0,-3.0v7 M-2.5,-0.5L0,-3.0L2.5,-0.5"/>
                </g>
                <g id="arrowRight" xlink:href="#dirArrow" transform="rotate(90) translate(36 -43)" onmousedown="handlePan(1,0)">
                  <use xlink:href="#rim" fill="#404040">
                        <set attributeName="fill" to="#808080" begin="arrowRight.mouseover" end="arrowRight.mouseout"/>
                  </use>
                  <path fill="none" stroke="white" stroke-width="1.5" d="M0,-3.0v7 M-2.5,-0.5L0,-3.0L2.5,-0.5"/>
                </g>
                <g id="arrowDown" xlink:href="#dirArrow" transform="rotate(180) translate(-30 -48)" onmousedown="handlePan(0,1)">
                  <use xlink:href="#rim" fill="#404040">
                        <set attributeName="fill" to="#808080" begin="arrowDown.mouseover" end="arrowDown.mouseout"/>
                  </use>
                  <path fill="none" stroke="white" stroke-width="1.5" d="M0,-3.0v7 M-2.5,-0.5L0,-3.0L2.5,-0.5"/>
                </g>
                <g id="arrowLeft" xlink:href="#dirArrow" transform="rotate(270) translate(-36 17)" onmousedown="handlePan(-1,0)">
                  <use xlink:href="#rim" fill="#404040">
                        <set attributeName="fill" to="#808080" begin="arrowLeft.mouseover" end="arrowLeft.mouseout"/>
                  </use>
                  <path fill="none" stroke="white" stroke-width="1.5" d="M0,-3.0v7 M-2.5,-0.5L0,-3.0L2.5,-0.5"/>
                </g>
        </g>
</svg>
