<?xml version="1.0" encoding="UTF-8" standalone="no"?>
<!DOCTYPE svg PUBLIC "-//W3C//DTD SVG 1.1//EN"
 "http://www.w3.org/Graphics/SVG/1.1/DTD/svg11.dtd">
<!-- Generated by graphviz version 2.26.3 (20100126.1600)
 -->
<!-- Title: G Pages: 1 -->
<svg width="350pt" height="230pt"
 viewBox="0.00 0.00 350.00 230.00" xmlns="http://www.w3.org/2000/svg" xmlns:xlink="http://www.w3.org/1999/xlink">
<g id="graph1" class="graph" transform="scale(1 1) rotate(0) translate(4 226)">
<title>G</title>
<!-- Node1 -->
<g id="node1" class="node"><title>Node1</title>
<polygon fill="#bfbfbf" stroke="black" points="0,-100.5 0,-121.5 152,-121.5 152,-100.5 0,-100.5"/>
<text text-anchor="middle" x="76" y="-108.5" font-family="Helvetica,sans-Serif" font-size="10.00">JackAdapter::connectToServer</text>
</g>
<!-- Node2 -->
<g id="node3" class="node"><title>Node2</title>
<a xlink:href="../../df/d89/jack_8h.html#abbd2041bca191943b6ef29a991a131c5" target="_top" xlink:title="jack_client_open">
<polygon fill="none" stroke="black" points="220.5,-200.5 220.5,-221.5 309.5,-221.5 309.5,-200.5 220.5,-200.5"/>
<text text-anchor="middle" x="265" y="-208.5" font-family="Helvetica,sans-Serif" font-size="10.00">jack_client_open</text>
</a>
</g>
<!-- Node1&#45;&gt;Node2 -->
<g id="edge2" class="edge"><title>Node1&#45;&gt;Node2</title>
<path fill="none" stroke="midnightblue" d="M87.8248,-121.728C107.296,-138.84 147.951,-172.283 188,-191 195.126,-194.33 202.893,-197.169 210.662,-199.57"/>
<polygon fill="midnightblue" stroke="midnightblue" points="209.879,-202.986 220.456,-202.38 211.81,-196.258 209.879,-202.986"/>
</g>
<!-- Node3 -->
<g id="node5" class="node"><title>Node3</title>
<a xlink:href="../../d7/d4f/group__ClientCallbacks.html#ga030cc371acb19abe52861492acb960ad" target="_top" xlink:title="jack_set_buffer_size_callback">
<polygon fill="none" stroke="black" points="191,-160.5 191,-181.5 339,-181.5 339,-160.5 191,-160.5"/>
<text text-anchor="middle" x="265" y="-168.5" font-family="Helvetica,sans-Serif" font-size="10.00">jack_set_buffer_size_callback</text>
</a>
</g>
<!-- Node1&#45;&gt;Node3 -->
<g id="edge4" class="edge"><title>Node1&#45;&gt;Node3</title>
<path fill="none" stroke="midnightblue" d="M103.388,-121.551C125.924,-130.046 158.794,-142.011 188,-151 195.696,-153.368 203.879,-155.695 211.93,-157.877"/>
<polygon fill="midnightblue" stroke="midnightblue" points="211.078,-161.272 221.641,-160.459 212.876,-154.507 211.078,-161.272"/>
</g>
<!-- Node4 -->
<g id="node7" class="node"><title>Node4</title>
<a xlink:href="../../d2/dd9/group__ErrorOutput.html#ga550faaef2bb17b03b0068fe094e7b92f" target="_top" xlink:title="jack_set_error_function">
<polygon fill="none" stroke="black" points="206,-120.5 206,-141.5 324,-141.5 324,-120.5 206,-120.5"/>
<text text-anchor="middle" x="265" y="-128.5" font-family="Helvetica,sans-Serif" font-size="10.00">jack_set_error_function</text>
</a>
</g>
<!-- Node1&#45;&gt;Node4 -->
<g id="edge6" class="edge"><title>Node1&#45;&gt;Node4</title>
<path fill="none" stroke="midnightblue" d="M152.057,-119.048C166.501,-120.577 181.544,-122.169 195.763,-123.673"/>
<polygon fill="midnightblue" stroke="midnightblue" points="195.638,-127.18 205.951,-124.751 196.375,-120.218 195.638,-127.18"/>
</g>
<!-- Node5 -->
<g id="node9" class="node"><title>Node5</title>
<a xlink:href="../../d2/dd9/group__ErrorOutput.html#ga1555b7b4ae4056a42c70a3fa278ae17f" target="_top" xlink:title="jack_set_info_function">
<polygon fill="none" stroke="black" points="208,-80.5 208,-101.5 322,-101.5 322,-80.5 208,-80.5"/>
<text text-anchor="middle" x="265" y="-88.5" font-family="Helvetica,sans-Serif" font-size="10.00">jack_set_info_function</text>
</a>
</g>
<!-- Node1&#45;&gt;Node5 -->
<g id="edge8" class="edge"><title>Node1&#45;&gt;Node5</title>
<path fill="none" stroke="midnightblue" d="M152.057,-102.952C167.225,-101.347 183.053,-99.6717 197.894,-98.1012"/>
<polygon fill="midnightblue" stroke="midnightblue" points="198.414,-101.566 207.99,-97.0328 197.678,-94.6046 198.414,-101.566"/>
</g>
<!-- Node6 -->
<g id="node11" class="node"><title>Node6</title>
<a xlink:href="../../d7/d4f/group__ClientCallbacks.html#gafb5ec9fb4b736606d676c135fb97888b" target="_top" xlink:title="jack_set_process_callback">
<polygon fill="none" stroke="black" points="198,-40.5 198,-61.5 332,-61.5 332,-40.5 198,-40.5"/>
<text text-anchor="middle" x="265" y="-48.5" font-family="Helvetica,sans-Serif" font-size="10.00">jack_set_process_callback</text>
</a>
</g>
<!-- Node1&#45;&gt;Node6 -->
<g id="edge10" class="edge"><title>Node1&#45;&gt;Node6</title>
<path fill="none" stroke="midnightblue" d="M103.388,-100.449C125.924,-91.9535 158.794,-79.9889 188,-71 195.696,-68.6315 203.879,-66.3046 211.93,-64.1231"/>
<polygon fill="midnightblue" stroke="midnightblue" points="212.876,-67.4931 221.641,-61.5414 211.078,-60.728 212.876,-67.4931"/>
</g>
<!-- Node7 -->
<g id="node13" class="node"><title>Node7</title>
<a xlink:href="../../d7/d4f/group__ClientCallbacks.html#gac1b3eb298cfa2869b8773c6cecf7f4b3" target="_top" xlink:title="jack_set_sample_rate_callback">
<polygon fill="none" stroke="black" points="188.5,-0.5 188.5,-21.5 341.5,-21.5 341.5,-0.5 188.5,-0.5"/>
<text text-anchor="middle" x="265" y="-8.5" font-family="Helvetica,sans-Serif" font-size="10.00">jack_set_sample_rate_callback</text>
</a>
</g>
<!-- Node1&#45;&gt;Node7 -->
<g id="edge12" class="edge"><title>Node1&#45;&gt;Node7</title>
<path fill="none" stroke="midnightblue" d="M87.8248,-100.272C107.296,-83.1605 147.951,-49.7167 188,-31 193.005,-28.6609 198.326,-26.5645 203.742,-24.692"/>
<polygon fill="midnightblue" stroke="midnightblue" points="205.085,-27.9373 213.545,-21.5594 202.954,-21.2694 205.085,-27.9373"/>
</g>
</g>
</svg>
