<?xml version="1.0" encoding="UTF-8" standalone="no"?>
<!DOCTYPE svg PUBLIC "-//W3C//DTD SVG 1.1//EN"
 "http://www.w3.org/Graphics/SVG/1.1/DTD/svg11.dtd">
<!-- Generated by graphviz version 2.26.3 (20100126.1600)
 -->
<!-- Title: G Pages: 1 -->
<!--zoomable 190 -->
<svg id="main" version="1.1" xmlns="http://www.w3.org/2000/svg" xmlns:xlink="http://www.w3.org/1999/xlink" xml:space="preserve" onload="init(evt)">
        <defs>
                <circle id="rim" cx="0" cy="0" r="7"/>
                <circle id="rim2" cx="0" cy="0" r="3.5"/>
                <g id="zoomPlus">
                        <use xlink:href="#rim" fill="#404040">
                                <set attributeName="fill" to="#808080" begin="zoomplus.mouseover" end="zoomplus.mouseout"/>
                        </use>
                        <path d="M-4,0h8M0,-4v8" fill="none" stroke="white" stroke-width="1.5" pointer-events="none"/>
                </g>
                <g id="zoomMin">
                        <use xlink:href="#rim" fill="#404040">
                                <set attributeName="fill" to="#808080" begin="zoomminus.mouseover" end="zoomminus.mouseout"/>
                        </use>
                        <path d="M-4,0h8" fill="none" stroke="white" stroke-width="1.5" pointer-events="none"/>
                </g>
                <g id="dirArrow">
                        <path fill="none" stroke="white" stroke-width="1.5" d="M0,-3.0v7 M-2.5,-0.5L0,-3.0L2.5,-0.5"/>
                </g>
               <g id="resetDef">
                       <use xlink:href="#rim2" fill="#404040">
                               <set attributeName="fill" to="#808080" begin="reset.mouseover" end="reset.mouseout"/>
                       </use>
               </g>
        </defs>

<script type="text/javascript">
var viewWidth = 568;
var viewHeight = 190;
var sectionId = 'dynsection-0';
</script>
<script xlink:href="../../svgpan.js"/>
<svg id="graph" class="graph">
<g id="viewport">
<title>G</title>
<!-- Node1 -->
<g id="node1" class="node"><title>Node1</title>
<polygon fill="#bfbfbf" stroke="black" points="0,-110.5 0,-131.5 84,-131.5 84,-110.5 0,-110.5"/>
<text text-anchor="middle" x="42" y="-118.5" font-family="Helvetica,sans-Serif" font-size="10.00">JNoise::JNoise</text>
</g>
<!-- Node2 -->
<g id="node3" class="node"><title>Node2</title>
<a xlink:href="../../dc/d2b/classRandomGenerator.html#a18a681f23b7e0394e169c6644f25e709" target="_top" xlink:title="RandomGenerator::grandf">
<polygon fill="none" stroke="black" points="120.5,-140.5 120.5,-161.5 249.5,-161.5 249.5,-140.5 120.5,-140.5"/>
<text text-anchor="middle" x="185" y="-148.5" font-family="Helvetica,sans-Serif" font-size="10.00">RandomGenerator::grandf</text>
</a>
</g>
<!-- Node1&#45;&gt;Node2 -->
<g id="edge2" class="edge"><title>Node1&#45;&gt;Node2</title>
<path fill="none" stroke="midnightblue" d="M84.1313,-129.839C96.9262,-132.523 111.24,-135.526 124.973,-138.407"/>
<polygon fill="midnightblue" stroke="midnightblue" points="124.336,-141.849 134.841,-140.477 125.773,-134.998 124.336,-141.849"/>
</g>
<!-- Node4 -->
<g id="node7" class="node"><title>Node4</title>
<a xlink:href="../../dc/d2b/classRandomGenerator.html#aa8846493e3be4eb3ae33cc51acb755df" target="_top" xlink:title="RandomGenerator::init">
<polygon fill="none" stroke="black" points="127.5,-80.5 127.5,-101.5 242.5,-101.5 242.5,-80.5 127.5,-80.5"/>
<text text-anchor="middle" x="185" y="-88.5" font-family="Helvetica,sans-Serif" font-size="10.00">RandomGenerator::init</text>
</a>
</g>
<!-- Node1&#45;&gt;Node4 -->
<g id="edge6" class="edge"><title>Node1&#45;&gt;Node4</title>
<path fill="none" stroke="midnightblue" d="M84.1313,-112.161C96.9262,-109.477 111.24,-106.474 124.973,-103.593"/>
<polygon fill="midnightblue" stroke="midnightblue" points="125.773,-107.002 134.841,-101.523 124.336,-100.151 125.773,-107.002"/>
</g>
<!-- Node3 -->
<g id="node5" class="node"><title>Node3</title>
<a xlink:href="../../dc/d2b/classRandomGenerator.html#ac033153cac2a8374e15a2fcd3bd97237" target="_top" xlink:title="RandomGenerator::irand">
<polygon fill="none" stroke="black" points="287.5,-160.5 287.5,-181.5 410.5,-181.5 410.5,-160.5 287.5,-160.5"/>
<text text-anchor="middle" x="349" y="-168.5" font-family="Helvetica,sans-Serif" font-size="10.00">RandomGenerator::irand</text>
</a>
</g>
<!-- Node2&#45;&gt;Node3 -->
<g id="edge4" class="edge"><title>Node2&#45;&gt;Node3</title>
<path fill="none" stroke="midnightblue" d="M249.817,-158.905C258.794,-159.999 268.059,-161.129 277.154,-162.238"/>
<polygon fill="midnightblue" stroke="midnightblue" points="276.977,-165.743 287.327,-163.479 277.824,-158.794 276.977,-165.743"/>
</g>
<!-- Node5 -->
<g id="node9" class="node"><title>Node5</title>
<a xlink:href="../../d6/db0/classPRBSGenerator.html#a177cbca8f3cc1da63b4a29bc50cf2ad9" target="_top" xlink:title="PRBSGenerator::setPoly">
<polygon fill="none" stroke="black" points="286,-120.5 286,-141.5 412,-141.5 412,-120.5 286,-120.5"/>
<text text-anchor="middle" x="349" y="-128.5" font-family="Helvetica,sans-Serif" font-size="10.00">PRBSGenerator::setPoly</text>
</a>
</g>
<!-- Node4&#45;&gt;Node5 -->
<g id="edge8" class="edge"><title>Node4&#45;&gt;Node5</title>
<path fill="none" stroke="midnightblue" d="M228.089,-101.51C248.911,-106.588 274.09,-112.729 296.068,-118.09"/>
<polygon fill="midnightblue" stroke="midnightblue" points="295.37,-121.522 305.914,-120.491 297.028,-114.721 295.37,-121.522"/>
</g>
<!-- Node7 -->
<g id="node13" class="node"><title>Node7</title>
<a xlink:href="../../d6/db0/classPRBSGenerator.html#a5a5792cabc8312d00ed83decfb1c205a" target="_top" xlink:title="PRBSGenerator::setStat">
<polygon fill="none" stroke="black" points="286.5,-80.5 286.5,-101.5 411.5,-101.5 411.5,-80.5 286.5,-80.5"/>
<text text-anchor="middle" x="349" y="-88.5" font-family="Helvetica,sans-Serif" font-size="10.00">PRBSGenerator::setStat</text>
</a>
</g>
<!-- Node4&#45;&gt;Node7 -->
<g id="edge12" class="edge"><title>Node4&#45;&gt;Node7</title>
<path fill="none" stroke="midnightblue" d="M242.82,-91C253.623,-91 265.041,-91 276.226,-91"/>
<polygon fill="midnightblue" stroke="midnightblue" points="276.409,-94.5001 286.409,-91 276.409,-87.5001 276.409,-94.5001"/>
</g>
<!-- Node8 -->
<g id="node15" class="node"><title>Node8</title>
<a xlink:href="../../d6/db0/classPRBSGenerator.html#a2c8b9d44afcef8dae17f7363ac1042a4" target="_top" xlink:title="PRBSGenerator::step">
<polygon fill="none" stroke="black" points="293,-40.5 293,-61.5 405,-61.5 405,-40.5 293,-40.5"/>
<text text-anchor="middle" x="349" y="-48.5" font-family="Helvetica,sans-Serif" font-size="10.00">PRBSGenerator::step</text>
</a>
</g>
<!-- Node4&#45;&gt;Node8 -->
<g id="edge14" class="edge"><title>Node4&#45;&gt;Node8</title>
<path fill="none" stroke="midnightblue" d="M228.089,-80.4905C248.911,-75.412 274.09,-69.2708 296.068,-63.9102"/>
<polygon fill="midnightblue" stroke="midnightblue" points="297.028,-67.2787 305.914,-61.5087 295.37,-60.478 297.028,-67.2787"/>
</g>
<!-- Node9 -->
<g id="node17" class="node"><title>Node9</title>
<a xlink:href="../../d6/db0/classPRBSGenerator.html#ac72b113883fbfb329e105e34229cfd48" target="_top" xlink:title="PRBSGenerator::stat">
<polygon fill="none" stroke="black" points="294,-0.5 294,-21.5 404,-21.5 404,-0.5 294,-0.5"/>
<text text-anchor="middle" x="349" y="-8.5" font-family="Helvetica,sans-Serif" font-size="10.00">PRBSGenerator::stat</text>
</a>
</g>
<!-- Node4&#45;&gt;Node9 -->
<g id="edge16" class="edge"><title>Node4&#45;&gt;Node9</title>
<path fill="none" stroke="midnightblue" d="M200.148,-80.4975C219.403,-67.5083 253.993,-45.3593 286,-31 290.785,-28.8532 295.87,-26.8355 300.994,-24.9692"/>
<polygon fill="midnightblue" stroke="midnightblue" points="302.52,-28.1452 310.83,-21.5727 300.235,-21.5286 302.52,-28.1452"/>
</g>
<!-- Node6 -->
<g id="node11" class="node"><title>Node6</title>
<a xlink:href="../../d6/db0/classPRBSGenerator.html#a19a3b9cb35dbff18b83d34bcafe22e05" target="_top" xlink:title="PRBSGenerator::poly">
<polygon fill="none" stroke="black" points="448.5,-120.5 448.5,-141.5 559.5,-141.5 559.5,-120.5 448.5,-120.5"/>
<text text-anchor="middle" x="504" y="-128.5" font-family="Helvetica,sans-Serif" font-size="10.00">PRBSGenerator::poly</text>
</a>
</g>
<!-- Node5&#45;&gt;Node6 -->
<g id="edge10" class="edge"><title>Node5&#45;&gt;Node6</title>
<path fill="none" stroke="midnightblue" d="M412.044,-131C420.719,-131 429.644,-131 438.364,-131"/>
<polygon fill="midnightblue" stroke="midnightblue" points="438.479,-134.5 448.479,-131 438.479,-127.5 438.479,-134.5"/>
</g>
</g>
</svg>
        <g id="navigator" transform="translate(0 0)" fill="#404254">
                <rect fill="#f2f5e9" fill-opacity="0.5" stroke="#606060" stroke-width=".5" x="0" y="0" width="60" height="60"/>
                <use id="zoomplus" xlink:href="#zoomPlus" x="17" y="9" onmousedown="handleZoom(evt,'in')"/>
                <use id="zoomminus" xlink:href="#zoomMin" x="42" y="9" onmousedown="handleZoom(evt,'out')"/>
                <use id="reset" xlink:href="#resetDef" x="30" y="36" onmousedown="handleReset()"/>
                <g id="arrowUp" xlink:href="#dirArrow" transform="translate(30 24)" onmousedown="handlePan(0,-1)">
                  <use xlink:href="#rim" fill="#404040">
                        <set attributeName="fill" to="#808080" begin="arrowUp.mouseover" end="arrowUp.mouseout"/>
                  </use>
                  <path fill="none" stroke="white" stroke-width="1.5" d="M0,-3.0v7 M-2.5,-0.5L0,-3.0L2.5,-0.5"/>
                </g>
                <g id="arrowRight" xlink:href="#dirArrow" transform="rotate(90) translate(36 -43)" onmousedown="handlePan(1,0)">
                  <use xlink:href="#rim" fill="#404040">
                        <set attributeName="fill" to="#808080" begin="arrowRight.mouseover" end="arrowRight.mouseout"/>
                  </use>
                  <path fill="none" stroke="white" stroke-width="1.5" d="M0,-3.0v7 M-2.5,-0.5L0,-3.0L2.5,-0.5"/>
                </g>
                <g id="arrowDown" xlink:href="#dirArrow" transform="rotate(180) translate(-30 -48)" onmousedown="handlePan(0,1)">
                  <use xlink:href="#rim" fill="#404040">
                        <set attributeName="fill" to="#808080" begin="arrowDown.mouseover" end="arrowDown.mouseout"/>
                  </use>
                  <path fill="none" stroke="white" stroke-width="1.5" d="M0,-3.0v7 M-2.5,-0.5L0,-3.0L2.5,-0.5"/>
                </g>
                <g id="arrowLeft" xlink:href="#dirArrow" transform="rotate(270) translate(-36 17)" onmousedown="handlePan(-1,0)">
                  <use xlink:href="#rim" fill="#404040">
                        <set attributeName="fill" to="#808080" begin="arrowLeft.mouseover" end="arrowLeft.mouseout"/>
                  </use>
                  <path fill="none" stroke="white" stroke-width="1.5" d="M0,-3.0v7 M-2.5,-0.5L0,-3.0L2.5,-0.5"/>
                </g>
        </g>
</svg>
