<?xml version="1.0" encoding="UTF-8" standalone="no"?>
<!DOCTYPE svg PUBLIC "-//W3C//DTD SVG 1.1//EN"
 "http://www.w3.org/Graphics/SVG/1.1/DTD/svg11.dtd">
<!-- Generated by graphviz version 2.26.3 (20100126.1600)
 -->
<!-- Title: G Pages: 1 -->
<!--zoomable 378 -->
<svg id="main" version="1.1" xmlns="http://www.w3.org/2000/svg" xmlns:xlink="http://www.w3.org/1999/xlink" xml:space="preserve" onload="init(evt)">
        <defs>
                <circle id="rim" cx="0" cy="0" r="7"/>
                <circle id="rim2" cx="0" cy="0" r="3.5"/>
                <g id="zoomPlus">
                        <use xlink:href="#rim" fill="#404040">
                                <set attributeName="fill" to="#808080" begin="zoomplus.mouseover" end="zoomplus.mouseout"/>
                        </use>
                        <path d="M-4,0h8M0,-4v8" fill="none" stroke="white" stroke-width="1.5" pointer-events="none"/>
                </g>
                <g id="zoomMin">
                        <use xlink:href="#rim" fill="#404040">
                                <set attributeName="fill" to="#808080" begin="zoomminus.mouseover" end="zoomminus.mouseout"/>
                        </use>
                        <path d="M-4,0h8" fill="none" stroke="white" stroke-width="1.5" pointer-events="none"/>
                </g>
                <g id="dirArrow">
                        <path fill="none" stroke="white" stroke-width="1.5" d="M0,-3.0v7 M-2.5,-0.5L0,-3.0L2.5,-0.5"/>
                </g>
               <g id="resetDef">
                       <use xlink:href="#rim2" fill="#404040">
                               <set attributeName="fill" to="#808080" begin="reset.mouseover" end="reset.mouseout"/>
                       </use>
               </g>
        </defs>

<script type="text/javascript">
var viewWidth = 588;
var viewHeight = 378;
var sectionId = 'dynsection-1';
</script>
<script xlink:href="../../svgpan.js"/>
<svg id="graph" class="graph">
<g id="viewport">
<title>G</title>
<!-- Node1 -->
<g id="node1" class="node"><title>Node1</title>
<polygon fill="#bfbfbf" stroke="black" points="145,-348.5 145,-369.5 273,-369.5 273,-348.5 145,-348.5"/>
<text text-anchor="middle" x="209" y="-356.5" font-family="Helvetica,sans-Serif" font-size="10.00">libear/include/processor.h</text>
</g>
<!-- Node2 -->
<g id="node3" class="node"><title>Node2</title>
<a xlink:href="../../db/da1/jackadapter_8h.html" target="_top" xlink:title="libear/include/jackadapter.h">
<polygon fill="none" stroke="black" points="243.5,-290.5 243.5,-311.5 378.5,-311.5 378.5,-290.5 243.5,-290.5"/>
<text text-anchor="middle" x="311" y="-298.5" font-family="Helvetica,sans-Serif" font-size="10.00">libear/include/jackadapter.h</text>
</a>
</g>
<!-- Node1&#45;&gt;Node2 -->
<g id="edge2" class="edge"><title>Node1&#45;&gt;Node2</title>
<path fill="none" stroke="midnightblue" d="M236.471,-343.379C254.195,-333.301 276.773,-320.462 292.41,-311.571"/>
<polygon fill="midnightblue" stroke="midnightblue" points="234.671,-340.376 227.708,-348.362 238.131,-346.461 234.671,-340.376"/>
</g>
<!-- Node7 -->
<g id="node14" class="node"><title>Node7</title>
<a xlink:href="../../d2/de4/earprocessor_8h.html" target="_top" xlink:title="libear/include/earprocessor.h">
<polygon fill="none" stroke="black" points="33.5,-174.5 33.5,-195.5 174.5,-195.5 174.5,-174.5 33.5,-174.5"/>
<text text-anchor="middle" x="104" y="-182.5" font-family="Helvetica,sans-Serif" font-size="10.00">libear/include/earprocessor.h</text>
</a>
</g>
<!-- Node1&#45;&gt;Node7 -->
<g id="edge32" class="edge"><title>Node1&#45;&gt;Node7</title>
<path fill="none" stroke="midnightblue" d="M196.827,-339.711C183.639,-318.727 162.061,-284.142 144,-254 131.759,-233.571 117.91,-209.446 110.14,-195.813"/>
<polygon fill="midnightblue" stroke="midnightblue" points="193.964,-341.733 202.253,-348.331 199.888,-338.003 193.964,-341.733"/>
</g>
<!-- Node3 -->
<g id="node5" class="node"><title>Node3</title>
<a xlink:href="../../d9/d53/mainwindow_8h.html" target="_top" xlink:title="gui/include/mainwindow.h">
<polygon fill="none" stroke="black" points="279,-58.5 279,-79.5 407,-79.5 407,-58.5 279,-58.5"/>
<text text-anchor="middle" x="343" y="-66.5" font-family="Helvetica,sans-Serif" font-size="10.00">gui/include/mainwindow.h</text>
</a>
</g>
<!-- Node2&#45;&gt;Node3 -->
<g id="edge4" class="edge"><title>Node2&#45;&gt;Node3</title>
<path fill="none" stroke="midnightblue" d="M327.455,-282.407C333.596,-274.272 339.841,-264.253 343,-254 362.576,-190.463 350.494,-108.72 345.152,-79.7553"/>
<polygon fill="midnightblue" stroke="midnightblue" points="324.546,-280.44 320.984,-290.418 329.991,-284.839 324.546,-280.44"/>
</g>
<!-- Node5 -->
<g id="node9" class="node"><title>Node5</title>
<a xlink:href="../../d8/dd9/mainwindow_8cpp.html" target="_top" xlink:title="gui/src/mainwindow.cpp">
<polygon fill="none" stroke="black" points="458,-0.5 458,-21.5 580,-21.5 580,-0.5 458,-0.5"/>
<text text-anchor="middle" x="519" y="-8.5" font-family="Helvetica,sans-Serif" font-size="10.00">gui/src/mainwindow.cpp</text>
</a>
</g>
<!-- Node2&#45;&gt;Node5 -->
<g id="edge10" class="edge"><title>Node2&#45;&gt;Node5</title>
<path fill="none" stroke="midnightblue" d="M388.949,-292.573C442.411,-285.245 507.137,-272.81 527,-254 550.096,-232.129 546,-216.808 546,-185 546,-185 546,-185 546,-127 546,-87.2997 530.812,-41.8999 523.219,-21.6812"/>
<polygon fill="midnightblue" stroke="midnightblue" points="388.219,-289.139 378.768,-293.926 389.142,-296.078 388.219,-289.139"/>
</g>
<!-- Node6 -->
<g id="node12" class="node"><title>Node6</title>
<a xlink:href="../../d6/def/digitalequalizer_8h.html" target="_top" xlink:title="libear/include/digitalequalizer.h">
<polygon fill="none" stroke="black" points="185.5,-232.5 185.5,-253.5 334.5,-253.5 334.5,-232.5 185.5,-232.5"/>
<text text-anchor="middle" x="260" y="-240.5" font-family="Helvetica,sans-Serif" font-size="10.00">libear/include/digitalequalizer.h</text>
</a>
</g>
<!-- Node2&#45;&gt;Node6 -->
<g id="edge12" class="edge"><title>Node2&#45;&gt;Node6</title>
<path fill="none" stroke="midnightblue" d="M295.023,-282.83C286.562,-273.208 276.468,-261.728 269.295,-253.571"/>
<polygon fill="midnightblue" stroke="midnightblue" points="292.414,-285.163 301.646,-290.362 297.671,-280.541 292.414,-285.163"/>
</g>
<!-- Node2&#45;&gt;Node7 -->
<g id="edge28" class="edge"><title>Node2&#45;&gt;Node7</title>
<path fill="none" stroke="midnightblue" d="M256.575,-287.575C231.27,-279.944 201.44,-268.893 177,-254 150.344,-237.756 125.274,-210.494 112.605,-195.563"/>
<polygon fill="midnightblue" stroke="midnightblue" points="255.811,-290.997 266.39,-290.434 257.768,-284.277 255.811,-290.997"/>
</g>
<!-- Node12 -->
<g id="node27" class="node"><title>Node12</title>
<a xlink:href="../../d6/df6/jackadapter_8cpp.html" target="_top" xlink:title="libear/src/jackadapter.cpp">
<polygon fill="none" stroke="black" points="390,-232.5 390,-253.5 518,-253.5 518,-232.5 390,-232.5"/>
<text text-anchor="middle" x="454" y="-240.5" font-family="Helvetica,sans-Serif" font-size="10.00">libear/src/jackadapter.cpp</text>
</a>
</g>
<!-- Node2&#45;&gt;Node12 -->
<g id="edge30" class="edge"><title>Node2&#45;&gt;Node12</title>
<path fill="none" stroke="midnightblue" d="M346.466,-286.615C371.679,-276.389 404.987,-262.88 427.813,-253.621"/>
<polygon fill="midnightblue" stroke="midnightblue" points="344.847,-283.495 336.896,-290.497 347.479,-289.981 344.847,-283.495"/>
</g>
<!-- Node4 -->
<g id="node7" class="node"><title>Node4</title>
<a xlink:href="../../d0/db5/launcher_8cpp.html" target="_top" xlink:title="gui/src/launcher.cpp">
<polygon fill="none" stroke="black" points="291,-0.5 291,-21.5 395,-21.5 395,-0.5 291,-0.5"/>
<text text-anchor="middle" x="343" y="-8.5" font-family="Helvetica,sans-Serif" font-size="10.00">gui/src/launcher.cpp</text>
</a>
</g>
<!-- Node3&#45;&gt;Node4 -->
<g id="edge6" class="edge"><title>Node3&#45;&gt;Node4</title>
<path fill="none" stroke="midnightblue" d="M343,-48.1906C343,-39.1684 343,-28.9941 343,-21.5707"/>
<polygon fill="midnightblue" stroke="midnightblue" points="339.5,-48.3619 343,-58.3619 346.5,-48.3619 339.5,-48.3619"/>
</g>
<!-- Node3&#45;&gt;Node5 -->
<g id="edge8" class="edge"><title>Node3&#45;&gt;Node5</title>
<path fill="none" stroke="midnightblue" d="M384.637,-55.2787C415.998,-44.9437 458.356,-30.9849 487.068,-21.5231"/>
<polygon fill="midnightblue" stroke="midnightblue" points="383.274,-52.0425 374.872,-58.4966 385.465,-58.6908 383.274,-52.0425"/>
</g>
<!-- Node6&#45;&gt;Node7 -->
<g id="edge14" class="edge"><title>Node6&#45;&gt;Node7</title>
<path fill="none" stroke="midnightblue" d="M222.37,-229.009C194.648,-218.702 157.532,-204.903 132.303,-195.523"/>
<polygon fill="midnightblue" stroke="midnightblue" points="221.157,-232.292 231.75,-232.497 223.596,-225.731 221.157,-232.292"/>
</g>
<!-- Node11 -->
<g id="node24" class="node"><title>Node11</title>
<a xlink:href="../../dc/d2f/digitalequalizer_8cpp.html" target="_top" xlink:title="libear/src/digitalequalizer.cpp">
<polygon fill="none" stroke="black" points="191.5,-174.5 191.5,-195.5 334.5,-195.5 334.5,-174.5 191.5,-174.5"/>
<text text-anchor="middle" x="263" y="-182.5" font-family="Helvetica,sans-Serif" font-size="10.00">libear/src/digitalequalizer.cpp</text>
</a>
</g>
<!-- Node6&#45;&gt;Node11 -->
<g id="edge26" class="edge"><title>Node6&#45;&gt;Node11</title>
<path fill="none" stroke="midnightblue" d="M261.076,-222.191C261.543,-213.168 262.069,-202.994 262.453,-195.571"/>
<polygon fill="midnightblue" stroke="midnightblue" points="257.572,-222.194 260.55,-232.362 264.562,-222.556 257.572,-222.194"/>
</g>
<!-- Node7&#45;&gt;Node3 -->
<g id="edge16" class="edge"><title>Node7&#45;&gt;Node3</title>
<path fill="none" stroke="midnightblue" d="M184.679,-172.984C231.902,-164.653 285.902,-152.475 305,-138 324.618,-123.131 335.435,-95.059 340.128,-79.7017"/>
<polygon fill="midnightblue" stroke="midnightblue" points="183.979,-169.553 174.72,-174.702 185.17,-176.451 183.979,-169.553"/>
</g>
<!-- Node8 -->
<g id="node17" class="node"><title>Node8</title>
<a xlink:href="../../d6/d0c/visualizerwidget_8h.html" target="_top" xlink:title="gui/include/visualizerwidget.h">
<polygon fill="none" stroke="black" points="0,-116.5 0,-137.5 144,-137.5 144,-116.5 0,-116.5"/>
<text text-anchor="middle" x="72" y="-124.5" font-family="Helvetica,sans-Serif" font-size="10.00">gui/include/visualizerwidget.h</text>
</a>
</g>
<!-- Node7&#45;&gt;Node8 -->
<g id="edge18" class="edge"><title>Node7&#45;&gt;Node8</title>
<path fill="none" stroke="midnightblue" d="M93.1715,-165.373C88.0376,-156.068 82.1078,-145.32 77.8321,-137.571"/>
<polygon fill="midnightblue" stroke="midnightblue" points="90.2354,-167.297 98.1307,-174.362 96.3644,-163.915 90.2354,-167.297"/>
</g>
<!-- Node10 -->
<g id="node22" class="node"><title>Node10</title>
<a xlink:href="../../d7/d53/earprocessor_8cpp.html" target="_top" xlink:title="libear/src/earprocessor.cpp">
<polygon fill="none" stroke="black" points="162,-116.5 162,-137.5 296,-137.5 296,-116.5 162,-116.5"/>
<text text-anchor="middle" x="229" y="-124.5" font-family="Helvetica,sans-Serif" font-size="10.00">libear/src/earprocessor.cpp</text>
</a>
</g>
<!-- Node7&#45;&gt;Node10 -->
<g id="edge24" class="edge"><title>Node7&#45;&gt;Node10</title>
<path fill="none" stroke="midnightblue" d="M135.883,-170.206C157.812,-160.031 186.421,-146.757 206.109,-137.621"/>
<polygon fill="midnightblue" stroke="midnightblue" points="134.234,-167.113 126.637,-174.497 137.181,-173.462 134.234,-167.113"/>
</g>
<!-- Node8&#45;&gt;Node3 -->
<g id="edge20" class="edge"><title>Node8&#45;&gt;Node3</title>
<path fill="none" stroke="midnightblue" d="M131.157,-114.339C179.858,-103.916 248.091,-89.3126 293.832,-79.5231"/>
<polygon fill="midnightblue" stroke="midnightblue" points="130.122,-110.981 121.076,-116.497 131.587,-117.826 130.122,-110.981"/>
</g>
<!-- Node9 -->
<g id="node20" class="node"><title>Node9</title>
<a xlink:href="../../db/d0a/visualizerwidget_8cpp.html" target="_top" xlink:title="gui/src/visualizerwidget.cpp">
<polygon fill="none" stroke="black" points="3.5,-58.5 3.5,-79.5 140.5,-79.5 140.5,-58.5 3.5,-58.5"/>
<text text-anchor="middle" x="72" y="-66.5" font-family="Helvetica,sans-Serif" font-size="10.00">gui/src/visualizerwidget.cpp</text>
</a>
</g>
<!-- Node8&#45;&gt;Node9 -->
<g id="edge22" class="edge"><title>Node8&#45;&gt;Node9</title>
<path fill="none" stroke="midnightblue" d="M72,-106.191C72,-97.1684 72,-86.9941 72,-79.5707"/>
<polygon fill="midnightblue" stroke="midnightblue" points="68.5001,-106.362 72,-116.362 75.5001,-106.362 68.5001,-106.362"/>
</g>
</g>
</svg>
        <g id="navigator" transform="translate(0 0)" fill="#404254">
                <rect fill="#f2f5e9" fill-opacity="0.5" stroke="#606060" stroke-width=".5" x="0" y="0" width="60" height="60"/>
                <use id="zoomplus" xlink:href="#zoomPlus" x="17" y="9" onmousedown="handleZoom(evt,'in')"/>
                <use id="zoomminus" xlink:href="#zoomMin" x="42" y="9" onmousedown="handleZoom(evt,'out')"/>
                <use id="reset" xlink:href="#resetDef" x="30" y="36" onmousedown="handleReset()"/>
                <g id="arrowUp" xlink:href="#dirArrow" transform="translate(30 24)" onmousedown="handlePan(0,-1)">
                  <use xlink:href="#rim" fill="#404040">
                        <set attributeName="fill" to="#808080" begin="arrowUp.mouseover" end="arrowUp.mouseout"/>
                  </use>
                  <path fill="none" stroke="white" stroke-width="1.5" d="M0,-3.0v7 M-2.5,-0.5L0,-3.0L2.5,-0.5"/>
                </g>
                <g id="arrowRight" xlink:href="#dirArrow" transform="rotate(90) translate(36 -43)" onmousedown="handlePan(1,0)">
                  <use xlink:href="#rim" fill="#404040">
                        <set attributeName="fill" to="#808080" begin="arrowRight.mouseover" end="arrowRight.mouseout"/>
                  </use>
                  <path fill="none" stroke="white" stroke-width="1.5" d="M0,-3.0v7 M-2.5,-0.5L0,-3.0L2.5,-0.5"/>
                </g>
                <g id="arrowDown" xlink:href="#dirArrow" transform="rotate(180) translate(-30 -48)" onmousedown="handlePan(0,1)">
                  <use xlink:href="#rim" fill="#404040">
                        <set attributeName="fill" to="#808080" begin="arrowDown.mouseover" end="arrowDown.mouseout"/>
                  </use>
                  <path fill="none" stroke="white" stroke-width="1.5" d="M0,-3.0v7 M-2.5,-0.5L0,-3.0L2.5,-0.5"/>
                </g>
                <g id="arrowLeft" xlink:href="#dirArrow" transform="rotate(270) translate(-36 17)" onmousedown="handlePan(-1,0)">
                  <use xlink:href="#rim" fill="#404040">
                        <set attributeName="fill" to="#808080" begin="arrowLeft.mouseover" end="arrowLeft.mouseout"/>
                  </use>
                  <path fill="none" stroke="white" stroke-width="1.5" d="M0,-3.0v7 M-2.5,-0.5L0,-3.0L2.5,-0.5"/>
                </g>
        </g>
</svg>
