<?xml version="1.0" encoding="UTF-8" standalone="no"?>
<!DOCTYPE svg PUBLIC "-//W3C//DTD SVG 1.1//EN"
 "http://www.w3.org/Graphics/SVG/1.1/DTD/svg11.dtd">
<!-- Generated by graphviz version 2.26.3 (20100126.1600)
 -->
<!-- Title: G Pages: 1 -->
<svg width="334pt" height="146pt"
 viewBox="0.00 0.00 334.00 146.00" xmlns="http://www.w3.org/2000/svg" xmlns:xlink="http://www.w3.org/1999/xlink">
<g id="graph1" class="graph" transform="scale(1 1) rotate(0) translate(4 142)">
<title>G</title>
<!-- Node1 -->
<g id="node1" class="node"><title>Node1</title>
<polygon fill="#bfbfbf" stroke="black" points="37.5,-116.5 37.5,-137.5 216.5,-137.5 216.5,-116.5 37.5,-116.5"/>
<text text-anchor="middle" x="127" y="-124.5" font-family="Helvetica,sans-Serif" font-size="10.00">libear/src/jnoise/randomgenerator.cpp</text>
</g>
<!-- Node2 -->
<g id="node3" class="node"><title>Node2</title>
<polygon fill="none" stroke="#bfbfbf" points="-0.5,-58.5 -0.5,-79.5 46.5,-79.5 46.5,-58.5 -0.5,-58.5"/>
<text text-anchor="middle" x="23" y="-66.5" font-family="Helvetica,sans-Serif" font-size="10.00">math.h</text>
</g>
<!-- Node1&#45;&gt;Node2 -->
<g id="edge2" class="edge"><title>Node1&#45;&gt;Node2</title>
<path fill="none" stroke="midnightblue" d="M107.925,-116.362C91.9453,-107.45 68.919,-94.6087 50.8733,-84.5447"/>
<polygon fill="midnightblue" stroke="midnightblue" points="52.3927,-81.3846 41.9543,-79.5707 48.9832,-87.4982 52.3927,-81.3846"/>
</g>
<!-- Node3 -->
<g id="node5" class="node"><title>Node3</title>
<polygon fill="none" stroke="#bfbfbf" points="64,-58.5 64,-79.5 108,-79.5 108,-58.5 64,-58.5"/>
<text text-anchor="middle" x="86" y="-66.5" font-family="Helvetica,sans-Serif" font-size="10.00">time.h</text>
</g>
<!-- Node1&#45;&gt;Node3 -->
<g id="edge4" class="edge"><title>Node1&#45;&gt;Node3</title>
<path fill="none" stroke="midnightblue" d="M119.48,-116.362C113.874,-108.431 106.068,-97.3885 99.4032,-87.9606"/>
<polygon fill="midnightblue" stroke="midnightblue" points="102.103,-85.7161 93.4724,-79.5707 96.3867,-89.7568 102.103,-85.7161"/>
</g>
<!-- Node4 -->
<g id="node7" class="node"><title>Node4</title>
<a xlink:href="../../db/d33/prbsgenerator_8h.html" target="_top" xlink:title="prbsgenerator.h">
<polygon fill="none" stroke="black" points="126,-58.5 126,-79.5 210,-79.5 210,-58.5 126,-58.5"/>
<text text-anchor="middle" x="168" y="-66.5" font-family="Helvetica,sans-Serif" font-size="10.00">prbsgenerator.h</text>
</a>
</g>
<!-- Node1&#45;&gt;Node4 -->
<g id="edge6" class="edge"><title>Node1&#45;&gt;Node4</title>
<path fill="none" stroke="midnightblue" d="M134.52,-116.362C140.126,-108.431 147.932,-97.3885 154.597,-87.9606"/>
<polygon fill="midnightblue" stroke="midnightblue" points="157.613,-89.7568 160.528,-79.5707 151.897,-85.7161 157.613,-89.7568"/>
</g>
<!-- Node8 -->
<g id="node15" class="node"><title>Node8</title>
<a xlink:href="../../d4/d5f/randomgenerator_8h.html" target="_top" xlink:title="randomgenerator.h">
<polygon fill="none" stroke="black" points="228,-58.5 228,-79.5 326,-79.5 326,-58.5 228,-58.5"/>
<text text-anchor="middle" x="277" y="-66.5" font-family="Helvetica,sans-Serif" font-size="10.00">randomgenerator.h</text>
</a>
</g>
<!-- Node1&#45;&gt;Node8 -->
<g id="edge14" class="edge"><title>Node1&#45;&gt;Node8</title>
<path fill="none" stroke="midnightblue" d="M154.164,-116.497C178.3,-107.164 213.781,-93.4447 240.412,-83.1475"/>
<polygon fill="midnightblue" stroke="midnightblue" points="241.72,-86.394 249.785,-79.5231 239.196,-79.8651 241.72,-86.394"/>
</g>
<!-- Node5 -->
<g id="node9" class="node"><title>Node5</title>
<polygon fill="none" stroke="#bfbfbf" points="107,-0.5 107,-21.5 159,-21.5 159,-0.5 107,-0.5"/>
<text text-anchor="middle" x="133" y="-8.5" font-family="Helvetica,sans-Serif" font-size="10.00">assert.h</text>
</g>
<!-- Node4&#45;&gt;Node5 -->
<g id="edge8" class="edge"><title>Node4&#45;&gt;Node5</title>
<path fill="none" stroke="midnightblue" d="M161.58,-58.3619C156.844,-50.5131 150.268,-39.6159 144.618,-30.2527"/>
<polygon fill="midnightblue" stroke="midnightblue" points="147.542,-28.3242 139.379,-21.5707 141.549,-31.9409 147.542,-28.3242"/>
</g>
<!-- Node6 -->
<g id="node11" class="node"><title>Node6</title>
<polygon fill="none" stroke="#bfbfbf" points="243,-0.5 243,-21.5 311,-21.5 311,-0.5 243,-0.5"/>
<text text-anchor="middle" x="277" y="-8.5" font-family="Helvetica,sans-Serif" font-size="10.00">sys/types.h</text>
</g>
<!-- Node4&#45;&gt;Node6 -->
<g id="edge10" class="edge"><title>Node4&#45;&gt;Node6</title>
<path fill="none" stroke="midnightblue" d="M187.739,-58.4966C204.61,-49.5194 229.109,-36.4835 248.174,-26.3387"/>
<polygon fill="midnightblue" stroke="midnightblue" points="249.856,-29.4086 257.039,-21.6212 246.567,-23.2289 249.856,-29.4086"/>
</g>
<!-- Node7 -->
<g id="node13" class="node"><title>Node7</title>
<polygon fill="none" stroke="#bfbfbf" points="176.5,-0.5 176.5,-21.5 225.5,-21.5 225.5,-0.5 176.5,-0.5"/>
<text text-anchor="middle" x="201" y="-8.5" font-family="Helvetica,sans-Serif" font-size="10.00">stdint.h</text>
</g>
<!-- Node4&#45;&gt;Node7 -->
<g id="edge12" class="edge"><title>Node4&#45;&gt;Node7</title>
<path fill="none" stroke="midnightblue" d="M174.053,-58.3619C178.472,-50.5949 184.59,-39.8426 189.879,-30.5458"/>
<polygon fill="midnightblue" stroke="midnightblue" points="193.082,-31.9932 194.986,-21.5707 186.998,-28.5315 193.082,-31.9932"/>
</g>
<!-- Node8&#45;&gt;Node6 -->
<g id="edge16" class="edge"><title>Node8&#45;&gt;Node6</title>
<path fill="none" stroke="midnightblue" d="M277,-58.3619C277,-50.9219 277,-40.7427 277,-31.7276"/>
<polygon fill="midnightblue" stroke="midnightblue" points="280.5,-31.5706 277,-21.5707 273.5,-31.5707 280.5,-31.5706"/>
</g>
<!-- Node8&#45;&gt;Node7 -->
<g id="edge18" class="edge"><title>Node8&#45;&gt;Node7</title>
<path fill="none" stroke="midnightblue" d="M263.06,-58.3619C251.812,-49.7773 235.784,-37.5459 222.835,-27.6636"/>
<polygon fill="midnightblue" stroke="midnightblue" points="224.924,-24.8551 214.851,-21.5707 220.677,-30.4198 224.924,-24.8551"/>
</g>
</g>
</svg>
