<?xml version="1.0" encoding="UTF-8" standalone="no"?>
<!DOCTYPE svg PUBLIC "-//W3C//DTD SVG 1.1//EN"
 "http://www.w3.org/Graphics/SVG/1.1/DTD/svg11.dtd">
<!-- Generated by graphviz version 2.26.3 (20100126.1600)
 -->
<!-- Title: G Pages: 1 -->
<!--zoomable 378 -->
<svg id="main" version="1.1" xmlns="http://www.w3.org/2000/svg" xmlns:xlink="http://www.w3.org/1999/xlink" xml:space="preserve" onload="init(evt)">
        <defs>
                <circle id="rim" cx="0" cy="0" r="7"/>
                <circle id="rim2" cx="0" cy="0" r="3.5"/>
                <g id="zoomPlus">
                        <use xlink:href="#rim" fill="#404040">
                                <set attributeName="fill" to="#808080" begin="zoomplus.mouseover" end="zoomplus.mouseout"/>
                        </use>
                        <path d="M-4,0h8M0,-4v8" fill="none" stroke="white" stroke-width="1.5" pointer-events="none"/>
                </g>
                <g id="zoomMin">
                        <use xlink:href="#rim" fill="#404040">
                                <set attributeName="fill" to="#808080" begin="zoomminus.mouseover" end="zoomminus.mouseout"/>
                        </use>
                        <path d="M-4,0h8" fill="none" stroke="white" stroke-width="1.5" pointer-events="none"/>
                </g>
                <g id="dirArrow">
                        <path fill="none" stroke="white" stroke-width="1.5" d="M0,-3.0v7 M-2.5,-0.5L0,-3.0L2.5,-0.5"/>
                </g>
               <g id="resetDef">
                       <use xlink:href="#rim2" fill="#404040">
                               <set attributeName="fill" to="#808080" begin="reset.mouseover" end="reset.mouseout"/>
                       </use>
               </g>
        </defs>

<script type="text/javascript">
var viewWidth = 608;
var viewHeight = 378;
var sectionId = 'dynsection-0';
</script>
<script xlink:href="../../svgpan.js"/>
<svg id="graph" class="graph">
<g id="viewport">
<title>G</title>
<!-- Node1 -->
<g id="node1" class="node"><title>Node1</title>
<polygon fill="#bfbfbf" stroke="black" points="89.5,-348.5 89.5,-369.5 238.5,-369.5 238.5,-348.5 89.5,-348.5"/>
<text text-anchor="middle" x="164" y="-356.5" font-family="Helvetica,sans-Serif" font-size="10.00">libear/include/digitalequalizer.h</text>
</g>
<!-- Node2 -->
<g id="node3" class="node"><title>Node2</title>
<polygon fill="none" stroke="#bfbfbf" points="83.5,-290.5 83.5,-311.5 136.5,-311.5 136.5,-290.5 83.5,-290.5"/>
<text text-anchor="middle" x="110" y="-298.5" font-family="Helvetica,sans-Serif" font-size="10.00">QVector</text>
</g>
<!-- Node1&#45;&gt;Node2 -->
<g id="edge2" class="edge"><title>Node1&#45;&gt;Node2</title>
<path fill="none" stroke="midnightblue" d="M154.096,-348.362C146.484,-340.186 135.792,-328.702 126.843,-319.091"/>
<polygon fill="midnightblue" stroke="midnightblue" points="129.217,-316.505 119.842,-311.571 124.094,-321.275 129.217,-316.505"/>
</g>
<!-- Node3 -->
<g id="node5" class="node"><title>Node3</title>
<polygon fill="none" stroke="#bfbfbf" points="14,-232.5 14,-253.5 88,-253.5 88,-232.5 14,-232.5"/>
<text text-anchor="middle" x="51" y="-240.5" font-family="Helvetica,sans-Serif" font-size="10.00">QSemaphore</text>
</g>
<!-- Node1&#45;&gt;Node3 -->
<g id="edge4" class="edge"><title>Node1&#45;&gt;Node3</title>
<path fill="none" stroke="midnightblue" d="M163.694,-348.445C162.743,-333.771 159.043,-307.086 145,-290 132.782,-275.133 114.676,-264.539 97.6078,-257.22"/>
<polygon fill="midnightblue" stroke="midnightblue" points="98.8607,-253.951 88.2762,-253.484 96.2593,-260.45 98.8607,-253.951"/>
</g>
<!-- Node4 -->
<g id="node7" class="node"><title>Node4</title>
<a xlink:href="../../db/da1/jackadapter_8h.html" target="_top" xlink:title="jackadapter.h">
<polygon fill="none" stroke="black" points="259.5,-290.5 259.5,-311.5 334.5,-311.5 334.5,-290.5 259.5,-290.5"/>
<text text-anchor="middle" x="297" y="-298.5" font-family="Helvetica,sans-Serif" font-size="10.00">jackadapter.h</text>
</a>
</g>
<!-- Node1&#45;&gt;Node4 -->
<g id="edge6" class="edge"><title>Node1&#45;&gt;Node4</title>
<path fill="none" stroke="midnightblue" d="M188.085,-348.497C209.139,-339.315 239.927,-325.889 263.402,-315.652"/>
<polygon fill="midnightblue" stroke="midnightblue" points="264.877,-318.827 272.644,-311.621 262.079,-312.41 264.877,-318.827"/>
</g>
<!-- Node4&#45;&gt;Node3 -->
<g id="edge48" class="edge"><title>Node4&#45;&gt;Node3</title>
<path fill="none" stroke="midnightblue" d="M259.37,-292.128C216.11,-281.928 145.047,-265.174 98.1381,-254.114"/>
<polygon fill="midnightblue" stroke="midnightblue" points="98.7591,-250.664 88.2227,-251.776 97.1527,-257.478 98.7591,-250.664"/>
</g>
<!-- Node5 -->
<g id="node9" class="node"><title>Node5</title>
<a xlink:href="../../df/d89/jack_8h.html" target="_top" xlink:title="jack/jack.h">
<polygon fill="none" stroke="black" points="92,-174.5 92,-195.5 156,-195.5 156,-174.5 92,-174.5"/>
<text text-anchor="middle" x="124" y="-182.5" font-family="Helvetica,sans-Serif" font-size="10.00">jack/jack.h</text>
</a>
</g>
<!-- Node4&#45;&gt;Node5 -->
<g id="edge8" class="edge"><title>Node4&#45;&gt;Node5</title>
<path fill="none" stroke="midnightblue" d="M259.261,-294.832C216.732,-287.092 151.377,-272.551 135,-254 123.436,-240.902 121.403,-220.699 121.836,-205.533"/>
<polygon fill="midnightblue" stroke="midnightblue" points="125.329,-205.761 122.487,-195.554 118.343,-205.305 125.329,-205.761"/>
</g>
<!-- Node10 -->
<g id="node22" class="node"><title>Node10</title>
<polygon fill="none" stroke="#bfbfbf" points="144,-232.5 144,-253.5 198,-253.5 198,-232.5 144,-232.5"/>
<text text-anchor="middle" x="171" y="-240.5" font-family="Helvetica,sans-Serif" font-size="10.00">iostream</text>
</g>
<!-- Node4&#45;&gt;Node10 -->
<g id="edge24" class="edge"><title>Node4&#45;&gt;Node10</title>
<path fill="none" stroke="midnightblue" d="M274.182,-290.497C254.414,-281.397 225.587,-268.127 203.424,-257.925"/>
<polygon fill="midnightblue" stroke="midnightblue" points="204.621,-254.623 194.074,-253.621 201.694,-260.982 204.621,-254.623"/>
</g>
<!-- Node11 -->
<g id="node24" class="node"><title>Node11</title>
<a xlink:href="../../d7/d55/fftwadapter_8h.html" target="_top" xlink:title="fftwadapter.h">
<polygon fill="none" stroke="black" points="216,-232.5 216,-253.5 290,-253.5 290,-232.5 216,-232.5"/>
<text text-anchor="middle" x="253" y="-240.5" font-family="Helvetica,sans-Serif" font-size="10.00">fftwadapter.h</text>
</a>
</g>
<!-- Node4&#45;&gt;Node11 -->
<g id="edge26" class="edge"><title>Node4&#45;&gt;Node11</title>
<path fill="none" stroke="midnightblue" d="M288.93,-290.362C282.851,-282.35 274.363,-271.161 267.163,-261.67"/>
<polygon fill="midnightblue" stroke="midnightblue" points="269.851,-259.422 261.019,-253.571 264.275,-263.653 269.851,-259.422"/>
</g>
<!-- Node15 -->
<g id="node33" class="node"><title>Node15</title>
<a xlink:href="../../d9/d99/processor_8h.html" target="_top" xlink:title="processor.h">
<polygon fill="none" stroke="black" points="308,-232.5 308,-253.5 376,-253.5 376,-232.5 308,-232.5"/>
<text text-anchor="middle" x="342" y="-240.5" font-family="Helvetica,sans-Serif" font-size="10.00">processor.h</text>
</a>
</g>
<!-- Node4&#45;&gt;Node15 -->
<g id="edge36" class="edge"><title>Node4&#45;&gt;Node15</title>
<path fill="none" stroke="midnightblue" d="M305.254,-290.362C311.47,-282.35 320.151,-271.161 327.515,-261.67"/>
<polygon fill="midnightblue" stroke="midnightblue" points="330.434,-263.617 333.799,-253.571 324.903,-259.326 330.434,-263.617"/>
</g>
<!-- Node16 -->
<g id="node35" class="node"><title>Node16</title>
<polygon fill="none" stroke="#bfbfbf" points="346.5,-174.5 346.5,-195.5 399.5,-195.5 399.5,-174.5 346.5,-174.5"/>
<text text-anchor="middle" x="373" y="-182.5" font-family="Helvetica,sans-Serif" font-size="10.00">QObject</text>
</g>
<!-- Node4&#45;&gt;Node16 -->
<g id="edge40" class="edge"><title>Node4&#45;&gt;Node16</title>
<path fill="none" stroke="midnightblue" d="M334.706,-290.919C353.302,-283.835 374.045,-272.271 385,-254 393.941,-239.088 389.149,-219.306 383.177,-204.747"/>
<polygon fill="midnightblue" stroke="midnightblue" points="386.348,-203.266 379.007,-195.626 379.982,-206.176 386.348,-203.266"/>
</g>
<!-- Node17 -->
<g id="node38" class="node"><title>Node17</title>
<polygon fill="none" stroke="#bfbfbf" points="432,-232.5 432,-253.5 482,-253.5 482,-232.5 432,-232.5"/>
<text text-anchor="middle" x="457" y="-240.5" font-family="Helvetica,sans-Serif" font-size="10.00">QString</text>
</g>
<!-- Node4&#45;&gt;Node17 -->
<g id="edge42" class="edge"><title>Node4&#45;&gt;Node17</title>
<path fill="none" stroke="midnightblue" d="M325.975,-290.497C353.042,-280.685 393.483,-266.025 422.268,-255.59"/>
<polygon fill="midnightblue" stroke="midnightblue" points="423.715,-258.789 431.923,-252.09 421.329,-252.208 423.715,-258.789"/>
</g>
<!-- Node18 -->
<g id="node40" class="node"><title>Node18</title>
<polygon fill="none" stroke="#bfbfbf" points="499.5,-232.5 499.5,-253.5 542.5,-253.5 542.5,-232.5 499.5,-232.5"/>
<text text-anchor="middle" x="521" y="-240.5" font-family="Helvetica,sans-Serif" font-size="10.00">QMap</text>
</g>
<!-- Node4&#45;&gt;Node18 -->
<g id="edge44" class="edge"><title>Node4&#45;&gt;Node18</title>
<path fill="none" stroke="midnightblue" d="M334.531,-293.236C371.786,-285.236 430.656,-271.811 489.624,-254.206"/>
<polygon fill="midnightblue" stroke="midnightblue" points="490.911,-257.473 499.469,-251.227 488.884,-250.773 490.911,-257.473"/>
</g>
<!-- Node19 -->
<g id="node42" class="node"><title>Node19</title>
<polygon fill="none" stroke="#bfbfbf" points="560,-232.5 560,-253.5 600,-253.5 600,-232.5 560,-232.5"/>
<text text-anchor="middle" x="580" y="-240.5" font-family="Helvetica,sans-Serif" font-size="10.00">QList</text>
</g>
<!-- Node4&#45;&gt;Node19 -->
<g id="edge46" class="edge"><title>Node4&#45;&gt;Node19</title>
<path fill="none" stroke="midnightblue" d="M334.925,-296.152C383.042,-289.53 468.618,-276.178 549.975,-253.922"/>
<polygon fill="midnightblue" stroke="midnightblue" points="551.18,-257.22 559.873,-251.164 549.301,-250.477 551.18,-257.22"/>
</g>
<!-- Node6 -->
<g id="node11" class="node"><title>Node6</title>
<a xlink:href="../../d2/d07/systemdeps_8h.html" target="_top" xlink:title="jack/systemdeps.h">
<polygon fill="none" stroke="black" points="-0.5,-0.5 -0.5,-21.5 98.5,-21.5 98.5,-0.5 -0.5,-0.5"/>
<text text-anchor="middle" x="49" y="-8.5" font-family="Helvetica,sans-Serif" font-size="10.00">jack/systemdeps.h</text>
</a>
</g>
<!-- Node5&#45;&gt;Node6 -->
<g id="edge10" class="edge"><title>Node5&#45;&gt;Node6</title>
<path fill="none" stroke="midnightblue" d="M107.988,-174.494C95.6499,-165.807 78.7647,-152.569 67,-138 48.767,-115.421 43.8612,-108.199 37,-80 33.0601,-63.807 36.7789,-45.1744 41.0848,-31.3563"/>
<polygon fill="midnightblue" stroke="midnightblue" points="44.4124,-32.4429 44.3749,-21.8481 37.7972,-30.1538 44.4124,-32.4429"/>
</g>
<!-- Node7 -->
<g id="node13" class="node"><title>Node7</title>
<a xlink:href="../../d9/d49/types_8h.html" target="_top" xlink:title="jack/types.h">
<polygon fill="none" stroke="black" points="46,-58.5 46,-79.5 116,-79.5 116,-58.5 46,-58.5"/>
<text text-anchor="middle" x="81" y="-66.5" font-family="Helvetica,sans-Serif" font-size="10.00">jack/types.h</text>
</a>
</g>
<!-- Node5&#45;&gt;Node7 -->
<g id="edge12" class="edge"><title>Node5&#45;&gt;Node7</title>
<path fill="none" stroke="midnightblue" d="M107.41,-174.5C95.9243,-166.174 81.5663,-153.397 75,-138 68.4596,-122.664 70.7643,-103.699 74.2512,-89.535"/>
<polygon fill="midnightblue" stroke="midnightblue" points="77.6567,-90.355 77.0213,-79.7793 70.9229,-88.443 77.6567,-90.355"/>
</g>
<!-- Node8 -->
<g id="node16" class="node"><title>Node8</title>
<a xlink:href="../../d2/d02/transport_8h.html" target="_top" xlink:title="jack/transport.h">
<polygon fill="none" stroke="black" points="84,-116.5 84,-137.5 168,-137.5 168,-116.5 84,-116.5"/>
<text text-anchor="middle" x="126" y="-124.5" font-family="Helvetica,sans-Serif" font-size="10.00">jack/transport.h</text>
</a>
</g>
<!-- Node5&#45;&gt;Node8 -->
<g id="edge16" class="edge"><title>Node5&#45;&gt;Node8</title>
<path fill="none" stroke="midnightblue" d="M124.367,-174.362C124.623,-166.922 124.974,-156.743 125.285,-147.728"/>
<polygon fill="midnightblue" stroke="midnightblue" points="128.789,-147.685 125.635,-137.571 121.793,-147.444 128.789,-147.685"/>
</g>
<!-- Node9 -->
<g id="node19" class="node"><title>Node9</title>
<a xlink:href="../../dc/db4/weakmacros_8h.html" target="_top" xlink:title="jack/weakmacros.h">
<polygon fill="none" stroke="black" points="139.5,-58.5 139.5,-79.5 240.5,-79.5 240.5,-58.5 139.5,-58.5"/>
<text text-anchor="middle" x="190" y="-66.5" font-family="Helvetica,sans-Serif" font-size="10.00">jack/weakmacros.h</text>
</a>
</g>
<!-- Node5&#45;&gt;Node9 -->
<g id="edge22" class="edge"><title>Node5&#45;&gt;Node9</title>
<path fill="none" stroke="midnightblue" d="M141.046,-174.378C153.022,-165.991 168.387,-153.192 177,-138 185.349,-123.273 188.466,-104.219 189.57,-89.866"/>
<polygon fill="midnightblue" stroke="midnightblue" points="193.082,-89.6976 190.085,-79.5357 186.091,-89.3488 193.082,-89.6976"/>
</g>
<!-- Node7&#45;&gt;Node6 -->
<g id="edge14" class="edge"><title>Node7&#45;&gt;Node6</title>
<path fill="none" stroke="midnightblue" d="M75.1307,-58.3619C70.8454,-50.5949 64.9131,-39.8426 59.7839,-30.5458"/>
<polygon fill="midnightblue" stroke="midnightblue" points="62.7274,-28.6357 54.8321,-21.5707 56.5984,-32.0172 62.7274,-28.6357"/>
</g>
<!-- Node8&#45;&gt;Node7 -->
<g id="edge18" class="edge"><title>Node8&#45;&gt;Node7</title>
<path fill="none" stroke="midnightblue" d="M117.746,-116.362C111.53,-108.35 102.849,-97.1605 95.485,-87.6696"/>
<polygon fill="midnightblue" stroke="midnightblue" points="98.0967,-85.326 89.2014,-79.5707 92.5661,-89.617 98.0967,-85.326"/>
</g>
<!-- Node8&#45;&gt;Node9 -->
<g id="edge20" class="edge"><title>Node8&#45;&gt;Node9</title>
<path fill="none" stroke="midnightblue" d="M137.739,-116.362C146.941,-108.023 159.94,-96.2418 170.672,-86.5162"/>
<polygon fill="midnightblue" stroke="midnightblue" points="173.276,-88.8793 178.336,-79.5707 168.576,-83.6924 173.276,-88.8793"/>
</g>
<!-- Node11&#45;&gt;Node5 -->
<g id="edge28" class="edge"><title>Node11&#45;&gt;Node5</title>
<path fill="none" stroke="midnightblue" d="M229.639,-232.497C209.309,-223.356 179.622,-210.008 156.891,-199.788"/>
<polygon fill="midnightblue" stroke="midnightblue" points="158.179,-196.53 147.623,-195.621 155.308,-202.914 158.179,-196.53"/>
</g>
<!-- Node12 -->
<g id="node27" class="node"><title>Node12</title>
<a xlink:href="../../d7/d5e/fftw3_8h.html" target="_top" xlink:title="fftw3.h">
<polygon fill="none" stroke="black" points="229.5,-174.5 229.5,-195.5 276.5,-195.5 276.5,-174.5 229.5,-174.5"/>
<text text-anchor="middle" x="253" y="-182.5" font-family="Helvetica,sans-Serif" font-size="10.00">fftw3.h</text>
</a>
</g>
<!-- Node11&#45;&gt;Node12 -->
<g id="edge30" class="edge"><title>Node11&#45;&gt;Node12</title>
<path fill="none" stroke="midnightblue" d="M253,-232.362C253,-224.922 253,-214.743 253,-205.728"/>
<polygon fill="midnightblue" stroke="midnightblue" points="256.5,-205.571 253,-195.571 249.5,-205.571 256.5,-205.571"/>
</g>
<!-- Node13 -->
<g id="node29" class="node"><title>Node13</title>
<polygon fill="none" stroke="#bfbfbf" points="228,-116.5 228,-137.5 274,-137.5 274,-116.5 228,-116.5"/>
<text text-anchor="middle" x="251" y="-124.5" font-family="Helvetica,sans-Serif" font-size="10.00">stdio.h</text>
</g>
<!-- Node12&#45;&gt;Node13 -->
<g id="edge32" class="edge"><title>Node12&#45;&gt;Node13</title>
<path fill="none" stroke="midnightblue" d="M252.633,-174.362C252.377,-166.922 252.026,-156.743 251.715,-147.728"/>
<polygon fill="midnightblue" stroke="midnightblue" points="255.207,-147.444 251.365,-137.571 248.211,-147.685 255.207,-147.444"/>
</g>
<!-- Node14 -->
<g id="node31" class="node"><title>Node14</title>
<polygon fill="none" stroke="#bfbfbf" points="292,-116.5 292,-137.5 344,-137.5 344,-116.5 292,-116.5"/>
<text text-anchor="middle" x="318" y="-124.5" font-family="Helvetica,sans-Serif" font-size="10.00">stddef.h</text>
</g>
<!-- Node12&#45;&gt;Node14 -->
<g id="edge34" class="edge"><title>Node12&#45;&gt;Node14</title>
<path fill="none" stroke="midnightblue" d="M264.922,-174.362C274.359,-165.941 287.73,-154.011 298.69,-144.231"/>
<polygon fill="midnightblue" stroke="midnightblue" points="301.022,-146.84 306.154,-137.571 296.362,-141.617 301.022,-146.84"/>
</g>
<!-- Node15&#45;&gt;Node16 -->
<g id="edge38" class="edge"><title>Node15&#45;&gt;Node16</title>
<path fill="none" stroke="midnightblue" d="M347.686,-232.362C351.837,-224.595 357.584,-213.843 362.553,-204.546"/>
<polygon fill="midnightblue" stroke="midnightblue" points="365.723,-206.04 367.35,-195.571 359.55,-202.74 365.723,-206.04"/>
</g>
</g>
</svg>
        <g id="navigator" transform="translate(0 0)" fill="#404254">
                <rect fill="#f2f5e9" fill-opacity="0.5" stroke="#606060" stroke-width=".5" x="0" y="0" width="60" height="60"/>
                <use id="zoomplus" xlink:href="#zoomPlus" x="17" y="9" onmousedown="handleZoom(evt,'in')"/>
                <use id="zoomminus" xlink:href="#zoomMin" x="42" y="9" onmousedown="handleZoom(evt,'out')"/>
                <use id="reset" xlink:href="#resetDef" x="30" y="36" onmousedown="handleReset()"/>
                <g id="arrowUp" xlink:href="#dirArrow" transform="translate(30 24)" onmousedown="handlePan(0,-1)">
                  <use xlink:href="#rim" fill="#404040">
                        <set attributeName="fill" to="#808080" begin="arrowUp.mouseover" end="arrowUp.mouseout"/>
                  </use>
                  <path fill="none" stroke="white" stroke-width="1.5" d="M0,-3.0v7 M-2.5,-0.5L0,-3.0L2.5,-0.5"/>
                </g>
                <g id="arrowRight" xlink:href="#dirArrow" transform="rotate(90) translate(36 -43)" onmousedown="handlePan(1,0)">
                  <use xlink:href="#rim" fill="#404040">
                        <set attributeName="fill" to="#808080" begin="arrowRight.mouseover" end="arrowRight.mouseout"/>
                  </use>
                  <path fill="none" stroke="white" stroke-width="1.5" d="M0,-3.0v7 M-2.5,-0.5L0,-3.0L2.5,-0.5"/>
                </g>
                <g id="arrowDown" xlink:href="#dirArrow" transform="rotate(180) translate(-30 -48)" onmousedown="handlePan(0,1)">
                  <use xlink:href="#rim" fill="#404040">
                        <set attributeName="fill" to="#808080" begin="arrowDown.mouseover" end="arrowDown.mouseout"/>
                  </use>
                  <path fill="none" stroke="white" stroke-width="1.5" d="M0,-3.0v7 M-2.5,-0.5L0,-3.0L2.5,-0.5"/>
                </g>
                <g id="arrowLeft" xlink:href="#dirArrow" transform="rotate(270) translate(-36 17)" onmousedown="handlePan(-1,0)">
                  <use xlink:href="#rim" fill="#404040">
                        <set attributeName="fill" to="#808080" begin="arrowLeft.mouseover" end="arrowLeft.mouseout"/>
                  </use>
                  <path fill="none" stroke="white" stroke-width="1.5" d="M0,-3.0v7 M-2.5,-0.5L0,-3.0L2.5,-0.5"/>
                </g>
        </g>
</svg>
