<?xml version="1.0" encoding="UTF-8" standalone="no"?>
<!DOCTYPE svg PUBLIC "-//W3C//DTD SVG 1.1//EN"
 "http://www.w3.org/Graphics/SVG/1.1/DTD/svg11.dtd">
<!-- Generated by graphviz version 2.26.3 (20100126.1600)
 -->
<!-- Title: G Pages: 1 -->
<!--zoomable 610 -->
<svg id="main" version="1.1" xmlns="http://www.w3.org/2000/svg" xmlns:xlink="http://www.w3.org/1999/xlink" xml:space="preserve" onload="init(evt)">
        <defs>
                <circle id="rim" cx="0" cy="0" r="7"/>
                <circle id="rim2" cx="0" cy="0" r="3.5"/>
                <g id="zoomPlus">
                        <use xlink:href="#rim" fill="#404040">
                                <set attributeName="fill" to="#808080" begin="zoomplus.mouseover" end="zoomplus.mouseout"/>
                        </use>
                        <path d="M-4,0h8M0,-4v8" fill="none" stroke="white" stroke-width="1.5" pointer-events="none"/>
                </g>
                <g id="zoomMin">
                        <use xlink:href="#rim" fill="#404040">
                                <set attributeName="fill" to="#808080" begin="zoomminus.mouseover" end="zoomminus.mouseout"/>
                        </use>
                        <path d="M-4,0h8" fill="none" stroke="white" stroke-width="1.5" pointer-events="none"/>
                </g>
                <g id="dirArrow">
                        <path fill="none" stroke="white" stroke-width="1.5" d="M0,-3.0v7 M-2.5,-0.5L0,-3.0L2.5,-0.5"/>
                </g>
               <g id="resetDef">
                       <use xlink:href="#rim2" fill="#404040">
                               <set attributeName="fill" to="#808080" begin="reset.mouseover" end="reset.mouseout"/>
                       </use>
               </g>
        </defs>

<script type="text/javascript">
var viewWidth = 1245;
var viewHeight = 610;
var sectionId = 'dynsection-0';
</script>
<script xlink:href="../../svgpan.js"/>
<svg id="graph" class="graph">
<g id="viewport">
<title>G</title>
<!-- Node1 -->
<g id="node1" class="node"><title>Node1</title>
<polygon fill="#bfbfbf" stroke="black" points="945.775,-580.5 945.775,-601.5 1067.78,-601.5 1067.78,-580.5 945.775,-580.5"/>
<text text-anchor="middle" x="1006.78" y="-588.5" font-family="Helvetica,sans-Serif" font-size="10.00">gui/src/mainwindow.cpp</text>
</g>
<!-- Node2 -->
<g id="node3" class="node"><title>Node2</title>
<a xlink:href="../../d9/d53/mainwindow_8h.html" target="_top" xlink:title="mainwindow.h">
<polygon fill="none" stroke="black" points="623.275,-522.5 623.275,-543.5 702.275,-543.5 702.275,-522.5 623.275,-522.5"/>
<text text-anchor="middle" x="662.775" y="-530.5" font-family="Helvetica,sans-Serif" font-size="10.00">mainwindow.h</text>
</a>
</g>
<!-- Node1&#45;&gt;Node2 -->
<g id="edge2" class="edge"><title>Node1&#45;&gt;Node2</title>
<path fill="none" stroke="midnightblue" d="M945.671,-580.698C879.1,-569.473 773.891,-551.735 712.278,-541.346"/>
<polygon fill="midnightblue" stroke="midnightblue" points="712.85,-537.893 702.407,-539.682 711.686,-544.796 712.85,-537.893"/>
</g>
<!-- Node7 -->
<g id="node13" class="node"><title>Node7</title>
<a xlink:href="../../db/da1/jackadapter_8h.html" target="_top" xlink:title="jackadapter.h">
<polygon fill="none" stroke="black" points="611.275,-290.5 611.275,-311.5 686.275,-311.5 686.275,-290.5 611.275,-290.5"/>
<text text-anchor="middle" x="648.775" y="-298.5" font-family="Helvetica,sans-Serif" font-size="10.00">jackadapter.h</text>
</a>
</g>
<!-- Node1&#45;&gt;Node7 -->
<g id="edge106" class="edge"><title>Node1&#45;&gt;Node7</title>
<path fill="none" stroke="midnightblue" d="M989.719,-580.472C977.442,-572.047 961.41,-559.158 951.775,-544 934.713,-517.155 932.775,-506.808 932.775,-475 932.775,-475 932.775,-475 932.775,-417 932.775,-366.244 887.614,-369.794 841.775,-348 795.074,-325.796 736.867,-313.478 696.655,-307.083"/>
<polygon fill="midnightblue" stroke="midnightblue" points="696.996,-303.595 686.582,-305.545 695.939,-310.515 696.996,-303.595"/>
</g>
<!-- Node38 -->
<g id="node90" class="node"><title>Node38</title>
<polygon fill="none" stroke="#bfbfbf" points="960.775,-522.5 960.775,-543.5 1052.78,-543.5 1052.78,-522.5 960.775,-522.5"/>
<text text-anchor="middle" x="1006.78" y="-530.5" font-family="Helvetica,sans-Serif" font-size="10.00">ui_mainwindow.h</text>
</g>
<!-- Node1&#45;&gt;Node38 -->
<g id="edge104" class="edge"><title>Node1&#45;&gt;Node38</title>
<path fill="none" stroke="midnightblue" d="M1006.78,-580.362C1006.78,-572.922 1006.78,-562.743 1006.78,-553.728"/>
<polygon fill="midnightblue" stroke="midnightblue" points="1010.28,-553.571 1006.78,-543.571 1003.28,-553.571 1010.28,-553.571"/>
</g>
<!-- Node39 -->
<g id="node93" class="node"><title>Node39</title>
<polygon fill="none" stroke="#bfbfbf" points="1070.78,-522.5 1070.78,-543.5 1138.78,-543.5 1138.78,-522.5 1070.78,-522.5"/>
<text text-anchor="middle" x="1104.78" y="-530.5" font-family="Helvetica,sans-Serif" font-size="10.00">QFileDialog</text>
</g>
<!-- Node1&#45;&gt;Node39 -->
<g id="edge108" class="edge"><title>Node1&#45;&gt;Node39</title>
<path fill="none" stroke="midnightblue" d="M1024.75,-580.362C1039.67,-571.532 1061.11,-558.844 1078.04,-548.822"/>
<polygon fill="midnightblue" stroke="midnightblue" points="1080.09,-551.676 1086.91,-543.571 1076.53,-545.652 1080.09,-551.676"/>
</g>
<!-- Node40 -->
<g id="node95" class="node"><title>Node40</title>
<polygon fill="none" stroke="#bfbfbf" points="1156.28,-522.5 1156.28,-543.5 1237.28,-543.5 1237.28,-522.5 1156.28,-522.5"/>
<text text-anchor="middle" x="1196.78" y="-530.5" font-family="Helvetica,sans-Serif" font-size="10.00">QMessageBox</text>
</g>
<!-- Node1&#45;&gt;Node40 -->
<g id="edge110" class="edge"><title>Node1&#45;&gt;Node40</title>
<path fill="none" stroke="midnightblue" d="M1041.18,-580.497C1072.43,-570.959 1118.68,-556.841 1152.63,-546.475"/>
<polygon fill="midnightblue" stroke="midnightblue" points="1153.76,-549.79 1162.3,-543.523 1151.72,-543.095 1153.76,-549.79"/>
</g>
<!-- Node3 -->
<g id="node5" class="node"><title>Node3</title>
<polygon fill="none" stroke="#bfbfbf" points="428.775,-464.5 428.775,-485.5 508.775,-485.5 508.775,-464.5 428.775,-464.5"/>
<text text-anchor="middle" x="468.775" y="-472.5" font-family="Helvetica,sans-Serif" font-size="10.00">QMainWindow</text>
</g>
<!-- Node2&#45;&gt;Node3 -->
<g id="edge4" class="edge"><title>Node2&#45;&gt;Node3</title>
<path fill="none" stroke="midnightblue" d="M627.643,-522.497C595.742,-512.959 548.519,-498.841 513.847,-488.475"/>
<polygon fill="midnightblue" stroke="midnightblue" points="514.557,-485.034 503.973,-485.523 512.552,-491.741 514.557,-485.034"/>
</g>
<!-- Node4 -->
<g id="node7" class="node"><title>Node4</title>
<polygon fill="none" stroke="#bfbfbf" points="676.275,-464.5 676.275,-485.5 751.275,-485.5 751.275,-464.5 676.275,-464.5"/>
<text text-anchor="middle" x="713.775" y="-472.5" font-family="Helvetica,sans-Serif" font-size="10.00">QCloseEvent</text>
</g>
<!-- Node2&#45;&gt;Node4 -->
<g id="edge6" class="edge"><title>Node2&#45;&gt;Node4</title>
<path fill="none" stroke="midnightblue" d="M672.13,-522.362C679.319,-514.186 689.416,-502.702 697.868,-493.091"/>
<polygon fill="midnightblue" stroke="midnightblue" points="700.505,-495.392 704.48,-485.571 695.249,-490.769 700.505,-495.392"/>
</g>
<!-- Node5 -->
<g id="node9" class="node"><title>Node5</title>
<polygon fill="none" stroke="#bfbfbf" points="768.275,-464.5 768.275,-485.5 867.275,-485.5 867.275,-464.5 768.275,-464.5"/>
<text text-anchor="middle" x="817.775" y="-472.5" font-family="Helvetica,sans-Serif" font-size="10.00">QDesktopServices</text>
</g>
<!-- Node2&#45;&gt;Node5 -->
<g id="edge8" class="edge"><title>Node2&#45;&gt;Node5</title>
<path fill="none" stroke="midnightblue" d="M690.845,-522.497C715.786,-513.164 752.449,-499.445 779.967,-489.147"/>
<polygon fill="midnightblue" stroke="midnightblue" points="781.514,-492.306 789.653,-485.523 779.061,-485.75 781.514,-492.306"/>
</g>
<!-- Node6 -->
<g id="node11" class="node"><title>Node6</title>
<polygon fill="none" stroke="#bfbfbf" points="362.275,-464.5 362.275,-485.5 411.275,-485.5 411.275,-464.5 362.275,-464.5"/>
<text text-anchor="middle" x="386.775" y="-472.5" font-family="Helvetica,sans-Serif" font-size="10.00">QTimer</text>
</g>
<!-- Node2&#45;&gt;Node6 -->
<g id="edge10" class="edge"><title>Node2&#45;&gt;Node6</title>
<path fill="none" stroke="midnightblue" d="M622.853,-526.923C576.395,-519.491 497.264,-505.715 421.268,-486.178"/>
<polygon fill="midnightblue" stroke="midnightblue" points="422.097,-482.777 411.537,-483.64 420.33,-489.551 422.097,-482.777"/>
</g>
<!-- Node2&#45;&gt;Node7 -->
<g id="edge12" class="edge"><title>Node2&#45;&gt;Node7</title>
<path fill="none" stroke="midnightblue" d="M702.303,-530.058C757.797,-525.012 854.43,-512.569 875.775,-486 898.044,-458.282 894.926,-435.958 875.775,-406 836.448,-344.477 750.838,-318.474 696.72,-307.873"/>
<polygon fill="midnightblue" stroke="midnightblue" points="697.14,-304.391 686.669,-306.01 695.864,-311.274 697.14,-304.391"/>
</g>
<!-- Node24 -->
<g id="node52" class="node"><title>Node24</title>
<a xlink:href="../../d2/de4/earprocessor_8h.html" target="_top" xlink:title="earprocessor.h">
<polygon fill="none" stroke="black" points="433.275,-406.5 433.275,-427.5 514.275,-427.5 514.275,-406.5 433.275,-406.5"/>
<text text-anchor="middle" x="473.775" y="-414.5" font-family="Helvetica,sans-Serif" font-size="10.00">earprocessor.h</text>
</a>
</g>
<!-- Node2&#45;&gt;Node24 -->
<g id="edge56" class="edge"><title>Node2&#45;&gt;Node24</title>
<path fill="none" stroke="midnightblue" d="M632.57,-522.397C610.482,-514.019 580.236,-501.223 555.775,-486 532.101,-471.266 508.041,-450.134 492.162,-435.146"/>
<polygon fill="midnightblue" stroke="midnightblue" points="494.287,-432.334 484.649,-427.934 489.44,-437.384 494.287,-432.334"/>
</g>
<!-- Node34 -->
<g id="node80" class="node"><title>Node34</title>
<a xlink:href="../../d6/d0c/visualizerwidget_8h.html" target="_top" xlink:title="visualizerwidget.h">
<polygon fill="none" stroke="black" points="564.275,-464.5 564.275,-485.5 659.275,-485.5 659.275,-464.5 564.275,-464.5"/>
<text text-anchor="middle" x="611.775" y="-472.5" font-family="Helvetica,sans-Serif" font-size="10.00">visualizerwidget.h</text>
</a>
</g>
<!-- Node2&#45;&gt;Node34 -->
<g id="edge92" class="edge"><title>Node2&#45;&gt;Node34</title>
<path fill="none" stroke="midnightblue" d="M653.421,-522.362C646.232,-514.186 636.134,-502.702 627.683,-493.091"/>
<polygon fill="midnightblue" stroke="midnightblue" points="630.302,-490.769 621.07,-485.571 625.045,-495.392 630.302,-490.769"/>
</g>
<!-- Node8 -->
<g id="node15" class="node"><title>Node8</title>
<a xlink:href="../../df/d89/jack_8h.html" target="_top" xlink:title="jack/jack.h">
<polygon fill="none" stroke="black" points="710.775,-174.5 710.775,-195.5 774.775,-195.5 774.775,-174.5 710.775,-174.5"/>
<text text-anchor="middle" x="742.775" y="-182.5" font-family="Helvetica,sans-Serif" font-size="10.00">jack/jack.h</text>
</a>
</g>
<!-- Node7&#45;&gt;Node8 -->
<g id="edge14" class="edge"><title>Node7&#45;&gt;Node8</title>
<path fill="none" stroke="midnightblue" d="M686.526,-295.839C711.914,-290.191 743.594,-278.424 759.775,-254 769.613,-239.151 762.948,-219.105 755.264,-204.446"/>
<polygon fill="midnightblue" stroke="midnightblue" points="758.253,-202.622 750.232,-195.7 752.186,-206.113 758.253,-202.622"/>
</g>
<!-- Node13 -->
<g id="node28" class="node"><title>Node13</title>
<polygon fill="none" stroke="#bfbfbf" points="806.775,-232.5 806.775,-253.5 860.775,-253.5 860.775,-232.5 806.775,-232.5"/>
<text text-anchor="middle" x="833.775" y="-240.5" font-family="Helvetica,sans-Serif" font-size="10.00">iostream</text>
</g>
<!-- Node7&#45;&gt;Node13 -->
<g id="edge30" class="edge"><title>Node7&#45;&gt;Node13</title>
<path fill="none" stroke="midnightblue" d="M682.277,-290.497C714.55,-280.379 763.266,-265.106 796.691,-254.626"/>
<polygon fill="midnightblue" stroke="midnightblue" points="798.044,-257.87 806.539,-251.539 795.949,-251.191 798.044,-257.87"/>
</g>
<!-- Node14 -->
<g id="node30" class="node"><title>Node14</title>
<a xlink:href="../../d7/d55/fftwadapter_8h.html" target="_top" xlink:title="fftwadapter.h">
<polygon fill="none" stroke="black" points="676.775,-232.5 676.775,-253.5 750.775,-253.5 750.775,-232.5 676.775,-232.5"/>
<text text-anchor="middle" x="713.775" y="-240.5" font-family="Helvetica,sans-Serif" font-size="10.00">fftwadapter.h</text>
</a>
</g>
<!-- Node7&#45;&gt;Node14 -->
<g id="edge32" class="edge"><title>Node7&#45;&gt;Node14</title>
<path fill="none" stroke="midnightblue" d="M660.697,-290.362C670.135,-281.941 683.505,-270.011 694.465,-260.231"/>
<polygon fill="midnightblue" stroke="midnightblue" points="696.798,-262.84 701.929,-253.571 692.137,-257.617 696.798,-262.84"/>
</g>
<!-- Node18 -->
<g id="node39" class="node"><title>Node18</title>
<a xlink:href="../../d9/d99/processor_8h.html" target="_top" xlink:title="processor.h">
<polygon fill="none" stroke="black" points="494.775,-232.5 494.775,-253.5 562.775,-253.5 562.775,-232.5 494.775,-232.5"/>
<text text-anchor="middle" x="528.775" y="-240.5" font-family="Helvetica,sans-Serif" font-size="10.00">processor.h</text>
</a>
</g>
<!-- Node7&#45;&gt;Node18 -->
<g id="edge42" class="edge"><title>Node7&#45;&gt;Node18</title>
<path fill="none" stroke="midnightblue" d="M627.044,-290.497C608.302,-281.438 581.009,-268.246 559.94,-258.063"/>
<polygon fill="midnightblue" stroke="midnightblue" points="561.277,-254.822 550.75,-253.621 558.231,-261.124 561.277,-254.822"/>
</g>
<!-- Node19 -->
<g id="node41" class="node"><title>Node19</title>
<polygon fill="none" stroke="#bfbfbf" points="522.275,-174.5 522.275,-195.5 575.275,-195.5 575.275,-174.5 522.275,-174.5"/>
<text text-anchor="middle" x="548.775" y="-182.5" font-family="Helvetica,sans-Serif" font-size="10.00">QObject</text>
</g>
<!-- Node7&#45;&gt;Node19 -->
<g id="edge46" class="edge"><title>Node7&#45;&gt;Node19</title>
<path fill="none" stroke="midnightblue" d="M648.281,-290.07C647.102,-275.437 643.129,-249.318 629.775,-232 618.347,-217.179 600.82,-206.184 584.988,-198.571"/>
<polygon fill="midnightblue" stroke="midnightblue" points="585.975,-195.177 575.42,-194.264 583.102,-201.56 585.975,-195.177"/>
</g>
<!-- Node20 -->
<g id="node44" class="node"><title>Node20</title>
<polygon fill="none" stroke="#bfbfbf" points="878.775,-232.5 878.775,-253.5 928.775,-253.5 928.775,-232.5 878.775,-232.5"/>
<text text-anchor="middle" x="903.775" y="-240.5" font-family="Helvetica,sans-Serif" font-size="10.00">QString</text>
</g>
<!-- Node7&#45;&gt;Node20 -->
<g id="edge48" class="edge"><title>Node7&#45;&gt;Node20</title>
<path fill="none" stroke="midnightblue" d="M686.596,-294.19C728.842,-286.313 799.41,-272.347 868.826,-254.069"/>
<polygon fill="midnightblue" stroke="midnightblue" points="869.849,-257.419 878.611,-251.462 868.047,-250.655 869.849,-257.419"/>
</g>
<!-- Node21 -->
<g id="node46" class="node"><title>Node21</title>
<polygon fill="none" stroke="#bfbfbf" points="434.275,-232.5 434.275,-253.5 477.275,-253.5 477.275,-232.5 434.275,-232.5"/>
<text text-anchor="middle" x="455.775" y="-240.5" font-family="Helvetica,sans-Serif" font-size="10.00">QMap</text>
</g>
<!-- Node7&#45;&gt;Node21 -->
<g id="edge50" class="edge"><title>Node7&#45;&gt;Node21</title>
<path fill="none" stroke="midnightblue" d="M610.995,-290.922C579.884,-282.441 534.446,-269.641 486.88,-254.231"/>
<polygon fill="midnightblue" stroke="midnightblue" points="487.934,-250.893 477.342,-251.115 485.76,-257.547 487.934,-250.893"/>
</g>
<!-- Node22 -->
<g id="node48" class="node"><title>Node22</title>
<polygon fill="none" stroke="#bfbfbf" points="580.775,-232.5 580.775,-253.5 620.775,-253.5 620.775,-232.5 580.775,-232.5"/>
<text text-anchor="middle" x="600.775" y="-240.5" font-family="Helvetica,sans-Serif" font-size="10.00">QList</text>
</g>
<!-- Node7&#45;&gt;Node22 -->
<g id="edge52" class="edge"><title>Node7&#45;&gt;Node22</title>
<path fill="none" stroke="midnightblue" d="M639.971,-290.362C633.273,-282.268 623.891,-270.932 615.986,-261.38"/>
<polygon fill="midnightblue" stroke="midnightblue" points="618.596,-259.043 609.523,-253.571 613.203,-263.506 618.596,-259.043"/>
</g>
<!-- Node23 -->
<g id="node50" class="node"><title>Node23</title>
<polygon fill="none" stroke="#bfbfbf" points="342.775,-232.5 342.775,-253.5 416.775,-253.5 416.775,-232.5 342.775,-232.5"/>
<text text-anchor="middle" x="379.775" y="-240.5" font-family="Helvetica,sans-Serif" font-size="10.00">QSemaphore</text>
</g>
<!-- Node7&#45;&gt;Node23 -->
<g id="edge54" class="edge"><title>Node7&#45;&gt;Node23</title>
<path fill="none" stroke="midnightblue" d="M611.225,-293.408C568.843,-284.768 497.586,-270.029 426.882,-254.21"/>
<polygon fill="midnightblue" stroke="midnightblue" points="427.436,-250.748 416.912,-251.972 425.903,-257.577 427.436,-250.748"/>
</g>
<!-- Node9 -->
<g id="node17" class="node"><title>Node9</title>
<a xlink:href="../../d2/d07/systemdeps_8h.html" target="_top" xlink:title="jack/systemdeps.h">
<polygon fill="none" stroke="black" points="731.275,-0.5 731.275,-21.5 830.275,-21.5 830.275,-0.5 731.275,-0.5"/>
<text text-anchor="middle" x="780.775" y="-8.5" font-family="Helvetica,sans-Serif" font-size="10.00">jack/systemdeps.h</text>
</a>
</g>
<!-- Node8&#45;&gt;Node9 -->
<g id="edge16" class="edge"><title>Node8&#45;&gt;Node9</title>
<path fill="none" stroke="midnightblue" d="M734.94,-174.172C719.527,-151.429 688.535,-97.5334 709.775,-58 717.165,-44.2456 730.544,-33.8401 743.711,-26.3616"/>
<polygon fill="midnightblue" stroke="midnightblue" points="745.481,-29.3856 752.717,-21.6465 742.235,-23.1841 745.481,-29.3856"/>
</g>
<!-- Node10 -->
<g id="node19" class="node"><title>Node10</title>
<a xlink:href="../../d9/d49/types_8h.html" target="_top" xlink:title="jack/types.h">
<polygon fill="none" stroke="black" points="836.775,-58.5 836.775,-79.5 906.775,-79.5 906.775,-58.5 836.775,-58.5"/>
<text text-anchor="middle" x="871.775" y="-66.5" font-family="Helvetica,sans-Serif" font-size="10.00">jack/types.h</text>
</a>
</g>
<!-- Node8&#45;&gt;Node10 -->
<g id="edge18" class="edge"><title>Node8&#45;&gt;Node10</title>
<path fill="none" stroke="midnightblue" d="M774.951,-179.137C799.632,-172.996 832.763,-160.916 852.775,-138 864.368,-124.725 868.947,-104.978 870.726,-90.0058"/>
<polygon fill="midnightblue" stroke="midnightblue" points="874.245,-89.9359 871.61,-79.6739 867.27,-89.339 874.245,-89.9359"/>
</g>
<!-- Node11 -->
<g id="node22" class="node"><title>Node11</title>
<a xlink:href="../../d2/d02/transport_8h.html" target="_top" xlink:title="jack/transport.h">
<polygon fill="none" stroke="black" points="759.775,-116.5 759.775,-137.5 843.775,-137.5 843.775,-116.5 759.775,-116.5"/>
<text text-anchor="middle" x="801.775" y="-124.5" font-family="Helvetica,sans-Serif" font-size="10.00">jack/transport.h</text>
</a>
</g>
<!-- Node8&#45;&gt;Node11 -->
<g id="edge22" class="edge"><title>Node8&#45;&gt;Node11</title>
<path fill="none" stroke="midnightblue" d="M753.597,-174.362C761.997,-166.104 773.829,-154.472 783.666,-144.803"/>
<polygon fill="midnightblue" stroke="midnightblue" points="786.345,-147.077 791.022,-137.571 781.438,-142.085 786.345,-147.077"/>
</g>
<!-- Node12 -->
<g id="node25" class="node"><title>Node12</title>
<a xlink:href="../../dc/db4/weakmacros_8h.html" target="_top" xlink:title="jack/weakmacros.h">
<polygon fill="none" stroke="black" points="718.275,-58.5 718.275,-79.5 819.275,-79.5 819.275,-58.5 718.275,-58.5"/>
<text text-anchor="middle" x="768.775" y="-66.5" font-family="Helvetica,sans-Serif" font-size="10.00">jack/weakmacros.h</text>
</a>
</g>
<!-- Node8&#45;&gt;Node12 -->
<g id="edge28" class="edge"><title>Node8&#45;&gt;Node12</title>
<path fill="none" stroke="midnightblue" d="M743.198,-174.095C743.921,-160.368 745.833,-136.145 750.775,-116 753,-106.931 756.505,-97.2422 759.833,-89.0323"/>
<polygon fill="midnightblue" stroke="midnightblue" points="763.159,-90.1544 763.844,-79.5817 756.715,-87.4194 763.159,-90.1544"/>
</g>
<!-- Node10&#45;&gt;Node9 -->
<g id="edge20" class="edge"><title>Node10&#45;&gt;Node9</title>
<path fill="none" stroke="midnightblue" d="M855.085,-58.3619C841.359,-49.6138 821.692,-37.0786 806.038,-27.1015"/>
<polygon fill="midnightblue" stroke="midnightblue" points="807.674,-23.994 797.36,-21.5707 803.912,-29.8969 807.674,-23.994"/>
</g>
<!-- Node11&#45;&gt;Node10 -->
<g id="edge24" class="edge"><title>Node11&#45;&gt;Node10</title>
<path fill="none" stroke="midnightblue" d="M814.614,-116.362C824.778,-107.941 839.176,-96.0105 850.98,-86.2308"/>
<polygon fill="midnightblue" stroke="midnightblue" points="853.551,-88.6459 859.018,-79.5707 849.084,-83.2558 853.551,-88.6459"/>
</g>
<!-- Node11&#45;&gt;Node12 -->
<g id="edge26" class="edge"><title>Node11&#45;&gt;Node12</title>
<path fill="none" stroke="midnightblue" d="M795.723,-116.362C791.303,-108.595 785.186,-97.8426 779.896,-88.5458"/>
<polygon fill="midnightblue" stroke="midnightblue" points="782.777,-86.5315 774.79,-79.5707 776.693,-89.9932 782.777,-86.5315"/>
</g>
<!-- Node14&#45;&gt;Node8 -->
<g id="edge34" class="edge"><title>Node14&#45;&gt;Node8</title>
<path fill="none" stroke="midnightblue" d="M719.094,-232.362C722.978,-224.595 728.354,-213.843 733.002,-204.546"/>
<polygon fill="midnightblue" stroke="midnightblue" points="736.148,-206.08 737.49,-195.571 729.887,-202.95 736.148,-206.08"/>
</g>
<!-- Node15 -->
<g id="node33" class="node"><title>Node15</title>
<a xlink:href="../../d7/d5e/fftw3_8h.html" target="_top" xlink:title="fftw3.h">
<polygon fill="none" stroke="black" points="603.275,-174.5 603.275,-195.5 650.275,-195.5 650.275,-174.5 603.275,-174.5"/>
<text text-anchor="middle" x="626.775" y="-182.5" font-family="Helvetica,sans-Serif" font-size="10.00">fftw3.h</text>
</a>
</g>
<!-- Node14&#45;&gt;Node15 -->
<g id="edge36" class="edge"><title>Node14&#45;&gt;Node15</title>
<path fill="none" stroke="midnightblue" d="M697.818,-232.362C684.819,-223.696 666.244,-211.313 651.348,-201.382"/>
<polygon fill="midnightblue" stroke="midnightblue" points="652.893,-198.206 642.631,-195.571 649.01,-204.03 652.893,-198.206"/>
</g>
<!-- Node16 -->
<g id="node35" class="node"><title>Node16</title>
<polygon fill="none" stroke="#bfbfbf" points="249.775,-116.5 249.775,-137.5 295.775,-137.5 295.775,-116.5 249.775,-116.5"/>
<text text-anchor="middle" x="272.775" y="-124.5" font-family="Helvetica,sans-Serif" font-size="10.00">stdio.h</text>
</g>
<!-- Node15&#45;&gt;Node16 -->
<g id="edge38" class="edge"><title>Node15&#45;&gt;Node16</title>
<path fill="none" stroke="midnightblue" d="M603.217,-178.519C596.929,-176.914 590.119,-175.287 583.775,-174 483.477,-153.646 363.345,-137.903 306.18,-130.929"/>
<polygon fill="midnightblue" stroke="midnightblue" points="306.281,-127.416 295.934,-129.692 305.442,-134.366 306.281,-127.416"/>
</g>
<!-- Node17 -->
<g id="node37" class="node"><title>Node17</title>
<polygon fill="none" stroke="#bfbfbf" points="600.775,-116.5 600.775,-137.5 652.775,-137.5 652.775,-116.5 600.775,-116.5"/>
<text text-anchor="middle" x="626.775" y="-124.5" font-family="Helvetica,sans-Serif" font-size="10.00">stddef.h</text>
</g>
<!-- Node15&#45;&gt;Node17 -->
<g id="edge40" class="edge"><title>Node15&#45;&gt;Node17</title>
<path fill="none" stroke="midnightblue" d="M626.775,-174.362C626.775,-166.922 626.775,-156.743 626.775,-147.728"/>
<polygon fill="midnightblue" stroke="midnightblue" points="630.275,-147.571 626.775,-137.571 623.275,-147.571 630.275,-147.571"/>
</g>
<!-- Node18&#45;&gt;Node19 -->
<g id="edge44" class="edge"><title>Node18&#45;&gt;Node19</title>
<path fill="none" stroke="midnightblue" d="M532.444,-232.362C535.066,-224.758 538.674,-214.294 541.832,-205.135"/>
<polygon fill="midnightblue" stroke="midnightblue" points="545.179,-206.165 545.13,-195.571 538.562,-203.883 545.179,-206.165"/>
</g>
<!-- Node24&#45;&gt;Node7 -->
<g id="edge58" class="edge"><title>Node24&#45;&gt;Node7</title>
<path fill="none" stroke="midnightblue" d="M503.572,-406.487C524.924,-398.237 553.841,-385.56 576.775,-370 598.051,-355.566 618.871,-334.66 632.605,-319.647"/>
<polygon fill="midnightblue" stroke="midnightblue" points="635.398,-321.775 639.464,-311.991 630.184,-317.104 635.398,-321.775"/>
</g>
<!-- Node24&#45;&gt;Node18 -->
<g id="edge60" class="edge"><title>Node24&#45;&gt;Node18</title>
<path fill="none" stroke="midnightblue" d="M501.093,-406.429C516.636,-398.832 534.755,-386.922 543.775,-370 562.031,-335.754 548.363,-289.065 537.856,-262.891"/>
<polygon fill="midnightblue" stroke="midnightblue" points="541.053,-261.464 533.921,-253.629 534.61,-264.202 541.053,-261.464"/>
</g>
<!-- Node24&#45;&gt;Node21 -->
<g id="edge86" class="edge"><title>Node24&#45;&gt;Node21</title>
<path fill="none" stroke="midnightblue" d="M472.676,-406.377C469.771,-378.293 461.845,-301.673 457.969,-264.203"/>
<polygon fill="midnightblue" stroke="midnightblue" points="461.416,-263.514 456.906,-253.928 454.453,-264.235 461.416,-263.514"/>
</g>
<!-- Node24&#45;&gt;Node23 -->
<g id="edge90" class="edge"><title>Node24&#45;&gt;Node23</title>
<path fill="none" stroke="midnightblue" d="M432.972,-408.649C393.045,-399.783 335.818,-385.005 318.775,-370 290.715,-345.295 273.626,-322.11 292.775,-290 301.732,-274.981 317.334,-264.473 332.876,-257.264"/>
<polygon fill="midnightblue" stroke="midnightblue" points="334.645,-260.316 342.486,-253.191 331.913,-253.871 334.645,-260.316"/>
</g>
<!-- Node25 -->
<g id="node56" class="node"><title>Node25</title>
<a xlink:href="../../d6/def/digitalequalizer_8h.html" target="_top" xlink:title="digitalequalizer.h">
<polygon fill="none" stroke="black" points="338.275,-348.5 338.275,-369.5 427.275,-369.5 427.275,-348.5 338.275,-348.5"/>
<text text-anchor="middle" x="382.775" y="-356.5" font-family="Helvetica,sans-Serif" font-size="10.00">digitalequalizer.h</text>
</a>
</g>
<!-- Node24&#45;&gt;Node25 -->
<g id="edge62" class="edge"><title>Node24&#45;&gt;Node25</title>
<path fill="none" stroke="midnightblue" d="M457.085,-406.362C443.359,-397.614 423.692,-385.079 408.038,-375.101"/>
<polygon fill="midnightblue" stroke="midnightblue" points="409.674,-371.994 399.36,-369.571 405.912,-377.897 409.674,-371.994"/>
</g>
<!-- Node26 -->
<g id="node58" class="node"><title>Node26</title>
<polygon fill="none" stroke="#bfbfbf" points="301.275,-290.5 301.275,-311.5 354.275,-311.5 354.275,-290.5 301.275,-290.5"/>
<text text-anchor="middle" x="327.775" y="-298.5" font-family="Helvetica,sans-Serif" font-size="10.00">QVector</text>
</g>
<!-- Node24&#45;&gt;Node26 -->
<g id="edge84" class="edge"><title>Node24&#45;&gt;Node26</title>
<path fill="none" stroke="midnightblue" d="M433.171,-409.159C395.144,-400.907 342.336,-386.795 329.775,-370 319.495,-356.254 320.092,-336.289 322.613,-321.368"/>
<polygon fill="midnightblue" stroke="midnightblue" points="326.044,-322.06 324.661,-311.556 319.192,-320.63 326.044,-322.06"/>
</g>
<!-- Node27 -->
<g id="node62" class="node"><title>Node27</title>
<a xlink:href="../../de/de9/jnoise_8h.html" target="_top" xlink:title="jnoise.h">
<polygon fill="none" stroke="black" points="78.7754,-348.5 78.7754,-369.5 128.775,-369.5 128.775,-348.5 78.7754,-348.5"/>
<text text-anchor="middle" x="103.775" y="-356.5" font-family="Helvetica,sans-Serif" font-size="10.00">jnoise.h</text>
</a>
</g>
<!-- Node24&#45;&gt;Node27 -->
<g id="edge70" class="edge"><title>Node24&#45;&gt;Node27</title>
<path fill="none" stroke="midnightblue" d="M433.12,-410.627C360.089,-399.179 207.899,-375.322 139.006,-364.523"/>
<polygon fill="midnightblue" stroke="midnightblue" points="139.498,-361.057 129.077,-362.966 138.414,-367.973 139.498,-361.057"/>
</g>
<!-- Node33 -->
<g id="node77" class="node"><title>Node33</title>
<polygon fill="none" stroke="#bfbfbf" points="482.275,-348.5 482.275,-369.5 535.275,-369.5 535.275,-348.5 482.275,-348.5"/>
<text text-anchor="middle" x="508.775" y="-356.5" font-family="Helvetica,sans-Serif" font-size="10.00">QDebug</text>
</g>
<!-- Node24&#45;&gt;Node33 -->
<g id="edge88" class="edge"><title>Node24&#45;&gt;Node33</title>
<path fill="none" stroke="midnightblue" d="M480.195,-406.362C484.931,-398.513 491.507,-387.616 497.157,-378.253"/>
<polygon fill="midnightblue" stroke="midnightblue" points="500.226,-379.941 502.397,-369.571 494.233,-376.324 500.226,-379.941"/>
</g>
<!-- Node25&#45;&gt;Node7 -->
<g id="edge68" class="edge"><title>Node25&#45;&gt;Node7</title>
<path fill="none" stroke="midnightblue" d="M427.298,-349.292C475.449,-338.793 551.916,-322.12 601.219,-311.369"/>
<polygon fill="midnightblue" stroke="midnightblue" points="601.979,-314.786 611.004,-309.236 600.488,-307.947 601.979,-314.786"/>
</g>
<!-- Node25&#45;&gt;Node23 -->
<g id="edge66" class="edge"><title>Node25&#45;&gt;Node23</title>
<path fill="none" stroke="midnightblue" d="M382.499,-348.295C382.003,-329.131 380.956,-288.654 380.314,-263.843"/>
<polygon fill="midnightblue" stroke="midnightblue" points="383.809,-263.585 380.052,-253.679 376.811,-263.766 383.809,-263.585"/>
</g>
<!-- Node25&#45;&gt;Node26 -->
<g id="edge64" class="edge"><title>Node25&#45;&gt;Node26</title>
<path fill="none" stroke="midnightblue" d="M372.688,-348.362C364.935,-340.186 354.045,-328.702 344.93,-319.091"/>
<polygon fill="midnightblue" stroke="midnightblue" points="347.22,-316.419 337.799,-311.571 342.141,-321.235 347.22,-316.419"/>
</g>
<!-- Node27&#45;&gt;Node16 -->
<g id="edge74" class="edge"><title>Node27&#45;&gt;Node16</title>
<path fill="none" stroke="midnightblue" d="M78.5237,-353.345C43.1051,-344.097 -15.0142,-323.355 3.77537,-290 55.0788,-198.926 180.066,-152.914 239.856,-135.497"/>
<polygon fill="midnightblue" stroke="midnightblue" points="240.88,-138.845 249.551,-132.758 238.976,-132.109 240.88,-138.845"/>
</g>
<!-- Node28 -->
<g id="node64" class="node"><title>Node28</title>
<polygon fill="none" stroke="#bfbfbf" points="12.7754,-290.5 12.7754,-311.5 60.7754,-311.5 60.7754,-290.5 12.7754,-290.5"/>
<text text-anchor="middle" x="36.7754" y="-298.5" font-family="Helvetica,sans-Serif" font-size="10.00">stdlib.h</text>
</g>
<!-- Node27&#45;&gt;Node28 -->
<g id="edge72" class="edge"><title>Node27&#45;&gt;Node28</title>
<path fill="none" stroke="midnightblue" d="M91.4865,-348.362C81.7587,-339.941 67.9772,-328.011 56.6799,-318.231"/>
<polygon fill="midnightblue" stroke="midnightblue" points="58.8377,-315.469 48.9863,-311.571 54.2562,-320.762 58.8377,-315.469"/>
</g>
<!-- Node29 -->
<g id="node67" class="node"><title>Node29</title>
<polygon fill="none" stroke="#bfbfbf" points="78.2754,-290.5 78.2754,-311.5 129.275,-311.5 129.275,-290.5 78.2754,-290.5"/>
<text text-anchor="middle" x="103.775" y="-298.5" font-family="Helvetica,sans-Serif" font-size="10.00">unistd.h</text>
</g>
<!-- Node27&#45;&gt;Node29 -->
<g id="edge76" class="edge"><title>Node27&#45;&gt;Node29</title>
<path fill="none" stroke="midnightblue" d="M103.775,-348.362C103.775,-340.922 103.775,-330.743 103.775,-321.728"/>
<polygon fill="midnightblue" stroke="midnightblue" points="107.275,-321.571 103.775,-311.571 100.275,-321.571 107.275,-321.571"/>
</g>
<!-- Node30 -->
<g id="node69" class="node"><title>Node30</title>
<a xlink:href="../../d4/d5f/randomgenerator_8h.html" target="_top" xlink:title="randomgenerator.h">
<polygon fill="none" stroke="black" points="146.775,-290.5 146.775,-311.5 244.775,-311.5 244.775,-290.5 146.775,-290.5"/>
<text text-anchor="middle" x="195.775" y="-298.5" font-family="Helvetica,sans-Serif" font-size="10.00">randomgenerator.h</text>
</a>
</g>
<!-- Node27&#45;&gt;Node30 -->
<g id="edge78" class="edge"><title>Node27&#45;&gt;Node30</title>
<path fill="none" stroke="midnightblue" d="M120.65,-348.362C134.526,-339.614 154.409,-327.079 170.235,-317.101"/>
<polygon fill="midnightblue" stroke="midnightblue" points="172.415,-319.864 179.008,-311.571 168.682,-313.943 172.415,-319.864"/>
</g>
<!-- Node31 -->
<g id="node71" class="node"><title>Node31</title>
<polygon fill="none" stroke="#bfbfbf" points="123.775,-232.5 123.775,-253.5 191.775,-253.5 191.775,-232.5 123.775,-232.5"/>
<text text-anchor="middle" x="157.775" y="-240.5" font-family="Helvetica,sans-Serif" font-size="10.00">sys/types.h</text>
</g>
<!-- Node30&#45;&gt;Node31 -->
<g id="edge80" class="edge"><title>Node30&#45;&gt;Node31</title>
<path fill="none" stroke="midnightblue" d="M188.806,-290.362C183.61,-282.431 176.375,-271.389 170.198,-261.961"/>
<polygon fill="midnightblue" stroke="midnightblue" points="173.109,-260.017 164.701,-253.571 167.254,-263.853 173.109,-260.017"/>
</g>
<!-- Node32 -->
<g id="node73" class="node"><title>Node32</title>
<polygon fill="none" stroke="#bfbfbf" points="209.275,-232.5 209.275,-253.5 258.275,-253.5 258.275,-232.5 209.275,-232.5"/>
<text text-anchor="middle" x="233.775" y="-240.5" font-family="Helvetica,sans-Serif" font-size="10.00">stdint.h</text>
</g>
<!-- Node30&#45;&gt;Node32 -->
<g id="edge82" class="edge"><title>Node30&#45;&gt;Node32</title>
<path fill="none" stroke="midnightblue" d="M202.745,-290.362C207.941,-282.431 215.176,-271.389 221.353,-261.961"/>
<polygon fill="midnightblue" stroke="midnightblue" points="224.297,-263.853 226.85,-253.571 218.442,-260.017 224.297,-263.853"/>
</g>
<!-- Node34&#45;&gt;Node23 -->
<g id="edge100" class="edge"><title>Node34&#45;&gt;Node23</title>
<path fill="none" stroke="midnightblue" d="M608.19,-464.349C599.915,-441.012 577.571,-384.537 543.775,-348 505.948,-307.105 448.873,-275.354 412.999,-257.918"/>
<polygon fill="midnightblue" stroke="midnightblue" points="414.451,-254.733 403.918,-253.591 411.44,-261.053 414.451,-254.733"/>
</g>
<!-- Node34&#45;&gt;Node24 -->
<g id="edge102" class="edge"><title>Node34&#45;&gt;Node24</title>
<path fill="none" stroke="midnightblue" d="M586.785,-464.497C564.842,-455.275 532.71,-441.769 508.312,-431.515"/>
<polygon fill="midnightblue" stroke="midnightblue" points="509.622,-428.269 499.047,-427.621 506.909,-434.722 509.622,-428.269"/>
</g>
<!-- Node35 -->
<g id="node82" class="node"><title>Node35</title>
<polygon fill="none" stroke="#bfbfbf" points="704.775,-406.5 704.775,-427.5 772.775,-427.5 772.775,-406.5 704.775,-406.5"/>
<text text-anchor="middle" x="738.775" y="-414.5" font-family="Helvetica,sans-Serif" font-size="10.00">QGLWidget</text>
</g>
<!-- Node34&#45;&gt;Node35 -->
<g id="edge94" class="edge"><title>Node34&#45;&gt;Node35</title>
<path fill="none" stroke="midnightblue" d="M634.774,-464.497C654.789,-455.356 684.016,-442.008 706.394,-431.788"/>
<polygon fill="midnightblue" stroke="midnightblue" points="707.876,-434.959 715.519,-427.621 704.968,-428.592 707.876,-434.959"/>
</g>
<!-- Node36 -->
<g id="node84" class="node"><title>Node36</title>
<polygon fill="none" stroke="#bfbfbf" points="790.275,-406.5 790.275,-427.5 867.275,-427.5 867.275,-406.5 790.275,-406.5"/>
<text text-anchor="middle" x="828.775" y="-414.5" font-family="Helvetica,sans-Serif" font-size="10.00">QWheelEvent</text>
</g>
<!-- Node34&#45;&gt;Node36 -->
<g id="edge96" class="edge"><title>Node34&#45;&gt;Node36</title>
<path fill="none" stroke="midnightblue" d="M651.072,-464.497C687.286,-454.817 741.152,-440.42 780.081,-430.015"/>
<polygon fill="midnightblue" stroke="midnightblue" points="781.378,-433.291 790.135,-427.328 779.571,-426.529 781.378,-433.291"/>
</g>
<!-- Node37 -->
<g id="node86" class="node"><title>Node37</title>
<polygon fill="none" stroke="#bfbfbf" points="608.275,-406.5 608.275,-427.5 687.275,-427.5 687.275,-406.5 608.275,-406.5"/>
<text text-anchor="middle" x="647.775" y="-414.5" font-family="Helvetica,sans-Serif" font-size="10.00">QMouseEvent</text>
</g>
<!-- Node34&#45;&gt;Node37 -->
<g id="edge98" class="edge"><title>Node34&#45;&gt;Node37</title>
<path fill="none" stroke="midnightblue" d="M618.378,-464.362C623.25,-456.513 630.014,-445.616 635.825,-436.253"/>
<polygon fill="midnightblue" stroke="midnightblue" points="638.914,-437.913 641.214,-427.571 632.967,-434.221 638.914,-437.913"/>
</g>
</g>
</svg>
        <g id="navigator" transform="translate(0 0)" fill="#404254">
                <rect fill="#f2f5e9" fill-opacity="0.5" stroke="#606060" stroke-width=".5" x="0" y="0" width="60" height="60"/>
                <use id="zoomplus" xlink:href="#zoomPlus" x="17" y="9" onmousedown="handleZoom(evt,'in')"/>
                <use id="zoomminus" xlink:href="#zoomMin" x="42" y="9" onmousedown="handleZoom(evt,'out')"/>
                <use id="reset" xlink:href="#resetDef" x="30" y="36" onmousedown="handleReset()"/>
                <g id="arrowUp" xlink:href="#dirArrow" transform="translate(30 24)" onmousedown="handlePan(0,-1)">
                  <use xlink:href="#rim" fill="#404040">
                        <set attributeName="fill" to="#808080" begin="arrowUp.mouseover" end="arrowUp.mouseout"/>
                  </use>
                  <path fill="none" stroke="white" stroke-width="1.5" d="M0,-3.0v7 M-2.5,-0.5L0,-3.0L2.5,-0.5"/>
                </g>
                <g id="arrowRight" xlink:href="#dirArrow" transform="rotate(90) translate(36 -43)" onmousedown="handlePan(1,0)">
                  <use xlink:href="#rim" fill="#404040">
                        <set attributeName="fill" to="#808080" begin="arrowRight.mouseover" end="arrowRight.mouseout"/>
                  </use>
                  <path fill="none" stroke="white" stroke-width="1.5" d="M0,-3.0v7 M-2.5,-0.5L0,-3.0L2.5,-0.5"/>
                </g>
                <g id="arrowDown" xlink:href="#dirArrow" transform="rotate(180) translate(-30 -48)" onmousedown="handlePan(0,1)">
                  <use xlink:href="#rim" fill="#404040">
                        <set attributeName="fill" to="#808080" begin="arrowDown.mouseover" end="arrowDown.mouseout"/>
                  </use>
                  <path fill="none" stroke="white" stroke-width="1.5" d="M0,-3.0v7 M-2.5,-0.5L0,-3.0L2.5,-0.5"/>
                </g>
                <g id="arrowLeft" xlink:href="#dirArrow" transform="rotate(270) translate(-36 17)" onmousedown="handlePan(-1,0)">
                  <use xlink:href="#rim" fill="#404040">
                        <set attributeName="fill" to="#808080" begin="arrowLeft.mouseover" end="arrowLeft.mouseout"/>
                  </use>
                  <path fill="none" stroke="white" stroke-width="1.5" d="M0,-3.0v7 M-2.5,-0.5L0,-3.0L2.5,-0.5"/>
                </g>
        </g>
</svg>
