<?xml version="1.0" encoding="UTF-8" standalone="no"?>
<!DOCTYPE svg PUBLIC "-//W3C//DTD SVG 1.1//EN"
 "http://www.w3.org/Graphics/SVG/1.1/DTD/svg11.dtd">
<!-- Generated by graphviz version 2.26.3 (20100126.1600)
 -->
<!-- Title: G Pages: 1 -->
<svg width="488pt" height="70pt"
 viewBox="0.00 0.00 488.00 70.00" xmlns="http://www.w3.org/2000/svg" xmlns:xlink="http://www.w3.org/1999/xlink">
<g id="graph1" class="graph" transform="scale(1 1) rotate(0) translate(4 66)">
<title>G</title>
<!-- Node1 -->
<g id="node1" class="node"><title>Node1</title>
<polygon fill="#bfbfbf" stroke="black" points="0,-20.5 0,-41.5 110,-41.5 110,-20.5 0,-20.5"/>
<text text-anchor="middle" x="55" y="-28.5" font-family="Helvetica,sans-Serif" font-size="10.00">PRBSGenerator::stat</text>
</g>
<!-- Node2 -->
<g id="node3" class="node"><title>Node2</title>
<a xlink:href="../../dc/d2b/classRandomGenerator.html#aa8846493e3be4eb3ae33cc51acb755df" target="_top" xlink:title="RandomGenerator::init">
<polygon fill="none" stroke="black" points="146.5,-20.5 146.5,-41.5 261.5,-41.5 261.5,-20.5 146.5,-20.5"/>
<text text-anchor="middle" x="204" y="-28.5" font-family="Helvetica,sans-Serif" font-size="10.00">RandomGenerator::init</text>
</a>
</g>
<!-- Node1&#45;&gt;Node2 -->
<g id="edge2" class="edge"><title>Node1&#45;&gt;Node2</title>
<path fill="none" stroke="midnightblue" d="M120.199,-31C128.93,-31 137.834,-31 146.422,-31"/>
<polygon fill="midnightblue" stroke="midnightblue" points="120.059,-27.5001 110.059,-31 120.059,-34.5001 120.059,-27.5001"/>
</g>
<!-- Node3 -->
<g id="node5" class="node"><title>Node3</title>
<a xlink:href="../../d1/dd1/classJNoise.html#a3e12e8306bbb848df6d6a0e6248de47c" target="_top" xlink:title="JNoise::JNoise">
<polygon fill="none" stroke="black" points="347,-40.5 347,-61.5 431,-61.5 431,-40.5 347,-40.5"/>
<text text-anchor="middle" x="389" y="-48.5" font-family="Helvetica,sans-Serif" font-size="10.00">JNoise::JNoise</text>
</a>
</g>
<!-- Node2&#45;&gt;Node3 -->
<g id="edge4" class="edge"><title>Node2&#45;&gt;Node3</title>
<path fill="none" stroke="midnightblue" d="M271.732,-38.3224C296.851,-41.0379 324.6,-44.0378 346.796,-46.4374"/>
<polygon fill="midnightblue" stroke="midnightblue" points="271.839,-34.8137 261.521,-37.2185 271.087,-41.7731 271.839,-34.8137"/>
</g>
<!-- Node4 -->
<g id="node7" class="node"><title>Node4</title>
<a xlink:href="../../dc/d2b/classRandomGenerator.html#ad68dfb1d3d6164777c27beb1d5869873" target="_top" xlink:title="RandomGenerator::RandomGenerator">
<polygon fill="none" stroke="black" points="298,-0.5 298,-21.5 480,-21.5 480,-0.5 298,-0.5"/>
<text text-anchor="middle" x="389" y="-8.5" font-family="Helvetica,sans-Serif" font-size="10.00">RandomGenerator::RandomGenerator</text>
</a>
</g>
<!-- Node2&#45;&gt;Node4 -->
<g id="edge6" class="edge"><title>Node2&#45;&gt;Node4</title>
<path fill="none" stroke="midnightblue" d="M271.74,-23.6768C280.258,-22.7559 289.079,-21.8023 297.882,-20.8505"/>
<polygon fill="midnightblue" stroke="midnightblue" points="271.087,-20.2269 261.521,-24.7815 271.839,-27.1863 271.087,-20.2269"/>
</g>
</g>
</svg>
