<?xml version="1.0" encoding="UTF-8" standalone="no"?>
<!DOCTYPE svg PUBLIC "-//W3C//DTD SVG 1.1//EN"
 "http://www.w3.org/Graphics/SVG/1.1/DTD/svg11.dtd">
<!-- Generated by graphviz version 2.26.3 (20100126.1600)
 -->
<!-- Title: G Pages: 1 -->
<svg width="300pt" height="70pt"
 viewBox="0.00 0.00 300.00 70.00" xmlns="http://www.w3.org/2000/svg" xmlns:xlink="http://www.w3.org/1999/xlink">
<g id="graph1" class="graph" transform="scale(1 1) rotate(0) translate(4 66)">
<title>G</title>
<!-- Node1 -->
<g id="node1" class="node"><title>Node1</title>
<polygon fill="#bfbfbf" stroke="black" points="0.5,-20.5 0.5,-41.5 105.5,-41.5 105.5,-20.5 0.5,-20.5"/>
<text text-anchor="middle" x="53" y="-28.5" font-family="Helvetica,sans-Serif" font-size="10.00">jack_port_get_buffer</text>
</g>
<!-- Node2 -->
<g id="node3" class="node"><title>Node2</title>
<a xlink:href="../../d9/d6d/structStereoPort.html#a9d1db263dea1aad7e25f91b765ec77ae" target="_top" xlink:title="StereoPort::leftChannelBuffer">
<polygon fill="none" stroke="black" points="144.5,-40.5 144.5,-61.5 289.5,-61.5 289.5,-40.5 144.5,-40.5"/>
<text text-anchor="middle" x="217" y="-48.5" font-family="Helvetica,sans-Serif" font-size="10.00">StereoPort::leftChannelBuffer</text>
</a>
</g>
<!-- Node1&#45;&gt;Node2 -->
<g id="edge2" class="edge"><title>Node1&#45;&gt;Node2</title>
<path fill="none" stroke="midnightblue" d="M115.756,-38.6532C125.087,-39.7911 134.771,-40.9721 144.286,-42.1324"/>
<polygon fill="midnightblue" stroke="midnightblue" points="116.144,-35.1746 105.793,-37.4382 115.296,-42.1231 116.144,-35.1746"/>
</g>
<!-- Node3 -->
<g id="node5" class="node"><title>Node3</title>
<a xlink:href="../../d9/d6d/structStereoPort.html#afcb1e6bdca2644357aa9a5c976fb0f79" target="_top" xlink:title="StereoPort::rightChannelBuffer">
<polygon fill="none" stroke="black" points="142,-0.5 142,-21.5 292,-21.5 292,-0.5 142,-0.5"/>
<text text-anchor="middle" x="217" y="-8.5" font-family="Helvetica,sans-Serif" font-size="10.00">StereoPort::rightChannelBuffer</text>
</a>
</g>
<!-- Node1&#45;&gt;Node3 -->
<g id="edge4" class="edge"><title>Node1&#45;&gt;Node3</title>
<path fill="none" stroke="midnightblue" d="M115.976,-23.3199C124.463,-22.285 133.238,-21.2149 141.909,-20.1575"/>
<polygon fill="midnightblue" stroke="midnightblue" points="115.296,-19.8769 105.793,-24.5618 116.144,-26.8254 115.296,-19.8769"/>
</g>
</g>
</svg>
