<?xml version="1.0" encoding="UTF-8" standalone="no"?>
<!DOCTYPE svg PUBLIC "-//W3C//DTD SVG 1.1//EN"
 "http://www.w3.org/Graphics/SVG/1.1/DTD/svg11.dtd">
<!-- Generated by graphviz version 2.26.3 (20100126.1600)
 -->
<!-- Title: G Pages: 1 -->
<!--zoomable 110 -->
<svg id="main" version="1.1" xmlns="http://www.w3.org/2000/svg" xmlns:xlink="http://www.w3.org/1999/xlink" xml:space="preserve" onload="init(evt)">
        <defs>
                <circle id="rim" cx="0" cy="0" r="7"/>
                <circle id="rim2" cx="0" cy="0" r="3.5"/>
                <g id="zoomPlus">
                        <use xlink:href="#rim" fill="#404040">
                                <set attributeName="fill" to="#808080" begin="zoomplus.mouseover" end="zoomplus.mouseout"/>
                        </use>
                        <path d="M-4,0h8M0,-4v8" fill="none" stroke="white" stroke-width="1.5" pointer-events="none"/>
                </g>
                <g id="zoomMin">
                        <use xlink:href="#rim" fill="#404040">
                                <set attributeName="fill" to="#808080" begin="zoomminus.mouseover" end="zoomminus.mouseout"/>
                        </use>
                        <path d="M-4,0h8" fill="none" stroke="white" stroke-width="1.5" pointer-events="none"/>
                </g>
                <g id="dirArrow">
                        <path fill="none" stroke="white" stroke-width="1.5" d="M0,-3.0v7 M-2.5,-0.5L0,-3.0L2.5,-0.5"/>
                </g>
               <g id="resetDef">
                       <use xlink:href="#rim2" fill="#404040">
                               <set attributeName="fill" to="#808080" begin="reset.mouseover" end="reset.mouseout"/>
                       </use>
               </g>
        </defs>

<script type="text/javascript">
var viewWidth = 574;
var viewHeight = 110;
var sectionId = 'dynsection-5';
</script>
<script xlink:href="../../svgpan.js"/>
<svg id="graph" class="graph">
<g id="viewport">
<title>G</title>
<!-- Node1 -->
<g id="node1" class="node"><title>Node1</title>
<polygon fill="#bfbfbf" stroke="black" points="0,-40.5 0,-61.5 184,-61.5 184,-40.5 0,-40.5"/>
<text text-anchor="middle" x="92" y="-48.5" font-family="Helvetica,sans-Serif" font-size="10.00">DigitalEqualizer::loadControlsFromFile</text>
</g>
<!-- Node2 -->
<g id="node3" class="node"><title>Node2</title>
<a xlink:href="../../de/d28/classDigitalEqualizer.html#aa4a96390ed7480d85fbe4fac36239ec2" target="_top" xlink:title="DigitalEqualizer::generateFilter">
<polygon fill="none" stroke="black" points="220,-40.5 220,-61.5 370,-61.5 370,-40.5 220,-40.5"/>
<text text-anchor="middle" x="295" y="-48.5" font-family="Helvetica,sans-Serif" font-size="10.00">DigitalEqualizer::generateFilter</text>
</a>
</g>
<!-- Node1&#45;&gt;Node2 -->
<g id="edge2" class="edge"><title>Node1&#45;&gt;Node2</title>
<path fill="none" stroke="midnightblue" d="M184.293,-51C192.782,-51 201.357,-51 209.779,-51"/>
<polygon fill="midnightblue" stroke="midnightblue" points="209.959,-54.5001 219.959,-51 209.959,-47.5001 209.959,-54.5001"/>
</g>
<!-- Node3 -->
<g id="node5" class="node"><title>Node3</title>
<a xlink:href="../../de/d28/classDigitalEqualizer.html#a8dd84de986b4a50170f2a296342f55da" target="_top" xlink:title="DigitalEqualizer::acquireControls">
<polygon fill="none" stroke="black" points="406.5,-80.5 406.5,-101.5 565.5,-101.5 565.5,-80.5 406.5,-80.5"/>
<text text-anchor="middle" x="486" y="-88.5" font-family="Helvetica,sans-Serif" font-size="10.00">DigitalEqualizer::acquireControls</text>
</a>
</g>
<!-- Node2&#45;&gt;Node3 -->
<g id="edge4" class="edge"><title>Node2&#45;&gt;Node3</title>
<path fill="none" stroke="midnightblue" d="M345.183,-61.5095C369.869,-66.6795 399.815,-72.9508 425.734,-78.3788"/>
<polygon fill="midnightblue" stroke="midnightblue" points="425.316,-81.8671 435.821,-80.4913 426.751,-75.0158 425.316,-81.8671"/>
</g>
<!-- Node4 -->
<g id="node7" class="node"><title>Node4</title>
<a xlink:href="../../d5/dfd/namespaceFftwAdapter.html#ae8e0488a742dd23810797b05a737ebd5" target="_top" xlink:title="FftwAdapter::performInverseFFT">
<polygon fill="none" stroke="black" points="406.5,-40.5 406.5,-61.5 565.5,-61.5 565.5,-40.5 406.5,-40.5"/>
<text text-anchor="middle" x="486" y="-48.5" font-family="Helvetica,sans-Serif" font-size="10.00">FftwAdapter::performInverseFFT</text>
</a>
</g>
<!-- Node2&#45;&gt;Node4 -->
<g id="edge6" class="edge"><title>Node2&#45;&gt;Node4</title>
<path fill="none" stroke="midnightblue" d="M370.214,-51C378.768,-51 387.549,-51 396.266,-51"/>
<polygon fill="midnightblue" stroke="midnightblue" points="396.452,-54.5001 406.452,-51 396.452,-47.5001 396.452,-54.5001"/>
</g>
<!-- Node5 -->
<g id="node9" class="node"><title>Node5</title>
<a xlink:href="../../de/d28/classDigitalEqualizer.html#a38314bc1535c71f2a20c179f98330d43" target="_top" xlink:title="DigitalEqualizer::releaseControls">
<polygon fill="none" stroke="black" points="406.5,-0.5 406.5,-21.5 565.5,-21.5 565.5,-0.5 406.5,-0.5"/>
<text text-anchor="middle" x="486" y="-8.5" font-family="Helvetica,sans-Serif" font-size="10.00">DigitalEqualizer::releaseControls</text>
</a>
</g>
<!-- Node2&#45;&gt;Node5 -->
<g id="edge8" class="edge"><title>Node2&#45;&gt;Node5</title>
<path fill="none" stroke="midnightblue" d="M345.183,-40.4905C369.869,-35.3205 399.815,-29.0492 425.734,-23.6212"/>
<polygon fill="midnightblue" stroke="midnightblue" points="426.751,-26.9842 435.821,-21.5087 425.316,-20.1329 426.751,-26.9842"/>
</g>
</g>
</svg>
        <g id="navigator" transform="translate(0 0)" fill="#404254">
                <rect fill="#f2f5e9" fill-opacity="0.5" stroke="#606060" stroke-width=".5" x="0" y="0" width="60" height="60"/>
                <use id="zoomplus" xlink:href="#zoomPlus" x="17" y="9" onmousedown="handleZoom(evt,'in')"/>
                <use id="zoomminus" xlink:href="#zoomMin" x="42" y="9" onmousedown="handleZoom(evt,'out')"/>
                <use id="reset" xlink:href="#resetDef" x="30" y="36" onmousedown="handleReset()"/>
                <g id="arrowUp" xlink:href="#dirArrow" transform="translate(30 24)" onmousedown="handlePan(0,-1)">
                  <use xlink:href="#rim" fill="#404040">
                        <set attributeName="fill" to="#808080" begin="arrowUp.mouseover" end="arrowUp.mouseout"/>
                  </use>
                  <path fill="none" stroke="white" stroke-width="1.5" d="M0,-3.0v7 M-2.5,-0.5L0,-3.0L2.5,-0.5"/>
                </g>
                <g id="arrowRight" xlink:href="#dirArrow" transform="rotate(90) translate(36 -43)" onmousedown="handlePan(1,0)">
                  <use xlink:href="#rim" fill="#404040">
                        <set attributeName="fill" to="#808080" begin="arrowRight.mouseover" end="arrowRight.mouseout"/>
                  </use>
                  <path fill="none" stroke="white" stroke-width="1.5" d="M0,-3.0v7 M-2.5,-0.5L0,-3.0L2.5,-0.5"/>
                </g>
                <g id="arrowDown" xlink:href="#dirArrow" transform="rotate(180) translate(-30 -48)" onmousedown="handlePan(0,1)">
                  <use xlink:href="#rim" fill="#404040">
                        <set attributeName="fill" to="#808080" begin="arrowDown.mouseover" end="arrowDown.mouseout"/>
                  </use>
                  <path fill="none" stroke="white" stroke-width="1.5" d="M0,-3.0v7 M-2.5,-0.5L0,-3.0L2.5,-0.5"/>
                </g>
                <g id="arrowLeft" xlink:href="#dirArrow" transform="rotate(270) translate(-36 17)" onmousedown="handlePan(-1,0)">
                  <use xlink:href="#rim" fill="#404040">
                        <set attributeName="fill" to="#808080" begin="arrowLeft.mouseover" end="arrowLeft.mouseout"/>
                  </use>
                  <path fill="none" stroke="white" stroke-width="1.5" d="M0,-3.0v7 M-2.5,-0.5L0,-3.0L2.5,-0.5"/>
                </g>
        </g>
</svg>
