<?xml version="1.0" encoding="UTF-8" standalone="no"?>
<!DOCTYPE svg PUBLIC "-//W3C//DTD SVG 1.1//EN"
 "http://www.w3.org/Graphics/SVG/1.1/DTD/svg11.dtd">
<!-- Generated by graphviz version 2.26.3 (20100126.1600)
 -->
<!-- Title: G Pages: 1 -->
<svg width="449pt" height="262pt"
 viewBox="0.00 0.00 449.00 262.00" xmlns="http://www.w3.org/2000/svg" xmlns:xlink="http://www.w3.org/1999/xlink">
<g id="graph1" class="graph" transform="scale(1 1) rotate(0) translate(4 258)">
<title>G</title>
<!-- Node1 -->
<g id="node1" class="node"><title>Node1</title>
<polygon fill="#bfbfbf" stroke="black" points="224.5,-232.5 224.5,-253.5 363.5,-253.5 363.5,-232.5 224.5,-232.5"/>
<text text-anchor="middle" x="294" y="-240.5" font-family="Helvetica,sans-Serif" font-size="10.00">libear/include/jnoise/jnoise.h</text>
</g>
<!-- Node2 -->
<g id="node3" class="node"><title>Node2</title>
<a xlink:href="../../d2/de4/earprocessor_8h.html" target="_top" xlink:title="libear/include/earprocessor.h">
<polygon fill="none" stroke="black" points="146.5,-174.5 146.5,-195.5 287.5,-195.5 287.5,-174.5 146.5,-174.5"/>
<text text-anchor="middle" x="217" y="-182.5" font-family="Helvetica,sans-Serif" font-size="10.00">libear/include/earprocessor.h</text>
</a>
</g>
<!-- Node1&#45;&gt;Node2 -->
<g id="edge2" class="edge"><title>Node1&#45;&gt;Node2</title>
<path fill="none" stroke="midnightblue" d="M271.774,-226.259C258.639,-216.364 242.405,-204.136 231.033,-195.571"/>
<polygon fill="midnightblue" stroke="midnightblue" points="269.784,-229.141 279.877,-232.362 273.995,-223.55 269.784,-229.141"/>
</g>
<!-- Node9 -->
<g id="node18" class="node"><title>Node9</title>
<a xlink:href="../../dc/d89/jnoise_8cpp.html" target="_top" xlink:title="libear/src/jnoise/jnoise.cpp">
<polygon fill="none" stroke="black" points="305,-174.5 305,-195.5 437,-195.5 437,-174.5 305,-174.5"/>
<text text-anchor="middle" x="371" y="-182.5" font-family="Helvetica,sans-Serif" font-size="10.00">libear/src/jnoise/jnoise.cpp</text>
</a>
</g>
<!-- Node1&#45;&gt;Node9 -->
<g id="edge18" class="edge"><title>Node1&#45;&gt;Node9</title>
<path fill="none" stroke="midnightblue" d="M316.226,-226.259C329.361,-216.364 345.595,-204.136 356.967,-195.571"/>
<polygon fill="midnightblue" stroke="midnightblue" points="314.005,-223.55 308.123,-232.362 318.216,-229.141 314.005,-223.55"/>
</g>
<!-- Node3 -->
<g id="node5" class="node"><title>Node3</title>
<a xlink:href="../../d9/d53/mainwindow_8h.html" target="_top" xlink:title="gui/include/mainwindow.h">
<polygon fill="none" stroke="black" points="53,-58.5 53,-79.5 181,-79.5 181,-58.5 53,-58.5"/>
<text text-anchor="middle" x="117" y="-66.5" font-family="Helvetica,sans-Serif" font-size="10.00">gui/include/mainwindow.h</text>
</a>
</g>
<!-- Node2&#45;&gt;Node3 -->
<g id="edge4" class="edge"><title>Node2&#45;&gt;Node3</title>
<path fill="none" stroke="midnightblue" d="M178.038,-170.081C162.958,-162.537 146.77,-151.968 136,-138 122.647,-120.682 118.674,-94.5633 117.495,-79.9299"/>
<polygon fill="midnightblue" stroke="midnightblue" points="176.686,-173.312 187.226,-174.39 179.658,-166.975 176.686,-173.312"/>
</g>
<!-- Node6 -->
<g id="node11" class="node"><title>Node6</title>
<a xlink:href="../../d6/d0c/visualizerwidget_8h.html" target="_top" xlink:title="gui/include/visualizerwidget.h">
<polygon fill="none" stroke="black" points="145,-116.5 145,-137.5 289,-137.5 289,-116.5 145,-116.5"/>
<text text-anchor="middle" x="217" y="-124.5" font-family="Helvetica,sans-Serif" font-size="10.00">gui/include/visualizerwidget.h</text>
</a>
</g>
<!-- Node2&#45;&gt;Node6 -->
<g id="edge10" class="edge"><title>Node2&#45;&gt;Node6</title>
<path fill="none" stroke="midnightblue" d="M217,-164.191C217,-155.168 217,-144.994 217,-137.571"/>
<polygon fill="midnightblue" stroke="midnightblue" points="213.5,-164.362 217,-174.362 220.5,-164.362 213.5,-164.362"/>
</g>
<!-- Node8 -->
<g id="node16" class="node"><title>Node8</title>
<a xlink:href="../../d7/d53/earprocessor_8cpp.html" target="_top" xlink:title="libear/src/earprocessor.cpp">
<polygon fill="none" stroke="black" points="307,-116.5 307,-137.5 441,-137.5 441,-116.5 307,-116.5"/>
<text text-anchor="middle" x="374" y="-124.5" font-family="Helvetica,sans-Serif" font-size="10.00">libear/src/earprocessor.cpp</text>
</a>
</g>
<!-- Node2&#45;&gt;Node8 -->
<g id="edge16" class="edge"><title>Node2&#45;&gt;Node8</title>
<path fill="none" stroke="midnightblue" d="M254.871,-171.009C282.771,-160.702 320.125,-146.903 345.515,-137.523"/>
<polygon fill="midnightblue" stroke="midnightblue" points="253.599,-167.748 245.432,-174.497 256.025,-174.314 253.599,-167.748"/>
</g>
<!-- Node4 -->
<g id="node7" class="node"><title>Node4</title>
<a xlink:href="../../d0/db5/launcher_8cpp.html" target="_top" xlink:title="gui/src/launcher.cpp">
<polygon fill="none" stroke="black" points="0,-0.5 0,-21.5 104,-21.5 104,-0.5 0,-0.5"/>
<text text-anchor="middle" x="52" y="-8.5" font-family="Helvetica,sans-Serif" font-size="10.00">gui/src/launcher.cpp</text>
</a>
</g>
<!-- Node3&#45;&gt;Node4 -->
<g id="edge6" class="edge"><title>Node3&#45;&gt;Node4</title>
<path fill="none" stroke="midnightblue" d="M97.6017,-51.6908C86.6289,-41.8996 73.2628,-29.973 63.8464,-21.5707"/>
<polygon fill="midnightblue" stroke="midnightblue" points="95.2863,-54.3155 105.078,-58.3619 99.9468,-49.0925 95.2863,-54.3155"/>
</g>
<!-- Node5 -->
<g id="node9" class="node"><title>Node5</title>
<a xlink:href="../../d8/dd9/mainwindow_8cpp.html" target="_top" xlink:title="gui/src/mainwindow.cpp">
<polygon fill="none" stroke="black" points="122,-0.5 122,-21.5 244,-21.5 244,-0.5 122,-0.5"/>
<text text-anchor="middle" x="183" y="-8.5" font-family="Helvetica,sans-Serif" font-size="10.00">gui/src/mainwindow.cpp</text>
</a>
</g>
<!-- Node3&#45;&gt;Node5 -->
<g id="edge8" class="edge"><title>Node3&#45;&gt;Node5</title>
<path fill="none" stroke="midnightblue" d="M136.697,-51.6908C147.838,-41.8996 161.41,-29.973 170.971,-21.5707"/>
<polygon fill="midnightblue" stroke="midnightblue" points="134.307,-49.1316 129.105,-58.3619 138.928,-54.3898 134.307,-49.1316"/>
</g>
<!-- Node6&#45;&gt;Node3 -->
<g id="edge12" class="edge"><title>Node6&#45;&gt;Node3</title>
<path fill="none" stroke="midnightblue" d="M189.588,-111.101C172.286,-101.066 150.415,-88.3808 135.225,-79.5707"/>
<polygon fill="midnightblue" stroke="midnightblue" points="188.252,-114.372 198.658,-116.362 191.764,-108.317 188.252,-114.372"/>
</g>
<!-- Node7 -->
<g id="node14" class="node"><title>Node7</title>
<a xlink:href="../../db/d0a/visualizerwidget_8cpp.html" target="_top" xlink:title="gui/src/visualizerwidget.cpp">
<polygon fill="none" stroke="black" points="198.5,-58.5 198.5,-79.5 335.5,-79.5 335.5,-58.5 198.5,-58.5"/>
<text text-anchor="middle" x="267" y="-66.5" font-family="Helvetica,sans-Serif" font-size="10.00">gui/src/visualizerwidget.cpp</text>
</a>
</g>
<!-- Node6&#45;&gt;Node7 -->
<g id="edge14" class="edge"><title>Node6&#45;&gt;Node7</title>
<path fill="none" stroke="midnightblue" d="M232.913,-108.541C241.156,-98.9786 250.925,-87.6467 257.887,-79.5707"/>
<polygon fill="midnightblue" stroke="midnightblue" points="230.049,-106.502 226.171,-116.362 235.351,-111.073 230.049,-106.502"/>
</g>
</g>
</svg>
