<?xml version="1.0" encoding="UTF-8" standalone="no"?>
<!DOCTYPE svg PUBLIC "-//W3C//DTD SVG 1.1//EN"
 "http://www.w3.org/Graphics/SVG/1.1/DTD/svg11.dtd">
<!-- Generated by graphviz version 2.26.3 (20100126.1600)
 -->
<!-- Title: G Pages: 1 -->
<svg width="464pt" height="70pt"
 viewBox="0.00 0.00 464.00 70.00" xmlns="http://www.w3.org/2000/svg" xmlns:xlink="http://www.w3.org/1999/xlink">
<g id="graph1" class="graph" transform="scale(1 1) rotate(0) translate(4 66)">
<title>G</title>
<!-- Node1 -->
<g id="node1" class="node"><title>Node1</title>
<polygon fill="#bfbfbf" stroke="black" points="0,-20.5 0,-41.5 128,-41.5 128,-20.5 0,-20.5"/>
<text text-anchor="middle" x="64" y="-28.5" font-family="Helvetica,sans-Serif" font-size="10.00">MainWindow::closeEvent</text>
</g>
<!-- Node2 -->
<g id="node3" class="node"><title>Node2</title>
<a xlink:href="../../d7/d2c/classJackAdapter.html#a431136befd01cac7ecbdf19099075b4d" target="_top" xlink:title="JackAdapter::instance">
<polygon fill="none" stroke="black" points="192,-40.5 192,-61.5 306,-61.5 306,-40.5 192,-40.5"/>
<text text-anchor="middle" x="249" y="-48.5" font-family="Helvetica,sans-Serif" font-size="10.00">JackAdapter::instance</text>
</a>
</g>
<!-- Node1&#45;&gt;Node2 -->
<g id="edge2" class="edge"><title>Node1&#45;&gt;Node2</title>
<path fill="none" stroke="midnightblue" d="M128.185,-37.9389C145.458,-39.8063 164.189,-41.8313 181.63,-43.7168"/>
<polygon fill="midnightblue" stroke="midnightblue" points="181.412,-47.2134 191.73,-44.8086 182.164,-40.254 181.412,-47.2134"/>
</g>
<!-- Node3 -->
<g id="node5" class="node"><title>Node3</title>
<a xlink:href="../../d7/d2c/classJackAdapter.html#aa8bdeea946ee8d2e67920e7eb355d74e" target="_top" xlink:title="JackAdapter::stopAudioProcessing">
<polygon fill="none" stroke="black" points="164,-0.5 164,-21.5 334,-21.5 334,-0.5 164,-0.5"/>
<text text-anchor="middle" x="249" y="-8.5" font-family="Helvetica,sans-Serif" font-size="10.00">JackAdapter::stopAudioProcessing</text>
</a>
</g>
<!-- Node1&#45;&gt;Node3 -->
<g id="edge4" class="edge"><title>Node1&#45;&gt;Node3</title>
<path fill="none" stroke="midnightblue" d="M128.185,-24.0611C136.436,-23.1691 145.019,-22.2411 153.636,-21.3096"/>
<polygon fill="midnightblue" stroke="midnightblue" points="154.183,-24.771 163.749,-20.2163 153.431,-17.8115 154.183,-24.771"/>
</g>
<!-- Node4 -->
<g id="node7" class="node"><title>Node4</title>
<a xlink:href="../../df/d89/jack_8h.html#a2c6447b766b13d3aa356aba2b48e51fa" target="_top" xlink:title="jack_deactivate">
<polygon fill="none" stroke="black" points="370.5,-0.5 370.5,-21.5 455.5,-21.5 455.5,-0.5 370.5,-0.5"/>
<text text-anchor="middle" x="413" y="-8.5" font-family="Helvetica,sans-Serif" font-size="10.00">jack_deactivate</text>
</a>
</g>
<!-- Node3&#45;&gt;Node4 -->
<g id="edge6" class="edge"><title>Node3&#45;&gt;Node4</title>
<path fill="none" stroke="midnightblue" d="M334.362,-11C343.118,-11 351.823,-11 360.076,-11"/>
<polygon fill="midnightblue" stroke="midnightblue" points="360.259,-14.5001 370.259,-11 360.259,-7.5001 360.259,-14.5001"/>
</g>
</g>
</svg>
