<?xml version="1.0" encoding="UTF-8" standalone="no"?>
<!DOCTYPE svg PUBLIC "-//W3C//DTD SVG 1.1//EN"
 "http://www.w3.org/Graphics/SVG/1.1/DTD/svg11.dtd">
<!-- Generated by graphviz version 2.26.3 (20100126.1600)
 -->
<!-- Title: G Pages: 1 -->
<svg width="418pt" height="190pt"
 viewBox="0.00 0.00 418.00 190.00" xmlns="http://www.w3.org/2000/svg" xmlns:xlink="http://www.w3.org/1999/xlink">
<g id="graph1" class="graph" transform="scale(1 1) rotate(0) translate(4 186)">
<title>G</title>
<!-- Node1 -->
<g id="node1" class="node"><title>Node1</title>
<polygon fill="#bfbfbf" stroke="black" points="0.5,-80.5 0.5,-101.5 123.5,-101.5 123.5,-80.5 0.5,-80.5"/>
<text text-anchor="middle" x="62" y="-88.5" font-family="Helvetica,sans-Serif" font-size="10.00">RandomGenerator::irand</text>
</g>
<!-- Node2 -->
<g id="node3" class="node"><title>Node2</title>
<a xlink:href="../../dc/d2b/classRandomGenerator.html#ace6d52f8318a4e80efad58fe75489427" target="_top" xlink:title="RandomGenerator::grand">
<polygon fill="none" stroke="black" points="162,-160.5 162,-181.5 288,-181.5 288,-160.5 162,-160.5"/>
<text text-anchor="middle" x="225" y="-168.5" font-family="Helvetica,sans-Serif" font-size="10.00">RandomGenerator::grand</text>
</a>
</g>
<!-- Node1&#45;&gt;Node2 -->
<g id="edge2" class="edge"><title>Node1&#45;&gt;Node2</title>
<path fill="none" stroke="midnightblue" d="M85.0509,-107.412C104.352,-120.58 133,-138.815 160,-151 167.964,-154.594 176.754,-157.781 185.229,-160.497"/>
<polygon fill="midnightblue" stroke="midnightblue" points="86.842,-104.395 76.6276,-101.582 82.8579,-110.151 86.842,-104.395"/>
</g>
<!-- Node3 -->
<g id="node5" class="node"><title>Node3</title>
<a xlink:href="../../dc/d2b/classRandomGenerator.html#a18a681f23b7e0394e169c6644f25e709" target="_top" xlink:title="RandomGenerator::grandf">
<polygon fill="none" stroke="black" points="160.5,-120.5 160.5,-141.5 289.5,-141.5 289.5,-120.5 160.5,-120.5"/>
<text text-anchor="middle" x="225" y="-128.5" font-family="Helvetica,sans-Serif" font-size="10.00">RandomGenerator::grandf</text>
</a>
</g>
<!-- Node1&#45;&gt;Node3 -->
<g id="edge4" class="edge"><title>Node1&#45;&gt;Node3</title>
<path fill="none" stroke="midnightblue" d="M114.612,-103.911C136.457,-109.272 161.483,-115.413 182.177,-120.491"/>
<polygon fill="midnightblue" stroke="midnightblue" points="115.372,-100.494 104.826,-101.51 113.704,-107.292 115.372,-100.494"/>
</g>
<!-- Node5 -->
<g id="node9" class="node"><title>Node5</title>
<a xlink:href="../../d1/dd1/classJNoise.html#ae0c1f2035ef7cbfd97e506c41e1e7d06" target="_top" xlink:title="JNoise::process">
<polygon fill="none" stroke="black" points="181,-80.5 181,-101.5 269,-101.5 269,-80.5 181,-80.5"/>
<text text-anchor="middle" x="225" y="-88.5" font-family="Helvetica,sans-Serif" font-size="10.00">JNoise::process</text>
</a>
</g>
<!-- Node1&#45;&gt;Node5 -->
<g id="edge8" class="edge"><title>Node1&#45;&gt;Node5</title>
<path fill="none" stroke="midnightblue" d="M134.001,-91C149.939,-91 166.369,-91 180.808,-91"/>
<polygon fill="midnightblue" stroke="midnightblue" points="133.623,-87.5001 123.623,-91 133.623,-94.5001 133.623,-87.5001"/>
</g>
<!-- Node6 -->
<g id="node11" class="node"><title>Node6</title>
<a xlink:href="../../dc/d2b/classRandomGenerator.html#a137418f98750869b00c79d416cc7912e" target="_top" xlink:title="RandomGenerator::urand">
<polygon fill="none" stroke="black" points="162,-40.5 162,-61.5 288,-61.5 288,-40.5 162,-40.5"/>
<text text-anchor="middle" x="225" y="-48.5" font-family="Helvetica,sans-Serif" font-size="10.00">RandomGenerator::urand</text>
</a>
</g>
<!-- Node1&#45;&gt;Node6 -->
<g id="edge10" class="edge"><title>Node1&#45;&gt;Node6</title>
<path fill="none" stroke="midnightblue" d="M114.612,-78.089C136.457,-72.7282 161.483,-66.587 182.177,-61.5087"/>
<polygon fill="midnightblue" stroke="midnightblue" points="113.704,-74.708 104.826,-80.4905 115.372,-81.5063 113.704,-74.708"/>
</g>
<!-- Node7 -->
<g id="node13" class="node"><title>Node7</title>
<a xlink:href="../../dc/d2b/classRandomGenerator.html#a0f3aa91354bd76c6674459f490219227" target="_top" xlink:title="RandomGenerator::urandf">
<polygon fill="none" stroke="black" points="160.5,-0.5 160.5,-21.5 289.5,-21.5 289.5,-0.5 160.5,-0.5"/>
<text text-anchor="middle" x="225" y="-8.5" font-family="Helvetica,sans-Serif" font-size="10.00">RandomGenerator::urandf</text>
</a>
</g>
<!-- Node1&#45;&gt;Node7 -->
<g id="edge12" class="edge"><title>Node1&#45;&gt;Node7</title>
<path fill="none" stroke="midnightblue" d="M85.0509,-74.5878C104.352,-61.4201 133,-43.185 160,-31 167.964,-27.406 176.754,-24.2186 185.229,-21.5031"/>
<polygon fill="midnightblue" stroke="midnightblue" points="82.8579,-71.8491 76.6276,-80.4185 86.842,-77.6047 82.8579,-71.8491"/>
</g>
<!-- Node4 -->
<g id="node7" class="node"><title>Node4</title>
<a xlink:href="../../d1/dd1/classJNoise.html#a3e12e8306bbb848df6d6a0e6248de47c" target="_top" xlink:title="JNoise::JNoise">
<polygon fill="none" stroke="black" points="326,-120.5 326,-141.5 410,-141.5 410,-120.5 326,-120.5"/>
<text text-anchor="middle" x="368" y="-128.5" font-family="Helvetica,sans-Serif" font-size="10.00">JNoise::JNoise</text>
</a>
</g>
<!-- Node3&#45;&gt;Node4 -->
<g id="edge6" class="edge"><title>Node3&#45;&gt;Node4</title>
<path fill="none" stroke="midnightblue" d="M299.898,-131C308.837,-131 317.705,-131 325.941,-131"/>
<polygon fill="midnightblue" stroke="midnightblue" points="299.806,-127.5 289.806,-131 299.806,-134.5 299.806,-127.5"/>
</g>
</g>
</svg>
