<?xml version="1.0" encoding="UTF-8" standalone="no"?>
<!DOCTYPE svg PUBLIC "-//W3C//DTD SVG 1.1//EN"
 "http://www.w3.org/Graphics/SVG/1.1/DTD/svg11.dtd">
<!-- Generated by graphviz version 2.26.3 (20100126.1600)
 -->
<!-- Title: G Pages: 1 -->
<svg width="434pt" height="150pt"
 viewBox="0.00 0.00 434.00 150.00" xmlns="http://www.w3.org/2000/svg" xmlns:xlink="http://www.w3.org/1999/xlink">
<g id="graph1" class="graph" transform="scale(1 1) rotate(0) translate(4 146)">
<title>G</title>
<!-- Node1 -->
<g id="node1" class="node"><title>Node1</title>
<polygon fill="#bfbfbf" stroke="black" points="0.5,-60.5 0.5,-81.5 115.5,-81.5 115.5,-60.5 0.5,-60.5"/>
<text text-anchor="middle" x="58" y="-68.5" font-family="Helvetica,sans-Serif" font-size="10.00">RandomGenerator::init</text>
</g>
<!-- Node2 -->
<g id="node3" class="node"><title>Node2</title>
<a xlink:href="../../d6/db0/classPRBSGenerator.html#a177cbca8f3cc1da63b4a29bc50cf2ad9" target="_top" xlink:title="PRBSGenerator::setPoly">
<polygon fill="none" stroke="black" points="152,-120.5 152,-141.5 278,-141.5 278,-120.5 152,-120.5"/>
<text text-anchor="middle" x="215" y="-128.5" font-family="Helvetica,sans-Serif" font-size="10.00">PRBSGenerator::setPoly</text>
</a>
</g>
<!-- Node1&#45;&gt;Node2 -->
<g id="edge2" class="edge"><title>Node1&#45;&gt;Node2</title>
<path fill="none" stroke="midnightblue" d="M81.3161,-81.6528C100.188,-90.0969 127.553,-101.941 152,-111 157.861,-113.172 164.08,-115.325 170.239,-117.369"/>
<polygon fill="midnightblue" stroke="midnightblue" points="169.217,-120.717 179.809,-120.478 171.38,-114.059 169.217,-120.717"/>
</g>
<!-- Node4 -->
<g id="node7" class="node"><title>Node4</title>
<a xlink:href="../../d6/db0/classPRBSGenerator.html#a5a5792cabc8312d00ed83decfb1c205a" target="_top" xlink:title="PRBSGenerator::setStat">
<polygon fill="none" stroke="black" points="152.5,-80.5 152.5,-101.5 277.5,-101.5 277.5,-80.5 152.5,-80.5"/>
<text text-anchor="middle" x="215" y="-88.5" font-family="Helvetica,sans-Serif" font-size="10.00">PRBSGenerator::setStat</text>
</a>
</g>
<!-- Node1&#45;&gt;Node4 -->
<g id="edge6" class="edge"><title>Node1&#45;&gt;Node4</title>
<path fill="none" stroke="midnightblue" d="M115.57,-78.3337C124.281,-79.4434 133.363,-80.6004 142.342,-81.7443"/>
<polygon fill="midnightblue" stroke="midnightblue" points="142.05,-85.2352 152.412,-83.027 142.934,-78.2913 142.05,-85.2352"/>
</g>
<!-- Node5 -->
<g id="node9" class="node"><title>Node5</title>
<a xlink:href="../../d6/db0/classPRBSGenerator.html#ac72b113883fbfb329e105e34229cfd48" target="_top" xlink:title="PRBSGenerator::stat">
<polygon fill="none" stroke="black" points="160,-40.5 160,-61.5 270,-61.5 270,-40.5 160,-40.5"/>
<text text-anchor="middle" x="215" y="-48.5" font-family="Helvetica,sans-Serif" font-size="10.00">PRBSGenerator::stat</text>
</a>
</g>
<!-- Node1&#45;&gt;Node5 -->
<g id="edge8" class="edge"><title>Node1&#45;&gt;Node5</title>
<path fill="none" stroke="midnightblue" d="M115.57,-63.6663C126.625,-62.2579 138.278,-60.7735 149.561,-59.3362"/>
<polygon fill="midnightblue" stroke="midnightblue" points="150.313,-62.7687 159.791,-58.033 149.429,-55.8248 150.313,-62.7687"/>
</g>
<!-- Node6 -->
<g id="node11" class="node"><title>Node6</title>
<a xlink:href="../../d6/db0/classPRBSGenerator.html#a2c8b9d44afcef8dae17f7363ac1042a4" target="_top" xlink:title="PRBSGenerator::step">
<polygon fill="none" stroke="black" points="159,-0.5 159,-21.5 271,-21.5 271,-0.5 159,-0.5"/>
<text text-anchor="middle" x="215" y="-8.5" font-family="Helvetica,sans-Serif" font-size="10.00">PRBSGenerator::step</text>
</a>
</g>
<!-- Node1&#45;&gt;Node6 -->
<g id="edge10" class="edge"><title>Node1&#45;&gt;Node6</title>
<path fill="none" stroke="midnightblue" d="M81.3161,-60.3472C100.188,-51.9031 127.553,-40.0587 152,-31 157.861,-28.8282 164.08,-26.6752 170.239,-24.6313"/>
<polygon fill="midnightblue" stroke="midnightblue" points="171.38,-27.9409 179.809,-21.5222 169.217,-21.2834 171.38,-27.9409"/>
</g>
<!-- Node3 -->
<g id="node5" class="node"><title>Node3</title>
<a xlink:href="../../d6/db0/classPRBSGenerator.html#a19a3b9cb35dbff18b83d34bcafe22e05" target="_top" xlink:title="PRBSGenerator::poly">
<polygon fill="none" stroke="black" points="314.5,-120.5 314.5,-141.5 425.5,-141.5 425.5,-120.5 314.5,-120.5"/>
<text text-anchor="middle" x="370" y="-128.5" font-family="Helvetica,sans-Serif" font-size="10.00">PRBSGenerator::poly</text>
</a>
</g>
<!-- Node2&#45;&gt;Node3 -->
<g id="edge4" class="edge"><title>Node2&#45;&gt;Node3</title>
<path fill="none" stroke="midnightblue" d="M278.044,-131C286.719,-131 295.644,-131 304.364,-131"/>
<polygon fill="midnightblue" stroke="midnightblue" points="304.479,-134.5 314.479,-131 304.479,-127.5 304.479,-134.5"/>
</g>
</g>
</svg>
