<?xml version="1.0" encoding="UTF-8" standalone="no"?>
<!DOCTYPE svg PUBLIC "-//W3C//DTD SVG 1.1//EN"
 "http://www.w3.org/Graphics/SVG/1.1/DTD/svg11.dtd">
<!-- Generated by graphviz version 2.26.3 (20100126.1600)
 -->
<!-- Title: G Pages: 1 -->
<svg width="180pt" height="146pt"
 viewBox="0.00 0.00 180.00 146.00" xmlns="http://www.w3.org/2000/svg" xmlns:xlink="http://www.w3.org/1999/xlink">
<g id="graph1" class="graph" transform="scale(1 1) rotate(0) translate(4 142)">
<title>G</title>
<!-- Node1 -->
<g id="node1" class="node"><title>Node1</title>
<polygon fill="#bfbfbf" stroke="black" points="-0.5,-116.5 -0.5,-137.5 172.5,-137.5 172.5,-116.5 -0.5,-116.5"/>
<text text-anchor="middle" x="86" y="-124.5" font-family="Helvetica,sans-Serif" font-size="10.00">3rdparty/jack/include/jack/intclient.h</text>
</g>
<!-- Node2 -->
<g id="node3" class="node"><title>Node2</title>
<a xlink:href="../../d9/d49/types_8h.html" target="_top" xlink:title="jack/types.h">
<polygon fill="none" stroke="black" points="51,-58.5 51,-79.5 121,-79.5 121,-58.5 51,-58.5"/>
<text text-anchor="middle" x="86" y="-66.5" font-family="Helvetica,sans-Serif" font-size="10.00">jack/types.h</text>
</a>
</g>
<!-- Node1&#45;&gt;Node2 -->
<g id="edge2" class="edge"><title>Node1&#45;&gt;Node2</title>
<path fill="none" stroke="midnightblue" d="M86,-116.362C86,-108.922 86,-98.7427 86,-89.7276"/>
<polygon fill="midnightblue" stroke="midnightblue" points="89.5001,-89.5706 86,-79.5707 82.5001,-89.5707 89.5001,-89.5706"/>
</g>
<!-- Node3 -->
<g id="node5" class="node"><title>Node3</title>
<a xlink:href="../../d2/d07/systemdeps_8h.html" target="_top" xlink:title="jack/systemdeps.h">
<polygon fill="none" stroke="black" points="36.5,-0.5 36.5,-21.5 135.5,-21.5 135.5,-0.5 36.5,-0.5"/>
<text text-anchor="middle" x="86" y="-8.5" font-family="Helvetica,sans-Serif" font-size="10.00">jack/systemdeps.h</text>
</a>
</g>
<!-- Node2&#45;&gt;Node3 -->
<g id="edge4" class="edge"><title>Node2&#45;&gt;Node3</title>
<path fill="none" stroke="midnightblue" d="M86,-58.3619C86,-50.9219 86,-40.7427 86,-31.7276"/>
<polygon fill="midnightblue" stroke="midnightblue" points="89.5001,-31.5706 86,-21.5707 82.5001,-31.5707 89.5001,-31.5706"/>
</g>
</g>
</svg>
