<?xml version="1.0" encoding="UTF-8" standalone="no"?>
<!DOCTYPE svg PUBLIC "-//W3C//DTD SVG 1.1//EN"
 "http://www.w3.org/Graphics/SVG/1.1/DTD/svg11.dtd">
<!-- Generated by graphviz version 2.26.3 (20100126.1600)
 -->
<!-- Title: G Pages: 1 -->
<!--zoomable 552 -->
<svg id="main" version="1.1" xmlns="http://www.w3.org/2000/svg" xmlns:xlink="http://www.w3.org/1999/xlink" xml:space="preserve" onload="init(evt)">
        <defs>
                <circle id="rim" cx="0" cy="0" r="7"/>
                <circle id="rim2" cx="0" cy="0" r="3.5"/>
                <g id="zoomPlus">
                        <use xlink:href="#rim" fill="#404040">
                                <set attributeName="fill" to="#808080" begin="zoomplus.mouseover" end="zoomplus.mouseout"/>
                        </use>
                        <path d="M-4,0h8M0,-4v8" fill="none" stroke="white" stroke-width="1.5" pointer-events="none"/>
                </g>
                <g id="zoomMin">
                        <use xlink:href="#rim" fill="#404040">
                                <set attributeName="fill" to="#808080" begin="zoomminus.mouseover" end="zoomminus.mouseout"/>
                        </use>
                        <path d="M-4,0h8" fill="none" stroke="white" stroke-width="1.5" pointer-events="none"/>
                </g>
                <g id="dirArrow">
                        <path fill="none" stroke="white" stroke-width="1.5" d="M0,-3.0v7 M-2.5,-0.5L0,-3.0L2.5,-0.5"/>
                </g>
               <g id="resetDef">
                       <use xlink:href="#rim2" fill="#404040">
                               <set attributeName="fill" to="#808080" begin="reset.mouseover" end="reset.mouseout"/>
                       </use>
               </g>
        </defs>

<script type="text/javascript">
var viewWidth = 1042;
var viewHeight = 552;
var sectionId = 'dynsection-0';
</script>
<script xlink:href="../../svgpan.js"/>
<svg id="graph" class="graph">
<g id="viewport">
<title>G</title>
<!-- Node1 -->
<g id="node1" class="node"><title>Node1</title>
<polygon fill="#bfbfbf" stroke="black" points="266,-522.5 266,-543.5 394,-543.5 394,-522.5 266,-522.5"/>
<text text-anchor="middle" x="330" y="-530.5" font-family="Helvetica,sans-Serif" font-size="10.00">gui/include/mainwindow.h</text>
</g>
<!-- Node2 -->
<g id="node3" class="node"><title>Node2</title>
<polygon fill="none" stroke="#bfbfbf" points="0,-464.5 0,-485.5 80,-485.5 80,-464.5 0,-464.5"/>
<text text-anchor="middle" x="40" y="-472.5" font-family="Helvetica,sans-Serif" font-size="10.00">QMainWindow</text>
</g>
<!-- Node1&#45;&gt;Node2 -->
<g id="edge2" class="edge"><title>Node1&#45;&gt;Node2</title>
<path fill="none" stroke="midnightblue" d="M273.423,-522.433C226.818,-513.623 158.746,-500.512 90.2049,-486.214"/>
<polygon fill="midnightblue" stroke="midnightblue" points="90.5964,-482.721 80.0913,-484.097 89.1617,-489.572 90.5964,-482.721"/>
</g>
<!-- Node3 -->
<g id="node5" class="node"><title>Node3</title>
<polygon fill="none" stroke="#bfbfbf" points="97.5,-464.5 97.5,-485.5 172.5,-485.5 172.5,-464.5 97.5,-464.5"/>
<text text-anchor="middle" x="135" y="-472.5" font-family="Helvetica,sans-Serif" font-size="10.00">QCloseEvent</text>
</g>
<!-- Node1&#45;&gt;Node3 -->
<g id="edge4" class="edge"><title>Node1&#45;&gt;Node3</title>
<path fill="none" stroke="midnightblue" d="M294.687,-522.497C262.621,-512.959 215.155,-498.841 180.304,-488.475"/>
<polygon fill="midnightblue" stroke="midnightblue" points="180.962,-485.019 170.379,-485.523 178.966,-491.729 180.962,-485.019"/>
</g>
<!-- Node4 -->
<g id="node7" class="node"><title>Node4</title>
<polygon fill="none" stroke="#bfbfbf" points="189.5,-464.5 189.5,-485.5 288.5,-485.5 288.5,-464.5 189.5,-464.5"/>
<text text-anchor="middle" x="239" y="-472.5" font-family="Helvetica,sans-Serif" font-size="10.00">QDesktopServices</text>
</g>
<!-- Node1&#45;&gt;Node4 -->
<g id="edge6" class="edge"><title>Node1&#45;&gt;Node4</title>
<path fill="none" stroke="midnightblue" d="M313.309,-522.362C299.584,-513.614 279.916,-501.079 264.263,-491.101"/>
<polygon fill="midnightblue" stroke="midnightblue" points="265.899,-487.994 255.585,-485.571 262.137,-493.897 265.899,-487.994"/>
</g>
<!-- Node5 -->
<g id="node9" class="node"><title>Node5</title>
<polygon fill="none" stroke="#bfbfbf" points="305.5,-464.5 305.5,-485.5 354.5,-485.5 354.5,-464.5 305.5,-464.5"/>
<text text-anchor="middle" x="330" y="-472.5" font-family="Helvetica,sans-Serif" font-size="10.00">QTimer</text>
</g>
<!-- Node1&#45;&gt;Node5 -->
<g id="edge8" class="edge"><title>Node1&#45;&gt;Node5</title>
<path fill="none" stroke="midnightblue" d="M330,-522.362C330,-514.922 330,-504.743 330,-495.728"/>
<polygon fill="midnightblue" stroke="midnightblue" points="333.5,-495.571 330,-485.571 326.5,-495.571 333.5,-495.571"/>
</g>
<!-- Node6 -->
<g id="node11" class="node"><title>Node6</title>
<a xlink:href="../../db/da1/jackadapter_8h.html" target="_top" xlink:title="jackadapter.h">
<polygon fill="none" stroke="black" points="463.5,-290.5 463.5,-311.5 538.5,-311.5 538.5,-290.5 463.5,-290.5"/>
<text text-anchor="middle" x="501" y="-298.5" font-family="Helvetica,sans-Serif" font-size="10.00">jackadapter.h</text>
</a>
</g>
<!-- Node1&#45;&gt;Node6 -->
<g id="edge10" class="edge"><title>Node1&#45;&gt;Node6</title>
<path fill="none" stroke="midnightblue" d="M337.942,-522.398C344.849,-513.016 354.979,-498.858 363,-486 400.061,-426.593 393.212,-400.973 439,-348 449.136,-336.274 462.642,-325.617 474.461,-317.426"/>
<polygon fill="midnightblue" stroke="midnightblue" points="476.713,-320.131 483.086,-311.667 472.826,-314.309 476.713,-320.131"/>
</g>
<!-- Node23 -->
<g id="node50" class="node"><title>Node23</title>
<a xlink:href="../../d2/de4/earprocessor_8h.html" target="_top" xlink:title="earprocessor.h">
<polygon fill="none" stroke="black" points="506.5,-406.5 506.5,-427.5 587.5,-427.5 587.5,-406.5 506.5,-406.5"/>
<text text-anchor="middle" x="547" y="-414.5" font-family="Helvetica,sans-Serif" font-size="10.00">earprocessor.h</text>
</a>
</g>
<!-- Node1&#45;&gt;Node23 -->
<g id="edge54" class="edge"><title>Node1&#45;&gt;Node23</title>
<path fill="none" stroke="midnightblue" d="M350.026,-522.295C388.718,-501.612 473.857,-456.099 518.464,-432.254"/>
<polygon fill="midnightblue" stroke="midnightblue" points="520.167,-435.313 527.336,-427.512 516.867,-429.139 520.167,-435.313"/>
</g>
<!-- Node33 -->
<g id="node78" class="node"><title>Node33</title>
<a xlink:href="../../d6/d0c/visualizerwidget_8h.html" target="_top" xlink:title="visualizerwidget.h">
<polygon fill="none" stroke="black" points="673.5,-464.5 673.5,-485.5 768.5,-485.5 768.5,-464.5 673.5,-464.5"/>
<text text-anchor="middle" x="721" y="-472.5" font-family="Helvetica,sans-Serif" font-size="10.00">visualizerwidget.h</text>
</a>
</g>
<!-- Node1&#45;&gt;Node33 -->
<g id="edge90" class="edge"><title>Node1&#45;&gt;Node33</title>
<path fill="none" stroke="midnightblue" d="M394.128,-523.487C468.879,-512.399 591.324,-494.236 663.235,-483.569"/>
<polygon fill="midnightblue" stroke="midnightblue" points="664.088,-486.981 673.466,-482.051 663.061,-480.056 664.088,-486.981"/>
</g>
<!-- Node7 -->
<g id="node13" class="node"><title>Node7</title>
<a xlink:href="../../df/d89/jack_8h.html" target="_top" xlink:title="jack/jack.h">
<polygon fill="none" stroke="black" points="607,-174.5 607,-195.5 671,-195.5 671,-174.5 607,-174.5"/>
<text text-anchor="middle" x="639" y="-182.5" font-family="Helvetica,sans-Serif" font-size="10.00">jack/jack.h</text>
</a>
</g>
<!-- Node6&#45;&gt;Node7 -->
<g id="edge12" class="edge"><title>Node6&#45;&gt;Node7</title>
<path fill="none" stroke="midnightblue" d="M524.046,-290.398C541.068,-281.936 564.264,-269.032 582,-254 599.276,-239.358 615.357,-219.022 626.003,-204.223"/>
<polygon fill="midnightblue" stroke="midnightblue" points="629.017,-206.021 631.892,-195.823 623.285,-202.002 629.017,-206.021"/>
</g>
<!-- Node12 -->
<g id="node26" class="node"><title>Node12</title>
<polygon fill="none" stroke="#bfbfbf" points="504,-232.5 504,-253.5 558,-253.5 558,-232.5 504,-232.5"/>
<text text-anchor="middle" x="531" y="-240.5" font-family="Helvetica,sans-Serif" font-size="10.00">iostream</text>
</g>
<!-- Node6&#45;&gt;Node12 -->
<g id="edge28" class="edge"><title>Node6&#45;&gt;Node12</title>
<path fill="none" stroke="midnightblue" d="M506.502,-290.362C510.52,-282.595 516.081,-271.843 520.89,-262.546"/>
<polygon fill="midnightblue" stroke="midnightblue" points="524.047,-264.061 525.532,-253.571 517.829,-260.845 524.047,-264.061"/>
</g>
<!-- Node13 -->
<g id="node28" class="node"><title>Node13</title>
<a xlink:href="../../d7/d55/fftwadapter_8h.html" target="_top" xlink:title="fftwadapter.h">
<polygon fill="none" stroke="black" points="652,-232.5 652,-253.5 726,-253.5 726,-232.5 652,-232.5"/>
<text text-anchor="middle" x="689" y="-240.5" font-family="Helvetica,sans-Serif" font-size="10.00">fftwadapter.h</text>
</a>
</g>
<!-- Node6&#45;&gt;Node13 -->
<g id="edge30" class="edge"><title>Node6&#45;&gt;Node13</title>
<path fill="none" stroke="midnightblue" d="M535.045,-290.497C565.96,-280.959 611.723,-266.841 645.322,-256.475"/>
<polygon fill="midnightblue" stroke="midnightblue" points="646.367,-259.816 654.891,-253.523 644.303,-253.127 646.367,-259.816"/>
</g>
<!-- Node17 -->
<g id="node37" class="node"><title>Node17</title>
<a xlink:href="../../d9/d99/processor_8h.html" target="_top" xlink:title="processor.h">
<polygon fill="none" stroke="black" points="292,-232.5 292,-253.5 360,-253.5 360,-232.5 292,-232.5"/>
<text text-anchor="middle" x="326" y="-240.5" font-family="Helvetica,sans-Serif" font-size="10.00">processor.h</text>
</a>
</g>
<!-- Node6&#45;&gt;Node17 -->
<g id="edge40" class="edge"><title>Node6&#45;&gt;Node17</title>
<path fill="none" stroke="midnightblue" d="M469.309,-290.497C440.779,-281.041 398.664,-267.083 367.465,-256.743"/>
<polygon fill="midnightblue" stroke="midnightblue" points="368.344,-253.347 357.751,-253.523 366.142,-259.991 368.344,-253.347"/>
</g>
<!-- Node18 -->
<g id="node39" class="node"><title>Node18</title>
<polygon fill="none" stroke="#bfbfbf" points="425.5,-174.5 425.5,-195.5 478.5,-195.5 478.5,-174.5 425.5,-174.5"/>
<text text-anchor="middle" x="452" y="-182.5" font-family="Helvetica,sans-Serif" font-size="10.00">QObject</text>
</g>
<!-- Node6&#45;&gt;Node18 -->
<g id="edge44" class="edge"><title>Node6&#45;&gt;Node18</title>
<path fill="none" stroke="midnightblue" d="M524.539,-290.341C549.251,-277.61 582.527,-255.119 567,-232 549.696,-206.235 515.51,-194.585 488.888,-189.323"/>
<polygon fill="midnightblue" stroke="midnightblue" points="489.197,-185.824 478.743,-187.547 487.99,-192.719 489.197,-185.824"/>
</g>
<!-- Node19 -->
<g id="node42" class="node"><title>Node19</title>
<polygon fill="none" stroke="#bfbfbf" points="378,-232.5 378,-253.5 428,-253.5 428,-232.5 378,-232.5"/>
<text text-anchor="middle" x="403" y="-240.5" font-family="Helvetica,sans-Serif" font-size="10.00">QString</text>
</g>
<!-- Node6&#45;&gt;Node19 -->
<g id="edge46" class="edge"><title>Node6&#45;&gt;Node19</title>
<path fill="none" stroke="midnightblue" d="M483.025,-290.362C468.106,-281.532 446.667,-268.844 429.734,-258.822"/>
<polygon fill="midnightblue" stroke="midnightblue" points="431.249,-255.652 420.861,-253.571 427.684,-261.676 431.249,-255.652"/>
</g>
<!-- Node20 -->
<g id="node44" class="node"><title>Node20</title>
<polygon fill="none" stroke="#bfbfbf" points="231.5,-232.5 231.5,-253.5 274.5,-253.5 274.5,-232.5 231.5,-232.5"/>
<text text-anchor="middle" x="253" y="-240.5" font-family="Helvetica,sans-Serif" font-size="10.00">QMap</text>
</g>
<!-- Node6&#45;&gt;Node20 -->
<g id="edge48" class="edge"><title>Node6&#45;&gt;Node20</title>
<path fill="none" stroke="midnightblue" d="M463.187,-294.501C421.448,-286.964 352.172,-273.39 284.483,-254.171"/>
<polygon fill="midnightblue" stroke="midnightblue" points="285.089,-250.703 274.511,-251.294 283.149,-257.429 285.089,-250.703"/>
</g>
<!-- Node21 -->
<g id="node46" class="node"><title>Node21</title>
<polygon fill="none" stroke="#bfbfbf" points="446,-232.5 446,-253.5 486,-253.5 486,-232.5 446,-232.5"/>
<text text-anchor="middle" x="466" y="-240.5" font-family="Helvetica,sans-Serif" font-size="10.00">QList</text>
</g>
<!-- Node6&#45;&gt;Node21 -->
<g id="edge50" class="edge"><title>Node6&#45;&gt;Node21</title>
<path fill="none" stroke="midnightblue" d="M494.58,-290.362C489.844,-282.513 483.268,-271.616 477.618,-262.253"/>
<polygon fill="midnightblue" stroke="midnightblue" points="480.542,-260.324 472.379,-253.571 474.549,-263.941 480.542,-260.324"/>
</g>
<!-- Node22 -->
<g id="node48" class="node"><title>Node22</title>
<polygon fill="none" stroke="#bfbfbf" points="744,-232.5 744,-253.5 818,-253.5 818,-232.5 744,-232.5"/>
<text text-anchor="middle" x="781" y="-240.5" font-family="Helvetica,sans-Serif" font-size="10.00">QSemaphore</text>
</g>
<!-- Node6&#45;&gt;Node22 -->
<g id="edge52" class="edge"><title>Node6&#45;&gt;Node22</title>
<path fill="none" stroke="midnightblue" d="M538.584,-292.813C543.102,-291.852 547.653,-290.896 552,-290 630.013,-273.915 652.288,-271.792 733.65,-254.234"/>
<polygon fill="midnightblue" stroke="midnightblue" points="734.843,-257.557 743.872,-252.015 733.357,-250.716 734.843,-257.557"/>
</g>
<!-- Node8 -->
<g id="node15" class="node"><title>Node8</title>
<a xlink:href="../../d2/d07/systemdeps_8h.html" target="_top" xlink:title="jack/systemdeps.h">
<polygon fill="none" stroke="black" points="543.5,-0.5 543.5,-21.5 642.5,-21.5 642.5,-0.5 543.5,-0.5"/>
<text text-anchor="middle" x="593" y="-8.5" font-family="Helvetica,sans-Serif" font-size="10.00">jack/systemdeps.h</text>
</a>
</g>
<!-- Node7&#45;&gt;Node8 -->
<g id="edge14" class="edge"><title>Node7&#45;&gt;Node8</title>
<path fill="none" stroke="midnightblue" d="M645.666,-174.431C659.06,-151.729 686.217,-97.1867 665,-58 657.493,-44.1346 643.924,-33.7098 630.573,-26.2467"/>
<polygon fill="midnightblue" stroke="midnightblue" points="631.935,-23.0115 621.442,-21.5473 628.731,-29.2355 631.935,-23.0115"/>
</g>
<!-- Node9 -->
<g id="node17" class="node"><title>Node9</title>
<a xlink:href="../../d9/d49/types_8h.html" target="_top" xlink:title="jack/types.h">
<polygon fill="none" stroke="black" points="468,-58.5 468,-79.5 538,-79.5 538,-58.5 468,-58.5"/>
<text text-anchor="middle" x="503" y="-66.5" font-family="Helvetica,sans-Serif" font-size="10.00">jack/types.h</text>
</a>
</g>
<!-- Node7&#45;&gt;Node9 -->
<g id="edge16" class="edge"><title>Node7&#45;&gt;Node9</title>
<path fill="none" stroke="midnightblue" d="M606.944,-180.154C580.52,-174.501 543.939,-162.577 522,-138 510.263,-124.852 505.7,-105.091 503.963,-90.0817"/>
<polygon fill="midnightblue" stroke="midnightblue" points="507.419,-89.3993 503.115,-79.7183 500.443,-89.9706 507.419,-89.3993"/>
</g>
<!-- Node10 -->
<g id="node20" class="node"><title>Node10</title>
<a xlink:href="../../d2/d02/transport_8h.html" target="_top" xlink:title="jack/transport.h">
<polygon fill="none" stroke="black" points="531,-116.5 531,-137.5 615,-137.5 615,-116.5 531,-116.5"/>
<text text-anchor="middle" x="573" y="-124.5" font-family="Helvetica,sans-Serif" font-size="10.00">jack/transport.h</text>
</a>
</g>
<!-- Node7&#45;&gt;Node10 -->
<g id="edge20" class="edge"><title>Node7&#45;&gt;Node10</title>
<path fill="none" stroke="midnightblue" d="M626.895,-174.362C617.312,-165.941 603.736,-154.011 592.607,-144.231"/>
<polygon fill="midnightblue" stroke="midnightblue" points="594.851,-141.543 585.029,-137.571 590.23,-146.801 594.851,-141.543"/>
</g>
<!-- Node11 -->
<g id="node23" class="node"><title>Node11</title>
<a xlink:href="../../dc/db4/weakmacros_8h.html" target="_top" xlink:title="jack/weakmacros.h">
<polygon fill="none" stroke="black" points="555.5,-58.5 555.5,-79.5 656.5,-79.5 656.5,-58.5 555.5,-58.5"/>
<text text-anchor="middle" x="606" y="-66.5" font-family="Helvetica,sans-Serif" font-size="10.00">jack/weakmacros.h</text>
</a>
</g>
<!-- Node7&#45;&gt;Node11 -->
<g id="edge26" class="edge"><title>Node7&#45;&gt;Node11</title>
<path fill="none" stroke="midnightblue" d="M637.162,-174.115C634.727,-160.408 630.027,-136.206 624,-116 621.331,-107.051 617.753,-97.3828 614.49,-89.1552"/>
<polygon fill="midnightblue" stroke="midnightblue" points="617.637,-87.6033 610.619,-79.6667 611.156,-90.2479 617.637,-87.6033"/>
</g>
<!-- Node9&#45;&gt;Node8 -->
<g id="edge18" class="edge"><title>Node9&#45;&gt;Node8</title>
<path fill="none" stroke="midnightblue" d="M519.507,-58.3619C533.082,-49.6138 552.533,-37.0786 568.015,-27.1015"/>
<polygon fill="midnightblue" stroke="midnightblue" points="570.088,-29.9297 576.597,-21.5707 566.296,-24.0457 570.088,-29.9297"/>
</g>
<!-- Node10&#45;&gt;Node9 -->
<g id="edge22" class="edge"><title>Node10&#45;&gt;Node9</title>
<path fill="none" stroke="midnightblue" d="M560.161,-116.362C549.998,-107.941 535.599,-96.0105 523.796,-86.2308"/>
<polygon fill="midnightblue" stroke="midnightblue" points="525.691,-83.2558 515.758,-79.5707 521.225,-88.6459 525.691,-83.2558"/>
</g>
<!-- Node10&#45;&gt;Node11 -->
<g id="edge24" class="edge"><title>Node10&#45;&gt;Node11</title>
<path fill="none" stroke="midnightblue" d="M579.053,-116.362C583.472,-108.595 589.59,-97.8426 594.879,-88.5458"/>
<polygon fill="midnightblue" stroke="midnightblue" points="598.082,-89.9932 599.986,-79.5707 591.998,-86.5315 598.082,-89.9932"/>
</g>
<!-- Node13&#45;&gt;Node7 -->
<g id="edge32" class="edge"><title>Node13&#45;&gt;Node7</title>
<path fill="none" stroke="midnightblue" d="M679.829,-232.362C672.852,-224.268 663.079,-212.932 654.844,-203.38"/>
<polygon fill="midnightblue" stroke="midnightblue" points="657.293,-200.859 648.113,-195.571 651.991,-205.43 657.293,-200.859"/>
</g>
<!-- Node14 -->
<g id="node31" class="node"><title>Node14</title>
<a xlink:href="../../d7/d5e/fftw3_8h.html" target="_top" xlink:title="fftw3.h">
<polygon fill="none" stroke="black" points="721.5,-174.5 721.5,-195.5 768.5,-195.5 768.5,-174.5 721.5,-174.5"/>
<text text-anchor="middle" x="745" y="-182.5" font-family="Helvetica,sans-Serif" font-size="10.00">fftw3.h</text>
</a>
</g>
<!-- Node13&#45;&gt;Node14 -->
<g id="edge34" class="edge"><title>Node13&#45;&gt;Node14</title>
<path fill="none" stroke="midnightblue" d="M699.271,-232.362C707.244,-224.104 718.475,-212.472 727.811,-202.803"/>
<polygon fill="midnightblue" stroke="midnightblue" points="730.366,-205.196 734.794,-195.571 725.33,-200.334 730.366,-205.196"/>
</g>
<!-- Node15 -->
<g id="node33" class="node"><title>Node15</title>
<polygon fill="none" stroke="#bfbfbf" points="793,-116.5 793,-137.5 839,-137.5 839,-116.5 793,-116.5"/>
<text text-anchor="middle" x="816" y="-124.5" font-family="Helvetica,sans-Serif" font-size="10.00">stdio.h</text>
</g>
<!-- Node14&#45;&gt;Node15 -->
<g id="edge36" class="edge"><title>Node14&#45;&gt;Node15</title>
<path fill="none" stroke="midnightblue" d="M758.022,-174.362C768.431,-165.859 783.219,-153.779 795.255,-143.947"/>
<polygon fill="midnightblue" stroke="midnightblue" points="797.53,-146.608 803.06,-137.571 793.101,-141.187 797.53,-146.608"/>
</g>
<!-- Node16 -->
<g id="node35" class="node"><title>Node16</title>
<polygon fill="none" stroke="#bfbfbf" points="719,-116.5 719,-137.5 771,-137.5 771,-116.5 719,-116.5"/>
<text text-anchor="middle" x="745" y="-124.5" font-family="Helvetica,sans-Serif" font-size="10.00">stddef.h</text>
</g>
<!-- Node14&#45;&gt;Node16 -->
<g id="edge38" class="edge"><title>Node14&#45;&gt;Node16</title>
<path fill="none" stroke="midnightblue" d="M745,-174.362C745,-166.922 745,-156.743 745,-147.728"/>
<polygon fill="midnightblue" stroke="midnightblue" points="748.5,-147.571 745,-137.571 741.5,-147.571 748.5,-147.571"/>
</g>
<!-- Node17&#45;&gt;Node18 -->
<g id="edge42" class="edge"><title>Node17&#45;&gt;Node18</title>
<path fill="none" stroke="midnightblue" d="M348.818,-232.497C368.586,-223.397 397.413,-210.127 419.576,-199.925"/>
<polygon fill="midnightblue" stroke="midnightblue" points="421.306,-202.982 428.926,-195.621 418.379,-196.623 421.306,-202.982"/>
</g>
<!-- Node23&#45;&gt;Node6 -->
<g id="edge56" class="edge"><title>Node23&#45;&gt;Node6</title>
<path fill="none" stroke="midnightblue" d="M542.755,-406.295C535.087,-386.959 518.814,-345.923 509.001,-321.177"/>
<polygon fill="midnightblue" stroke="midnightblue" points="512.175,-319.685 505.235,-311.679 505.668,-322.265 512.175,-319.685"/>
</g>
<!-- Node23&#45;&gt;Node17 -->
<g id="edge58" class="edge"><title>Node23&#45;&gt;Node17</title>
<path fill="none" stroke="midnightblue" d="M512.9,-406.457C490.592,-398.563 461.519,-386.318 439,-370 396.058,-338.883 357.727,-288.879 338.69,-261.833"/>
<polygon fill="midnightblue" stroke="midnightblue" points="341.563,-259.833 332.995,-253.601 335.806,-263.816 341.563,-259.833"/>
</g>
<!-- Node23&#45;&gt;Node20 -->
<g id="edge84" class="edge"><title>Node23&#45;&gt;Node20</title>
<path fill="none" stroke="midnightblue" d="M506.473,-407.124C478.345,-399.322 440.584,-386.92 410,-370 354.159,-339.107 298.35,-287.936 270.762,-260.944"/>
<polygon fill="midnightblue" stroke="midnightblue" points="273.013,-258.248 263.444,-253.7 268.089,-263.222 273.013,-258.248"/>
</g>
<!-- Node23&#45;&gt;Node22 -->
<g id="edge88" class="edge"><title>Node23&#45;&gt;Node22</title>
<path fill="none" stroke="midnightblue" d="M549.462,-406.293C555.655,-381.822 574.232,-321.489 613,-290 617.842,-286.067 686.055,-267.725 734.053,-255.152"/>
<polygon fill="midnightblue" stroke="midnightblue" points="735.168,-258.478 743.958,-252.564 733.398,-251.706 735.168,-258.478"/>
</g>
<!-- Node24 -->
<g id="node54" class="node"><title>Node24</title>
<a xlink:href="../../d6/def/digitalequalizer_8h.html" target="_top" xlink:title="digitalequalizer.h">
<polygon fill="none" stroke="black" points="593.5,-348.5 593.5,-369.5 682.5,-369.5 682.5,-348.5 593.5,-348.5"/>
<text text-anchor="middle" x="638" y="-356.5" font-family="Helvetica,sans-Serif" font-size="10.00">digitalequalizer.h</text>
</a>
</g>
<!-- Node23&#45;&gt;Node24 -->
<g id="edge60" class="edge"><title>Node23&#45;&gt;Node24</title>
<path fill="none" stroke="midnightblue" d="M563.691,-406.362C577.416,-397.614 597.084,-385.079 612.737,-375.101"/>
<polygon fill="midnightblue" stroke="midnightblue" points="614.863,-377.897 621.415,-369.571 611.101,-371.994 614.863,-377.897"/>
</g>
<!-- Node25 -->
<g id="node56" class="node"><title>Node25</title>
<polygon fill="none" stroke="#bfbfbf" points="631.5,-290.5 631.5,-311.5 684.5,-311.5 684.5,-290.5 631.5,-290.5"/>
<text text-anchor="middle" x="658" y="-298.5" font-family="Helvetica,sans-Serif" font-size="10.00">QVector</text>
</g>
<!-- Node23&#45;&gt;Node25 -->
<g id="edge82" class="edge"><title>Node23&#45;&gt;Node25</title>
<path fill="none" stroke="midnightblue" d="M587.708,-409.236C625.816,-401.043 678.684,-386.975 691,-370 702.448,-354.221 689.912,-333.847 677.136,-319.338"/>
<polygon fill="midnightblue" stroke="midnightblue" points="679.573,-316.819 670.165,-311.947 674.481,-321.623 679.573,-316.819"/>
</g>
<!-- Node26 -->
<g id="node60" class="node"><title>Node26</title>
<a xlink:href="../../de/de9/jnoise_8h.html" target="_top" xlink:title="jnoise.h">
<polygon fill="none" stroke="black" points="768,-348.5 768,-369.5 818,-369.5 818,-348.5 768,-348.5"/>
<text text-anchor="middle" x="793" y="-356.5" font-family="Helvetica,sans-Serif" font-size="10.00">jnoise.h</text>
</a>
</g>
<!-- Node23&#45;&gt;Node26 -->
<g id="edge68" class="edge"><title>Node23&#45;&gt;Node26</title>
<path fill="none" stroke="midnightblue" d="M587.622,-407.422C635.099,-396.229 712.88,-377.89 757.863,-367.284"/>
<polygon fill="midnightblue" stroke="midnightblue" points="758.817,-370.655 767.747,-364.954 757.211,-363.842 758.817,-370.655"/>
</g>
<!-- Node32 -->
<g id="node75" class="node"><title>Node32</title>
<polygon fill="none" stroke="#bfbfbf" points="447.5,-348.5 447.5,-369.5 500.5,-369.5 500.5,-348.5 447.5,-348.5"/>
<text text-anchor="middle" x="474" y="-356.5" font-family="Helvetica,sans-Serif" font-size="10.00">QDebug</text>
</g>
<!-- Node23&#45;&gt;Node32 -->
<g id="edge86" class="edge"><title>Node23&#45;&gt;Node32</title>
<path fill="none" stroke="midnightblue" d="M533.611,-406.362C522.909,-397.859 507.704,-385.779 495.329,-375.947"/>
<polygon fill="midnightblue" stroke="midnightblue" points="497.311,-373.051 487.304,-369.571 492.957,-378.532 497.311,-373.051"/>
</g>
<!-- Node24&#45;&gt;Node6 -->
<g id="edge66" class="edge"><title>Node24&#45;&gt;Node6</title>
<path fill="none" stroke="midnightblue" d="M613.19,-348.497C591.504,-339.315 559.789,-325.889 535.608,-315.652"/>
<polygon fill="midnightblue" stroke="midnightblue" points="536.661,-312.297 526.088,-311.621 533.932,-318.743 536.661,-312.297"/>
</g>
<!-- Node24&#45;&gt;Node22 -->
<g id="edge64" class="edge"><title>Node24&#45;&gt;Node22</title>
<path fill="none" stroke="midnightblue" d="M630.742,-348.064C622.028,-333.423 610.101,-307.295 623,-290 626.467,-285.352 688.897,-267.744 734.226,-255.454"/>
<polygon fill="midnightblue" stroke="midnightblue" points="735.157,-258.828 743.898,-252.842 733.331,-252.07 735.157,-258.828"/>
</g>
<!-- Node24&#45;&gt;Node25 -->
<g id="edge62" class="edge"><title>Node24&#45;&gt;Node25</title>
<path fill="none" stroke="midnightblue" d="M641.668,-348.362C644.29,-340.758 647.899,-330.294 651.057,-321.135"/>
<polygon fill="midnightblue" stroke="midnightblue" points="654.404,-322.165 654.355,-311.571 647.786,-319.883 654.404,-322.165"/>
</g>
<!-- Node26&#45;&gt;Node15 -->
<g id="edge72" class="edge"><title>Node26&#45;&gt;Node15</title>
<path fill="none" stroke="midnightblue" d="M803.929,-348.173C812.049,-339.308 822.471,-325.989 827,-312 845.512,-254.825 831.154,-182.596 822.037,-147.719"/>
<polygon fill="midnightblue" stroke="midnightblue" points="825.33,-146.492 819.31,-137.774 818.579,-148.344 825.33,-146.492"/>
</g>
<!-- Node27 -->
<g id="node62" class="node"><title>Node27</title>
<polygon fill="none" stroke="#bfbfbf" points="702,-290.5 702,-311.5 750,-311.5 750,-290.5 702,-290.5"/>
<text text-anchor="middle" x="726" y="-298.5" font-family="Helvetica,sans-Serif" font-size="10.00">stdlib.h</text>
</g>
<!-- Node26&#45;&gt;Node27 -->
<g id="edge70" class="edge"><title>Node26&#45;&gt;Node27</title>
<path fill="none" stroke="midnightblue" d="M780.711,-348.362C770.983,-339.941 757.202,-328.011 745.905,-318.231"/>
<polygon fill="midnightblue" stroke="midnightblue" points="748.062,-315.469 738.211,-311.571 743.481,-320.762 748.062,-315.469"/>
</g>
<!-- Node28 -->
<g id="node65" class="node"><title>Node28</title>
<polygon fill="none" stroke="#bfbfbf" points="767.5,-290.5 767.5,-311.5 818.5,-311.5 818.5,-290.5 767.5,-290.5"/>
<text text-anchor="middle" x="793" y="-298.5" font-family="Helvetica,sans-Serif" font-size="10.00">unistd.h</text>
</g>
<!-- Node26&#45;&gt;Node28 -->
<g id="edge74" class="edge"><title>Node26&#45;&gt;Node28</title>
<path fill="none" stroke="midnightblue" d="M793,-348.362C793,-340.922 793,-330.743 793,-321.728"/>
<polygon fill="midnightblue" stroke="midnightblue" points="796.5,-321.571 793,-311.571 789.5,-321.571 796.5,-321.571"/>
</g>
<!-- Node29 -->
<g id="node67" class="node"><title>Node29</title>
<a xlink:href="../../d4/d5f/randomgenerator_8h.html" target="_top" xlink:title="randomgenerator.h">
<polygon fill="none" stroke="black" points="912,-290.5 912,-311.5 1010,-311.5 1010,-290.5 912,-290.5"/>
<text text-anchor="middle" x="961" y="-298.5" font-family="Helvetica,sans-Serif" font-size="10.00">randomgenerator.h</text>
</a>
</g>
<!-- Node26&#45;&gt;Node29 -->
<g id="edge76" class="edge"><title>Node26&#45;&gt;Node29</title>
<path fill="none" stroke="midnightblue" d="M818.151,-350.317C845.36,-340.923 889.124,-325.814 921.05,-314.792"/>
<polygon fill="midnightblue" stroke="midnightblue" points="922.236,-318.086 930.546,-311.514 919.951,-311.469 922.236,-318.086"/>
</g>
<!-- Node30 -->
<g id="node69" class="node"><title>Node30</title>
<polygon fill="none" stroke="#bfbfbf" points="900,-232.5 900,-253.5 968,-253.5 968,-232.5 900,-232.5"/>
<text text-anchor="middle" x="934" y="-240.5" font-family="Helvetica,sans-Serif" font-size="10.00">sys/types.h</text>
</g>
<!-- Node29&#45;&gt;Node30 -->
<g id="edge78" class="edge"><title>Node29&#45;&gt;Node30</title>
<path fill="none" stroke="midnightblue" d="M956.048,-290.362C952.47,-282.677 947.532,-272.069 943.236,-262.84"/>
<polygon fill="midnightblue" stroke="midnightblue" points="946.314,-261.159 938.921,-253.571 939.968,-264.114 946.314,-261.159"/>
</g>
<!-- Node31 -->
<g id="node71" class="node"><title>Node31</title>
<polygon fill="none" stroke="#bfbfbf" points="985.5,-232.5 985.5,-253.5 1034.5,-253.5 1034.5,-232.5 985.5,-232.5"/>
<text text-anchor="middle" x="1010" y="-240.5" font-family="Helvetica,sans-Serif" font-size="10.00">stdint.h</text>
</g>
<!-- Node29&#45;&gt;Node31 -->
<g id="edge80" class="edge"><title>Node29&#45;&gt;Node31</title>
<path fill="none" stroke="midnightblue" d="M969.987,-290.362C976.825,-282.268 986.402,-270.932 994.472,-261.38"/>
<polygon fill="midnightblue" stroke="midnightblue" points="997.29,-263.468 1001.07,-253.571 991.942,-258.951 997.29,-263.468"/>
</g>
<!-- Node33&#45;&gt;Node22 -->
<g id="edge98" class="edge"><title>Node33&#45;&gt;Node22</title>
<path fill="none" stroke="midnightblue" d="M761.16,-464.369C780.576,-457.203 802.536,-445.733 816,-428 853.206,-378.996 850.24,-346.97 827,-290 822.311,-278.507 813.309,-268.299 804.502,-260.357"/>
<polygon fill="midnightblue" stroke="midnightblue" points="806.51,-257.473 796.599,-253.729 802.012,-262.837 806.51,-257.473"/>
</g>
<!-- Node33&#45;&gt;Node23 -->
<g id="edge100" class="edge"><title>Node33&#45;&gt;Node23</title>
<path fill="none" stroke="midnightblue" d="M689.49,-464.497C661.123,-455.041 619.249,-441.083 588.228,-430.743"/>
<polygon fill="midnightblue" stroke="midnightblue" points="589.163,-427.365 578.569,-427.523 586.949,-434.006 589.163,-427.365"/>
</g>
<!-- Node34 -->
<g id="node80" class="node"><title>Node34</title>
<polygon fill="none" stroke="#bfbfbf" points="912,-406.5 912,-427.5 980,-427.5 980,-406.5 912,-406.5"/>
<text text-anchor="middle" x="946" y="-414.5" font-family="Helvetica,sans-Serif" font-size="10.00">QGLWidget</text>
</g>
<!-- Node33&#45;&gt;Node34 -->
<g id="edge92" class="edge"><title>Node33&#45;&gt;Node34</title>
<path fill="none" stroke="midnightblue" d="M761.746,-464.497C801.322,-454.295 861.232,-438.851 901.908,-428.366"/>
<polygon fill="midnightblue" stroke="midnightblue" points="903.001,-431.699 911.811,-425.813 901.254,-424.92 903.001,-431.699"/>
</g>
<!-- Node35 -->
<g id="node82" class="node"><title>Node35</title>
<polygon fill="none" stroke="#bfbfbf" points="634.5,-406.5 634.5,-427.5 711.5,-427.5 711.5,-406.5 634.5,-406.5"/>
<text text-anchor="middle" x="673" y="-414.5" font-family="Helvetica,sans-Serif" font-size="10.00">QWheelEvent</text>
</g>
<!-- Node33&#45;&gt;Node35 -->
<g id="edge94" class="edge"><title>Node33&#45;&gt;Node35</title>
<path fill="none" stroke="midnightblue" d="M712.196,-464.362C705.498,-456.268 696.116,-444.932 688.211,-435.38"/>
<polygon fill="midnightblue" stroke="midnightblue" points="690.82,-433.043 681.748,-427.571 685.427,-437.506 690.82,-433.043"/>
</g>
<!-- Node36 -->
<g id="node84" class="node"><title>Node36</title>
<polygon fill="none" stroke="#bfbfbf" points="728.5,-406.5 728.5,-427.5 807.5,-427.5 807.5,-406.5 728.5,-406.5"/>
<text text-anchor="middle" x="768" y="-414.5" font-family="Helvetica,sans-Serif" font-size="10.00">QMouseEvent</text>
</g>
<!-- Node33&#45;&gt;Node36 -->
<g id="edge96" class="edge"><title>Node33&#45;&gt;Node36</title>
<path fill="none" stroke="midnightblue" d="M729.621,-464.362C736.18,-456.268 745.366,-444.932 753.106,-435.38"/>
<polygon fill="midnightblue" stroke="midnightblue" points="755.858,-437.544 759.434,-427.571 750.419,-433.136 755.858,-437.544"/>
</g>
</g>
</svg>
        <g id="navigator" transform="translate(0 0)" fill="#404254">
                <rect fill="#f2f5e9" fill-opacity="0.5" stroke="#606060" stroke-width=".5" x="0" y="0" width="60" height="60"/>
                <use id="zoomplus" xlink:href="#zoomPlus" x="17" y="9" onmousedown="handleZoom(evt,'in')"/>
                <use id="zoomminus" xlink:href="#zoomMin" x="42" y="9" onmousedown="handleZoom(evt,'out')"/>
                <use id="reset" xlink:href="#resetDef" x="30" y="36" onmousedown="handleReset()"/>
                <g id="arrowUp" xlink:href="#dirArrow" transform="translate(30 24)" onmousedown="handlePan(0,-1)">
                  <use xlink:href="#rim" fill="#404040">
                        <set attributeName="fill" to="#808080" begin="arrowUp.mouseover" end="arrowUp.mouseout"/>
                  </use>
                  <path fill="none" stroke="white" stroke-width="1.5" d="M0,-3.0v7 M-2.5,-0.5L0,-3.0L2.5,-0.5"/>
                </g>
                <g id="arrowRight" xlink:href="#dirArrow" transform="rotate(90) translate(36 -43)" onmousedown="handlePan(1,0)">
                  <use xlink:href="#rim" fill="#404040">
                        <set attributeName="fill" to="#808080" begin="arrowRight.mouseover" end="arrowRight.mouseout"/>
                  </use>
                  <path fill="none" stroke="white" stroke-width="1.5" d="M0,-3.0v7 M-2.5,-0.5L0,-3.0L2.5,-0.5"/>
                </g>
                <g id="arrowDown" xlink:href="#dirArrow" transform="rotate(180) translate(-30 -48)" onmousedown="handlePan(0,1)">
                  <use xlink:href="#rim" fill="#404040">
                        <set attributeName="fill" to="#808080" begin="arrowDown.mouseover" end="arrowDown.mouseout"/>
                  </use>
                  <path fill="none" stroke="white" stroke-width="1.5" d="M0,-3.0v7 M-2.5,-0.5L0,-3.0L2.5,-0.5"/>
                </g>
                <g id="arrowLeft" xlink:href="#dirArrow" transform="rotate(270) translate(-36 17)" onmousedown="handlePan(-1,0)">
                  <use xlink:href="#rim" fill="#404040">
                        <set attributeName="fill" to="#808080" begin="arrowLeft.mouseover" end="arrowLeft.mouseout"/>
                  </use>
                  <path fill="none" stroke="white" stroke-width="1.5" d="M0,-3.0v7 M-2.5,-0.5L0,-3.0L2.5,-0.5"/>
                </g>
        </g>
</svg>
