<?xml version="1.0" encoding="UTF-8" standalone="no"?>
<!DOCTYPE svg PUBLIC "-//W3C//DTD SVG 1.1//EN"
 "http://www.w3.org/Graphics/SVG/1.1/DTD/svg11.dtd">
<!-- Generated by graphviz version 2.26.3 (20100126.1600)
 -->
<!-- Title: G Pages: 1 -->
<svg width="317pt" height="146pt"
 viewBox="0.00 0.00 317.00 146.00" xmlns="http://www.w3.org/2000/svg" xmlns:xlink="http://www.w3.org/1999/xlink">
<g id="graph1" class="graph" transform="scale(1 1) rotate(0) translate(4 142)">
<title>G</title>
<!-- Node1 -->
<g id="node1" class="node"><title>Node1</title>
<polygon fill="#bfbfbf" stroke="black" points="52.5,-116.5 52.5,-137.5 191.5,-137.5 191.5,-116.5 52.5,-116.5"/>
<text text-anchor="middle" x="122" y="-124.5" font-family="Helvetica,sans-Serif" font-size="10.00">libear/include/jnoise/jnoise.h</text>
</g>
<!-- Node2 -->
<g id="node3" class="node"><title>Node2</title>
<polygon fill="none" stroke="#bfbfbf" points="0,-58.5 0,-79.5 48,-79.5 48,-58.5 0,-58.5"/>
<text text-anchor="middle" x="24" y="-66.5" font-family="Helvetica,sans-Serif" font-size="10.00">stdlib.h</text>
</g>
<!-- Node1&#45;&gt;Node2 -->
<g id="edge2" class="edge"><title>Node1&#45;&gt;Node2</title>
<path fill="none" stroke="midnightblue" d="M104.025,-116.362C89.1058,-107.532 67.6674,-94.844 50.7344,-84.8224"/>
<polygon fill="midnightblue" stroke="midnightblue" points="52.2492,-81.6519 41.8608,-79.5707 48.6839,-87.6759 52.2492,-81.6519"/>
</g>
<!-- Node3 -->
<g id="node5" class="node"><title>Node3</title>
<polygon fill="none" stroke="#bfbfbf" points="66,-58.5 66,-79.5 112,-79.5 112,-58.5 66,-58.5"/>
<text text-anchor="middle" x="89" y="-66.5" font-family="Helvetica,sans-Serif" font-size="10.00">stdio.h</text>
</g>
<!-- Node1&#45;&gt;Node3 -->
<g id="edge4" class="edge"><title>Node1&#45;&gt;Node3</title>
<path fill="none" stroke="midnightblue" d="M115.947,-116.362C111.528,-108.595 105.41,-97.8426 100.121,-88.5458"/>
<polygon fill="midnightblue" stroke="midnightblue" points="103.002,-86.5315 95.0143,-79.5707 96.9176,-89.9932 103.002,-86.5315"/>
</g>
<!-- Node4 -->
<g id="node7" class="node"><title>Node4</title>
<polygon fill="none" stroke="#bfbfbf" points="129.5,-58.5 129.5,-79.5 180.5,-79.5 180.5,-58.5 129.5,-58.5"/>
<text text-anchor="middle" x="155" y="-66.5" font-family="Helvetica,sans-Serif" font-size="10.00">unistd.h</text>
</g>
<!-- Node1&#45;&gt;Node4 -->
<g id="edge6" class="edge"><title>Node1&#45;&gt;Node4</title>
<path fill="none" stroke="midnightblue" d="M128.053,-116.362C132.472,-108.595 138.59,-97.8426 143.879,-88.5458"/>
<polygon fill="midnightblue" stroke="midnightblue" points="147.082,-89.9932 148.986,-79.5707 140.998,-86.5315 147.082,-89.9932"/>
</g>
<!-- Node5 -->
<g id="node9" class="node"><title>Node5</title>
<a xlink:href="../../d4/d5f/randomgenerator_8h.html" target="_top" xlink:title="randomgenerator.h">
<polygon fill="none" stroke="black" points="198,-58.5 198,-79.5 296,-79.5 296,-58.5 198,-58.5"/>
<text text-anchor="middle" x="247" y="-66.5" font-family="Helvetica,sans-Serif" font-size="10.00">randomgenerator.h</text>
</a>
</g>
<!-- Node1&#45;&gt;Node5 -->
<g id="edge8" class="edge"><title>Node1&#45;&gt;Node5</title>
<path fill="none" stroke="midnightblue" d="M144.637,-116.497C164.248,-107.397 192.846,-94.1273 214.833,-83.9253"/>
<polygon fill="midnightblue" stroke="midnightblue" points="216.512,-87.0051 224.109,-79.6212 213.565,-80.6554 216.512,-87.0051"/>
</g>
<!-- Node6 -->
<g id="node11" class="node"><title>Node6</title>
<polygon fill="none" stroke="#bfbfbf" points="175,-0.5 175,-21.5 243,-21.5 243,-0.5 175,-0.5"/>
<text text-anchor="middle" x="209" y="-8.5" font-family="Helvetica,sans-Serif" font-size="10.00">sys/types.h</text>
</g>
<!-- Node5&#45;&gt;Node6 -->
<g id="edge10" class="edge"><title>Node5&#45;&gt;Node6</title>
<path fill="none" stroke="midnightblue" d="M240.03,-58.3619C234.834,-50.4313 227.599,-39.3885 221.422,-29.9606"/>
<polygon fill="midnightblue" stroke="midnightblue" points="224.334,-28.0172 215.926,-21.5707 218.478,-31.8534 224.334,-28.0172"/>
</g>
<!-- Node7 -->
<g id="node13" class="node"><title>Node7</title>
<polygon fill="none" stroke="#bfbfbf" points="260.5,-0.5 260.5,-21.5 309.5,-21.5 309.5,-0.5 260.5,-0.5"/>
<text text-anchor="middle" x="285" y="-8.5" font-family="Helvetica,sans-Serif" font-size="10.00">stdint.h</text>
</g>
<!-- Node5&#45;&gt;Node7 -->
<g id="edge12" class="edge"><title>Node5&#45;&gt;Node7</title>
<path fill="none" stroke="midnightblue" d="M253.97,-58.3619C259.166,-50.4313 266.401,-39.3885 272.578,-29.9606"/>
<polygon fill="midnightblue" stroke="midnightblue" points="275.522,-31.8534 278.074,-21.5707 269.666,-28.0172 275.522,-31.8534"/>
</g>
</g>
</svg>
