<?xml version="1.0" encoding="UTF-8" standalone="no"?>
<!DOCTYPE svg PUBLIC "-//W3C//DTD SVG 1.1//EN"
 "http://www.w3.org/Graphics/SVG/1.1/DTD/svg11.dtd">
<!-- Generated by graphviz version 2.26.3 (20100126.1600)
 -->
<!-- Title: G Pages: 1 -->
<!--zoomable 494 -->
<svg id="main" version="1.1" xmlns="http://www.w3.org/2000/svg" xmlns:xlink="http://www.w3.org/1999/xlink" xml:space="preserve" onload="init(evt)">
        <defs>
                <circle id="rim" cx="0" cy="0" r="7"/>
                <circle id="rim2" cx="0" cy="0" r="3.5"/>
                <g id="zoomPlus">
                        <use xlink:href="#rim" fill="#404040">
                                <set attributeName="fill" to="#808080" begin="zoomplus.mouseover" end="zoomplus.mouseout"/>
                        </use>
                        <path d="M-4,0h8M0,-4v8" fill="none" stroke="white" stroke-width="1.5" pointer-events="none"/>
                </g>
                <g id="zoomMin">
                        <use xlink:href="#rim" fill="#404040">
                                <set attributeName="fill" to="#808080" begin="zoomminus.mouseover" end="zoomminus.mouseout"/>
                        </use>
                        <path d="M-4,0h8" fill="none" stroke="white" stroke-width="1.5" pointer-events="none"/>
                </g>
                <g id="dirArrow">
                        <path fill="none" stroke="white" stroke-width="1.5" d="M0,-3.0v7 M-2.5,-0.5L0,-3.0L2.5,-0.5"/>
                </g>
               <g id="resetDef">
                       <use xlink:href="#rim2" fill="#404040">
                               <set attributeName="fill" to="#808080" begin="reset.mouseover" end="reset.mouseout"/>
                       </use>
               </g>
        </defs>

<script type="text/javascript">
var viewWidth = 850;
var viewHeight = 494;
var sectionId = 'dynsection-0';
</script>
<script xlink:href="../../svgpan.js"/>
<svg id="graph" class="graph">
<g id="viewport">
<title>G</title>
<!-- Node1 -->
<g id="node1" class="node"><title>Node1</title>
<polygon fill="#bfbfbf" stroke="black" points="328,-464.5 328,-485.5 462,-485.5 462,-464.5 328,-464.5"/>
<text text-anchor="middle" x="395" y="-472.5" font-family="Helvetica,sans-Serif" font-size="10.00">libear/src/earprocessor.cpp</text>
</g>
<!-- Node2 -->
<g id="node3" class="node"><title>Node2</title>
<polygon fill="none" stroke="#bfbfbf" points="333,-406.5 333,-427.5 377,-427.5 377,-406.5 333,-406.5"/>
<text text-anchor="middle" x="355" y="-414.5" font-family="Helvetica,sans-Serif" font-size="10.00">cmath</text>
</g>
<!-- Node1&#45;&gt;Node2 -->
<g id="edge2" class="edge"><title>Node1&#45;&gt;Node2</title>
<path fill="none" stroke="midnightblue" d="M387.663,-464.362C382.194,-456.431 374.578,-445.389 368.076,-435.961"/>
<polygon fill="midnightblue" stroke="midnightblue" points="370.849,-433.816 362.29,-427.571 365.086,-437.79 370.849,-433.816"/>
</g>
<!-- Node3 -->
<g id="node5" class="node"><title>Node3</title>
<a xlink:href="../../d2/de4/earprocessor_8h.html" target="_top" xlink:title="earprocessor.h">
<polygon fill="none" stroke="black" points="394.5,-406.5 394.5,-427.5 475.5,-427.5 475.5,-406.5 394.5,-406.5"/>
<text text-anchor="middle" x="435" y="-414.5" font-family="Helvetica,sans-Serif" font-size="10.00">earprocessor.h</text>
</a>
</g>
<!-- Node1&#45;&gt;Node3 -->
<g id="edge4" class="edge"><title>Node1&#45;&gt;Node3</title>
<path fill="none" stroke="midnightblue" d="M402.337,-464.362C407.806,-456.431 415.422,-445.389 421.924,-435.961"/>
<polygon fill="midnightblue" stroke="midnightblue" points="424.914,-437.79 427.71,-427.571 419.151,-433.816 424.914,-437.79"/>
</g>
<!-- Node4 -->
<g id="node7" class="node"><title>Node4</title>
<a xlink:href="../../db/da1/jackadapter_8h.html" target="_top" xlink:title="jackadapter.h">
<polygon fill="none" stroke="black" points="293.5,-290.5 293.5,-311.5 368.5,-311.5 368.5,-290.5 293.5,-290.5"/>
<text text-anchor="middle" x="331" y="-298.5" font-family="Helvetica,sans-Serif" font-size="10.00">jackadapter.h</text>
</a>
</g>
<!-- Node3&#45;&gt;Node4 -->
<g id="edge6" class="edge"><title>Node3&#45;&gt;Node4</title>
<path fill="none" stroke="midnightblue" d="M422.581,-406.285C412.147,-397.063 397.052,-383.195 385,-370 370.357,-353.969 355.256,-334.364 344.759,-320.155"/>
<polygon fill="midnightblue" stroke="midnightblue" points="347.301,-317.7 338.577,-311.688 341.647,-321.828 347.301,-317.7"/>
</g>
<!-- Node15 -->
<g id="node33" class="node"><title>Node15</title>
<a xlink:href="../../d9/d99/processor_8h.html" target="_top" xlink:title="processor.h">
<polygon fill="none" stroke="black" points="60,-232.5 60,-253.5 128,-253.5 128,-232.5 60,-232.5"/>
<text text-anchor="middle" x="94" y="-240.5" font-family="Helvetica,sans-Serif" font-size="10.00">processor.h</text>
</a>
</g>
<!-- Node3&#45;&gt;Node15 -->
<g id="edge50" class="edge"><title>Node3&#45;&gt;Node15</title>
<path fill="none" stroke="midnightblue" d="M414.182,-406.377C356.04,-376.709 191.75,-292.878 123.892,-258.253"/>
<polygon fill="midnightblue" stroke="midnightblue" points="125.477,-255.132 114.979,-253.705 122.295,-261.367 125.477,-255.132"/>
</g>
<!-- Node18 -->
<g id="node40" class="node"><title>Node18</title>
<polygon fill="none" stroke="#bfbfbf" points="-0.5,-232.5 -0.5,-253.5 42.5,-253.5 42.5,-232.5 -0.5,-232.5"/>
<text text-anchor="middle" x="21" y="-240.5" font-family="Helvetica,sans-Serif" font-size="10.00">QMap</text>
</g>
<!-- Node3&#45;&gt;Node18 -->
<g id="edge76" class="edge"><title>Node3&#45;&gt;Node18</title>
<path fill="none" stroke="midnightblue" d="M400.9,-406.468C372.752,-397.516 331.907,-383.933 297,-370 205.876,-333.63 101.458,-283.062 51.175,-258.132"/>
<polygon fill="midnightblue" stroke="midnightblue" points="52.658,-254.96 42.1455,-253.641 49.5411,-261.228 52.658,-254.96"/>
</g>
<!-- Node20 -->
<g id="node44" class="node"><title>Node20</title>
<polygon fill="none" stroke="#bfbfbf" points="512,-232.5 512,-253.5 586,-253.5 586,-232.5 512,-232.5"/>
<text text-anchor="middle" x="549" y="-240.5" font-family="Helvetica,sans-Serif" font-size="10.00">QSemaphore</text>
</g>
<!-- Node3&#45;&gt;Node20 -->
<g id="edge80" class="edge"><title>Node3&#45;&gt;Node20</title>
<path fill="none" stroke="midnightblue" d="M428.33,-406.391C420.537,-392.559 409.7,-367.798 418,-348 436,-305.063 482.539,-274.829 514.994,-258.162"/>
<polygon fill="midnightblue" stroke="midnightblue" points="516.747,-261.2 524.153,-253.624 513.639,-254.928 516.747,-261.2"/>
</g>
<!-- Node21 -->
<g id="node47" class="node"><title>Node21</title>
<a xlink:href="../../d6/def/digitalequalizer_8h.html" target="_top" xlink:title="digitalequalizer.h">
<polygon fill="none" stroke="black" points="426.5,-348.5 426.5,-369.5 515.5,-369.5 515.5,-348.5 426.5,-348.5"/>
<text text-anchor="middle" x="471" y="-356.5" font-family="Helvetica,sans-Serif" font-size="10.00">digitalequalizer.h</text>
</a>
</g>
<!-- Node3&#45;&gt;Node21 -->
<g id="edge52" class="edge"><title>Node3&#45;&gt;Node21</title>
<path fill="none" stroke="midnightblue" d="M441.603,-406.362C446.475,-398.513 453.238,-387.616 459.05,-378.253"/>
<polygon fill="midnightblue" stroke="midnightblue" points="462.139,-379.913 464.439,-369.571 456.191,-376.221 462.139,-379.913"/>
</g>
<!-- Node22 -->
<g id="node49" class="node"><title>Node22</title>
<polygon fill="none" stroke="#bfbfbf" points="500.5,-290.5 500.5,-311.5 553.5,-311.5 553.5,-290.5 500.5,-290.5"/>
<text text-anchor="middle" x="527" y="-298.5" font-family="Helvetica,sans-Serif" font-size="10.00">QVector</text>
</g>
<!-- Node3&#45;&gt;Node22 -->
<g id="edge74" class="edge"><title>Node3&#45;&gt;Node22</title>
<path fill="none" stroke="midnightblue" d="M473.715,-406.48C492.193,-399.343 512.694,-387.866 524,-370 532.992,-355.79 533.032,-336.44 531.23,-321.847"/>
<polygon fill="midnightblue" stroke="midnightblue" points="534.654,-321.096 529.61,-311.779 527.743,-322.208 534.654,-321.096"/>
</g>
<!-- Node23 -->
<g id="node53" class="node"><title>Node23</title>
<a xlink:href="../../de/de9/jnoise_8h.html" target="_top" xlink:title="jnoise.h">
<polygon fill="none" stroke="black" points="618,-348.5 618,-369.5 668,-369.5 668,-348.5 618,-348.5"/>
<text text-anchor="middle" x="643" y="-356.5" font-family="Helvetica,sans-Serif" font-size="10.00">jnoise.h</text>
</a>
</g>
<!-- Node3&#45;&gt;Node23 -->
<g id="edge60" class="edge"><title>Node3&#45;&gt;Node23</title>
<path fill="none" stroke="midnightblue" d="M472.667,-406.497C511.084,-395.784 570.225,-379.293 607.744,-368.831"/>
<polygon fill="midnightblue" stroke="midnightblue" points="609.026,-372.107 617.718,-366.05 607.146,-365.364 609.026,-372.107"/>
</g>
<!-- Node29 -->
<g id="node68" class="node"><title>Node29</title>
<polygon fill="none" stroke="#bfbfbf" points="685.5,-348.5 685.5,-369.5 738.5,-369.5 738.5,-348.5 685.5,-348.5"/>
<text text-anchor="middle" x="712" y="-356.5" font-family="Helvetica,sans-Serif" font-size="10.00">QDebug</text>
</g>
<!-- Node3&#45;&gt;Node29 -->
<g id="edge78" class="edge"><title>Node3&#45;&gt;Node29</title>
<path fill="none" stroke="midnightblue" d="M475.558,-410.561C521.803,-402.902 599.816,-389.025 675.201,-370.275"/>
<polygon fill="midnightblue" stroke="midnightblue" points="676.495,-373.559 685.336,-367.721 674.783,-366.771 676.495,-373.559"/>
</g>
<!-- Node5 -->
<g id="node9" class="node"><title>Node5</title>
<a xlink:href="../../df/d89/jack_8h.html" target="_top" xlink:title="jack/jack.h">
<polygon fill="none" stroke="black" points="266,-174.5 266,-195.5 330,-195.5 330,-174.5 266,-174.5"/>
<text text-anchor="middle" x="298" y="-182.5" font-family="Helvetica,sans-Serif" font-size="10.00">jack/jack.h</text>
</a>
</g>
<!-- Node4&#45;&gt;Node5 -->
<g id="edge8" class="edge"><title>Node4&#45;&gt;Node5</title>
<path fill="none" stroke="midnightblue" d="M315.401,-290.271C304.607,-281.831 291.124,-269.012 285,-254 278.553,-238.197 283.047,-219.039 288.443,-204.925"/>
<polygon fill="midnightblue" stroke="midnightblue" points="291.691,-206.23 292.387,-195.658 285.25,-203.488 291.691,-206.23"/>
</g>
<!-- Node10 -->
<g id="node22" class="node"><title>Node10</title>
<polygon fill="none" stroke="#bfbfbf" points="184,-232.5 184,-253.5 238,-253.5 238,-232.5 184,-232.5"/>
<text text-anchor="middle" x="211" y="-240.5" font-family="Helvetica,sans-Serif" font-size="10.00">iostream</text>
</g>
<!-- Node4&#45;&gt;Node10 -->
<g id="edge24" class="edge"><title>Node4&#45;&gt;Node10</title>
<path fill="none" stroke="midnightblue" d="M309.269,-290.497C290.526,-281.438 263.233,-268.246 242.164,-258.063"/>
<polygon fill="midnightblue" stroke="midnightblue" points="243.502,-254.822 232.975,-253.621 240.455,-261.124 243.502,-254.822"/>
</g>
<!-- Node11 -->
<g id="node24" class="node"><title>Node11</title>
<a xlink:href="../../d7/d55/fftwadapter_8h.html" target="_top" xlink:title="fftwadapter.h">
<polygon fill="none" stroke="black" points="294,-232.5 294,-253.5 368,-253.5 368,-232.5 294,-232.5"/>
<text text-anchor="middle" x="331" y="-240.5" font-family="Helvetica,sans-Serif" font-size="10.00">fftwadapter.h</text>
</a>
</g>
<!-- Node4&#45;&gt;Node11 -->
<g id="edge26" class="edge"><title>Node4&#45;&gt;Node11</title>
<path fill="none" stroke="midnightblue" d="M331,-290.362C331,-282.922 331,-272.743 331,-263.728"/>
<polygon fill="midnightblue" stroke="midnightblue" points="334.5,-263.571 331,-253.571 327.5,-263.571 334.5,-263.571"/>
</g>
<!-- Node4&#45;&gt;Node15 -->
<g id="edge36" class="edge"><title>Node4&#45;&gt;Node15</title>
<path fill="none" stroke="midnightblue" d="M293.447,-291.81C251.219,-281.475 182.72,-264.712 138.013,-253.771"/>
<polygon fill="midnightblue" stroke="midnightblue" points="138.845,-250.372 128.3,-251.394 137.181,-257.171 138.845,-250.372"/>
</g>
<!-- Node16 -->
<g id="node35" class="node"><title>Node16</title>
<polygon fill="none" stroke="#bfbfbf" points="98.5,-174.5 98.5,-195.5 151.5,-195.5 151.5,-174.5 98.5,-174.5"/>
<text text-anchor="middle" x="125" y="-182.5" font-family="Helvetica,sans-Serif" font-size="10.00">QObject</text>
</g>
<!-- Node4&#45;&gt;Node16 -->
<g id="edge40" class="edge"><title>Node4&#45;&gt;Node16</title>
<path fill="none" stroke="midnightblue" d="M293.345,-296.585C259.741,-291.126 210.499,-279.245 175,-254 157.199,-241.34 143.298,-220.33 134.721,-204.813"/>
<polygon fill="midnightblue" stroke="midnightblue" points="137.609,-202.784 129.866,-195.553 131.41,-206.034 137.609,-202.784"/>
</g>
<!-- Node17 -->
<g id="node38" class="node"><title>Node17</title>
<polygon fill="none" stroke="#bfbfbf" points="386,-232.5 386,-253.5 436,-253.5 436,-232.5 386,-232.5"/>
<text text-anchor="middle" x="411" y="-240.5" font-family="Helvetica,sans-Serif" font-size="10.00">QString</text>
</g>
<!-- Node4&#45;&gt;Node17 -->
<g id="edge42" class="edge"><title>Node4&#45;&gt;Node17</title>
<path fill="none" stroke="midnightblue" d="M345.673,-290.362C357.514,-281.777 374.385,-269.546 388.016,-259.664"/>
<polygon fill="midnightblue" stroke="midnightblue" points="390.378,-262.274 396.42,-253.571 386.269,-256.607 390.378,-262.274"/>
</g>
<!-- Node4&#45;&gt;Node18 -->
<g id="edge44" class="edge"><title>Node4&#45;&gt;Node18</title>
<path fill="none" stroke="midnightblue" d="M293.393,-296.932C241.107,-290.79 143.467,-277.56 52.6975,-254.128"/>
<polygon fill="midnightblue" stroke="midnightblue" points="53.3667,-250.685 42.8052,-251.526 51.5858,-257.455 53.3667,-250.685"/>
</g>
<!-- Node19 -->
<g id="node42" class="node"><title>Node19</title>
<polygon fill="none" stroke="#bfbfbf" points="454,-232.5 454,-253.5 494,-253.5 494,-232.5 454,-232.5"/>
<text text-anchor="middle" x="474" y="-240.5" font-family="Helvetica,sans-Serif" font-size="10.00">QList</text>
</g>
<!-- Node4&#45;&gt;Node19 -->
<g id="edge46" class="edge"><title>Node4&#45;&gt;Node19</title>
<path fill="none" stroke="midnightblue" d="M356.896,-290.497C381.59,-280.481 418.738,-265.414 444.548,-254.946"/>
<polygon fill="midnightblue" stroke="midnightblue" points="445.884,-258.181 453.835,-251.179 443.253,-251.694 445.884,-258.181"/>
</g>
<!-- Node4&#45;&gt;Node20 -->
<g id="edge48" class="edge"><title>Node4&#45;&gt;Node20</title>
<path fill="none" stroke="midnightblue" d="M368.973,-290.897C405.972,-281.053 462.309,-266.064 502.091,-255.48"/>
<polygon fill="midnightblue" stroke="midnightblue" points="503.062,-258.844 511.826,-252.89 501.263,-252.079 503.062,-258.844"/>
</g>
<!-- Node6 -->
<g id="node11" class="node"><title>Node6</title>
<a xlink:href="../../d2/d07/systemdeps_8h.html" target="_top" xlink:title="jack/systemdeps.h">
<polygon fill="none" stroke="black" points="233.5,-0.5 233.5,-21.5 332.5,-21.5 332.5,-0.5 233.5,-0.5"/>
<text text-anchor="middle" x="283" y="-8.5" font-family="Helvetica,sans-Serif" font-size="10.00">jack/systemdeps.h</text>
</a>
</g>
<!-- Node5&#45;&gt;Node6 -->
<g id="edge10" class="edge"><title>Node5&#45;&gt;Node6</title>
<path fill="none" stroke="midnightblue" d="M309.642,-174.206C332.159,-151.971 377.553,-99.6548 355,-58 347.493,-44.1346 333.924,-33.7098 320.573,-26.2467"/>
<polygon fill="midnightblue" stroke="midnightblue" points="321.935,-23.0115 311.442,-21.5473 318.731,-29.2355 321.935,-23.0115"/>
</g>
<!-- Node7 -->
<g id="node13" class="node"><title>Node7</title>
<a xlink:href="../../d9/d49/types_8h.html" target="_top" xlink:title="jack/types.h">
<polygon fill="none" stroke="black" points="158,-58.5 158,-79.5 228,-79.5 228,-58.5 158,-58.5"/>
<text text-anchor="middle" x="193" y="-66.5" font-family="Helvetica,sans-Serif" font-size="10.00">jack/types.h</text>
</a>
</g>
<!-- Node5&#45;&gt;Node7 -->
<g id="edge12" class="edge"><title>Node5&#45;&gt;Node7</title>
<path fill="none" stroke="midnightblue" d="M265.986,-174.654C247.693,-167.191 225.73,-155.342 212,-138 201.183,-124.337 196.516,-104.935 194.506,-90.1831"/>
<polygon fill="midnightblue" stroke="midnightblue" points="197.96,-89.558 193.43,-79.9804 190.998,-90.2925 197.96,-89.558"/>
</g>
<!-- Node8 -->
<g id="node16" class="node"><title>Node8</title>
<a xlink:href="../../d2/d02/transport_8h.html" target="_top" xlink:title="jack/transport.h">
<polygon fill="none" stroke="black" points="221,-116.5 221,-137.5 305,-137.5 305,-116.5 221,-116.5"/>
<text text-anchor="middle" x="263" y="-124.5" font-family="Helvetica,sans-Serif" font-size="10.00">jack/transport.h</text>
</a>
</g>
<!-- Node5&#45;&gt;Node8 -->
<g id="edge16" class="edge"><title>Node5&#45;&gt;Node8</title>
<path fill="none" stroke="midnightblue" d="M291.58,-174.362C286.844,-166.513 280.268,-155.616 274.618,-146.253"/>
<polygon fill="midnightblue" stroke="midnightblue" points="277.542,-144.324 269.379,-137.571 271.549,-147.941 277.542,-144.324"/>
</g>
<!-- Node9 -->
<g id="node19" class="node"><title>Node9</title>
<a xlink:href="../../dc/db4/weakmacros_8h.html" target="_top" xlink:title="jack/weakmacros.h">
<polygon fill="none" stroke="black" points="245.5,-58.5 245.5,-79.5 346.5,-79.5 346.5,-58.5 245.5,-58.5"/>
<text text-anchor="middle" x="296" y="-66.5" font-family="Helvetica,sans-Serif" font-size="10.00">jack/weakmacros.h</text>
</a>
</g>
<!-- Node5&#45;&gt;Node9 -->
<g id="edge22" class="edge"><title>Node5&#45;&gt;Node9</title>
<path fill="none" stroke="midnightblue" d="M303.28,-174.306C309.302,-160.797 317.846,-136.798 314,-116 312.283,-106.715 308.808,-96.8944 305.366,-88.6444"/>
<polygon fill="midnightblue" stroke="midnightblue" points="308.562,-87.2188 301.303,-79.502 302.165,-90.0616 308.562,-87.2188"/>
</g>
<!-- Node7&#45;&gt;Node6 -->
<g id="edge14" class="edge"><title>Node7&#45;&gt;Node6</title>
<path fill="none" stroke="midnightblue" d="M209.507,-58.3619C223.082,-49.6138 242.533,-37.0786 258.015,-27.1015"/>
<polygon fill="midnightblue" stroke="midnightblue" points="260.088,-29.9297 266.597,-21.5707 256.296,-24.0457 260.088,-29.9297"/>
</g>
<!-- Node8&#45;&gt;Node7 -->
<g id="edge18" class="edge"><title>Node8&#45;&gt;Node7</title>
<path fill="none" stroke="midnightblue" d="M250.161,-116.362C239.998,-107.941 225.599,-96.0105 213.796,-86.2308"/>
<polygon fill="midnightblue" stroke="midnightblue" points="215.691,-83.2558 205.758,-79.5707 211.225,-88.6459 215.691,-83.2558"/>
</g>
<!-- Node8&#45;&gt;Node9 -->
<g id="edge20" class="edge"><title>Node8&#45;&gt;Node9</title>
<path fill="none" stroke="midnightblue" d="M269.053,-116.362C273.472,-108.595 279.59,-97.8426 284.879,-88.5458"/>
<polygon fill="midnightblue" stroke="midnightblue" points="288.082,-89.9932 289.986,-79.5707 281.998,-86.5315 288.082,-89.9932"/>
</g>
<!-- Node11&#45;&gt;Node5 -->
<g id="edge28" class="edge"><title>Node11&#45;&gt;Node5</title>
<path fill="none" stroke="midnightblue" d="M324.947,-232.362C320.528,-224.595 314.41,-213.843 309.121,-204.546"/>
<polygon fill="midnightblue" stroke="midnightblue" points="312.002,-202.531 304.014,-195.571 305.918,-205.993 312.002,-202.531"/>
</g>
<!-- Node12 -->
<g id="node27" class="node"><title>Node12</title>
<a xlink:href="../../d7/d5e/fftw3_8h.html" target="_top" xlink:title="fftw3.h">
<polygon fill="none" stroke="black" points="539.5,-174.5 539.5,-195.5 586.5,-195.5 586.5,-174.5 539.5,-174.5"/>
<text text-anchor="middle" x="563" y="-182.5" font-family="Helvetica,sans-Serif" font-size="10.00">fftw3.h</text>
</a>
</g>
<!-- Node11&#45;&gt;Node12 -->
<g id="edge30" class="edge"><title>Node11&#45;&gt;Node12</title>
<path fill="none" stroke="midnightblue" d="M368.018,-233.746C412.455,-222.636 486.342,-204.164 529.266,-193.433"/>
<polygon fill="midnightblue" stroke="midnightblue" points="530.366,-196.766 539.218,-190.945 528.668,-189.975 530.366,-196.766"/>
</g>
<!-- Node13 -->
<g id="node29" class="node"><title>Node13</title>
<polygon fill="none" stroke="#bfbfbf" points="675,-116.5 675,-137.5 721,-137.5 721,-116.5 675,-116.5"/>
<text text-anchor="middle" x="698" y="-124.5" font-family="Helvetica,sans-Serif" font-size="10.00">stdio.h</text>
</g>
<!-- Node12&#45;&gt;Node13 -->
<g id="edge32" class="edge"><title>Node12&#45;&gt;Node13</title>
<path fill="none" stroke="midnightblue" d="M586.515,-174.897C608.39,-165.499 641.18,-151.411 665.543,-140.944"/>
<polygon fill="midnightblue" stroke="midnightblue" points="666.948,-144.15 674.754,-136.987 664.185,-137.719 666.948,-144.15"/>
</g>
<!-- Node14 -->
<g id="node31" class="node"><title>Node14</title>
<polygon fill="none" stroke="#bfbfbf" points="537,-116.5 537,-137.5 589,-137.5 589,-116.5 537,-116.5"/>
<text text-anchor="middle" x="563" y="-124.5" font-family="Helvetica,sans-Serif" font-size="10.00">stddef.h</text>
</g>
<!-- Node12&#45;&gt;Node14 -->
<g id="edge34" class="edge"><title>Node12&#45;&gt;Node14</title>
<path fill="none" stroke="midnightblue" d="M563,-174.362C563,-166.922 563,-156.743 563,-147.728"/>
<polygon fill="midnightblue" stroke="midnightblue" points="566.5,-147.571 563,-137.571 559.5,-147.571 566.5,-147.571"/>
</g>
<!-- Node15&#45;&gt;Node16 -->
<g id="edge38" class="edge"><title>Node15&#45;&gt;Node16</title>
<path fill="none" stroke="midnightblue" d="M99.6859,-232.362C103.837,-224.595 109.584,-213.843 114.553,-204.546"/>
<polygon fill="midnightblue" stroke="midnightblue" points="117.723,-206.04 119.35,-195.571 111.55,-202.74 117.723,-206.04"/>
</g>
<!-- Node21&#45;&gt;Node4 -->
<g id="edge58" class="edge"><title>Node21&#45;&gt;Node4</title>
<path fill="none" stroke="midnightblue" d="M445.647,-348.497C423.387,-339.275 390.788,-325.769 366.037,-315.515"/>
<polygon fill="midnightblue" stroke="midnightblue" points="367.216,-312.215 356.637,-311.621 364.536,-318.682 367.216,-312.215"/>
</g>
<!-- Node21&#45;&gt;Node20 -->
<g id="edge56" class="edge"><title>Node21&#45;&gt;Node20</title>
<path fill="none" stroke="midnightblue" d="M472.287,-348.367C474.43,-334.071 479.769,-308.333 492,-290 499.976,-278.045 511.889,-267.552 522.765,-259.53"/>
<polygon fill="midnightblue" stroke="midnightblue" points="524.985,-262.249 531.171,-253.647 520.971,-256.514 524.985,-262.249"/>
</g>
<!-- Node21&#45;&gt;Node22 -->
<g id="edge54" class="edge"><title>Node21&#45;&gt;Node22</title>
<path fill="none" stroke="midnightblue" d="M481.271,-348.362C489.244,-340.104 500.475,-328.472 509.811,-318.803"/>
<polygon fill="midnightblue" stroke="midnightblue" points="512.366,-321.196 516.794,-311.571 507.33,-316.334 512.366,-321.196"/>
</g>
<!-- Node23&#45;&gt;Node13 -->
<g id="edge64" class="edge"><title>Node23&#45;&gt;Node13</title>
<path fill="none" stroke="midnightblue" d="M668.007,-349.351C697.284,-337.805 742.393,-319.137 747,-312 781.569,-258.442 736.802,-181.255 712.198,-145.936"/>
<polygon fill="midnightblue" stroke="midnightblue" points="714.831,-143.601 706.156,-137.518 709.144,-147.683 714.831,-143.601"/>
</g>
<!-- Node24 -->
<g id="node55" class="node"><title>Node24</title>
<polygon fill="none" stroke="#bfbfbf" points="794,-290.5 794,-311.5 842,-311.5 842,-290.5 794,-290.5"/>
<text text-anchor="middle" x="818" y="-298.5" font-family="Helvetica,sans-Serif" font-size="10.00">stdlib.h</text>
</g>
<!-- Node23&#45;&gt;Node24 -->
<g id="edge62" class="edge"><title>Node23&#45;&gt;Node24</title>
<path fill="none" stroke="midnightblue" d="M668.073,-350.69C698.61,-340.569 750.313,-323.434 784.306,-312.167"/>
<polygon fill="midnightblue" stroke="midnightblue" points="785.427,-315.483 793.818,-309.015 783.224,-308.838 785.427,-315.483"/>
</g>
<!-- Node25 -->
<g id="node58" class="node"><title>Node25</title>
<polygon fill="none" stroke="#bfbfbf" points="571.5,-290.5 571.5,-311.5 622.5,-311.5 622.5,-290.5 571.5,-290.5"/>
<text text-anchor="middle" x="597" y="-298.5" font-family="Helvetica,sans-Serif" font-size="10.00">unistd.h</text>
</g>
<!-- Node23&#45;&gt;Node25 -->
<g id="edge66" class="edge"><title>Node23&#45;&gt;Node25</title>
<path fill="none" stroke="midnightblue" d="M634.563,-348.362C628.208,-340.35 619.334,-329.161 611.807,-319.67"/>
<polygon fill="midnightblue" stroke="midnightblue" points="614.34,-317.231 605.384,-311.571 608.855,-321.581 614.34,-317.231"/>
</g>
<!-- Node26 -->
<g id="node60" class="node"><title>Node26</title>
<a xlink:href="../../d4/d5f/randomgenerator_8h.html" target="_top" xlink:title="randomgenerator.h">
<polygon fill="none" stroke="black" points="640,-290.5 640,-311.5 738,-311.5 738,-290.5 640,-290.5"/>
<text text-anchor="middle" x="689" y="-298.5" font-family="Helvetica,sans-Serif" font-size="10.00">randomgenerator.h</text>
</a>
</g>
<!-- Node23&#45;&gt;Node26 -->
<g id="edge68" class="edge"><title>Node23&#45;&gt;Node26</title>
<path fill="none" stroke="midnightblue" d="M651.437,-348.362C657.792,-340.35 666.666,-329.161 674.193,-319.67"/>
<polygon fill="midnightblue" stroke="midnightblue" points="677.145,-321.581 680.616,-311.571 671.66,-317.231 677.145,-321.581"/>
</g>
<!-- Node27 -->
<g id="node62" class="node"><title>Node27</title>
<polygon fill="none" stroke="#bfbfbf" points="604,-232.5 604,-253.5 672,-253.5 672,-232.5 604,-232.5"/>
<text text-anchor="middle" x="638" y="-240.5" font-family="Helvetica,sans-Serif" font-size="10.00">sys/types.h</text>
</g>
<!-- Node26&#45;&gt;Node27 -->
<g id="edge70" class="edge"><title>Node26&#45;&gt;Node27</title>
<path fill="none" stroke="midnightblue" d="M679.646,-290.362C672.457,-282.186 662.359,-270.702 653.907,-261.091"/>
<polygon fill="midnightblue" stroke="midnightblue" points="656.527,-258.769 647.295,-253.571 651.27,-263.392 656.527,-258.769"/>
</g>
<!-- Node28 -->
<g id="node64" class="node"><title>Node28</title>
<polygon fill="none" stroke="#bfbfbf" points="689.5,-232.5 689.5,-253.5 738.5,-253.5 738.5,-232.5 689.5,-232.5"/>
<text text-anchor="middle" x="714" y="-240.5" font-family="Helvetica,sans-Serif" font-size="10.00">stdint.h</text>
</g>
<!-- Node26&#45;&gt;Node28 -->
<g id="edge72" class="edge"><title>Node26&#45;&gt;Node28</title>
<path fill="none" stroke="midnightblue" d="M693.585,-290.362C696.898,-282.677 701.47,-272.069 705.448,-262.84"/>
<polygon fill="midnightblue" stroke="midnightblue" points="708.699,-264.139 709.444,-253.571 702.271,-261.368 708.699,-264.139"/>
</g>
</g>
</svg>
        <g id="navigator" transform="translate(0 0)" fill="#404254">
                <rect fill="#f2f5e9" fill-opacity="0.5" stroke="#606060" stroke-width=".5" x="0" y="0" width="60" height="60"/>
                <use id="zoomplus" xlink:href="#zoomPlus" x="17" y="9" onmousedown="handleZoom(evt,'in')"/>
                <use id="zoomminus" xlink:href="#zoomMin" x="42" y="9" onmousedown="handleZoom(evt,'out')"/>
                <use id="reset" xlink:href="#resetDef" x="30" y="36" onmousedown="handleReset()"/>
                <g id="arrowUp" xlink:href="#dirArrow" transform="translate(30 24)" onmousedown="handlePan(0,-1)">
                  <use xlink:href="#rim" fill="#404040">
                        <set attributeName="fill" to="#808080" begin="arrowUp.mouseover" end="arrowUp.mouseout"/>
                  </use>
                  <path fill="none" stroke="white" stroke-width="1.5" d="M0,-3.0v7 M-2.5,-0.5L0,-3.0L2.5,-0.5"/>
                </g>
                <g id="arrowRight" xlink:href="#dirArrow" transform="rotate(90) translate(36 -43)" onmousedown="handlePan(1,0)">
                  <use xlink:href="#rim" fill="#404040">
                        <set attributeName="fill" to="#808080" begin="arrowRight.mouseover" end="arrowRight.mouseout"/>
                  </use>
                  <path fill="none" stroke="white" stroke-width="1.5" d="M0,-3.0v7 M-2.5,-0.5L0,-3.0L2.5,-0.5"/>
                </g>
                <g id="arrowDown" xlink:href="#dirArrow" transform="rotate(180) translate(-30 -48)" onmousedown="handlePan(0,1)">
                  <use xlink:href="#rim" fill="#404040">
                        <set attributeName="fill" to="#808080" begin="arrowDown.mouseover" end="arrowDown.mouseout"/>
                  </use>
                  <path fill="none" stroke="white" stroke-width="1.5" d="M0,-3.0v7 M-2.5,-0.5L0,-3.0L2.5,-0.5"/>
                </g>
                <g id="arrowLeft" xlink:href="#dirArrow" transform="rotate(270) translate(-36 17)" onmousedown="handlePan(-1,0)">
                  <use xlink:href="#rim" fill="#404040">
                        <set attributeName="fill" to="#808080" begin="arrowLeft.mouseover" end="arrowLeft.mouseout"/>
                  </use>
                  <path fill="none" stroke="white" stroke-width="1.5" d="M0,-3.0v7 M-2.5,-0.5L0,-3.0L2.5,-0.5"/>
                </g>
        </g>
</svg>
