<?xml version="1.0" encoding="UTF-8" standalone="no"?>
<!DOCTYPE svg PUBLIC "-//W3C//DTD SVG 1.1//EN"
 "http://www.w3.org/Graphics/SVG/1.1/DTD/svg11.dtd">
<!-- Generated by graphviz version 2.26.3 (20100126.1600)
 -->
<!-- Title: G Pages: 1 -->
<svg width="146pt" height="88pt"
 viewBox="0.00 0.00 146.00 88.00" xmlns="http://www.w3.org/2000/svg" xmlns:xlink="http://www.w3.org/1999/xlink">
<g id="graph1" class="graph" transform="scale(1 1) rotate(0) translate(4 84)">
<title>G</title>
<!-- Node1 -->
<g id="node1" class="node"><title>Node1</title>
<polygon fill="#bfbfbf" stroke="black" points="0,-58.5 0,-79.5 138,-79.5 138,-58.5 0,-58.5"/>
<text text-anchor="middle" x="69" y="-66.5" font-family="Helvetica,sans-Serif" font-size="10.00">3rdparty/fftw/include/fftw3.h</text>
</g>
<!-- Node2 -->
<g id="node3" class="node"><title>Node2</title>
<polygon fill="none" stroke="#bfbfbf" points="13,-0.5 13,-21.5 59,-21.5 59,-0.5 13,-0.5"/>
<text text-anchor="middle" x="36" y="-8.5" font-family="Helvetica,sans-Serif" font-size="10.00">stdio.h</text>
</g>
<!-- Node1&#45;&gt;Node2 -->
<g id="edge2" class="edge"><title>Node1&#45;&gt;Node2</title>
<path fill="none" stroke="midnightblue" d="M62.9473,-58.3619C58.5281,-50.5949 52.4104,-39.8426 47.1209,-30.5458"/>
<polygon fill="midnightblue" stroke="midnightblue" points="50.0017,-28.5315 42.0143,-21.5707 43.9176,-31.9932 50.0017,-28.5315"/>
</g>
<!-- Node3 -->
<g id="node5" class="node"><title>Node3</title>
<polygon fill="none" stroke="#bfbfbf" points="77,-0.5 77,-21.5 129,-21.5 129,-0.5 77,-0.5"/>
<text text-anchor="middle" x="103" y="-8.5" font-family="Helvetica,sans-Serif" font-size="10.00">stddef.h</text>
</g>
<!-- Node1&#45;&gt;Node3 -->
<g id="edge4" class="edge"><title>Node1&#45;&gt;Node3</title>
<path fill="none" stroke="midnightblue" d="M75.2361,-58.3619C79.8371,-50.5131 86.2252,-39.6159 91.7139,-30.2527"/>
<polygon fill="midnightblue" stroke="midnightblue" points="94.7656,-31.9677 96.8034,-21.5707 88.7267,-28.4276 94.7656,-31.9677"/>
</g>
</g>
</svg>
