<?xml version="1.0" encoding="UTF-8" standalone="no"?>
<!DOCTYPE svg PUBLIC "-//W3C//DTD SVG 1.1//EN"
 "http://www.w3.org/Graphics/SVG/1.1/DTD/svg11.dtd">
<!-- Generated by graphviz version 2.26.3 (20100126.1600)
 -->
<!-- Title: G Pages: 1 -->
<svg width="334pt" height="190pt"
 viewBox="0.00 0.00 334.00 190.00" xmlns="http://www.w3.org/2000/svg" xmlns:xlink="http://www.w3.org/1999/xlink">
<g id="graph1" class="graph" transform="scale(1 1) rotate(0) translate(4 186)">
<title>G</title>
<!-- Node1 -->
<g id="node1" class="node"><title>Node1</title>
<polygon fill="#bfbfbf" stroke="black" points="0,-80.5 0,-101.5 130,-101.5 130,-80.5 0,-80.5"/>
<text text-anchor="middle" x="65" y="-88.5" font-family="Helvetica,sans-Serif" font-size="10.00">VisualizerWidget::paintGL</text>
</g>
<!-- Node2 -->
<g id="node3" class="node"><title>Node2</title>
<a xlink:href="../../de/d28/classDigitalEqualizer.html#a8dd84de986b4a50170f2a296342f55da" target="_top" xlink:title="DigitalEqualizer::acquireControls">
<polygon fill="none" stroke="black" points="166.5,-160.5 166.5,-181.5 325.5,-181.5 325.5,-160.5 166.5,-160.5"/>
<text text-anchor="middle" x="246" y="-168.5" font-family="Helvetica,sans-Serif" font-size="10.00">DigitalEqualizer::acquireControls</text>
</a>
</g>
<!-- Node1&#45;&gt;Node2 -->
<g id="edge2" class="edge"><title>Node1&#45;&gt;Node2</title>
<path fill="none" stroke="midnightblue" d="M79.677,-101.596C98.7182,-114.89 133.372,-137.569 166,-151 171.908,-153.432 178.187,-155.624 184.528,-157.585"/>
<polygon fill="midnightblue" stroke="midnightblue" points="183.921,-161.053 194.5,-160.479 185.872,-154.331 183.921,-161.053"/>
</g>
<!-- Node3 -->
<g id="node5" class="node"><title>Node3</title>
<a xlink:href="../../de/d28/classDigitalEqualizer.html#a1328730773d4415bf8ad010e0dce0ec1" target="_top" xlink:title="DigitalEqualizer::controls">
<polygon fill="none" stroke="black" points="183.5,-120.5 183.5,-141.5 308.5,-141.5 308.5,-120.5 183.5,-120.5"/>
<text text-anchor="middle" x="246" y="-128.5" font-family="Helvetica,sans-Serif" font-size="10.00">DigitalEqualizer::controls</text>
</a>
</g>
<!-- Node1&#45;&gt;Node3 -->
<g id="edge4" class="edge"><title>Node1&#45;&gt;Node3</title>
<path fill="none" stroke="midnightblue" d="M112.556,-101.51C135.846,-106.657 164.076,-112.895 188.563,-118.307"/>
<polygon fill="midnightblue" stroke="midnightblue" points="187.928,-121.751 198.448,-120.491 189.439,-114.916 187.928,-121.751"/>
</g>
<!-- Node4 -->
<g id="node7" class="node"><title>Node4</title>
<a xlink:href="../../d2/dd5/classEarProcessor.html#a88b0b3888fc0b4addaf56809fb4b49cd" target="_top" xlink:title="EarProcessor::leftEqualizer">
<polygon fill="none" stroke="black" points="178,-80.5 178,-101.5 314,-101.5 314,-80.5 178,-80.5"/>
<text text-anchor="middle" x="246" y="-88.5" font-family="Helvetica,sans-Serif" font-size="10.00">EarProcessor::leftEqualizer</text>
</a>
</g>
<!-- Node1&#45;&gt;Node4 -->
<g id="edge6" class="edge"><title>Node1&#45;&gt;Node4</title>
<path fill="none" stroke="midnightblue" d="M130.089,-91C142.325,-91 155.235,-91 167.821,-91"/>
<polygon fill="midnightblue" stroke="midnightblue" points="167.826,-94.5001 177.826,-91 167.826,-87.5001 167.826,-94.5001"/>
</g>
<!-- Node5 -->
<g id="node9" class="node"><title>Node5</title>
<a xlink:href="../../de/d28/classDigitalEqualizer.html#a38314bc1535c71f2a20c179f98330d43" target="_top" xlink:title="DigitalEqualizer::releaseControls">
<polygon fill="none" stroke="black" points="166.5,-40.5 166.5,-61.5 325.5,-61.5 325.5,-40.5 166.5,-40.5"/>
<text text-anchor="middle" x="246" y="-48.5" font-family="Helvetica,sans-Serif" font-size="10.00">DigitalEqualizer::releaseControls</text>
</a>
</g>
<!-- Node1&#45;&gt;Node5 -->
<g id="edge8" class="edge"><title>Node1&#45;&gt;Node5</title>
<path fill="none" stroke="midnightblue" d="M112.556,-80.4905C135.846,-75.3434 164.076,-69.1046 188.563,-63.6933"/>
<polygon fill="midnightblue" stroke="midnightblue" points="189.439,-67.0842 198.448,-61.5087 187.928,-60.2491 189.439,-67.0842"/>
</g>
<!-- Node6 -->
<g id="node11" class="node"><title>Node6</title>
<a xlink:href="../../d2/dd5/classEarProcessor.html#a92c5397f7910d17461c27748be1e3b63" target="_top" xlink:title="EarProcessor::rightEqualizer">
<polygon fill="none" stroke="black" points="175.5,-0.5 175.5,-21.5 316.5,-21.5 316.5,-0.5 175.5,-0.5"/>
<text text-anchor="middle" x="246" y="-8.5" font-family="Helvetica,sans-Serif" font-size="10.00">EarProcessor::rightEqualizer</text>
</a>
</g>
<!-- Node1&#45;&gt;Node6 -->
<g id="edge10" class="edge"><title>Node1&#45;&gt;Node6</title>
<path fill="none" stroke="midnightblue" d="M79.677,-80.4041C98.7182,-67.1101 133.372,-44.4312 166,-31 171.908,-28.5681 178.187,-26.3763 184.528,-24.4148"/>
<polygon fill="midnightblue" stroke="midnightblue" points="185.872,-27.6693 194.5,-21.5206 183.921,-20.9468 185.872,-27.6693"/>
</g>
</g>
</svg>
