<?xml version="1.0" encoding="UTF-8" standalone="no"?>
<!DOCTYPE svg PUBLIC "-//W3C//DTD SVG 1.1//EN"
 "http://www.w3.org/Graphics/SVG/1.1/DTD/svg11.dtd">
<!-- Generated by graphviz version 2.26.3 (20100126.1600)
 -->
<!-- Title: G Pages: 1 -->
<svg width="354pt" height="110pt"
 viewBox="0.00 0.00 354.00 110.00" xmlns="http://www.w3.org/2000/svg" xmlns:xlink="http://www.w3.org/1999/xlink">
<g id="graph1" class="graph" transform="scale(1 1) rotate(0) translate(4 106)">
<title>G</title>
<!-- Node1 -->
<g id="node1" class="node"><title>Node1</title>
<polygon fill="#bfbfbf" stroke="black" points="0,-40.5 0,-61.5 150,-61.5 150,-40.5 0,-40.5"/>
<text text-anchor="middle" x="75" y="-48.5" font-family="Helvetica,sans-Serif" font-size="10.00">DigitalEqualizer::generateFilter</text>
</g>
<!-- Node2 -->
<g id="node3" class="node"><title>Node2</title>
<a xlink:href="../../de/d28/classDigitalEqualizer.html#a8dd84de986b4a50170f2a296342f55da" target="_top" xlink:title="DigitalEqualizer::acquireControls">
<polygon fill="none" stroke="black" points="186.5,-80.5 186.5,-101.5 345.5,-101.5 345.5,-80.5 186.5,-80.5"/>
<text text-anchor="middle" x="266" y="-88.5" font-family="Helvetica,sans-Serif" font-size="10.00">DigitalEqualizer::acquireControls</text>
</a>
</g>
<!-- Node1&#45;&gt;Node2 -->
<g id="edge2" class="edge"><title>Node1&#45;&gt;Node2</title>
<path fill="none" stroke="midnightblue" d="M125.183,-61.5095C149.869,-66.6795 179.815,-72.9508 205.734,-78.3788"/>
<polygon fill="midnightblue" stroke="midnightblue" points="205.316,-81.8671 215.821,-80.4913 206.751,-75.0158 205.316,-81.8671"/>
</g>
<!-- Node3 -->
<g id="node5" class="node"><title>Node3</title>
<a xlink:href="../../d5/dfd/namespaceFftwAdapter.html#ae8e0488a742dd23810797b05a737ebd5" target="_top" xlink:title="FftwAdapter::performInverseFFT">
<polygon fill="none" stroke="black" points="186.5,-40.5 186.5,-61.5 345.5,-61.5 345.5,-40.5 186.5,-40.5"/>
<text text-anchor="middle" x="266" y="-48.5" font-family="Helvetica,sans-Serif" font-size="10.00">FftwAdapter::performInverseFFT</text>
</a>
</g>
<!-- Node1&#45;&gt;Node3 -->
<g id="edge4" class="edge"><title>Node1&#45;&gt;Node3</title>
<path fill="none" stroke="midnightblue" d="M150.214,-51C158.768,-51 167.549,-51 176.266,-51"/>
<polygon fill="midnightblue" stroke="midnightblue" points="176.452,-54.5001 186.452,-51 176.452,-47.5001 176.452,-54.5001"/>
</g>
<!-- Node4 -->
<g id="node7" class="node"><title>Node4</title>
<a xlink:href="../../de/d28/classDigitalEqualizer.html#a38314bc1535c71f2a20c179f98330d43" target="_top" xlink:title="DigitalEqualizer::releaseControls">
<polygon fill="none" stroke="black" points="186.5,-0.5 186.5,-21.5 345.5,-21.5 345.5,-0.5 186.5,-0.5"/>
<text text-anchor="middle" x="266" y="-8.5" font-family="Helvetica,sans-Serif" font-size="10.00">DigitalEqualizer::releaseControls</text>
</a>
</g>
<!-- Node1&#45;&gt;Node4 -->
<g id="edge6" class="edge"><title>Node1&#45;&gt;Node4</title>
<path fill="none" stroke="midnightblue" d="M125.183,-40.4905C149.869,-35.3205 179.815,-29.0492 205.734,-23.6212"/>
<polygon fill="midnightblue" stroke="midnightblue" points="206.751,-26.9842 215.821,-21.5087 205.316,-20.1329 206.751,-26.9842"/>
</g>
</g>
</svg>
