<?xml version="1.0" encoding="UTF-8" standalone="no"?>
<!DOCTYPE svg PUBLIC "-//W3C//DTD SVG 1.1//EN"
 "http://www.w3.org/Graphics/SVG/1.1/DTD/svg11.dtd">
<!-- Generated by graphviz version 2.26.3 (20100126.1600)
 -->
<!-- Title: G Pages: 1 -->
<!--zoomable 110 -->
<svg id="main" version="1.1" xmlns="http://www.w3.org/2000/svg" xmlns:xlink="http://www.w3.org/1999/xlink" xml:space="preserve" onload="init(evt)">
        <defs>
                <circle id="rim" cx="0" cy="0" r="7"/>
                <circle id="rim2" cx="0" cy="0" r="3.5"/>
                <g id="zoomPlus">
                        <use xlink:href="#rim" fill="#404040">
                                <set attributeName="fill" to="#808080" begin="zoomplus.mouseover" end="zoomplus.mouseout"/>
                        </use>
                        <path d="M-4,0h8M0,-4v8" fill="none" stroke="white" stroke-width="1.5" pointer-events="none"/>
                </g>
                <g id="zoomMin">
                        <use xlink:href="#rim" fill="#404040">
                                <set attributeName="fill" to="#808080" begin="zoomminus.mouseover" end="zoomminus.mouseout"/>
                        </use>
                        <path d="M-4,0h8" fill="none" stroke="white" stroke-width="1.5" pointer-events="none"/>
                </g>
                <g id="dirArrow">
                        <path fill="none" stroke="white" stroke-width="1.5" d="M0,-3.0v7 M-2.5,-0.5L0,-3.0L2.5,-0.5"/>
                </g>
               <g id="resetDef">
                       <use xlink:href="#rim2" fill="#404040">
                               <set attributeName="fill" to="#808080" begin="reset.mouseover" end="reset.mouseout"/>
                       </use>
               </g>
        </defs>

<script type="text/javascript">
var viewWidth = 550;
var viewHeight = 110;
var sectionId = 'dynsection-0';
</script>
<script xlink:href="../../svgpan.js"/>
<svg id="graph" class="graph">
<g id="viewport">
<title>G</title>
<!-- Node1 -->
<g id="node1" class="node"><title>Node1</title>
<polygon fill="#bfbfbf" stroke="black" points="0.5,-40.5 0.5,-61.5 159.5,-61.5 159.5,-40.5 0.5,-40.5"/>
<text text-anchor="middle" x="80" y="-48.5" font-family="Helvetica,sans-Serif" font-size="10.00">DigitalEqualizer::DigitalEqualizer</text>
</g>
<!-- Node2 -->
<g id="node3" class="node"><title>Node2</title>
<a xlink:href="../../de/d28/classDigitalEqualizer.html#a8dd84de986b4a50170f2a296342f55da" target="_top" xlink:title="DigitalEqualizer::acquireControls">
<polygon fill="none" stroke="black" points="382.5,-80.5 382.5,-101.5 541.5,-101.5 541.5,-80.5 382.5,-80.5"/>
<text text-anchor="middle" x="462" y="-88.5" font-family="Helvetica,sans-Serif" font-size="10.00">DigitalEqualizer::acquireControls</text>
</a>
</g>
<!-- Node1&#45;&gt;Node2 -->
<g id="edge2" class="edge"><title>Node1&#45;&gt;Node2</title>
<path fill="none" stroke="midnightblue" d="M134.718,-61.542C154.024,-64.9671 175.921,-68.52 196,-71 254.493,-78.2247 320.568,-83.209 372.23,-86.3948"/>
<polygon fill="midnightblue" stroke="midnightblue" points="372.171,-89.8975 382.364,-87.0082 372.594,-82.9103 372.171,-89.8975"/>
</g>
<!-- Node3 -->
<g id="node5" class="node"><title>Node3</title>
<a xlink:href="../../de/d28/classDigitalEqualizer.html#aa4a96390ed7480d85fbe4fac36239ec2" target="_top" xlink:title="DigitalEqualizer::generateFilter">
<polygon fill="none" stroke="black" points="196,-40.5 196,-61.5 346,-61.5 346,-40.5 196,-40.5"/>
<text text-anchor="middle" x="271" y="-48.5" font-family="Helvetica,sans-Serif" font-size="10.00">DigitalEqualizer::generateFilter</text>
</a>
</g>
<!-- Node1&#45;&gt;Node3 -->
<g id="edge4" class="edge"><title>Node1&#45;&gt;Node3</title>
<path fill="none" stroke="midnightblue" d="M159.618,-51C168.226,-51 177.011,-51 185.683,-51"/>
<polygon fill="midnightblue" stroke="midnightblue" points="185.793,-54.5001 195.793,-51 185.793,-47.5001 185.793,-54.5001"/>
</g>
<!-- Node4 -->
<g id="node8" class="node"><title>Node4</title>
<a xlink:href="../../de/d28/classDigitalEqualizer.html#a38314bc1535c71f2a20c179f98330d43" target="_top" xlink:title="DigitalEqualizer::releaseControls">
<polygon fill="none" stroke="black" points="382.5,-0.5 382.5,-21.5 541.5,-21.5 541.5,-0.5 382.5,-0.5"/>
<text text-anchor="middle" x="462" y="-8.5" font-family="Helvetica,sans-Serif" font-size="10.00">DigitalEqualizer::releaseControls</text>
</a>
</g>
<!-- Node1&#45;&gt;Node4 -->
<g id="edge12" class="edge"><title>Node1&#45;&gt;Node4</title>
<path fill="none" stroke="midnightblue" d="M134.718,-40.458C154.024,-37.0329 175.921,-33.48 196,-31 254.493,-23.7753 320.568,-18.791 372.23,-15.6052"/>
<polygon fill="midnightblue" stroke="midnightblue" points="372.594,-19.0897 382.364,-14.9918 372.171,-12.1025 372.594,-19.0897"/>
</g>
<!-- Node3&#45;&gt;Node2 -->
<g id="edge6" class="edge"><title>Node3&#45;&gt;Node2</title>
<path fill="none" stroke="midnightblue" d="M321.183,-61.5095C345.869,-66.6795 375.815,-72.9508 401.734,-78.3788"/>
<polygon fill="midnightblue" stroke="midnightblue" points="401.316,-81.8671 411.821,-80.4913 402.751,-75.0158 401.316,-81.8671"/>
</g>
<!-- Node3&#45;&gt;Node4 -->
<g id="edge8" class="edge"><title>Node3&#45;&gt;Node4</title>
<path fill="none" stroke="midnightblue" d="M321.183,-40.4905C345.869,-35.3205 375.815,-29.0492 401.734,-23.6212"/>
<polygon fill="midnightblue" stroke="midnightblue" points="402.751,-26.9842 411.821,-21.5087 401.316,-20.1329 402.751,-26.9842"/>
</g>
<!-- Node5 -->
<g id="node10" class="node"><title>Node5</title>
<a xlink:href="../../d5/dfd/namespaceFftwAdapter.html#ae8e0488a742dd23810797b05a737ebd5" target="_top" xlink:title="FftwAdapter::performInverseFFT">
<polygon fill="none" stroke="black" points="382.5,-40.5 382.5,-61.5 541.5,-61.5 541.5,-40.5 382.5,-40.5"/>
<text text-anchor="middle" x="462" y="-48.5" font-family="Helvetica,sans-Serif" font-size="10.00">FftwAdapter::performInverseFFT</text>
</a>
</g>
<!-- Node3&#45;&gt;Node5 -->
<g id="edge10" class="edge"><title>Node3&#45;&gt;Node5</title>
<path fill="none" stroke="midnightblue" d="M346.214,-51C354.768,-51 363.549,-51 372.266,-51"/>
<polygon fill="midnightblue" stroke="midnightblue" points="372.452,-54.5001 382.452,-51 372.452,-47.5001 372.452,-54.5001"/>
</g>
</g>
</svg>
        <g id="navigator" transform="translate(0 0)" fill="#404254">
                <rect fill="#f2f5e9" fill-opacity="0.5" stroke="#606060" stroke-width=".5" x="0" y="0" width="60" height="60"/>
                <use id="zoomplus" xlink:href="#zoomPlus" x="17" y="9" onmousedown="handleZoom(evt,'in')"/>
                <use id="zoomminus" xlink:href="#zoomMin" x="42" y="9" onmousedown="handleZoom(evt,'out')"/>
                <use id="reset" xlink:href="#resetDef" x="30" y="36" onmousedown="handleReset()"/>
                <g id="arrowUp" xlink:href="#dirArrow" transform="translate(30 24)" onmousedown="handlePan(0,-1)">
                  <use xlink:href="#rim" fill="#404040">
                        <set attributeName="fill" to="#808080" begin="arrowUp.mouseover" end="arrowUp.mouseout"/>
                  </use>
                  <path fill="none" stroke="white" stroke-width="1.5" d="M0,-3.0v7 M-2.5,-0.5L0,-3.0L2.5,-0.5"/>
                </g>
                <g id="arrowRight" xlink:href="#dirArrow" transform="rotate(90) translate(36 -43)" onmousedown="handlePan(1,0)">
                  <use xlink:href="#rim" fill="#404040">
                        <set attributeName="fill" to="#808080" begin="arrowRight.mouseover" end="arrowRight.mouseout"/>
                  </use>
                  <path fill="none" stroke="white" stroke-width="1.5" d="M0,-3.0v7 M-2.5,-0.5L0,-3.0L2.5,-0.5"/>
                </g>
                <g id="arrowDown" xlink:href="#dirArrow" transform="rotate(180) translate(-30 -48)" onmousedown="handlePan(0,1)">
                  <use xlink:href="#rim" fill="#404040">
                        <set attributeName="fill" to="#808080" begin="arrowDown.mouseover" end="arrowDown.mouseout"/>
                  </use>
                  <path fill="none" stroke="white" stroke-width="1.5" d="M0,-3.0v7 M-2.5,-0.5L0,-3.0L2.5,-0.5"/>
                </g>
                <g id="arrowLeft" xlink:href="#dirArrow" transform="rotate(270) translate(-36 17)" onmousedown="handlePan(-1,0)">
                  <use xlink:href="#rim" fill="#404040">
                        <set attributeName="fill" to="#808080" begin="arrowLeft.mouseover" end="arrowLeft.mouseout"/>
                  </use>
                  <path fill="none" stroke="white" stroke-width="1.5" d="M0,-3.0v7 M-2.5,-0.5L0,-3.0L2.5,-0.5"/>
                </g>
        </g>
</svg>
