<?xml version="1.0" encoding="UTF-8" standalone="no"?>
<!DOCTYPE svg PUBLIC "-//W3C//DTD SVG 1.1//EN"
 "http://www.w3.org/Graphics/SVG/1.1/DTD/svg11.dtd">
<!-- Generated by graphviz version 2.26.3 (20100126.1600)
 -->
<!-- Title: G Pages: 1 -->
<svg width="380pt" height="110pt"
 viewBox="0.00 0.00 380.00 110.00" xmlns="http://www.w3.org/2000/svg" xmlns:xlink="http://www.w3.org/1999/xlink">
<g id="graph1" class="graph" transform="scale(1 1) rotate(0) translate(4 106)">
<title>G</title>
<!-- Node1 -->
<g id="node1" class="node"><title>Node1</title>
<polygon fill="#bfbfbf" stroke="black" points="0,-40.5 0,-61.5 150,-61.5 150,-40.5 0,-40.5"/>
<text text-anchor="middle" x="75" y="-48.5" font-family="Helvetica,sans-Serif" font-size="10.00">DigitalEqualizer::generateFilter</text>
</g>
<!-- Node2 -->
<g id="node3" class="node"><title>Node2</title>
<a xlink:href="../../de/d28/classDigitalEqualizer.html#ae73196a702a995b74874c229f0ac11de" target="_top" xlink:title="DigitalEqualizer::DigitalEqualizer">
<polygon fill="none" stroke="black" points="199.5,-80.5 199.5,-101.5 358.5,-101.5 358.5,-80.5 199.5,-80.5"/>
<text text-anchor="middle" x="279" y="-88.5" font-family="Helvetica,sans-Serif" font-size="10.00">DigitalEqualizer::DigitalEqualizer</text>
</a>
</g>
<!-- Node1&#45;&gt;Node2 -->
<g id="edge2" class="edge"><title>Node1&#45;&gt;Node2</title>
<path fill="none" stroke="midnightblue" d="M138.638,-63.4781C166.489,-68.939 198.806,-75.2757 225.406,-80.4913"/>
<polygon fill="midnightblue" stroke="midnightblue" points="139.085,-59.9992 128.599,-61.5095 137.738,-66.8684 139.085,-59.9992"/>
</g>
<!-- Node3 -->
<g id="node5" class="node"><title>Node3</title>
<a xlink:href="../../de/d28/classDigitalEqualizer.html#a97abb9d7b75b6515f48ffcbc2d1591d1" target="_top" xlink:title="DigitalEqualizer::loadControlsFromFile">
<polygon fill="none" stroke="black" points="187,-40.5 187,-61.5 371,-61.5 371,-40.5 187,-40.5"/>
<text text-anchor="middle" x="279" y="-48.5" font-family="Helvetica,sans-Serif" font-size="10.00">DigitalEqualizer::loadControlsFromFile</text>
</a>
</g>
<!-- Node1&#45;&gt;Node3 -->
<g id="edge4" class="edge"><title>Node1&#45;&gt;Node3</title>
<path fill="none" stroke="midnightblue" d="M160.267,-51C169.014,-51 177.93,-51 186.747,-51"/>
<polygon fill="midnightblue" stroke="midnightblue" points="160.093,-47.5001 150.093,-51 160.093,-54.5001 160.093,-47.5001"/>
</g>
<!-- Node4 -->
<g id="node7" class="node"><title>Node4</title>
<a xlink:href="../../de/d28/classDigitalEqualizer.html#a1ef9715686cd404bfc0aa95958928be4" target="_top" xlink:title="DigitalEqualizer::setNumberOfControls">
<polygon fill="none" stroke="black" points="186,-0.5 186,-21.5 372,-21.5 372,-0.5 186,-0.5"/>
<text text-anchor="middle" x="279" y="-8.5" font-family="Helvetica,sans-Serif" font-size="10.00">DigitalEqualizer::setNumberOfControls</text>
</a>
</g>
<!-- Node1&#45;&gt;Node4 -->
<g id="edge6" class="edge"><title>Node1&#45;&gt;Node4</title>
<path fill="none" stroke="midnightblue" d="M138.638,-38.5219C166.489,-33.061 198.806,-26.7243 225.406,-21.5087"/>
<polygon fill="midnightblue" stroke="midnightblue" points="137.738,-35.1316 128.599,-40.4905 139.085,-42.0008 137.738,-35.1316"/>
</g>
</g>
</svg>
