<?xml version="1.0" encoding="UTF-8" standalone="no"?>
<!DOCTYPE svg PUBLIC "-//W3C//DTD SVG 1.1//EN"
 "http://www.w3.org/Graphics/SVG/1.1/DTD/svg11.dtd">
<!-- Generated by graphviz version 2.26.3 (20100126.1600)
 -->
<!-- Title: G Pages: 1 -->
<svg width="224pt" height="88pt"
 viewBox="0.00 0.00 224.00 88.00" xmlns="http://www.w3.org/2000/svg" xmlns:xlink="http://www.w3.org/1999/xlink">
<g id="graph1" class="graph" transform="scale(1 1) rotate(0) translate(4 84)">
<title>G</title>
<!-- Node1 -->
<g id="node1" class="node"><title>Node1</title>
<polygon fill="#bfbfbf" stroke="black" points="24,-58.5 24,-79.5 190,-79.5 190,-58.5 24,-58.5"/>
<text text-anchor="middle" x="107" y="-66.5" font-family="Helvetica,sans-Serif" font-size="10.00">3rdparty/jack/include/jack/thread.h</text>
</g>
<!-- Node2 -->
<g id="node3" class="node"><title>Node2</title>
<a xlink:href="../../d2/d07/systemdeps_8h.html" target="_top" xlink:title="jack/systemdeps.h">
<polygon fill="none" stroke="black" points="-0.5,-0.5 -0.5,-21.5 98.5,-21.5 98.5,-0.5 -0.5,-0.5"/>
<text text-anchor="middle" x="49" y="-8.5" font-family="Helvetica,sans-Serif" font-size="10.00">jack/systemdeps.h</text>
</a>
</g>
<!-- Node1&#45;&gt;Node2 -->
<g id="edge2" class="edge"><title>Node1&#45;&gt;Node2</title>
<path fill="none" stroke="midnightblue" d="M96.3619,-58.3619C88.1043,-50.1043 76.4725,-38.4725 66.8029,-28.8029"/>
<polygon fill="midnightblue" stroke="midnightblue" points="69.1166,-26.1669 59.5707,-21.5707 64.1669,-31.1166 69.1166,-26.1669"/>
</g>
<!-- Node3 -->
<g id="node5" class="node"><title>Node3</title>
<a xlink:href="../../dc/db4/weakmacros_8h.html" target="_top" xlink:title="jack/weakmacros.h">
<polygon fill="none" stroke="black" points="115.5,-0.5 115.5,-21.5 216.5,-21.5 216.5,-0.5 115.5,-0.5"/>
<text text-anchor="middle" x="166" y="-8.5" font-family="Helvetica,sans-Serif" font-size="10.00">jack/weakmacros.h</text>
</a>
</g>
<!-- Node1&#45;&gt;Node3 -->
<g id="edge4" class="edge"><title>Node1&#45;&gt;Node3</title>
<path fill="none" stroke="midnightblue" d="M117.822,-58.3619C126.221,-50.1043 138.054,-38.4725 147.89,-28.8029"/>
<polygon fill="midnightblue" stroke="midnightblue" points="150.569,-31.077 155.247,-21.5707 145.662,-26.0851 150.569,-31.077"/>
</g>
</g>
</svg>
