<?xml version="1.0" encoding="UTF-8" standalone="no"?>
<!DOCTYPE svg PUBLIC "-//W3C//DTD SVG 1.1//EN"
 "http://www.w3.org/Graphics/SVG/1.1/DTD/svg11.dtd">
<!-- Generated by graphviz version 2.26.3 (20100126.1600)
 -->
<!-- Title: G Pages: 1 -->
<svg width="348pt" height="320pt"
 viewBox="0.00 0.00 348.00 320.00" xmlns="http://www.w3.org/2000/svg" xmlns:xlink="http://www.w3.org/1999/xlink">
<g id="graph1" class="graph" transform="scale(1 1) rotate(0) translate(4 316)">
<title>G</title>
<!-- Node1 -->
<g id="node1" class="node"><title>Node1</title>
<polygon fill="#bfbfbf" stroke="black" points="122.5,-290.5 122.5,-311.5 249.5,-311.5 249.5,-290.5 122.5,-290.5"/>
<text text-anchor="middle" x="186" y="-298.5" font-family="Helvetica,sans-Serif" font-size="10.00">libear/src/fftwadapter.cpp</text>
</g>
<!-- Node2 -->
<g id="node3" class="node"><title>Node2</title>
<a xlink:href="../../d7/d55/fftwadapter_8h.html" target="_top" xlink:title="fftwadapter.h">
<polygon fill="none" stroke="black" points="149,-232.5 149,-253.5 223,-253.5 223,-232.5 149,-232.5"/>
<text text-anchor="middle" x="186" y="-240.5" font-family="Helvetica,sans-Serif" font-size="10.00">fftwadapter.h</text>
</a>
</g>
<!-- Node1&#45;&gt;Node2 -->
<g id="edge2" class="edge"><title>Node1&#45;&gt;Node2</title>
<path fill="none" stroke="midnightblue" d="M186,-290.362C186,-282.922 186,-272.743 186,-263.728"/>
<polygon fill="midnightblue" stroke="midnightblue" points="189.5,-263.571 186,-253.571 182.5,-263.571 189.5,-263.571"/>
</g>
<!-- Node3 -->
<g id="node5" class="node"><title>Node3</title>
<a xlink:href="../../df/d89/jack_8h.html" target="_top" xlink:title="jack/jack.h">
<polygon fill="none" stroke="black" points="94,-174.5 94,-195.5 158,-195.5 158,-174.5 94,-174.5"/>
<text text-anchor="middle" x="126" y="-182.5" font-family="Helvetica,sans-Serif" font-size="10.00">jack/jack.h</text>
</a>
</g>
<!-- Node2&#45;&gt;Node3 -->
<g id="edge4" class="edge"><title>Node2&#45;&gt;Node3</title>
<path fill="none" stroke="midnightblue" d="M174.995,-232.362C166.453,-224.104 154.42,-212.472 144.417,-202.803"/>
<polygon fill="midnightblue" stroke="midnightblue" points="146.558,-200.004 136.935,-195.571 141.692,-205.037 146.558,-200.004"/>
</g>
<!-- Node8 -->
<g id="node18" class="node"><title>Node8</title>
<a xlink:href="../../d7/d5e/fftw3_8h.html" target="_top" xlink:title="fftw3.h">
<polygon fill="none" stroke="black" points="223.5,-174.5 223.5,-195.5 270.5,-195.5 270.5,-174.5 223.5,-174.5"/>
<text text-anchor="middle" x="247" y="-182.5" font-family="Helvetica,sans-Serif" font-size="10.00">fftw3.h</text>
</a>
</g>
<!-- Node2&#45;&gt;Node8 -->
<g id="edge20" class="edge"><title>Node2&#45;&gt;Node8</title>
<path fill="none" stroke="midnightblue" d="M197.188,-232.362C205.959,-224.023 218.349,-212.242 228.578,-202.516"/>
<polygon fill="midnightblue" stroke="midnightblue" points="231.047,-204.998 235.883,-195.571 226.224,-199.925 231.047,-204.998"/>
</g>
<!-- Node4 -->
<g id="node7" class="node"><title>Node4</title>
<a xlink:href="../../d2/d07/systemdeps_8h.html" target="_top" xlink:title="jack/systemdeps.h">
<polygon fill="none" stroke="black" points="-0.5,-0.5 -0.5,-21.5 98.5,-21.5 98.5,-0.5 -0.5,-0.5"/>
<text text-anchor="middle" x="49" y="-8.5" font-family="Helvetica,sans-Serif" font-size="10.00">jack/systemdeps.h</text>
</a>
</g>
<!-- Node3&#45;&gt;Node4 -->
<g id="edge6" class="edge"><title>Node3&#45;&gt;Node4</title>
<path fill="none" stroke="midnightblue" d="M109.141,-174.43C96.3812,-165.802 79.054,-152.673 67,-138 48.5772,-115.575 43.8612,-108.199 37,-80 33.0601,-63.807 36.7789,-45.1744 41.0848,-31.3563"/>
<polygon fill="midnightblue" stroke="midnightblue" points="44.4124,-32.4429 44.3749,-21.8481 37.7972,-30.1538 44.4124,-32.4429"/>
</g>
<!-- Node5 -->
<g id="node9" class="node"><title>Node5</title>
<a xlink:href="../../d9/d49/types_8h.html" target="_top" xlink:title="jack/types.h">
<polygon fill="none" stroke="black" points="46,-58.5 46,-79.5 116,-79.5 116,-58.5 46,-58.5"/>
<text text-anchor="middle" x="81" y="-66.5" font-family="Helvetica,sans-Serif" font-size="10.00">jack/types.h</text>
</a>
</g>
<!-- Node3&#45;&gt;Node5 -->
<g id="edge8" class="edge"><title>Node3&#45;&gt;Node5</title>
<path fill="none" stroke="midnightblue" d="M108.497,-174.481C96.5947,-166.228 81.8155,-153.549 75,-138 68.3069,-122.73 70.6242,-103.759 74.1549,-89.5766"/>
<polygon fill="midnightblue" stroke="midnightblue" points="77.565,-90.3824 76.9623,-79.8048 70.8371,-88.4496 77.565,-90.3824"/>
</g>
<!-- Node6 -->
<g id="node12" class="node"><title>Node6</title>
<a xlink:href="../../d2/d02/transport_8h.html" target="_top" xlink:title="jack/transport.h">
<polygon fill="none" stroke="black" points="84,-116.5 84,-137.5 168,-137.5 168,-116.5 84,-116.5"/>
<text text-anchor="middle" x="126" y="-124.5" font-family="Helvetica,sans-Serif" font-size="10.00">jack/transport.h</text>
</a>
</g>
<!-- Node3&#45;&gt;Node6 -->
<g id="edge12" class="edge"><title>Node3&#45;&gt;Node6</title>
<path fill="none" stroke="midnightblue" d="M126,-174.362C126,-166.922 126,-156.743 126,-147.728"/>
<polygon fill="midnightblue" stroke="midnightblue" points="129.5,-147.571 126,-137.571 122.5,-147.571 129.5,-147.571"/>
</g>
<!-- Node7 -->
<g id="node15" class="node"><title>Node7</title>
<a xlink:href="../../dc/db4/weakmacros_8h.html" target="_top" xlink:title="jack/weakmacros.h">
<polygon fill="none" stroke="black" points="139.5,-58.5 139.5,-79.5 240.5,-79.5 240.5,-58.5 139.5,-58.5"/>
<text text-anchor="middle" x="190" y="-66.5" font-family="Helvetica,sans-Serif" font-size="10.00">jack/weakmacros.h</text>
</a>
</g>
<!-- Node3&#45;&gt;Node7 -->
<g id="edge18" class="edge"><title>Node3&#45;&gt;Node7</title>
<path fill="none" stroke="midnightblue" d="M142.401,-174.236C153.925,-165.779 168.71,-152.953 177,-138 185.208,-123.194 188.336,-104.147 189.481,-89.8163"/>
<polygon fill="midnightblue" stroke="midnightblue" points="192.993,-89.679 190.032,-79.5062 186.003,-89.305 192.993,-89.679"/>
</g>
<!-- Node5&#45;&gt;Node4 -->
<g id="edge10" class="edge"><title>Node5&#45;&gt;Node4</title>
<path fill="none" stroke="midnightblue" d="M75.1307,-58.3619C70.8454,-50.5949 64.9131,-39.8426 59.7839,-30.5458"/>
<polygon fill="midnightblue" stroke="midnightblue" points="62.7274,-28.6357 54.8321,-21.5707 56.5984,-32.0172 62.7274,-28.6357"/>
</g>
<!-- Node6&#45;&gt;Node5 -->
<g id="edge14" class="edge"><title>Node6&#45;&gt;Node5</title>
<path fill="none" stroke="midnightblue" d="M117.746,-116.362C111.53,-108.35 102.849,-97.1605 95.485,-87.6696"/>
<polygon fill="midnightblue" stroke="midnightblue" points="98.0967,-85.326 89.2014,-79.5707 92.5661,-89.617 98.0967,-85.326"/>
</g>
<!-- Node6&#45;&gt;Node7 -->
<g id="edge16" class="edge"><title>Node6&#45;&gt;Node7</title>
<path fill="none" stroke="midnightblue" d="M137.739,-116.362C146.941,-108.023 159.94,-96.2418 170.672,-86.5162"/>
<polygon fill="midnightblue" stroke="midnightblue" points="173.276,-88.8793 178.336,-79.5707 168.576,-83.6924 173.276,-88.8793"/>
</g>
<!-- Node9 -->
<g id="node20" class="node"><title>Node9</title>
<polygon fill="none" stroke="#bfbfbf" points="224,-116.5 224,-137.5 270,-137.5 270,-116.5 224,-116.5"/>
<text text-anchor="middle" x="247" y="-124.5" font-family="Helvetica,sans-Serif" font-size="10.00">stdio.h</text>
</g>
<!-- Node8&#45;&gt;Node9 -->
<g id="edge22" class="edge"><title>Node8&#45;&gt;Node9</title>
<path fill="none" stroke="midnightblue" d="M247,-174.362C247,-166.922 247,-156.743 247,-147.728"/>
<polygon fill="midnightblue" stroke="midnightblue" points="250.5,-147.571 247,-137.571 243.5,-147.571 250.5,-147.571"/>
</g>
<!-- Node10 -->
<g id="node22" class="node"><title>Node10</title>
<polygon fill="none" stroke="#bfbfbf" points="288,-116.5 288,-137.5 340,-137.5 340,-116.5 288,-116.5"/>
<text text-anchor="middle" x="314" y="-124.5" font-family="Helvetica,sans-Serif" font-size="10.00">stddef.h</text>
</g>
<!-- Node8&#45;&gt;Node10 -->
<g id="edge24" class="edge"><title>Node8&#45;&gt;Node10</title>
<path fill="none" stroke="midnightblue" d="M259.289,-174.362C269.017,-165.941 282.798,-154.011 294.095,-144.231"/>
<polygon fill="midnightblue" stroke="midnightblue" points="296.519,-146.762 301.789,-137.571 291.938,-141.469 296.519,-146.762"/>
</g>
</g>
</svg>
