<?xml version="1.0" encoding="UTF-8" standalone="no"?>
<!DOCTYPE svg PUBLIC "-//W3C//DTD SVG 1.1//EN"
 "http://www.w3.org/Graphics/SVG/1.1/DTD/svg11.dtd">
<!-- Generated by graphviz version 2.26.3 (20100126.1600)
 -->
<!-- Title: G Pages: 1 -->
<!--zoomable 150 -->
<svg id="main" version="1.1" xmlns="http://www.w3.org/2000/svg" xmlns:xlink="http://www.w3.org/1999/xlink" xml:space="preserve" onload="init(evt)">
        <defs>
                <circle id="rim" cx="0" cy="0" r="7"/>
                <circle id="rim2" cx="0" cy="0" r="3.5"/>
                <g id="zoomPlus">
                        <use xlink:href="#rim" fill="#404040">
                                <set attributeName="fill" to="#808080" begin="zoomplus.mouseover" end="zoomplus.mouseout"/>
                        </use>
                        <path d="M-4,0h8M0,-4v8" fill="none" stroke="white" stroke-width="1.5" pointer-events="none"/>
                </g>
                <g id="zoomMin">
                        <use xlink:href="#rim" fill="#404040">
                                <set attributeName="fill" to="#808080" begin="zoomminus.mouseover" end="zoomminus.mouseout"/>
                        </use>
                        <path d="M-4,0h8" fill="none" stroke="white" stroke-width="1.5" pointer-events="none"/>
                </g>
                <g id="dirArrow">
                        <path fill="none" stroke="white" stroke-width="1.5" d="M0,-3.0v7 M-2.5,-0.5L0,-3.0L2.5,-0.5"/>
                </g>
               <g id="resetDef">
                       <use xlink:href="#rim2" fill="#404040">
                               <set attributeName="fill" to="#808080" begin="reset.mouseover" end="reset.mouseout"/>
                       </use>
               </g>
        </defs>

<script type="text/javascript">
var viewWidth = 502;
var viewHeight = 150;
var sectionId = 'dynsection-1';
</script>
<script xlink:href="../../svgpan.js"/>
<svg id="graph" class="graph">
<g id="viewport">
<title>G</title>
<!-- Node1 -->
<g id="node1" class="node"><title>Node1</title>
<polygon fill="#bfbfbf" stroke="black" points="0.5,-60.5 0.5,-81.5 141.5,-81.5 141.5,-60.5 0.5,-60.5"/>
<text text-anchor="middle" x="71" y="-68.5" font-family="Helvetica,sans-Serif" font-size="10.00">EarProcessor::EarProcessor</text>
</g>
<!-- Node2 -->
<g id="node3" class="node"><title>Node2</title>
<a xlink:href="../../d2/dd5/classEarProcessor.html#ac3bc4f3ef240e7f4d020ea0ebe1f30f3" target="_top" xlink:title="EarProcessor::calibrationFinished">
<polygon fill="none" stroke="black" points="189.5,-120.5 189.5,-141.5 352.5,-141.5 352.5,-120.5 189.5,-120.5"/>
<text text-anchor="middle" x="271" y="-128.5" font-family="Helvetica,sans-Serif" font-size="10.00">EarProcessor::calibrationFinished</text>
</a>
</g>
<!-- Node1&#45;&gt;Node2 -->
<g id="edge2" class="edge"><title>Node1&#45;&gt;Node2</title>
<path fill="none" stroke="midnightblue" d="M96.1585,-81.5958C117.622,-90.3458 149.45,-102.642 178,-111 186.846,-113.59 196.256,-116.001 205.562,-118.188"/>
<polygon fill="midnightblue" stroke="midnightblue" points="205.061,-121.664 215.589,-120.472 206.616,-114.838 205.061,-121.664"/>
</g>
<!-- Node3 -->
<g id="node5" class="node"><title>Node3</title>
<a xlink:href="../../d7/d2c/classJackAdapter.html#a431136befd01cac7ecbdf19099075b4d" target="_top" xlink:title="JackAdapter::instance">
<polygon fill="none" stroke="black" points="214,-80.5 214,-101.5 328,-101.5 328,-80.5 214,-80.5"/>
<text text-anchor="middle" x="271" y="-88.5" font-family="Helvetica,sans-Serif" font-size="10.00">JackAdapter::instance</text>
</a>
</g>
<!-- Node1&#45;&gt;Node3 -->
<g id="edge4" class="edge"><title>Node1&#45;&gt;Node3</title>
<path fill="none" stroke="midnightblue" d="M141.513,-78.0513C161.813,-80.0813 183.893,-82.2893 203.976,-84.2976"/>
<polygon fill="midnightblue" stroke="midnightblue" points="203.666,-87.784 213.965,-85.2965 204.363,-80.8188 203.666,-87.784"/>
</g>
<!-- Node4 -->
<g id="node7" class="node"><title>Node4</title>
<a xlink:href="../../d7/d2c/classJackAdapter.html#a675123d2fa6f327d18985fecf305bb56" target="_top" xlink:title="JackAdapter::registerStereoInputPort">
<polygon fill="none" stroke="black" points="182,-40.5 182,-61.5 360,-61.5 360,-40.5 182,-40.5"/>
<text text-anchor="middle" x="271" y="-48.5" font-family="Helvetica,sans-Serif" font-size="10.00">JackAdapter::registerStereoInputPort</text>
</a>
</g>
<!-- Node1&#45;&gt;Node4 -->
<g id="edge6" class="edge"><title>Node1&#45;&gt;Node4</title>
<path fill="none" stroke="midnightblue" d="M141.513,-63.9487C151.297,-62.9703 161.495,-61.9505 171.683,-60.9317"/>
<polygon fill="midnightblue" stroke="midnightblue" points="172.251,-64.3925 181.853,-59.9147 171.554,-57.4272 172.251,-64.3925"/>
</g>
<!-- Node6 -->
<g id="node11" class="node"><title>Node6</title>
<a xlink:href="../../d7/d2c/classJackAdapter.html#a3cbec70a8bbaecb9f4d1fbdbdbf5a4fd" target="_top" xlink:title="JackAdapter::registerStereoOutputPort">
<polygon fill="none" stroke="black" points="178.5,-0.5 178.5,-21.5 363.5,-21.5 363.5,-0.5 178.5,-0.5"/>
<text text-anchor="middle" x="271" y="-8.5" font-family="Helvetica,sans-Serif" font-size="10.00">JackAdapter::registerStereoOutputPort</text>
</a>
</g>
<!-- Node1&#45;&gt;Node6 -->
<g id="edge10" class="edge"><title>Node1&#45;&gt;Node6</title>
<path fill="none" stroke="midnightblue" d="M96.1585,-60.4042C117.622,-51.6542 149.45,-39.3578 178,-31 186.846,-28.4103 196.256,-25.9992 205.562,-23.8119"/>
<polygon fill="midnightblue" stroke="midnightblue" points="206.616,-27.1617 215.589,-21.5284 205.061,-20.3364 206.616,-27.1617"/>
</g>
<!-- Node5 -->
<g id="node9" class="node"><title>Node5</title>
<a xlink:href="../../de/d5e/group__PortFunctions.html#ga3e21d145c3c82d273a889272f0e405e7" target="_top" xlink:title="jack_port_register">
<polygon fill="none" stroke="black" points="400,-20.5 400,-41.5 494,-41.5 494,-20.5 400,-20.5"/>
<text text-anchor="middle" x="447" y="-28.5" font-family="Helvetica,sans-Serif" font-size="10.00">jack_port_register</text>
</a>
</g>
<!-- Node4&#45;&gt;Node5 -->
<g id="edge8" class="edge"><title>Node4&#45;&gt;Node5</title>
<path fill="none" stroke="midnightblue" d="M360.031,-40.8828C370.049,-39.7444 380.05,-38.608 389.513,-37.5326"/>
<polygon fill="midnightblue" stroke="midnightblue" points="390.005,-40.9993 399.546,-36.3925 389.215,-34.0441 390.005,-40.9993"/>
</g>
<!-- Node6&#45;&gt;Node5 -->
<g id="edge12" class="edge"><title>Node6&#45;&gt;Node5</title>
<path fill="none" stroke="midnightblue" d="M363.639,-21.5271C372.588,-22.5441 381.473,-23.5537 389.922,-24.5139"/>
<polygon fill="midnightblue" stroke="midnightblue" points="389.656,-28.006 399.987,-25.6576 390.446,-21.0508 389.656,-28.006"/>
</g>
</g>
</svg>
        <g id="navigator" transform="translate(0 0)" fill="#404254">
                <rect fill="#f2f5e9" fill-opacity="0.5" stroke="#606060" stroke-width=".5" x="0" y="0" width="60" height="60"/>
                <use id="zoomplus" xlink:href="#zoomPlus" x="17" y="9" onmousedown="handleZoom(evt,'in')"/>
                <use id="zoomminus" xlink:href="#zoomMin" x="42" y="9" onmousedown="handleZoom(evt,'out')"/>
                <use id="reset" xlink:href="#resetDef" x="30" y="36" onmousedown="handleReset()"/>
                <g id="arrowUp" xlink:href="#dirArrow" transform="translate(30 24)" onmousedown="handlePan(0,-1)">
                  <use xlink:href="#rim" fill="#404040">
                        <set attributeName="fill" to="#808080" begin="arrowUp.mouseover" end="arrowUp.mouseout"/>
                  </use>
                  <path fill="none" stroke="white" stroke-width="1.5" d="M0,-3.0v7 M-2.5,-0.5L0,-3.0L2.5,-0.5"/>
                </g>
                <g id="arrowRight" xlink:href="#dirArrow" transform="rotate(90) translate(36 -43)" onmousedown="handlePan(1,0)">
                  <use xlink:href="#rim" fill="#404040">
                        <set attributeName="fill" to="#808080" begin="arrowRight.mouseover" end="arrowRight.mouseout"/>
                  </use>
                  <path fill="none" stroke="white" stroke-width="1.5" d="M0,-3.0v7 M-2.5,-0.5L0,-3.0L2.5,-0.5"/>
                </g>
                <g id="arrowDown" xlink:href="#dirArrow" transform="rotate(180) translate(-30 -48)" onmousedown="handlePan(0,1)">
                  <use xlink:href="#rim" fill="#404040">
                        <set attributeName="fill" to="#808080" begin="arrowDown.mouseover" end="arrowDown.mouseout"/>
                  </use>
                  <path fill="none" stroke="white" stroke-width="1.5" d="M0,-3.0v7 M-2.5,-0.5L0,-3.0L2.5,-0.5"/>
                </g>
                <g id="arrowLeft" xlink:href="#dirArrow" transform="rotate(270) translate(-36 17)" onmousedown="handlePan(-1,0)">
                  <use xlink:href="#rim" fill="#404040">
                        <set attributeName="fill" to="#808080" begin="arrowLeft.mouseover" end="arrowLeft.mouseout"/>
                  </use>
                  <path fill="none" stroke="white" stroke-width="1.5" d="M0,-3.0v7 M-2.5,-0.5L0,-3.0L2.5,-0.5"/>
                </g>
        </g>
</svg>
