<?xml version="1.0" encoding="UTF-8" standalone="no"?>
<!DOCTYPE svg PUBLIC "-//W3C//DTD SVG 1.1//EN"
 "http://www.w3.org/Graphics/SVG/1.1/DTD/svg11.dtd">
<!-- Generated by graphviz version 2.26.3 (20100126.1600)
 -->
<!-- Title: G Pages: 1 -->
<svg width="262pt" height="146pt"
 viewBox="0.00 0.00 262.00 146.00" xmlns="http://www.w3.org/2000/svg" xmlns:xlink="http://www.w3.org/1999/xlink">
<g id="graph1" class="graph" transform="scale(1 1) rotate(0) translate(4 142)">
<title>G</title>
<!-- Node1 -->
<g id="node1" class="node"><title>Node1</title>
<polygon fill="#bfbfbf" stroke="black" points="66.5,-116.5 66.5,-137.5 239.5,-137.5 239.5,-116.5 66.5,-116.5"/>
<text text-anchor="middle" x="153" y="-124.5" font-family="Helvetica,sans-Serif" font-size="10.00">3rdparty/jack/include/jack/midiport.h</text>
</g>
<!-- Node2 -->
<g id="node3" class="node"><title>Node2</title>
<a xlink:href="../../dc/db4/weakmacros_8h.html" target="_top" xlink:title="jack/weakmacros.h">
<polygon fill="none" stroke="black" points="-0.5,-58.5 -0.5,-79.5 100.5,-79.5 100.5,-58.5 -0.5,-58.5"/>
<text text-anchor="middle" x="50" y="-66.5" font-family="Helvetica,sans-Serif" font-size="10.00">jack/weakmacros.h</text>
</a>
</g>
<!-- Node1&#45;&gt;Node2 -->
<g id="edge2" class="edge"><title>Node1&#45;&gt;Node2</title>
<path fill="none" stroke="midnightblue" d="M134.108,-116.362C118.282,-107.45 95.4774,-94.6087 77.6053,-84.5447"/>
<polygon fill="midnightblue" stroke="midnightblue" points="79.2029,-81.4276 68.772,-79.5707 75.7682,-87.5271 79.2029,-81.4276"/>
</g>
<!-- Node3 -->
<g id="node5" class="node"><title>Node3</title>
<a xlink:href="../../d9/d49/types_8h.html" target="_top" xlink:title="jack/types.h">
<polygon fill="none" stroke="black" points="118,-58.5 118,-79.5 188,-79.5 188,-58.5 118,-58.5"/>
<text text-anchor="middle" x="153" y="-66.5" font-family="Helvetica,sans-Serif" font-size="10.00">jack/types.h</text>
</a>
</g>
<!-- Node1&#45;&gt;Node3 -->
<g id="edge4" class="edge"><title>Node1&#45;&gt;Node3</title>
<path fill="none" stroke="midnightblue" d="M153,-116.362C153,-108.922 153,-98.7427 153,-89.7276"/>
<polygon fill="midnightblue" stroke="midnightblue" points="156.5,-89.5706 153,-79.5707 149.5,-89.5707 156.5,-89.5706"/>
</g>
<!-- Node5 -->
<g id="node9" class="node"><title>Node5</title>
<polygon fill="none" stroke="#bfbfbf" points="206,-58.5 206,-79.5 254,-79.5 254,-58.5 206,-58.5"/>
<text text-anchor="middle" x="230" y="-66.5" font-family="Helvetica,sans-Serif" font-size="10.00">stdlib.h</text>
</g>
<!-- Node1&#45;&gt;Node5 -->
<g id="edge8" class="edge"><title>Node1&#45;&gt;Node5</title>
<path fill="none" stroke="midnightblue" d="M167.123,-116.362C178.52,-107.777 194.758,-95.5459 207.878,-85.6636"/>
<polygon fill="midnightblue" stroke="midnightblue" points="210.085,-88.3829 215.967,-79.5707 205.873,-82.7916 210.085,-88.3829"/>
</g>
<!-- Node4 -->
<g id="node7" class="node"><title>Node4</title>
<a xlink:href="../../d2/d07/systemdeps_8h.html" target="_top" xlink:title="jack/systemdeps.h">
<polygon fill="none" stroke="black" points="103.5,-0.5 103.5,-21.5 202.5,-21.5 202.5,-0.5 103.5,-0.5"/>
<text text-anchor="middle" x="153" y="-8.5" font-family="Helvetica,sans-Serif" font-size="10.00">jack/systemdeps.h</text>
</a>
</g>
<!-- Node3&#45;&gt;Node4 -->
<g id="edge6" class="edge"><title>Node3&#45;&gt;Node4</title>
<path fill="none" stroke="midnightblue" d="M153,-58.3619C153,-50.9219 153,-40.7427 153,-31.7276"/>
<polygon fill="midnightblue" stroke="midnightblue" points="156.5,-31.5706 153,-21.5707 149.5,-31.5707 156.5,-31.5706"/>
</g>
</g>
</svg>
