<?xml version="1.0" encoding="UTF-8" standalone="no"?>
<!DOCTYPE svg PUBLIC "-//W3C//DTD SVG 1.1//EN"
 "http://www.w3.org/Graphics/SVG/1.1/DTD/svg11.dtd">
<!-- Generated by graphviz version 2.26.3 (20100126.1600)
 -->
<!-- Title: G Pages: 1 -->
<svg width="207pt" height="146pt"
 viewBox="0.00 0.00 207.00 146.00" xmlns="http://www.w3.org/2000/svg" xmlns:xlink="http://www.w3.org/1999/xlink">
<g id="graph1" class="graph" transform="scale(1 1) rotate(0) translate(4 142)">
<title>G</title>
<!-- Node1 -->
<g id="node1" class="node"><title>Node1</title>
<polygon fill="#bfbfbf" stroke="black" points="31,-116.5 31,-137.5 199,-137.5 199,-116.5 31,-116.5"/>
<text text-anchor="middle" x="115" y="-124.5" font-family="Helvetica,sans-Serif" font-size="10.00">3rdparty/jack/include/jack/control.h</text>
</g>
<!-- Node2 -->
<g id="node3" class="node"><title>Node2</title>
<a xlink:href="../../d2/df2/jslist_8h.html" target="_top" xlink:title="jack/jslist.h">
<polygon fill="none" stroke="black" points="21,-58.5 21,-79.5 87,-79.5 87,-58.5 21,-58.5"/>
<text text-anchor="middle" x="54" y="-66.5" font-family="Helvetica,sans-Serif" font-size="10.00">jack/jslist.h</text>
</a>
</g>
<!-- Node1&#45;&gt;Node2 -->
<g id="edge2" class="edge"><title>Node1&#45;&gt;Node2</title>
<path fill="none" stroke="midnightblue" d="M103.812,-116.362C95.041,-108.023 82.6509,-96.2418 72.4222,-86.5162"/>
<polygon fill="midnightblue" stroke="midnightblue" points="74.7762,-83.9248 65.1174,-79.5707 69.9527,-88.9978 74.7762,-83.9248"/>
</g>
<!-- Node4 -->
<g id="node7" class="node"><title>Node4</title>
<a xlink:href="../../d2/d07/systemdeps_8h.html" target="_top" xlink:title="jack/systemdeps.h">
<polygon fill="none" stroke="black" points="65.5,-0.5 65.5,-21.5 164.5,-21.5 164.5,-0.5 65.5,-0.5"/>
<text text-anchor="middle" x="115" y="-8.5" font-family="Helvetica,sans-Serif" font-size="10.00">jack/systemdeps.h</text>
</a>
</g>
<!-- Node1&#45;&gt;Node4 -->
<g id="edge8" class="edge"><title>Node1&#45;&gt;Node4</title>
<path fill="none" stroke="midnightblue" d="M115,-116.295C115,-97.1314 115,-56.654 115,-31.8434"/>
<polygon fill="midnightblue" stroke="midnightblue" points="118.5,-31.6792 115,-21.6792 111.5,-31.6792 118.5,-31.6792"/>
</g>
<!-- Node5 -->
<g id="node10" class="node"><title>Node5</title>
<polygon fill="none" stroke="#bfbfbf" points="143,-58.5 143,-79.5 199,-79.5 199,-58.5 143,-58.5"/>
<text text-anchor="middle" x="171" y="-66.5" font-family="Helvetica,sans-Serif" font-size="10.00">stdbool.h</text>
</g>
<!-- Node1&#45;&gt;Node5 -->
<g id="edge10" class="edge"><title>Node1&#45;&gt;Node5</title>
<path fill="none" stroke="midnightblue" d="M125.271,-116.362C133.244,-108.104 144.475,-96.4725 153.811,-86.8029"/>
<polygon fill="midnightblue" stroke="midnightblue" points="156.366,-89.1958 160.794,-79.5707 151.33,-84.3336 156.366,-89.1958"/>
</g>
<!-- Node3 -->
<g id="node5" class="node"><title>Node3</title>
<polygon fill="none" stroke="#bfbfbf" points="0,-0.5 0,-21.5 48,-21.5 48,-0.5 0,-0.5"/>
<text text-anchor="middle" x="24" y="-8.5" font-family="Helvetica,sans-Serif" font-size="10.00">stdlib.h</text>
</g>
<!-- Node2&#45;&gt;Node3 -->
<g id="edge4" class="edge"><title>Node2&#45;&gt;Node3</title>
<path fill="none" stroke="midnightblue" d="M48.4975,-58.3619C44.4801,-50.5949 38.9186,-39.8426 34.1099,-30.5458"/>
<polygon fill="midnightblue" stroke="midnightblue" points="37.1706,-28.8448 29.4676,-21.5707 30.9531,-32.0608 37.1706,-28.8448"/>
</g>
<!-- Node2&#45;&gt;Node4 -->
<g id="edge6" class="edge"><title>Node2&#45;&gt;Node4</title>
<path fill="none" stroke="midnightblue" d="M65.1883,-58.3619C73.959,-50.0226 86.3491,-38.2418 96.5778,-28.5162"/>
<polygon fill="midnightblue" stroke="midnightblue" points="99.0473,-30.9978 103.883,-21.5707 94.2238,-25.9248 99.0473,-30.9978"/>
</g>
</g>
</svg>
