<?xml version="1.0" encoding="UTF-8" standalone="no"?>
<!DOCTYPE svg PUBLIC "-//W3C//DTD SVG 1.1//EN"
 "http://www.w3.org/Graphics/SVG/1.1/DTD/svg11.dtd">
<!-- Generated by graphviz version 2.26.3 (20100126.1600)
 -->
<!-- Title: G Pages: 1 -->
<svg width="248pt" height="204pt"
 viewBox="0.00 0.00 248.00 204.00" xmlns="http://www.w3.org/2000/svg" xmlns:xlink="http://www.w3.org/1999/xlink">
<g id="graph1" class="graph" transform="scale(1 1) rotate(0) translate(4 200)">
<title>G</title>
<!-- Node1 -->
<g id="node1" class="node"><title>Node1</title>
<polygon fill="#bfbfbf" stroke="black" points="12.5,-174.5 12.5,-195.5 169.5,-195.5 169.5,-174.5 12.5,-174.5"/>
<text text-anchor="middle" x="91" y="-182.5" font-family="Helvetica,sans-Serif" font-size="10.00">3rdparty/jack/include/jack/jack.h</text>
</g>
<!-- Node2 -->
<g id="node3" class="node"><title>Node2</title>
<a xlink:href="../../d2/d07/systemdeps_8h.html" target="_top" xlink:title="jack/systemdeps.h">
<polygon fill="none" stroke="black" points="-0.5,-0.5 -0.5,-21.5 98.5,-21.5 98.5,-0.5 -0.5,-0.5"/>
<text text-anchor="middle" x="49" y="-8.5" font-family="Helvetica,sans-Serif" font-size="10.00">jack/systemdeps.h</text>
</a>
</g>
<!-- Node1&#45;&gt;Node2 -->
<g id="edge2" class="edge"><title>Node1&#45;&gt;Node2</title>
<path fill="none" stroke="midnightblue" d="M83.3115,-174.348C70.6753,-156.11 46.0188,-117.256 37,-80 33.079,-63.8024 36.7964,-45.1701 41.0971,-31.3533"/>
<polygon fill="midnightblue" stroke="midnightblue" points="44.4242,-32.441 44.3826,-21.8462 37.8082,-30.1545 44.4242,-32.441"/>
</g>
<!-- Node3 -->
<g id="node5" class="node"><title>Node3</title>
<a xlink:href="../../d9/d49/types_8h.html" target="_top" xlink:title="jack/types.h">
<polygon fill="none" stroke="black" points="46,-58.5 46,-79.5 116,-79.5 116,-58.5 46,-58.5"/>
<text text-anchor="middle" x="81" y="-66.5" font-family="Helvetica,sans-Serif" font-size="10.00">jack/types.h</text>
</a>
</g>
<!-- Node1&#45;&gt;Node3 -->
<g id="edge4" class="edge"><title>Node1&#45;&gt;Node3</title>
<path fill="none" stroke="midnightblue" d="M86.2831,-174.432C82.3792,-165.072 77.1398,-150.926 75,-138 72.3346,-121.9 74.1817,-103.478 76.5058,-89.7204"/>
<polygon fill="midnightblue" stroke="midnightblue" points="79.9583,-90.2999 78.3949,-79.8211 73.0824,-88.9878 79.9583,-90.2999"/>
</g>
<!-- Node4 -->
<g id="node8" class="node"><title>Node4</title>
<a xlink:href="../../d2/d02/transport_8h.html" target="_top" xlink:title="jack/transport.h">
<polygon fill="none" stroke="black" points="84,-116.5 84,-137.5 168,-137.5 168,-116.5 84,-116.5"/>
<text text-anchor="middle" x="126" y="-124.5" font-family="Helvetica,sans-Serif" font-size="10.00">jack/transport.h</text>
</a>
</g>
<!-- Node1&#45;&gt;Node4 -->
<g id="edge8" class="edge"><title>Node1&#45;&gt;Node4</title>
<path fill="none" stroke="midnightblue" d="M97.4195,-174.362C102.156,-166.513 108.732,-155.616 114.382,-146.253"/>
<polygon fill="midnightblue" stroke="midnightblue" points="117.451,-147.941 119.621,-137.571 111.458,-144.324 117.451,-147.941"/>
</g>
<!-- Node5 -->
<g id="node11" class="node"><title>Node5</title>
<a xlink:href="../../dc/db4/weakmacros_8h.html" target="_top" xlink:title="jack/weakmacros.h">
<polygon fill="none" stroke="black" points="139.5,-58.5 139.5,-79.5 240.5,-79.5 240.5,-58.5 139.5,-58.5"/>
<text text-anchor="middle" x="190" y="-66.5" font-family="Helvetica,sans-Serif" font-size="10.00">jack/weakmacros.h</text>
</a>
</g>
<!-- Node1&#45;&gt;Node5 -->
<g id="edge14" class="edge"><title>Node1&#45;&gt;Node5</title>
<path fill="none" stroke="midnightblue" d="M125.258,-174.366C143.366,-166.999 164.397,-155.343 177,-138 187.051,-124.17 189.99,-104.784 190.594,-90.0803"/>
<polygon fill="midnightblue" stroke="midnightblue" points="194.096,-89.9479 190.68,-79.9188 187.096,-89.889 194.096,-89.9479"/>
</g>
<!-- Node3&#45;&gt;Node2 -->
<g id="edge6" class="edge"><title>Node3&#45;&gt;Node2</title>
<path fill="none" stroke="midnightblue" d="M75.1307,-58.3619C70.8454,-50.5949 64.9131,-39.8426 59.7839,-30.5458"/>
<polygon fill="midnightblue" stroke="midnightblue" points="62.7274,-28.6357 54.8321,-21.5707 56.5984,-32.0172 62.7274,-28.6357"/>
</g>
<!-- Node4&#45;&gt;Node3 -->
<g id="edge10" class="edge"><title>Node4&#45;&gt;Node3</title>
<path fill="none" stroke="midnightblue" d="M117.746,-116.362C111.53,-108.35 102.849,-97.1605 95.485,-87.6696"/>
<polygon fill="midnightblue" stroke="midnightblue" points="98.0967,-85.326 89.2014,-79.5707 92.5661,-89.617 98.0967,-85.326"/>
</g>
<!-- Node4&#45;&gt;Node5 -->
<g id="edge12" class="edge"><title>Node4&#45;&gt;Node5</title>
<path fill="none" stroke="midnightblue" d="M137.739,-116.362C146.941,-108.023 159.94,-96.2418 170.672,-86.5162"/>
<polygon fill="midnightblue" stroke="midnightblue" points="173.276,-88.8793 178.336,-79.5707 168.576,-83.6924 173.276,-88.8793"/>
</g>
</g>
</svg>
