<?xml version="1.0" encoding="UTF-8" standalone="no"?>
<!DOCTYPE svg PUBLIC "-//W3C//DTD SVG 1.1//EN"
 "http://www.w3.org/Graphics/SVG/1.1/DTD/svg11.dtd">
<!-- Generated by graphviz version 2.26.3 (20100126.1600)
 -->
<!-- Title: G Pages: 1 -->
<svg width="464pt" height="30pt"
 viewBox="0.00 0.00 464.00 30.00" xmlns="http://www.w3.org/2000/svg" xmlns:xlink="http://www.w3.org/1999/xlink">
<g id="graph1" class="graph" transform="scale(1 1) rotate(0) translate(4 26)">
<title>G</title>
<!-- Node1 -->
<g id="node1" class="node"><title>Node1</title>
<polygon fill="#bfbfbf" stroke="black" points="0.5,-0.5 0.5,-21.5 85.5,-21.5 85.5,-0.5 0.5,-0.5"/>
<text text-anchor="middle" x="43" y="-8.5" font-family="Helvetica,sans-Serif" font-size="10.00">jack_deactivate</text>
</g>
<!-- Node2 -->
<g id="node3" class="node"><title>Node2</title>
<a xlink:href="../../d7/d2c/classJackAdapter.html#aa8bdeea946ee8d2e67920e7eb355d74e" target="_top" xlink:title="JackAdapter::stopAudioProcessing">
<polygon fill="none" stroke="black" points="122,-0.5 122,-21.5 292,-21.5 292,-0.5 122,-0.5"/>
<text text-anchor="middle" x="207" y="-8.5" font-family="Helvetica,sans-Serif" font-size="10.00">JackAdapter::stopAudioProcessing</text>
</a>
</g>
<!-- Node1&#45;&gt;Node2 -->
<g id="edge2" class="edge"><title>Node1&#45;&gt;Node2</title>
<path fill="none" stroke="midnightblue" d="M95.6656,-11C104.084,-11 112.978,-11 121.921,-11"/>
<polygon fill="midnightblue" stroke="midnightblue" points="95.661,-7.5001 85.6609,-11 95.6609,-14.5001 95.661,-7.5001"/>
</g>
<!-- Node3 -->
<g id="node5" class="node"><title>Node3</title>
<a xlink:href="../../d6/d1a/classMainWindow.html#ae9a24152987af97d19e1af8ea6bd064e" target="_top" xlink:title="MainWindow::closeEvent">
<polygon fill="none" stroke="black" points="328,-0.5 328,-21.5 456,-21.5 456,-0.5 328,-0.5"/>
<text text-anchor="middle" x="392" y="-8.5" font-family="Helvetica,sans-Serif" font-size="10.00">MainWindow::closeEvent</text>
</a>
</g>
<!-- Node2&#45;&gt;Node3 -->
<g id="edge4" class="edge"><title>Node2&#45;&gt;Node3</title>
<path fill="none" stroke="midnightblue" d="M302.373,-11C311.05,-11 319.693,-11 327.996,-11"/>
<polygon fill="midnightblue" stroke="midnightblue" points="302.19,-7.5001 292.19,-11 302.19,-14.5001 302.19,-7.5001"/>
</g>
</g>
</svg>
