<?xml version="1.0" encoding="UTF-8" standalone="no"?>
<!DOCTYPE svg PUBLIC "-//W3C//DTD SVG 1.1//EN"
 "http://www.w3.org/Graphics/SVG/1.1/DTD/svg11.dtd">
<!-- Generated by graphviz version 2.26.3 (20100126.1600)
 -->
<!-- Title: G Pages: 1 -->
<svg width="342pt" height="70pt"
 viewBox="0.00 0.00 342.00 70.00" xmlns="http://www.w3.org/2000/svg" xmlns:xlink="http://www.w3.org/1999/xlink">
<g id="graph1" class="graph" transform="scale(1 1) rotate(0) translate(4 66)">
<title>G</title>
<!-- Node1 -->
<g id="node1" class="node"><title>Node1</title>
<polygon fill="#bfbfbf" stroke="black" points="0.5,-20.5 0.5,-41.5 115.5,-41.5 115.5,-20.5 0.5,-20.5"/>
<text text-anchor="middle" x="58" y="-28.5" font-family="Helvetica,sans-Serif" font-size="10.00">RandomGenerator::init</text>
</g>
<!-- Node2 -->
<g id="node3" class="node"><title>Node2</title>
<a xlink:href="../../d1/dd1/classJNoise.html#a3e12e8306bbb848df6d6a0e6248de47c" target="_top" xlink:title="JNoise::JNoise">
<polygon fill="none" stroke="black" points="201,-40.5 201,-61.5 285,-61.5 285,-40.5 201,-40.5"/>
<text text-anchor="middle" x="243" y="-48.5" font-family="Helvetica,sans-Serif" font-size="10.00">JNoise::JNoise</text>
</a>
</g>
<!-- Node1&#45;&gt;Node2 -->
<g id="edge2" class="edge"><title>Node1&#45;&gt;Node2</title>
<path fill="none" stroke="midnightblue" d="M125.732,-38.3224C150.851,-41.0379 178.6,-44.0378 200.796,-46.4374"/>
<polygon fill="midnightblue" stroke="midnightblue" points="125.839,-34.8137 115.521,-37.2185 125.087,-41.7731 125.839,-34.8137"/>
</g>
<!-- Node3 -->
<g id="node5" class="node"><title>Node3</title>
<a xlink:href="../../dc/d2b/classRandomGenerator.html#ad68dfb1d3d6164777c27beb1d5869873" target="_top" xlink:title="RandomGenerator::RandomGenerator">
<polygon fill="none" stroke="black" points="152,-0.5 152,-21.5 334,-21.5 334,-0.5 152,-0.5"/>
<text text-anchor="middle" x="243" y="-8.5" font-family="Helvetica,sans-Serif" font-size="10.00">RandomGenerator::RandomGenerator</text>
</a>
</g>
<!-- Node1&#45;&gt;Node3 -->
<g id="edge4" class="edge"><title>Node1&#45;&gt;Node3</title>
<path fill="none" stroke="midnightblue" d="M125.74,-23.6768C134.258,-22.7559 143.079,-21.8023 151.882,-20.8505"/>
<polygon fill="midnightblue" stroke="midnightblue" points="125.087,-20.2269 115.521,-24.7815 125.839,-27.1863 125.087,-20.2269"/>
</g>
</g>
</svg>
