<?xml version="1.0" encoding="UTF-8" standalone="no"?>
<!DOCTYPE svg PUBLIC "-//W3C//DTD SVG 1.1//EN"
 "http://www.w3.org/Graphics/SVG/1.1/DTD/svg11.dtd">
<!-- Generated by graphviz version 2.26.3 (20100126.1600)
 -->
<!-- Title: G Pages: 1 -->
<!--zoomable 150 -->
<svg id="main" version="1.1" xmlns="http://www.w3.org/2000/svg" xmlns:xlink="http://www.w3.org/1999/xlink" xml:space="preserve" onload="init(evt)">
        <defs>
                <circle id="rim" cx="0" cy="0" r="7"/>
                <circle id="rim2" cx="0" cy="0" r="3.5"/>
                <g id="zoomPlus">
                        <use xlink:href="#rim" fill="#404040">
                                <set attributeName="fill" to="#808080" begin="zoomplus.mouseover" end="zoomplus.mouseout"/>
                        </use>
                        <path d="M-4,0h8M0,-4v8" fill="none" stroke="white" stroke-width="1.5" pointer-events="none"/>
                </g>
                <g id="zoomMin">
                        <use xlink:href="#rim" fill="#404040">
                                <set attributeName="fill" to="#808080" begin="zoomminus.mouseover" end="zoomminus.mouseout"/>
                        </use>
                        <path d="M-4,0h8" fill="none" stroke="white" stroke-width="1.5" pointer-events="none"/>
                </g>
                <g id="dirArrow">
                        <path fill="none" stroke="white" stroke-width="1.5" d="M0,-3.0v7 M-2.5,-0.5L0,-3.0L2.5,-0.5"/>
                </g>
               <g id="resetDef">
                       <use xlink:href="#rim2" fill="#404040">
                               <set attributeName="fill" to="#808080" begin="reset.mouseover" end="reset.mouseout"/>
                       </use>
               </g>
        </defs>

<script type="text/javascript">
var viewWidth = 652;
var viewHeight = 150;
var sectionId = 'dynsection-0';
</script>
<script xlink:href="../../svgpan.js"/>
<svg id="graph" class="graph">
<g id="viewport">
<title>G</title>
<!-- Node1 -->
<g id="node1" class="node"><title>Node1</title>
<polygon fill="#bfbfbf" stroke="black" points="0,-60.5 0,-81.5 182,-81.5 182,-60.5 0,-60.5"/>
<text text-anchor="middle" x="91" y="-68.5" font-family="Helvetica,sans-Serif" font-size="10.00">RandomGenerator::RandomGenerator</text>
</g>
<!-- Node2 -->
<g id="node3" class="node"><title>Node2</title>
<a xlink:href="../../dc/d2b/classRandomGenerator.html#aa8846493e3be4eb3ae33cc51acb755df" target="_top" xlink:title="RandomGenerator::init">
<polygon fill="none" stroke="black" points="218.5,-60.5 218.5,-81.5 333.5,-81.5 333.5,-60.5 218.5,-60.5"/>
<text text-anchor="middle" x="276" y="-68.5" font-family="Helvetica,sans-Serif" font-size="10.00">RandomGenerator::init</text>
</a>
</g>
<!-- Node1&#45;&gt;Node2 -->
<g id="edge2" class="edge"><title>Node1&#45;&gt;Node2</title>
<path fill="none" stroke="midnightblue" d="M182.145,-71C190.899,-71 199.668,-71 208.141,-71"/>
<polygon fill="midnightblue" stroke="midnightblue" points="208.306,-74.5001 218.306,-71 208.306,-67.5001 208.306,-74.5001"/>
</g>
<!-- Node3 -->
<g id="node5" class="node"><title>Node3</title>
<a xlink:href="../../d6/db0/classPRBSGenerator.html#a177cbca8f3cc1da63b4a29bc50cf2ad9" target="_top" xlink:title="PRBSGenerator::setPoly">
<polygon fill="none" stroke="black" points="370,-120.5 370,-141.5 496,-141.5 496,-120.5 370,-120.5"/>
<text text-anchor="middle" x="433" y="-128.5" font-family="Helvetica,sans-Serif" font-size="10.00">PRBSGenerator::setPoly</text>
</a>
</g>
<!-- Node2&#45;&gt;Node3 -->
<g id="edge4" class="edge"><title>Node2&#45;&gt;Node3</title>
<path fill="none" stroke="midnightblue" d="M299.316,-81.6528C318.188,-90.0969 345.553,-101.941 370,-111 375.861,-113.172 382.08,-115.325 388.239,-117.369"/>
<polygon fill="midnightblue" stroke="midnightblue" points="387.217,-120.717 397.809,-120.478 389.38,-114.059 387.217,-120.717"/>
</g>
<!-- Node5 -->
<g id="node9" class="node"><title>Node5</title>
<a xlink:href="../../d6/db0/classPRBSGenerator.html#a5a5792cabc8312d00ed83decfb1c205a" target="_top" xlink:title="PRBSGenerator::setStat">
<polygon fill="none" stroke="black" points="370.5,-80.5 370.5,-101.5 495.5,-101.5 495.5,-80.5 370.5,-80.5"/>
<text text-anchor="middle" x="433" y="-88.5" font-family="Helvetica,sans-Serif" font-size="10.00">PRBSGenerator::setStat</text>
</a>
</g>
<!-- Node2&#45;&gt;Node5 -->
<g id="edge8" class="edge"><title>Node2&#45;&gt;Node5</title>
<path fill="none" stroke="midnightblue" d="M333.57,-78.3337C342.281,-79.4434 351.363,-80.6004 360.342,-81.7443"/>
<polygon fill="midnightblue" stroke="midnightblue" points="360.05,-85.2352 370.412,-83.027 360.934,-78.2913 360.05,-85.2352"/>
</g>
<!-- Node6 -->
<g id="node11" class="node"><title>Node6</title>
<a xlink:href="../../d6/db0/classPRBSGenerator.html#a2c8b9d44afcef8dae17f7363ac1042a4" target="_top" xlink:title="PRBSGenerator::step">
<polygon fill="none" stroke="black" points="377,-40.5 377,-61.5 489,-61.5 489,-40.5 377,-40.5"/>
<text text-anchor="middle" x="433" y="-48.5" font-family="Helvetica,sans-Serif" font-size="10.00">PRBSGenerator::step</text>
</a>
</g>
<!-- Node2&#45;&gt;Node6 -->
<g id="edge10" class="edge"><title>Node2&#45;&gt;Node6</title>
<path fill="none" stroke="midnightblue" d="M333.57,-63.6663C344.357,-62.2921 355.714,-60.8454 366.74,-59.4408"/>
<polygon fill="midnightblue" stroke="midnightblue" points="367.27,-62.9017 376.747,-58.166 366.385,-55.9578 367.27,-62.9017"/>
</g>
<!-- Node7 -->
<g id="node13" class="node"><title>Node7</title>
<a xlink:href="../../d6/db0/classPRBSGenerator.html#ac72b113883fbfb329e105e34229cfd48" target="_top" xlink:title="PRBSGenerator::stat">
<polygon fill="none" stroke="black" points="378,-0.5 378,-21.5 488,-21.5 488,-0.5 378,-0.5"/>
<text text-anchor="middle" x="433" y="-8.5" font-family="Helvetica,sans-Serif" font-size="10.00">PRBSGenerator::stat</text>
</a>
</g>
<!-- Node2&#45;&gt;Node7 -->
<g id="edge12" class="edge"><title>Node2&#45;&gt;Node7</title>
<path fill="none" stroke="midnightblue" d="M299.316,-60.3472C318.188,-51.9031 345.553,-40.0587 370,-31 375.861,-28.8282 382.08,-26.6752 388.239,-24.6313"/>
<polygon fill="midnightblue" stroke="midnightblue" points="389.38,-27.9409 397.809,-21.5222 387.217,-21.2834 389.38,-27.9409"/>
</g>
<!-- Node4 -->
<g id="node7" class="node"><title>Node4</title>
<a xlink:href="../../d6/db0/classPRBSGenerator.html#a19a3b9cb35dbff18b83d34bcafe22e05" target="_top" xlink:title="PRBSGenerator::poly">
<polygon fill="none" stroke="black" points="532.5,-120.5 532.5,-141.5 643.5,-141.5 643.5,-120.5 532.5,-120.5"/>
<text text-anchor="middle" x="588" y="-128.5" font-family="Helvetica,sans-Serif" font-size="10.00">PRBSGenerator::poly</text>
</a>
</g>
<!-- Node3&#45;&gt;Node4 -->
<g id="edge6" class="edge"><title>Node3&#45;&gt;Node4</title>
<path fill="none" stroke="midnightblue" d="M496.044,-131C504.719,-131 513.644,-131 522.364,-131"/>
<polygon fill="midnightblue" stroke="midnightblue" points="522.479,-134.5 532.479,-131 522.479,-127.5 522.479,-134.5"/>
</g>
</g>
</svg>
        <g id="navigator" transform="translate(0 0)" fill="#404254">
                <rect fill="#f2f5e9" fill-opacity="0.5" stroke="#606060" stroke-width=".5" x="0" y="0" width="60" height="60"/>
                <use id="zoomplus" xlink:href="#zoomPlus" x="17" y="9" onmousedown="handleZoom(evt,'in')"/>
                <use id="zoomminus" xlink:href="#zoomMin" x="42" y="9" onmousedown="handleZoom(evt,'out')"/>
                <use id="reset" xlink:href="#resetDef" x="30" y="36" onmousedown="handleReset()"/>
                <g id="arrowUp" xlink:href="#dirArrow" transform="translate(30 24)" onmousedown="handlePan(0,-1)">
                  <use xlink:href="#rim" fill="#404040">
                        <set attributeName="fill" to="#808080" begin="arrowUp.mouseover" end="arrowUp.mouseout"/>
                  </use>
                  <path fill="none" stroke="white" stroke-width="1.5" d="M0,-3.0v7 M-2.5,-0.5L0,-3.0L2.5,-0.5"/>
                </g>
                <g id="arrowRight" xlink:href="#dirArrow" transform="rotate(90) translate(36 -43)" onmousedown="handlePan(1,0)">
                  <use xlink:href="#rim" fill="#404040">
                        <set attributeName="fill" to="#808080" begin="arrowRight.mouseover" end="arrowRight.mouseout"/>
                  </use>
                  <path fill="none" stroke="white" stroke-width="1.5" d="M0,-3.0v7 M-2.5,-0.5L0,-3.0L2.5,-0.5"/>
                </g>
                <g id="arrowDown" xlink:href="#dirArrow" transform="rotate(180) translate(-30 -48)" onmousedown="handlePan(0,1)">
                  <use xlink:href="#rim" fill="#404040">
                        <set attributeName="fill" to="#808080" begin="arrowDown.mouseover" end="arrowDown.mouseout"/>
                  </use>
                  <path fill="none" stroke="white" stroke-width="1.5" d="M0,-3.0v7 M-2.5,-0.5L0,-3.0L2.5,-0.5"/>
                </g>
                <g id="arrowLeft" xlink:href="#dirArrow" transform="rotate(270) translate(-36 17)" onmousedown="handlePan(-1,0)">
                  <use xlink:href="#rim" fill="#404040">
                        <set attributeName="fill" to="#808080" begin="arrowLeft.mouseover" end="arrowLeft.mouseout"/>
                  </use>
                  <path fill="none" stroke="white" stroke-width="1.5" d="M0,-3.0v7 M-2.5,-0.5L0,-3.0L2.5,-0.5"/>
                </g>
        </g>
</svg>
