<?xml version="1.0" encoding="UTF-8" standalone="no"?>
<!DOCTYPE svg PUBLIC "-//W3C//DTD SVG 1.1//EN"
 "http://www.w3.org/Graphics/SVG/1.1/DTD/svg11.dtd">
<!-- Generated by graphviz version 2.26.3 (20100126.1600)
 -->
<!-- Title: G Pages: 1 -->
<svg width="490pt" height="70pt"
 viewBox="0.00 0.00 490.00 70.00" xmlns="http://www.w3.org/2000/svg" xmlns:xlink="http://www.w3.org/1999/xlink">
<g id="graph1" class="graph" transform="scale(1 1) rotate(0) translate(4 66)">
<title>G</title>
<!-- Node1 -->
<g id="node1" class="node"><title>Node1</title>
<polygon fill="#bfbfbf" stroke="black" points="0,-20.5 0,-41.5 112,-41.5 112,-20.5 0,-20.5"/>
<text text-anchor="middle" x="56" y="-28.5" font-family="Helvetica,sans-Serif" font-size="10.00">PRBSGenerator::step</text>
</g>
<!-- Node2 -->
<g id="node3" class="node"><title>Node2</title>
<a xlink:href="../../dc/d2b/classRandomGenerator.html#aa8846493e3be4eb3ae33cc51acb755df" target="_top" xlink:title="RandomGenerator::init">
<polygon fill="none" stroke="black" points="148.5,-20.5 148.5,-41.5 263.5,-41.5 263.5,-20.5 148.5,-20.5"/>
<text text-anchor="middle" x="206" y="-28.5" font-family="Helvetica,sans-Serif" font-size="10.00">RandomGenerator::init</text>
</a>
</g>
<!-- Node1&#45;&gt;Node2 -->
<g id="edge2" class="edge"><title>Node1&#45;&gt;Node2</title>
<path fill="none" stroke="midnightblue" d="M122.37,-31C131.049,-31 139.885,-31 148.403,-31"/>
<polygon fill="midnightblue" stroke="midnightblue" points="122.281,-27.5001 112.281,-31 122.281,-34.5001 122.281,-27.5001"/>
</g>
<!-- Node3 -->
<g id="node5" class="node"><title>Node3</title>
<a xlink:href="../../d1/dd1/classJNoise.html#a3e12e8306bbb848df6d6a0e6248de47c" target="_top" xlink:title="JNoise::JNoise">
<polygon fill="none" stroke="black" points="349,-40.5 349,-61.5 433,-61.5 433,-40.5 349,-40.5"/>
<text text-anchor="middle" x="391" y="-48.5" font-family="Helvetica,sans-Serif" font-size="10.00">JNoise::JNoise</text>
</a>
</g>
<!-- Node2&#45;&gt;Node3 -->
<g id="edge4" class="edge"><title>Node2&#45;&gt;Node3</title>
<path fill="none" stroke="midnightblue" d="M273.732,-38.3224C298.851,-41.0379 326.6,-44.0378 348.796,-46.4374"/>
<polygon fill="midnightblue" stroke="midnightblue" points="273.839,-34.8137 263.521,-37.2185 273.087,-41.7731 273.839,-34.8137"/>
</g>
<!-- Node4 -->
<g id="node7" class="node"><title>Node4</title>
<a xlink:href="../../dc/d2b/classRandomGenerator.html#ad68dfb1d3d6164777c27beb1d5869873" target="_top" xlink:title="RandomGenerator::RandomGenerator">
<polygon fill="none" stroke="black" points="300,-0.5 300,-21.5 482,-21.5 482,-0.5 300,-0.5"/>
<text text-anchor="middle" x="391" y="-8.5" font-family="Helvetica,sans-Serif" font-size="10.00">RandomGenerator::RandomGenerator</text>
</a>
</g>
<!-- Node2&#45;&gt;Node4 -->
<g id="edge6" class="edge"><title>Node2&#45;&gt;Node4</title>
<path fill="none" stroke="midnightblue" d="M273.74,-23.6768C282.258,-22.7559 291.079,-21.8023 299.882,-20.8505"/>
<polygon fill="midnightblue" stroke="midnightblue" points="273.087,-20.2269 263.521,-24.7815 273.839,-27.1863 273.087,-20.2269"/>
</g>
</g>
</svg>
