<?xml version="1.0" encoding="UTF-8" standalone="no"?>
<!DOCTYPE svg PUBLIC "-//W3C//DTD SVG 1.1//EN"
 "http://www.w3.org/Graphics/SVG/1.1/DTD/svg11.dtd">
<!-- Generated by graphviz version 2.26.3 (20100126.1600)
 -->
<!-- Title: G Pages: 1 -->
<svg width="460pt" height="30pt"
 viewBox="0.00 0.00 460.00 30.00" xmlns="http://www.w3.org/2000/svg" xmlns:xlink="http://www.w3.org/1999/xlink">
<g id="graph1" class="graph" transform="scale(1 1) rotate(0) translate(4 26)">
<title>G</title>
<!-- Node1 -->
<g id="node1" class="node"><title>Node1</title>
<polygon fill="#bfbfbf" stroke="black" points="0,-0.5 0,-21.5 74,-21.5 74,-0.5 0,-0.5"/>
<text text-anchor="middle" x="37" y="-8.5" font-family="Helvetica,sans-Serif" font-size="10.00">jack_activate</text>
</g>
<!-- Node2 -->
<g id="node3" class="node"><title>Node2</title>
<a xlink:href="../../d7/d2c/classJackAdapter.html#ada1468e1b1b4f853d017c480e6b989a4" target="_top" xlink:title="JackAdapter::startAudioProcessing">
<polygon fill="none" stroke="black" points="110,-0.5 110,-21.5 280,-21.5 280,-0.5 110,-0.5"/>
<text text-anchor="middle" x="195" y="-8.5" font-family="Helvetica,sans-Serif" font-size="10.00">JackAdapter::startAudioProcessing</text>
</a>
</g>
<!-- Node1&#45;&gt;Node2 -->
<g id="edge2" class="edge"><title>Node1&#45;&gt;Node2</title>
<path fill="none" stroke="midnightblue" d="M84.0711,-11C92.2451,-11 100.967,-11 109.794,-11"/>
<polygon fill="midnightblue" stroke="midnightblue" points="84.044,-7.5001 74.044,-11 84.0439,-14.5001 84.044,-7.5001"/>
</g>
<!-- Node3 -->
<g id="node5" class="node"><title>Node3</title>
<a xlink:href="../../d6/d1a/classMainWindow.html#a8b244be8b7b7db1b08de2a2acb9409db" target="_top" xlink:title="MainWindow::MainWindow">
<polygon fill="none" stroke="black" points="316.5,-0.5 316.5,-21.5 451.5,-21.5 451.5,-0.5 316.5,-0.5"/>
<text text-anchor="middle" x="384" y="-8.5" font-family="Helvetica,sans-Serif" font-size="10.00">MainWindow::MainWindow</text>
</a>
</g>
<!-- Node2&#45;&gt;Node3 -->
<g id="edge4" class="edge"><title>Node2&#45;&gt;Node3</title>
<path fill="none" stroke="midnightblue" d="M290.383,-11C299.154,-11 307.915,-11 316.363,-11"/>
<polygon fill="midnightblue" stroke="midnightblue" points="290.101,-7.5001 280.101,-11 290.101,-14.5001 290.101,-7.5001"/>
</g>
</g>
</svg>
