<?xml version="1.0" encoding="UTF-8" standalone="no"?>
<!DOCTYPE svg PUBLIC "-//W3C//DTD SVG 1.1//EN"
 "http://www.w3.org/Graphics/SVG/1.1/DTD/svg11.dtd">
<!-- Generated by graphviz version 2.26.3 (20100126.1600)
 -->
<!-- Title: G Pages: 1 -->
<svg width="343pt" height="146pt"
 viewBox="0.00 0.00 343.00 146.00" xmlns="http://www.w3.org/2000/svg" xmlns:xlink="http://www.w3.org/1999/xlink">
<g id="graph1" class="graph" transform="scale(1 1) rotate(0) translate(4 142)">
<title>G</title>
<!-- Node1 -->
<g id="node1" class="node"><title>Node1</title>
<polygon fill="#bfbfbf" stroke="black" points="120,-116.5 120,-137.5 264,-137.5 264,-116.5 120,-116.5"/>
<text text-anchor="middle" x="192" y="-124.5" font-family="Helvetica,sans-Serif" font-size="10.00">gui/include/visualizerwidget.h</text>
</g>
<!-- Node2 -->
<g id="node3" class="node"><title>Node2</title>
<a xlink:href="../../d9/d53/mainwindow_8h.html" target="_top" xlink:title="gui/include/mainwindow.h">
<polygon fill="none" stroke="black" points="53,-58.5 53,-79.5 181,-79.5 181,-58.5 53,-58.5"/>
<text text-anchor="middle" x="117" y="-66.5" font-family="Helvetica,sans-Serif" font-size="10.00">gui/include/mainwindow.h</text>
</a>
</g>
<!-- Node1&#45;&gt;Node2 -->
<g id="edge2" class="edge"><title>Node1&#45;&gt;Node2</title>
<path fill="none" stroke="midnightblue" d="M169.985,-109.975C157.256,-100.132 141.639,-88.0545 130.669,-79.5707"/>
<polygon fill="midnightblue" stroke="midnightblue" points="168.192,-113.013 178.244,-116.362 172.474,-107.476 168.192,-113.013"/>
</g>
<!-- Node5 -->
<g id="node9" class="node"><title>Node5</title>
<a xlink:href="../../db/d0a/visualizerwidget_8cpp.html" target="_top" xlink:title="gui/src/visualizerwidget.cpp">
<polygon fill="none" stroke="black" points="198.5,-58.5 198.5,-79.5 335.5,-79.5 335.5,-58.5 198.5,-58.5"/>
<text text-anchor="middle" x="267" y="-66.5" font-family="Helvetica,sans-Serif" font-size="10.00">gui/src/visualizerwidget.cpp</text>
</a>
</g>
<!-- Node1&#45;&gt;Node5 -->
<g id="edge8" class="edge"><title>Node1&#45;&gt;Node5</title>
<path fill="none" stroke="midnightblue" d="M214.015,-109.975C226.744,-100.132 242.361,-88.0545 253.331,-79.5707"/>
<polygon fill="midnightblue" stroke="midnightblue" points="211.526,-107.476 205.756,-116.362 215.808,-113.013 211.526,-107.476"/>
</g>
<!-- Node3 -->
<g id="node5" class="node"><title>Node3</title>
<a xlink:href="../../d0/db5/launcher_8cpp.html" target="_top" xlink:title="gui/src/launcher.cpp">
<polygon fill="none" stroke="black" points="0,-0.5 0,-21.5 104,-21.5 104,-0.5 0,-0.5"/>
<text text-anchor="middle" x="52" y="-8.5" font-family="Helvetica,sans-Serif" font-size="10.00">gui/src/launcher.cpp</text>
</a>
</g>
<!-- Node2&#45;&gt;Node3 -->
<g id="edge4" class="edge"><title>Node2&#45;&gt;Node3</title>
<path fill="none" stroke="midnightblue" d="M97.6017,-51.6908C86.6289,-41.8996 73.2628,-29.973 63.8464,-21.5707"/>
<polygon fill="midnightblue" stroke="midnightblue" points="95.2863,-54.3155 105.078,-58.3619 99.9468,-49.0925 95.2863,-54.3155"/>
</g>
<!-- Node4 -->
<g id="node7" class="node"><title>Node4</title>
<a xlink:href="../../d8/dd9/mainwindow_8cpp.html" target="_top" xlink:title="gui/src/mainwindow.cpp">
<polygon fill="none" stroke="black" points="122,-0.5 122,-21.5 244,-21.5 244,-0.5 122,-0.5"/>
<text text-anchor="middle" x="183" y="-8.5" font-family="Helvetica,sans-Serif" font-size="10.00">gui/src/mainwindow.cpp</text>
</a>
</g>
<!-- Node2&#45;&gt;Node4 -->
<g id="edge6" class="edge"><title>Node2&#45;&gt;Node4</title>
<path fill="none" stroke="midnightblue" d="M136.697,-51.6908C147.838,-41.8996 161.41,-29.973 170.971,-21.5707"/>
<polygon fill="midnightblue" stroke="midnightblue" points="134.307,-49.1316 129.105,-58.3619 138.928,-54.3898 134.307,-49.1316"/>
</g>
</g>
</svg>
